<svg xmlns="http://www.w3.org/2000/svg" xmlns:xlink="http://www.w3.org/1999/xlink" viewBox="0 0 16.43 28.19"><defs><style>.cls-1{fill:none;}.cls-2{fill:#e2bf9c;}.cls-3{fill:#f2d1ac;}.cls-4{clip-path:url(#clip-path);}.cls-5{fill:#c09a80;}.cls-6{fill:#d3a789;}.cls-7{fill:#e0b89b;}.cls-8{fill:#070708;}.cls-9{fill:#718faf;}.cls-10{fill:#9a1c1f;}.cls-11{fill:#191919;}.cls-12{fill:#383838;}.cls-13{fill:#6b6b6b;}</style><clipPath id="clip-path"><rect class="cls-1" x="6.65" y="18.61" width="3.49" height="2.09"/></clipPath></defs><g id="Layer_2" data-name="Layer 2"><g id="avatars"><g id="row-02"><g id="avatar-02-32"><path class="cls-2" d="M8.39,16.47V28.19H2.09l-.16-.06c0-4.84,2.28-6.23,3.33-6.62a2.3,2.3,0,0,1,.53-.14c.38,0,.63-.5.8-1.26l.06-.37c0-.21.06-.44.09-.68s0-.28,0-.43c.06-.72.07-1.51.07-2.24,0,0,.85.08,1.54.08"/><path class="cls-3" d="M14.87,28.13a.52.52,0,0,0-.15.06H8.39V16.47h0c.68,0,1.54-.08,1.54-.08,0,.73,0,1.51.07,2.23,0,.14,0,.28,0,.41s0,.49.09.7h0a2.33,2.33,0,0,0,0,.28c.16.8.42,1.35.82,1.35a3.1,3.1,0,0,1,.79.25c1.13.52,3.07,2.06,3.07,6.51"/><g class="cls-4"><path class="cls-5" d="M10.14,19.73h0a2,2,0,0,1-1.75,1h0a2.22,2.22,0,0,1-1.74-1c0-.21.07-.44.09-.68s0-.28,0-.43a7.19,7.19,0,0,0,1.59.21h0A6.4,6.4,0,0,0,10,18.61c0,.14,0,.29,0,.42s.06.48.09.7"/></g><path class="cls-6" d="M8.27,3C1.59,3,1.56,8.68,1.85,12.37c-.45-.87-1.81-.6-1.7.78s2,2,2,1.86c.55,3,3.69,4.8,6.13,4.8h.05V3H8.27"/><path class="cls-5" d="M.58,12.57a.62.62,0,0,1,1-.19A.55.55,0,0,1,1.7,13c-.05.18-.23.19-.19.46a.45.45,0,0,0,.27.39A.66.66,0,0,1,2,14.1a.82.82,0,0,1,0,.38c-.06.21-.37,0-.58-.06a4,4,0,0,1-.69-.56,1.23,1.23,0,0,1-.19-1.29"/><path class="cls-7" d="M8.3,3C15,3,15,8.68,14.72,12.37c.46-.87,1.81-.6,1.7.78s-2,2-2,1.86c-.54,3-3.68,4.8-6.12,4.8H8.25V3H8.3"/><path class="cls-5" d="M16,12.57a.62.62,0,0,0-1-.19.57.57,0,0,0-.16.61c.05.18.23.19.19.46a.45.45,0,0,1-.27.39.64.64,0,0,0-.22.26.62.62,0,0,0,0,.38c.05.21.36,0,.57-.06a4,4,0,0,0,.69-.56A1.23,1.23,0,0,0,16,12.57"/><path class="cls-2" d="M8.35,4.62c-2.2,0-3.81.65-4.78,1.92C2.21,8.32,2.26,11,2.76,13c.15.6.23,2.21.34,2.79.47,2.64,3.35,4,5.25,4H8.4V4.62H8.35"/><path class="cls-3" d="M13.11,6.54A5.61,5.61,0,0,0,8.4,4.62V19.81c2.16,0,4.74-1.56,5.19-4,.1-.58.18-2.19.33-2.79.51-1.94.55-4.65-.81-6.44"/><path class="cls-8" d="M14.87,28.13a.52.52,0,0,0-.15.06H2.09l-.16-.06c0-4.84,2.28-6.23,3.33-6.62.61.31,1.6.81,2,1a2.76,2.76,0,0,0,1.18.41,7.79,7.79,0,0,0,1.75-.52,10.38,10.38,0,0,0,1.66-.75c1.13.52,3.07,2.06,3.07,6.51"/><path class="cls-9" d="M13.46,28.19H3.34c0-.5.06-1.41,0-2.63v-.23a2.62,2.62,0,0,0,0-.27c0-.06,0-.13,0-.19,0-.49-.12-1.07-.22-1.68a5.09,5.09,0,0,1,.93-1l.09-.07a3.9,3.9,0,0,1,1.1-.63l.16-.06a2.75,2.75,0,0,1,.37-.09.48.48,0,0,0,.32-.13h0l.1-.11a.36.36,0,0,1,0,.12A22.17,22.17,0,0,0,8.4,23.24a21.72,21.72,0,0,0,2.13-2.07.3.3,0,0,1,.06-.12l.09.11h0a.52.52,0,0,0,.32.13,2.91,2.91,0,0,1,.35.08l.16.06a4.1,4.1,0,0,1,1.12.63l.08.07a4.68,4.68,0,0,1,.94,1.05c-.1.62-.18,1.22-.21,1.71a.71.71,0,0,0,0,.2,1.28,1.28,0,0,0,0,.19v.23c0,1.24,0,2.17.05,2.67"/><polygon class="cls-10" points="5.82 24.02 5.82 24.02 5.81 24.02 5.17 22.9 4.53 21.77 3.89 22.9 3.25 24.02 3.24 24.02 3.25 24.02 3.24 24.03 3.25 24.03 3.89 25.14 4.53 26.27 5.17 25.14 5.81 24.03 5.82 24.03 5.82 24.02"/><polygon class="cls-10" points="8.39 24.02 8.39 24.02 8.39 24.02 7.74 22.9 7.11 21.77 6.47 22.9 5.83 24.02 5.82 24.02 5.82 24.02 5.82 24.03 5.83 24.03 6.47 25.14 7.11 26.27 7.74 25.14 8.39 24.03 8.39 24.03 8.39 24.02"/><polygon class="cls-10" points="10.97 24.02 10.97 24.02 10.96 24.02 10.32 22.9 9.68 21.77 9.04 22.9 8.4 24.02 8.39 24.02 8.4 24.02 8.39 24.03 8.4 24.03 9.04 25.14 9.68 26.27 10.32 25.14 10.96 24.03 10.97 24.03 10.97 24.02"/><polygon class="cls-10" points="13.54 24.02 13.54 24.02 13.54 24.02 12.89 22.9 12.26 21.77 11.62 22.9 10.97 24.02 10.97 24.02 10.97 24.02 10.97 24.03 10.97 24.03 11.62 25.14 12.26 26.27 12.89 25.14 13.54 24.03 13.54 24.03 13.54 24.02"/><polygon class="cls-10" points="5.63 28.19 3.43 28.19 3.89 27.39 4.53 26.27 5.17 27.39 5.63 28.19"/><polygon class="cls-10" points="8.21 28.19 6.01 28.19 6.47 27.39 7.11 26.27 7.74 27.39 8.21 28.19"/><polygon class="cls-10" points="10.78 28.19 8.58 28.19 9.05 27.39 9.68 26.27 10.32 27.39 10.78 28.19"/><polygon class="cls-10" points="13.35 28.19 11.16 28.19 11.62 27.39 12.26 26.27 12.89 27.39 13.35 28.19"/><path class="cls-11" d="M5.87,25.19l0-.06H5.84L5.21,24l-.68-1.21L3.84,24l-.48.83c0,.06,0,.13,0,.19l.56-1,.6-1.05.58,1.05.63,1.09-.63,1.1-.59,1-.59-1-.55-1v.23l.46.78.68,1.21.69-1.21.63-1.09H5.9Z"/><path class="cls-11" d="M7.1,27.55l-.69-1.21-.62-1.09H5.72l0-.06,0-.06h.07L6.41,24l.69-1.21L7.78,24l.63,1.09h.06l0,.06,0,.06H8.41l-.63,1.09ZM5.88,25.19l.63,1.09.59,1,.59-1,.63-1.09L7.69,24.1l-.59-1-.59,1Z"/><path class="cls-11" d="M9.67,27.55,9,26.34l-.63-1.09H8.29l0-.06,0-.06h.07L9,24l.68-1.21L10.36,24,11,25.13h.06l0,.06,0,.06H11l-.63,1.09ZM8.45,25.19l.63,1.09.59,1,.6-1,.62-1.09-.62-1.09-.6-1-.59,1Z"/><path class="cls-11" d="M12.25,23.05l.59,1.05.58,1a.71.71,0,0,1,0-.2L12.93,24l-.68-1.21L11.57,24l-.63,1.09h-.07l0,.05,0,.06h.07l.63,1.09.68,1.21.68-1.21.48-.82v-.23l-.57,1-.59,1-.59-1L11,25.19l.63-1.09Z"/><polygon class="cls-11" points="4.52 27.32 4.03 28.19 4.16 28.19 4.52 27.54 4.89 28.19 5.02 28.19 4.52 27.32"/><polygon class="cls-11" points="7.1 27.32 6.61 28.19 6.74 28.19 7.1 27.54 7.46 28.19 7.59 28.19 7.1 27.32"/><polygon class="cls-11" points="9.67 27.32 9.18 28.19 9.31 28.19 9.67 27.54 10.04 28.19 10.17 28.19 9.67 27.32"/><polygon class="cls-11" points="12.25 27.32 11.76 28.19 11.88 28.19 12.25 27.54 12.61 28.19 12.74 28.19 12.25 27.32"/><path class="cls-11" d="M5.26,21.45l-.73,1.28-.37-.65-.09.07.46.8.89-1.56-.16.06"/><path class="cls-11" d="M12.63,22.07l-.38.66-.74-1.29-.16-.06.9,1.57.46-.81-.08-.07"/><path class="cls-8" d="M10.81,21c-.1-.25-.33-.48-.41-.68s-.27-.61-.27-.61a17.12,17.12,0,0,1-.51,1.7S8.12,23,8.36,23A5.23,5.23,0,0,1,10,24c.32.38.27.73.35.22s.7-2.58.44-3.25"/><path class="cls-8" d="M7.17,21.36a17.12,17.12,0,0,1-.51-1.7s-.13.28-.27.61S6.08,20.7,6,21c-.25.67.36,2.74.44,3.25s0,.16.35-.22A5,5,0,0,1,8.4,23c.23-.05-1.23-1.68-1.23-1.68"/><path class="cls-10" d="M15.11,10.82a2.52,2.52,0,0,0-1.41-.19,19.73,19.73,0,0,0-3.1.46,10.7,10.7,0,0,1-2,.37H8.27a10.7,10.7,0,0,1-2-.37,20,20,0,0,0-3.11-.46,2.5,2.5,0,0,0-1.4.19c-.05.11.09.27.1.39a4.42,4.42,0,0,1,.09.61c0,.17.15.21.31.31,0,0,1.45-.08,1.79-.05s3.08.55,3.23.6a2.77,2.77,0,0,0,.43,0s.13,0,.29-.11a1.68,1.68,0,0,1,.89,0c.16.12.25.12.29.11a2.68,2.68,0,0,0,.43,0c.14,0,2.89-.56,3.23-.6s1.79.05,1.79.05c.16-.1.31-.14.31-.31s.07-.49.08-.61.16-.28.11-.39"/><path class="cls-12" d="M7.81,12.65s-.44,1.29-.59,1.53-.48.49-1.93.28c-.21,0-.4-.06-.57-.1a5.11,5.11,0,0,1-1.67-.54,1.39,1.39,0,0,1-.49-.41,3,3,0,0,1-.46-2.09c.23-.38,2.11-.21,3.35,0l.63.13a3.58,3.58,0,0,1,1,.41c.26.16.34.3.36.37a2.14,2.14,0,0,0,.1.35c.06.09.24.05.24.05"/><path class="cls-12" d="M14.29,13.41c-.3.37-.9.78-2.7,1.05h0c-1.41.2-1.76,0-1.92-.25l0,0C9.47,13.94,9,12.65,9,12.65s.19,0,.25-.05,0-.22.09-.35.3-.5,1.4-.78a14.14,14.14,0,0,1,1.81-.3,4.33,4.33,0,0,1,2.1.09s.05,0,.07.06a3.06,3.06,0,0,1-.46,2.09"/><path class="cls-13" d="M7.12,11.88l-2.4,2.48a5.11,5.11,0,0,1-1.67-.54l2.4-2.48.62.13a3.77,3.77,0,0,1,1,.41"/><path class="cls-13" d="M14.68,11.26l-3.09,3.2h0c-1.41.2-1.76,0-1.92-.25l2.94-3a4.33,4.33,0,0,1,2.1.09"/><path class="cls-8" d="M15.59,4.32c-.64-1.05-.69-.76-.69-.76S15.55.7,11.54.06A8.92,8.92,0,0,0,10,0l.54.58A10.61,10.61,0,0,0,5.62.3,6.47,6.47,0,0,0,1.06,3.42a8.14,8.14,0,0,0-1,2.86L1.11,4.8a7.74,7.74,0,0,0-1,5c.62,5,2.8,5.92,2.8,5.92s-1.5-4.55-.51-6.49C4,6,12.88,6.91,14.61,9.7c.63,1-.32,4.91-.32,4.91a4.61,4.61,0,0,0,1.15-.68c1-1.36.87-4.47.87-5.76A9,9,0,0,0,15.59,4.32Z"/></g></g></g></g></svg>