<svg xmlns="http://www.w3.org/2000/svg" xmlns:xlink="http://www.w3.org/1999/xlink" viewBox="0 0 15.91 25.18"><defs><style>.cls-1{fill:none;}.cls-2{fill:#e2bf9c;}.cls-3{fill:#f2d1ac;}.cls-4{clip-path:url(#clip-path);}.cls-5{fill:#c09a80;}.cls-6{fill:#d3a789;}.cls-7{fill:#e0b89b;}.cls-8{fill:#f9f9fa;}.cls-9{fill:#5c4c52;}.cls-10{fill:#fff;}.cls-11{fill:#3d4d55;}</style><clipPath id="clip-path"><rect class="cls-1" x="6.36" y="15.92" width="3.41" height="2.02"/></clipPath></defs><g id="Layer_2" data-name="Layer 2"><g id="avatars"><g id="row-01"><g id="avatar-01-10"><path class="cls-2" d="M8.06,13.85V25.18H1.9l-.16-.06c0-4.67,2.23-6,3.26-6.4a3,3,0,0,1,.52-.14c.37,0,.61-.48.77-1.21,0-.11,0-.23.07-.35l.09-.66c0-.14,0-.28,0-.42.06-.7.08-1.46.08-2.17,0,0,.83.08,1.5.08"/><path class="cls-3" d="M14.39,25.12l-.15.06H8.06V13.85h0c.67,0,1.5-.08,1.5-.08,0,.71,0,1.46.08,2.15,0,.14,0,.28,0,.41s.05.47.09.68h0a2.16,2.16,0,0,0,.05.27c.16.78.41,1.3.8,1.3a2.86,2.86,0,0,1,.77.25c1.11.5,3,2,3,6.29"/><g class="cls-4"><path class="cls-5" d="M9.77,17h0a2,2,0,0,1-1.71.93h0A2.15,2.15,0,0,1,6.36,17c0-.2.06-.42.08-.65s0-.28,0-.42a6.93,6.93,0,0,0,1.56.2h0a6.09,6.09,0,0,0,1.58-.22c0,.14,0,.28,0,.41s.05.46.09.68"/></g><path class="cls-6" d="M7.94.86c-6.52,0-6.56,5.46-6.27,9C1.22,9.05-.1,9.31,0,10.64s2,1.95,2,1.8c.53,3,3.6,4.64,6,4.64H8V.86h0"/><path class="cls-5" d="M.42,10.08a.62.62,0,0,1,1-.18.54.54,0,0,1,.15.59c-.05.17-.23.18-.18.45a.43.43,0,0,0,.26.37.6.6,0,0,1,.22.25.75.75,0,0,1,0,.36c-.05.21-.36.05-.57-.05a4.17,4.17,0,0,1-.67-.54,1.2,1.2,0,0,1-.19-1.25"/><path class="cls-7" d="M8,.86c6.53,0,6.57,5.46,6.28,9,.44-.84,1.77-.58,1.66.75s-2,1.95-1.95,1.8c-.53,3-3.61,4.64-6,4.64h0V.86H8"/><path class="cls-5" d="M15.49,10.08a.61.61,0,0,0-.94-.18.54.54,0,0,0-.15.59c0,.17.22.18.18.45a.43.43,0,0,1-.26.37.6.6,0,0,0-.22.25.57.57,0,0,0,0,.36c0,.21.36.05.56-.05a3.84,3.84,0,0,0,.68-.54,1.18,1.18,0,0,0,.18-1.25"/><path class="cls-2" d="M8,2.4C5.87,2.4,4.3,3,3.35,4.25,2,6,2.07,8.59,2.56,10.48c.15.58.22,2.13.33,2.7.46,2.55,3.27,3.9,5.12,3.9h.05V2.4H8"/><path class="cls-3" d="M12.68,4.25A5.55,5.55,0,0,0,8.06,2.4V17.08c2.12,0,4.65-1.51,5.08-3.9.1-.57.18-2.12.33-2.7C14,8.6,14,6,12.68,4.25"/><path class="cls-8" d="M14.39,25.12l-.15.06H1.9l-.16-.06c0-4.67,2.23-6,3.26-6.4.6.3,1.56.78,1.91.94a2.62,2.62,0,0,0,1.15.4,8,8,0,0,0,1.71-.51,8.81,8.81,0,0,0,1.62-.72c1.11.5,3,2,3,6.29"/><path class="cls-9" d="M13,25.18H3.12c0-.48.06-1.36,0-2.54v-.22c0-.08,0-.17,0-.26s0-.13,0-.19c0-.47-.12-1-.21-1.62a4.56,4.56,0,0,1,.91-1,.16.16,0,0,1,.08-.06A4,4,0,0,1,5,18.66l.15-.05a2.75,2.75,0,0,1,.37-.09.43.43,0,0,0,.31-.13h0l.09-.11a.32.32,0,0,1,.06.11,15.24,15.24,0,0,0,2.08,3,15,15,0,0,0,2.09-3c0-.06,0-.1.06-.11l.09.11h0a.43.43,0,0,0,.31.13l.35.08.15.06a3.63,3.63,0,0,1,1.09.61.27.27,0,0,1,.08.07,4.15,4.15,0,0,1,.92,1C13.1,21,13,21.53,13,22c0,.07,0,.13,0,.19a1.15,1.15,0,0,1,0,.19v.22c0,1.2,0,2.1,0,2.58"/><path class="cls-10" d="M14.28,9a6.17,6.17,0,0,0-1.61-.25,13.77,13.77,0,0,0-2.45,0A7.49,7.49,0,0,0,9.31,9c-.39.1-.78.24-1,.27a2,2,0,0,1-.4,0H7.9a2.1,2.1,0,0,1-.41,0c-.16,0-.55-.17-1-.27a7.81,7.81,0,0,0-.9-.19,13.8,13.8,0,0,0-2.45,0A6.19,6.19,0,0,0,1.57,9a2,2,0,0,0,0,.77c.07.07.33.21.39.44s.31,1.89.86,2.34a3,3,0,0,0,4.52-1.94c.07-.37.16-.59.33-.65a1,1,0,0,1,.27,0,.89.89,0,0,1,.26,0c.17.06.27.28.34.65A3,3,0,0,0,13,12.59c.56-.45.8-2.11.86-2.34s.32-.37.39-.44A2,2,0,0,0,14.28,9ZM6.84,10.9C6.37,13,4.05,12.78,3.5,12.61c-.25-.07-1-.35-1.08-2.08-.08-1.21.5-1.28,1.32-1.38a6.49,6.49,0,0,1,1.66,0c.4,0,1.34.24,1.43.57A2.33,2.33,0,0,1,6.84,10.9Zm6.6-.37c-.12,1.73-.84,2-1.08,2.08C11.8,12.78,9.49,13,9,10.9A2.45,2.45,0,0,1,9,9.72c.1-.33,1-.52,1.43-.57a6.57,6.57,0,0,1,1.67,0C12.94,9.25,13.52,9.32,13.44,10.53Z"/><path class="cls-11" d="M4,8.49Z"/><path class="cls-11" d="M14.23,3.36c-.55-.81-.58-.58-.58-.58S14.19.54,10.8.05A8.42,8.42,0,0,0,9.47,0l.46.46A9.63,9.63,0,0,0,5.79.23,5.53,5.53,0,0,0,1.94,2.66a5.93,5.93,0,0,0-.85,2.23L2,3.73a5.65,5.65,0,0,0-.89,3.91c.52,3.89,2.37,4.62,2.37,4.62S2.19,9.92,3,8.41A5,5,0,0,1,6.93,5.8,3.55,3.55,0,0,0,4,8.47v0a1.9,1.9,0,0,1,1.18-1.1c.56-.21,1.29-.2,2.12-.42a4.27,4.27,0,0,0-.88,2A5.23,5.23,0,0,1,8.91,7.16L9.24,7a2.14,2.14,0,0,0-.17,2S9,8,11.28,7.41c1.3-.37,1.51-1.09,1.51-1.09A3.8,3.8,0,0,0,13,7.49c.2.53.78.88.82,1.36a9.91,9.91,0,0,1-.42,2.56l.74-.56a21,21,0,0,0,.73-4.48A6.62,6.62,0,0,0,14.23,3.36Z"/><path class="cls-11" d="M10.57,15.9a1.59,1.59,0,0,0-.26-.82L10.16,15c-.1-.07-.25-.17-.44-.28a4.45,4.45,0,0,0-.79-.42,1.53,1.53,0,0,0-.29-.07,3.34,3.34,0,0,0-.59,0H8a3.27,3.27,0,0,0-.59,0,1.37,1.37,0,0,0-.29.07,3.84,3.84,0,0,0-.79.42c-.19.11-.34.21-.44.28l-.16.12a1.81,1.81,0,0,0-.26.82V16a1.76,1.76,0,0,0,.21.86.7.7,0,0,0,.2.27,1,1,0,0,0,.3.19A4.66,4.66,0,0,0,8,17.7h0a4.65,4.65,0,0,0,1.81-.35,1,1,0,0,0,.3-.19.61.61,0,0,0,.2-.27,1.66,1.66,0,0,0,.22-.86S10.57,16,10.57,15.9Zm-.74.86a3.1,3.1,0,0,1-.54.18.3.3,0,0,0,0-.1.37.37,0,0,0-.37-.36H7.15a.36.36,0,0,0-.37.36s0,.07,0,.1a3,3,0,0,1-.53-.18A1.7,1.7,0,0,1,6.11,16a1.41,1.41,0,0,1,0-.21,2.61,2.61,0,0,1,1.56-.71l.36,0,.37,0a2.64,2.64,0,0,1,1.56.71c0,.06,0,.14,0,.21A1.86,1.86,0,0,1,9.83,16.76Z"/></g></g></g></g></svg>