<svg xmlns="http://www.w3.org/2000/svg" viewBox="0 0 16.99 25.98"><defs><style>.cls-1{fill:#3d4d55;}.cls-2{fill:#e1bf9c;}.cls-3{fill:#f2d1ac;}.cls-4,.cls-6{fill:#c09a80;}.cls-4{opacity:0.7;}.cls-5{fill:#d3a789;}.cls-7{fill:#e0b89b;}.cls-8{fill:#3b1214;}.cls-9{fill:#711011;}.cls-10{fill:#5ea7af;}.cls-11{fill:#262525;}.cls-12{fill:#fef5f0;}</style></defs><g id="Layer_2" data-name="Layer 2"><g id="avatars"><g id="row-02"><g id="avatar-02-07"><path class="cls-1" d="M11.47,5.31A3.49,3.49,0,0,0,8.74,6.85a3.74,3.74,0,0,0-3.06-2c-2.33,0-4.21,2.87-4.21,6.42s1.88,6.41,4.21,6.41a3.51,3.51,0,0,0,2.74-1.54,3.72,3.72,0,0,0,3.05,2c2.33,0,4.21-2.87,4.21-6.41S13.8,5.31,11.47,5.31Z"/><path class="cls-2" d="M8.48,13.67V26H1.81l-.16-.07c0-6.6,4.08-7.09,4.08-7.09h0l.09,0c.34-.1.57-.59.72-1.31a.85.85,0,0,0,0-.17,1.52,1.52,0,0,0,0-.21c0-.23.07-.47.1-.71s0-.3,0-.46c.06-.75.08-1.57.08-2.35C6.86,13.58,7.76,13.67,8.48,13.67Z"/><path class="cls-3" d="M15.34,25.9l-.16.07H8.48V13.67h0c.72,0,1.62-.09,1.62-.09,0,.77,0,1.58.08,2.33,0,.15,0,.3.05.45s.05.5.09.73h0a.68.68,0,0,0,0,.15l0,.14A2.08,2.08,0,0,0,11,18.75l.07,0a.4.4,0,0,0,.15,0S15.34,19.3,15.34,25.9Z"/><path class="cls-4" d="M10.34,17.09h0a2.15,2.15,0,0,1-1.85,1h0a2.34,2.34,0,0,1-1.84-1c0-.23.07-.47.1-.71s0-.3,0-.46a7.42,7.42,0,0,0,1.68.22h0a6.68,6.68,0,0,0,1.72-.24c0,.15,0,.3,0,.45S10.3,16.86,10.34,17.09Z"/><path class="cls-5" d="M8.48.45c-7,0-7,5.59-6.7,9.25C1.3,8.84-.11,9.16,0,10.54s2.1,1.91,2.08,1.76c.57,3,3.85,4.64,6.39,4.87h0V.45Z"/><path class="cls-6" d="M.36,10a.68.68,0,0,1,1-.18.54.54,0,0,1,.16.61c-.05.18-.24.19-.19.46a.48.48,0,0,0,.28.39c.08.07.19.12.24.25a.62.62,0,0,1,0,.38c-.06.21-.39,0-.61-.06a3.55,3.55,0,0,1-.73-.56A1.15,1.15,0,0,1,.36,10Z"/><path class="cls-7" d="M8.51.45c7,0,7,5.59,6.69,9.25.48-.86,1.89-.54,1.78.84s-2.11,1.91-2.08,1.76c-.57,3-3.85,4.64-6.39,4.87h0V.45Z"/><path class="cls-6" d="M16.68,10a.68.68,0,0,0-1-.18.55.55,0,0,0-.17.61c0,.18.25.19.2.46a.48.48,0,0,1-.28.39c-.09.07-.19.12-.24.25a.62.62,0,0,0,0,.38c0,.21.38,0,.61-.06a4.18,4.18,0,0,0,.73-.56A1.19,1.19,0,0,0,16.68,10Z"/><path class="cls-2" d="M8.44,2C6.11,2,4.41,2.68,3.38,4,1.94,5.72,2,8.43,2.53,10.37c.16.59.24,2.19.36,2.78.5,2.63,3.54,4,5.55,4h.05V2Z"/><path class="cls-3" d="M13.49,4c-1-1.26-2.71-1.9-5-1.91V17.17c2.29,0,5-1.55,5.5-4,.11-.59.2-2.19.36-2.78C14.88,8.43,14.93,5.73,13.49,4Z"/><path class="cls-8" d="M9.66,14.8a1.83,1.83,0,0,1-1.17.56,1.73,1.73,0,0,1-1.14-.55,7.85,7.85,0,0,1,1.14-.08A9.77,9.77,0,0,1,9.66,14.8Z"/><path class="cls-9" d="M8.82,14.54a.31.31,0,0,0-.33.26.31.31,0,0,0-.33-.26,4.49,4.49,0,0,0-.84.26s.64.07.82.07.35.07.35-.06c0,.13.14.08.32.08s.85-.09.85-.09A4.49,4.49,0,0,0,8.82,14.54Z"/><path class="cls-10" d="M15.36,25.91,15.2,26H1.82l-.16-.07a10.64,10.64,0,0,1,.57-3.7c1.5-1,3.91.76,6.27.87,1.32.07,2.58-1.45,5.2-.33.5.22.91-.4,1.25-.06A11.58,11.58,0,0,1,15.36,25.91Z"/><path class="cls-11" d="M15.43,25.89l-.16.08H1.81l-.16-.08c0-6.68,4.11-7.18,4.11-7.18h0a1.62,1.62,0,0,0,.2,0c.34-.1-.37-.17-.54,1.16-.14,1.12.63,2.11-.1,2.48.22.26,2.05,1.83,2.68,1.81H9c.64,0,2.52-1.59,2.74-1.88-.73-.36.13-1.38-.11-2.48s-.48-1.1-.45-1.1.12,0,.17,0S15.43,19.21,15.43,25.89Z"/><path class="cls-12" d="M11.15,18.68a1.66,1.66,0,0,1-1.36.67c-.49,0-.92.08-1.29.08-1.63,0-2.32-.4-2.59-.76.29-.11.5-.54.64-1.14a.66.66,0,0,0,0-.15.29.29,0,0,1,0-.09c.07.15.29.39.92.48h0a9.22,9.22,0,0,0,1,.07,3.52,3.52,0,0,0,1.2-.18h0a1.1,1.1,0,0,0,.65-.48l0,0s0,.05,0,.08c.14.69.34,1.19.64,1.36l.07,0Z"/><path class="cls-1" d="M15.5,5.24c-.08-.25-.17-.47-.26-.69v-.1c0-.92-.82-2.11-2.14-3.28A3.56,3.56,0,0,0,9.87.29h0a10.28,10.28,0,0,0-4.58,0C3.59.87,2.21,1.93,1.23,4.77a10.42,10.42,0,0,0,0,6.14A9.14,9.14,0,0,0,4.72,16a7.13,7.13,0,0,1-1-1.67A9.12,9.12,0,0,1,3,11C3,9.32,4.68,7.29,4.68,7.29A7.68,7.68,0,0,0,3.78,10a3.88,3.88,0,0,0,.64,2.48A2.57,2.57,0,0,1,5,9.27,11.19,11.19,0,0,0,6.31,8h0a2.07,2.07,0,0,0,.4,2s0-1.38.83-1.85C9.58,7,9.91,6.5,10.2,5.59a1.63,1.63,0,0,0,.07-.36l1.87,2.66c.09.11.23.31.4.56a6.18,6.18,0,0,1,1.15,3,8.86,8.86,0,0,1-.63,3.4A6.58,6.58,0,0,1,12,16.51a9.1,9.1,0,0,0,3.48-5.12A10.45,10.45,0,0,0,15.5,5.24Z"/></g></g></g></g></svg>