<svg xmlns="http://www.w3.org/2000/svg" xmlns:xlink="http://www.w3.org/1999/xlink" viewBox="0 0 16.45 26.35"><defs><style>.cls-1{fill:none;}.cls-2{fill:#e2bf9c;}.cls-3{fill:#f2d1ac;}.cls-4{clip-path:url(#clip-path);}.cls-5{fill:#c09a80;}.cls-6{fill:#d3a789;}.cls-7{fill:#e0b89b;}.cls-8{fill:#f8fbf5;}.cls-9{fill:#113529;}.cls-10{fill:#432612;}</style><clipPath id="clip-path"><rect class="cls-1" x="6.55" y="16.78" width="3.53" height="2.08"/></clipPath></defs><g id="Layer_2" data-name="Layer 2"><g id="avatars"><g id="row-01"><g id="avatar-01-25"><path class="cls-2" d="M8.3,14.64V26.35H1.94l-.16-.07c0-4.79,2.26-6.2,3.34-6.6a3.15,3.15,0,0,1,.56-.15c.38,0,.63-.5.8-1.26a3.49,3.49,0,0,0,.07-.37c0-.21.06-.44.09-.67s0-.29,0-.44c.05-.72.07-1.5.07-2.24,0,0,.86.09,1.55.09"/><path class="cls-3" d="M14.85,26.28l-.16.07H8.3V14.64h0c.69,0,1.55-.09,1.55-.09,0,.74,0,1.51.08,2.23l0,.42c0,.24.06.48.09.7h0c0,.1,0,.19,0,.28.17.8.43,1.35.83,1.35a3,3,0,0,1,.55.15c1.07.39,3.35,1.8,3.35,6.6"/><g class="cls-4"><path class="cls-5" d="M10.07,17.89h0a2,2,0,0,1-1.76,1h0a2.21,2.21,0,0,1-1.75-1c0-.21.06-.44.08-.68s0-.28,0-.43A6.88,6.88,0,0,0,8.28,17h0a7.06,7.06,0,0,0,1.64-.22c0,.14,0,.28,0,.42s.06.48.09.69"/></g><path class="cls-6" d="M8.21,1.21c-6.75,0-6.78,5.64-6.49,9.34-.46-.88-1.83-.61-1.71.77s2,2,2,1.86c.55,3,3.73,4.8,6.19,4.8h0V1.21h0"/><path class="cls-5" d="M.44,10.74a.63.63,0,0,1,1-.19.55.55,0,0,1,.16.61c-.05.18-.23.19-.19.46a.46.46,0,0,0,.27.39.7.7,0,0,1,.23.25.63.63,0,0,1,0,.38c0,.22-.37,0-.58-.05A3.72,3.72,0,0,1,.63,12a1.19,1.19,0,0,1-.19-1.28"/><path class="cls-7" d="M8.24,1.21c6.74,0,6.78,5.64,6.48,9.34.47-.88,1.83-.61,1.72.77s-2,2-2,1.86c-.56,3-3.73,4.8-6.19,4.8H8.19V1.21h.05"/><path class="cls-5" d="M16,10.74a.63.63,0,0,0-1-.19.55.55,0,0,0-.16.61c0,.18.23.19.19.46a.46.46,0,0,1-.27.39.7.7,0,0,0-.23.25.63.63,0,0,0,0,.38c.05.22.37,0,.58-.05a3.72,3.72,0,0,0,.7-.57A1.21,1.21,0,0,0,16,10.74"/><path class="cls-2" d="M8.26,2.8C6,2.8,4.42,3.44,3.43,4.71,2.06,6.49,2.11,9.2,2.62,11.15c.16.6.24,2.2.34,2.79.48,2.63,3.39,4,5.3,4h.05V2.8H8.26"/><path class="cls-3" d="M13.08,4.72c-1-1.27-2.59-1.91-4.77-1.92V18c2.19,0,4.8-1.56,5.25-4,.1-.59.18-2.19.34-2.79.5-1.94.55-4.65-.82-6.43"/><path class="cls-8" d="M14.85,26.28l-.16.07H1.94l-.16-.07c0-4.8,2.26-6.21,3.34-6.61a5.75,5.75,0,0,0,3.16,1.89h0s0,0,0,0a5.74,5.74,0,0,0,3.17-1.89c1.07.39,3.35,1.8,3.35,6.61"/><polygon class="cls-9" points="6.94 22.68 6.88 22.59 6.17 23.08 5.46 22.59 5.39 22.68 6.07 23.14 5.39 23.61 5.46 23.7 6.17 23.21 6.88 23.7 6.94 23.61 6.26 23.14 6.94 22.68"/><polygon class="cls-9" points="11.35 22.68 11.29 22.59 10.57 23.08 9.86 22.59 9.8 22.68 10.47 23.14 9.8 23.61 9.86 23.7 10.57 23.21 11.29 23.7 11.35 23.61 10.67 23.14 11.35 22.68"/><polygon class="cls-9" points="9.81 24.47 9.09 25.15 8.36 24.47 7.64 25.15 6.91 24.47 6.13 25.21 6.21 25.3 6.91 24.63 7.63 25.3 7.64 25.29 7.65 25.3 8.36 24.63 9.09 25.3 9.09 25.29 9.11 25.3 9.81 24.63 10.53 25.3 10.61 25.21 9.81 24.47"/><path class="cls-9" d="M4.52,20c.83.92,2.48,2.18,3.75,2.25h.06c1.28-.07,2.92-1.33,3.75-2.25a3.38,3.38,0,0,0-.59-.28,5.77,5.77,0,0,1-3.17,1.89,0,0,0,0,1,0,0h0a5.71,5.71,0,0,1-3.16-1.89,3.82,3.82,0,0,0-.59.28"/><path class="cls-10" d="M4.52,12a0,0,0,1,1-.08,0,0,0,0,0,1,.08,0"/><path class="cls-10" d="M4.9,12.78a0,0,0,0,1,0,0,0,0,0,0,1-.05,0s0,0,.05,0a0,0,0,0,1,0,0"/><path class="cls-10" d="M3.74,12.55a0,0,0,1,1-.08,0,0,0,0,0,1,.08,0"/><path class="cls-10" d="M4.81,13.55a0,0,0,1,1-.08,0,0,0,0,1,1,.08,0"/><path class="cls-10" d="M5.39,11.46a0,0,0,0,1,0,0,0,0,0,0,1,0-.08,0,0,0,0,1,0,0"/><path class="cls-10" d="M5.44,12.37s0,0-.05,0a0,0,0,0,1,0,0,0,0,0,0,1,0,0,0,0,0,0,1,.05,0"/><path class="cls-10" d="M6.17,12a0,0,0,0,1-.08,0,0,0,0,0,1,.08,0,0,0,0,0,1,0,0"/><path class="cls-10" d="M6.8,12.74a0,0,0,0,1,0,0,0,0,0,0,1,0,0,0,0,0,0,1,0-.05,0,0,0,0,1,0,.05"/><path class="cls-10" d="M5.85,13.27a0,0,0,0,1,0,0,0,0,0,0,1,0,0,0,0,0,0,1,0,0s0,0,0,0"/><path class="cls-10" d="M7.54,11.46a0,0,0,0,1,0,0,0,0,0,1,1,0-.08,0,0,0,0,1,0,0"/><path class="cls-10" d="M7.73,12.74a0,0,0,0,1-.05,0,0,0,0,0,1,0,0,0,0,0,0,1,0-.05,0,0,0,0,1,.05.05"/><path class="cls-10" d="M7.36,13.31a0,0,0,1,1-.08,0,0,0,0,0,1,.08,0,0,0,0,0,1,0,0"/><path class="cls-10" d="M12,12a0,0,0,0,0,0,0A0,0,0,1,0,12,12a0,0,0,0,0,0,0"/><path class="cls-10" d="M11.62,12.78a0,0,0,1,0,.08,0,0,0,0,1,0-.08,0"/><path class="cls-10" d="M12.77,12.56a0,0,0,0,0,.05,0,0,0,0,0,0,0-.08,0,0,0,0,0-.05,0"/><path class="cls-10" d="M11.7,13.56a0,0,0,0,0,0,0,0,0,0,0,0,0,0s0,0,0,0a0,0,0,0,0,0,0"/><path class="cls-10" d="M11.12,11.47a0,0,0,0,0,0,0,0,0,0,0,0,.05,0,0,0,0,0,0-.05-.05,0,0,0,0,0,0,.05"/><path class="cls-10" d="M11.08,12.38a0,0,0,0,0,0,0,0,0,0,1,0,0-.08,0,0,0,0,0,0,0"/><path class="cls-10" d="M10.35,12a0,0,0,1,0,.08,0,0,0,0,0,0-.08,0"/><path class="cls-10" d="M9.72,12.74a0,0,0,0,0,0,0,0,0,0,1,0,0-.08,0,0,0,0,0,0,0"/><path class="cls-10" d="M10.67,13.27a0,0,0,0,0,0,0s0,0,0,0a0,0,0,0,0,0,0,0,0,0,0,0,0,0"/><path class="cls-10" d="M9,11.47a0,0,0,0,0,.08,0,0,0,0,1,0-.08,0"/><path class="cls-10" d="M8.79,12.74a0,0,0,0,0,0,0,0,0,0,1,0,0-.08,0,0,0,0,0,0,0"/><path class="cls-10" d="M9.15,13.31s0,0,0,0a0,0,0,0,0,0,0,0,0,0,0,0,0,0,0,0,0,0,0,0,0"/><path class="cls-8" d="M4,9.08Z"/><path class="cls-8" d="M14.76,3.6c-.57-.88-.61-.63-.61-.63s.57-2.39-3-2.92a9.33,9.33,0,0,0-1.4,0l.49.49A9.89,9.89,0,0,0,5.92.25a5.75,5.75,0,0,0-4,2.6A6.44,6.44,0,0,0,1,5.24L1.92,4A6.14,6.14,0,0,0,1,8.18c.55,4.16,2.48,4.94,2.48,4.94S2.14,10.62,3,9a5.17,5.17,0,0,1,4.1-2.79A3.73,3.73,0,0,0,4,9.07H4A2.07,2.07,0,0,1,5.23,7.91c.58-.23,1.34-.22,2.22-.45a4.66,4.66,0,0,0-.93,2.16,5.56,5.56,0,0,1,2.66-2l.36-.13A2.33,2.33,0,0,0,9.36,9.7s-.07-1.09,2.31-1.77c1.36-.4,1.58-1.17,1.58-1.17A4.16,4.16,0,0,0,13.43,8c.21.57.82.94.86,1.45a10.68,10.68,0,0,1-.43,2.75l.76-.61a22.83,22.83,0,0,0,.78-4.8A7.17,7.17,0,0,0,14.76,3.6Z"/></g></g></g></g></svg>