<svg xmlns="http://www.w3.org/2000/svg" viewBox="0 0 18.33 24.64"><defs><style>.cls-1{fill:#e1bf9c;}.cls-2{fill:#f2d1ac;}.cls-3,.cls-5{fill:#c09a80;}.cls-3{opacity:0.7;}.cls-4{fill:#d3a789;}.cls-6{fill:#fff;}.cls-7{fill:#e0b89b;}.cls-8{fill:#c6696e;}.cls-9{fill:#d87373;}.cls-10{fill:#3d4d55;}</style></defs><g id="Layer_2" data-name="Layer 2"><g id="avatars"><g id="row-02"><g id="avatar-02-17"><path class="cls-1" d="M9.82,13.79V24.64H3.92a.55.55,0,0,0-.14-.06,9.34,9.34,0,0,1,.5-3.26,4.41,4.41,0,0,1,2.63-2.87,2.14,2.14,0,0,1,.48-.13h0l.08,0c.19-.05.35-.27.47-.59a2.74,2.74,0,0,0,.16-.55c0-.12,0-.23.07-.34s.06-.41.08-.64l0-.39c.06-.67.07-1.4.07-2.08C8.38,13.71,9.18,13.79,9.82,13.79Z"/><path class="cls-2" d="M15.88,24.58a.55.55,0,0,0-.14.06H9.82V13.79h0c.64,0,1.44-.08,1.44-.08,0,.68,0,1.39.07,2.06,0,.13,0,.26,0,.39s0,.45.08.64h0a1.58,1.58,0,0,0,0,.25,4.48,4.48,0,0,0,.21.74h0a1,1,0,0,0,.36.47l.06,0,.13,0a1.82,1.82,0,0,1,.29.06,4.52,4.52,0,0,1,3,3.36,9.3,9.3,0,0,1,.35,2.2C15.88,24.15,15.88,24.36,15.88,24.58Z"/><path class="cls-3" d="M11.46,16.81h0a1.92,1.92,0,0,1-1.63.89h0a2.08,2.08,0,0,1-1.63-.88c0-.2.06-.41.09-.63l0-.4A7,7,0,0,0,9.8,16h0a6.13,6.13,0,0,0,1.52-.21c0,.13,0,.26,0,.39S11.43,16.61,11.46,16.81Z"/><path class="cls-4" d="M9.81,2.13c-6.15,0-6.19,4.94-5.91,8.16-.43-.76-1.68-.48-1.57.74s1.86,1.68,1.84,1.56c.5,2.62,3.4,4.08,5.64,4.29h0V2.13Z"/><path class="cls-5" d="M2.64,10.51a.61.61,0,0,1,.9-.16.47.47,0,0,1,.14.54c0,.16-.21.17-.17.4a.44.44,0,0,0,.25.35c.07.06.17.1.21.22a.54.54,0,0,1,0,.33c0,.19-.34,0-.54,0a4.33,4.33,0,0,1-.65-.5A1,1,0,0,1,2.64,10.51Z"/><path class="cls-6" d="M14.43,21.8a16.63,16.63,0,0,1-1.7-3.35,2.14,2.14,0,0,0-.48-.13h0l-.08,0c-.19-.05-.35-.27-.48-.59a2.61,2.61,0,0,1-.41.15c-.52.15-1.41.37-1.41.37a21.08,21.08,0,0,1,.86,2.13c.35,1-.21,1.78-.88,1.8s-1.23-.79-.88-1.8a22.82,22.82,0,0,1,.85-2.13s-.88-.22-1.41-.37A3.06,3.06,0,0,1,8,17.71c-.12.32-.28.54-.47.59l-.08,0h0a2.14,2.14,0,0,0-.48.13,16.63,16.63,0,0,1-1.7,3.35,3.78,3.78,0,0,0,.13,2.84h9A3.77,3.77,0,0,0,14.43,21.8Z"/><path class="cls-7" d="M9.84,2.13c6.16,0,6.19,4.94,5.92,8.16.42-.76,1.67-.48,1.57.74s-1.86,1.68-1.84,1.56c-.5,2.62-3.4,4.08-5.65,4.29h0V2.13Z"/><path class="cls-5" d="M16.89,10.51a.61.61,0,0,0-.9-.16.46.46,0,0,0-.15.54c0,.16.22.17.18.4a.43.43,0,0,1-.26.35c-.07.06-.16.1-.21.22a.54.54,0,0,0,0,.33c0,.19.34,0,.54,0a3.81,3.81,0,0,0,.64-.5A1,1,0,0,0,16.89,10.51Z"/><path class="cls-1" d="M9.78,3.53A5.45,5.45,0,0,0,5.31,5.22C4,6.78,4.09,9.16,4.56,10.88c.14.52.21,1.93.31,2.45.44,2.32,3.14,3.55,4.91,3.55h.05V3.53Z"/><path class="cls-2" d="M14.24,5.22A5.42,5.42,0,0,0,9.83,3.53V16.88c2,0,4.44-1.37,4.86-3.55.1-.52.17-1.93.31-2.45C15.47,9.17,15.52,6.79,14.24,5.22Z"/><path class="cls-8" d="M10.86,14.79a1.62,1.62,0,0,1-1,.5,1.52,1.52,0,0,1-1-.49,7,7,0,0,1,1-.07A8.88,8.88,0,0,1,10.86,14.79Z"/><path class="cls-9" d="M10.12,14.56a.26.26,0,0,0-.29.22.28.28,0,0,0-.3-.22,4.13,4.13,0,0,0-.74.23s.57.06.73.06.3.06.31-.06c0,.12.12.08.28.08s.75-.08.75-.08A4.13,4.13,0,0,0,10.12,14.56Z"/><path class="cls-10" d="M17.63,8l-.06-.33.76.95C17.77,4.53,16.07,3,16.07,3h0c-1.57-2-5-2.33-5-2.33A4.21,4.21,0,0,0,8.77,0,5.83,5.83,0,0,0,4.82,1.47h0A7.23,7.23,0,0,0,3.75,2.64c-.21.28-.4.56-.58.83C1.82,5.21.11,7.66,0,9.09c0,0,.39-.37,1-.89C.43,10.13.05,13,1.92,14.69c0,0-.16-.54-.3-1.29a9.44,9.44,0,0,0,3,3.74l1.64,1S6,17.7,5.75,17.06a8.16,8.16,0,0,0,2.11.68h0a3.86,3.86,0,0,0,.18-.62l.06-.34h0a.34.34,0,0,0,0-.1.3.3,0,0,0,0-.1h0a5.82,5.82,0,0,1-1.75-.9A5.71,5.71,0,0,1,5,14.47a1.82,1.82,0,0,1,0-.32c0-.09,0-.16,0-.24a10.38,10.38,0,0,1,.45-3.07,11,11,0,0,1,4.29-5.7l0,0,0,0V4.81a6.1,6.1,0,0,1,.29-1.22,3.17,3.17,0,0,1,.84-1.34c5,.58,5,5.06,4.75,8.06a.82.82,0,0,1,1.53.29,1.24,1.24,0,0,1,0,.44,1.08,1.08,0,0,1-.18.53,2.58,2.58,0,0,1-1.34,1c-.19.06-.31.07-.31,0A4.17,4.17,0,0,1,14.85,14,5.66,5.66,0,0,1,12.72,16a5.45,5.45,0,0,1-1.31.63h0l0,.2h0c0,.09,0,.17,0,.25a4.35,4.35,0,0,0,.21.71v0h.06a5.16,5.16,0,0,0,2.36-.86c-.22.65-.39,1.12-.39,1.12L15.09,17a7.34,7.34,0,0,0,1.56-2.68l-.23,1.51C18.9,12.41,17.63,8,17.63,8Z"/></g></g></g></g></svg>