<svg xmlns="http://www.w3.org/2000/svg" viewBox="0 0 17.29 24.72"><defs><style>.cls-1{fill:#e1bf9c;}.cls-2{fill:#f2d1ac;}.cls-3,.cls-5{fill:#c09a80;}.cls-3{opacity:0.7;}.cls-4{fill:#d3a789;}.cls-6{fill:#e0b89b;}.cls-7{fill:#e6e8e7;}.cls-8{fill:#070708;}.cls-9{fill:#965458;}.cls-10{fill:#fff;}</style></defs><g id="Layer_2" data-name="Layer 2"><g id="avatars"><g id="row-02"><g id="avatar-02-16"><path class="cls-1" d="M7.67,13.63V24.72h-6l-.15-.06c0-5.95,3.69-6.4,3.69-6.4h.11c.3-.09.51-.54.65-1.18a.8.8,0,0,0,0-.15c0-.07,0-.13,0-.2s.06-.41.08-.64,0-.27,0-.41c0-.68.07-1.42.07-2.12C6.2,13.55,7,13.63,7.67,13.63Z"/><path class="cls-2" d="M13.87,24.66l-.15.06H7.67V13.63h0c.66,0,1.47-.08,1.47-.08,0,.7,0,1.43.07,2.1,0,.14,0,.27,0,.41s.05.45.09.66h0a.51.51,0,0,0,0,.13.59.59,0,0,1,0,.13A1.87,1.87,0,0,0,10,18.21l.06,0a.32.32,0,0,0,.14,0S13.87,18.71,13.87,24.66Z"/><path class="cls-3" d="M9.34,16.72h0a1.91,1.91,0,0,1-1.67.91h0A2.13,2.13,0,0,1,6,16.72a5.8,5.8,0,0,0,.09-.64c0-.13,0-.27,0-.41a6.5,6.5,0,0,0,1.52.2h0a6.37,6.37,0,0,0,1.55-.22c0,.14,0,.27,0,.41S9.31,16.51,9.34,16.72Z"/><path class="cls-4" d="M7.66,1.7c-6.29,0-6.33,5.05-6,8.35C1.18,9.28-.1,9.56,0,10.8s1.9,1.73,1.88,1.6c.51,2.69,3.48,4.18,5.77,4.39h0V1.71Z"/><path class="cls-5" d="M.32,10.28a.62.62,0,0,1,.92-.17.48.48,0,0,1,.15.55c0,.16-.22.18-.17.42a.42.42,0,0,0,.25.35.58.58,0,0,1,.22.22.68.68,0,0,1,0,.34c-.05.2-.35,0-.56,0a4.49,4.49,0,0,1-.66-.51A1.07,1.07,0,0,1,.32,10.28Z"/><path class="cls-6" d="M7.69,1.7c6.3,0,6.33,5.05,6.05,8.35.44-.77,1.71-.49,1.61.75s-1.91,1.73-1.88,1.6C13,15.09,10,16.58,7.69,16.79H7.64V1.71Z"/><path class="cls-5" d="M15.08,10.28a.64.64,0,0,0-.93-.17.52.52,0,0,0-.15.55c.05.16.23.18.18.42a.42.42,0,0,1-.25.35.58.58,0,0,0-.22.22.68.68,0,0,0,0,.34c.05.2.35,0,.55,0a3.63,3.63,0,0,0,.66-.51A1.05,1.05,0,0,0,15.08,10.28Z"/><path class="cls-1" d="M7.63,3.14A5.63,5.63,0,0,0,3.05,4.86c-1.29,1.6-1.25,4-.76,5.79.14.54.22,2,.32,2.51.45,2.37,3.2,3.63,5,3.63h0V3.14Z"/><path class="cls-2" d="M12.19,4.86A5.55,5.55,0,0,0,7.68,3.14V16.79c2.07,0,4.54-1.4,5-3.63.1-.53.17-2,.32-2.51C13.45,8.9,13.5,6.47,12.19,4.86Z"/><path class="cls-7" d="M1.6,23.23h0v0h0Z"/><path class="cls-7" d="M13.77,23.27h0v0Z"/><path class="cls-8" d="M10.07,18.19h0Z"/><path class="cls-8" d="M5.4,18.2h0C5.55,18.17,5.51,18.13,5.4,18.2Z"/><path class="cls-9" d="M10.23,18.18s-.11,0-.15,0,.22.11.41,1a10.67,10.67,0,0,1-.1,2.48,9.56,9.56,0,0,0-2.56-.32,9.17,9.17,0,0,0-2.77.38,14.24,14.24,0,0,1-.13-2.48A1.43,1.43,0,0,1,5.4,18.2l-.17,0h0s-3.72.45-3.72,6.48l.15.06H13.81l.14-.06C14,18.63,10.23,18.18,10.23,18.18Z"/><path class="cls-10" d="M17,20.27a22.29,22.29,0,0,1-1.29-2.43,5.35,5.35,0,0,1-.55-2.13c0-.44.8-6,.8-7.49A8.17,8.17,0,0,0,15,4.34,6.59,6.59,0,0,0,12.9,2,32.16,32.16,0,0,0,9.64.36,12.06,12.06,0,0,0,7.15,0,3.93,3.93,0,0,0,4.86.75a3.38,3.38,0,0,0-.75.91C1.32,2.68.74,5.3.73,7.68c0,.59,0,1.18.08,1.71A1.86,1.86,0,0,1,1,9.64a2,2,0,0,1,.15.26c.19.48.27.4.27.4l.13-.43S1.57,6,3.89,4.74l0,0c1-.31,1.94.34,3,.34h.39c.93-.11,1.76-.6,2.66-.32a4.42,4.42,0,0,1,1.47,1.15A16.52,16.52,0,0,1,12,7.76a19.18,19.18,0,0,1,0,3.88q-.07.81-.15,1.35c-.05.47-.1.81-.15,1.07s-.11.57-.15.73a2.83,2.83,0,0,0-.15.92,8.49,8.49,0,0,0,.22,2.37,3.37,3.37,0,0,0,.09.34c0,.14.08.27.13.4h0l.07.08a5.28,5.28,0,0,0,1,1.62A4.65,4.65,0,0,0,15.2,22S14,21.5,13.4,19c0-.05,0-.15-.07-.27A4.43,4.43,0,0,0,15.71,21a5,5,0,0,1-1.28-1.91,20.3,20.3,0,0,1,1.95,1.44c.7.81.83,1.61.36,2.18A1.9,1.9,0,0,0,17,20.27Z"/></g></g></g></g></svg>