<svg xmlns="http://www.w3.org/2000/svg" xmlns:xlink="http://www.w3.org/1999/xlink" viewBox="0 0 17.21 26.52"><defs><style>.cls-1{fill:none;}.cls-2{fill:#e2bf9c;}.cls-3{fill:#f2d1ac;}.cls-4{clip-path:url(#clip-path);}.cls-5{fill:#c09a80;}.cls-6{fill:#d3a789;}.cls-7{fill:#e0b89b;}.cls-8{fill:#3a2817;}.cls-9{fill:#965458;}.cls-10{fill:#e2e2e2;}.cls-11{fill:#191919;}</style><clipPath id="clip-path"><rect class="cls-1" x="6.86" y="16.89" width="3.47" height="2.05"/></clipPath></defs><g id="Layer_2" data-name="Layer 2"><g id="avatars"><g id="row-02"><g id="avatar-02-11"><path class="cls-2" d="M8.59,14.79V26.31H2.33l-.16-.06C2.17,20.06,6,19.6,6,19.6c.38,0,.63-.49.79-1.24A3.37,3.37,0,0,0,6.86,18,6.57,6.57,0,0,0,7,17.34c0-.14,0-.28,0-.43.06-.71.08-1.48.08-2.2,0,0,.84.08,1.52.08"/><path class="cls-3" d="M15,26.25l-.15.06H8.59V14.79h0c.68,0,1.53-.08,1.53-.08,0,.72,0,1.48.08,2.18l0,.42q0,.36.09.69h0c0,.1,0,.18.05.27.16.8.42,1.33.81,1.33,0,0,3.84.46,3.84,6.65"/><g class="cls-4"><path class="cls-5" d="M10.33,18h0a2,2,0,0,1-1.73.94h0A2.15,2.15,0,0,1,6.86,18,6.57,6.57,0,0,0,7,17.34c0-.14,0-.28,0-.43a7.18,7.18,0,0,0,1.58.21h0a6.4,6.4,0,0,0,1.62-.23l0,.42c0,.24.06.47.09.68"/></g><path class="cls-6" d="M8.52,1.58c-6.64,0-6.67,5.55-6.38,9.19-.45-.87-1.8-.6-1.69.76s2,2,2,1.83c.55,3,3.67,4.72,6.09,4.72h.05V1.58H8.52"/><path class="cls-5" d="M.87,11a.63.63,0,0,1,1-.18.55.55,0,0,1,.16.6c-.05.18-.23.19-.19.46a.48.48,0,0,0,.27.38.6.6,0,0,1,.22.25.6.6,0,0,1,0,.37c0,.21-.36,0-.57-.05a3.61,3.61,0,0,1-.69-.56A1.19,1.19,0,0,1,.87,11"/><path class="cls-7" d="M8.55,1.58c6.64,0,6.68,5.55,6.38,9.19.46-.87,1.8-.6,1.69.76s-2,2-2,1.83c-.55,3-3.67,4.72-6.09,4.72H8.5V1.58h.05"/><path class="cls-5" d="M16.2,11a.63.63,0,0,0-1-.18.55.55,0,0,0-.16.6c.05.18.23.19.19.46a.48.48,0,0,1-.27.38c-.07.07-.17.12-.22.25a.6.6,0,0,0,0,.37c.05.21.36,0,.57-.05a3.61,3.61,0,0,0,.69-.56A1.19,1.19,0,0,0,16.2,11"/><path class="cls-2" d="M8.55,3.14C6.37,3.14,4.77,3.78,3.8,5,2.45,6.78,2.5,9.44,3,11.36c.15.59.23,2.17.34,2.75.47,2.59,3.33,4,5.21,4h0V3.14h0"/><path class="cls-3" d="M13.29,5A5.63,5.63,0,0,0,8.6,3.14V18.08c2.15,0,4.72-1.54,5.16-4,.11-.58.18-2.16.34-2.75.5-1.91.54-4.58-.81-6.33"/><path class="cls-8" d="M11.57,21.15a25.3,25.3,0,0,1-1.94,5.16H7.57a25.12,25.12,0,0,1-1.94-5.17A3.56,3.56,0,0,1,6,19.73a4,4,0,0,1,.6-.87l0,0h.06l2,1.38,2-1.38h.06l0,0a4.52,4.52,0,0,1,.45.61l.13.23a3.58,3.58,0,0,1,.33,1.43"/><path class="cls-9" d="M7.54,26.3,7.41,26l0,0-.26-.56L6.92,25c-.27-.57-.49-1.09-.63-1.46a9.44,9.44,0,0,1-.38-1.41,1.16,1.16,0,0,1,0-.18v0l0-.17a.22.22,0,0,1,0-.08,6,6,0,0,1,0-1.95s0,0,0-.05c-.73.16-3.68,1.18-3.68,6.61,0,0,.06.22.16.27l5.22-.21Z"/><path class="cls-9" d="M9.66,26.3c.05-.09.09-.19.14-.28s0,0,0,0c.09-.19.18-.37.26-.56s.15-.3.22-.46c.26-.57.49-1.09.62-1.46a9.47,9.47,0,0,0,.39-1.41l0-.18a0,0,0,0,0,0,0,1,1,0,0,0,0-.17s0,0,0-.08a5.75,5.75,0,0,0,0-1.95.43.43,0,0,0,0-.05c.72.16,3.67,1.18,3.67,6.61,0,0,0,.22-.15.27l-5.22-.21Z"/><path class="cls-10" d="M7.86,26.31H6.77a1.83,1.83,0,0,1-.13-.16,11,11,0,0,1-2.58-4.6L5,21.08l-.57-.41s.22-.28.62-.7a5,5,0,0,1,.45-.37,4.08,4.08,0,0,1,.73-.43s-.26.37-.2,2c0,.11,0,.21,0,.32s0,.05,0,.07l0,.16v0l0,.16A15,15,0,0,0,7,24.54c.06.15.13.28.19.43s.17.34.24.51.09.19.14.28.1.21.15.31a2.56,2.56,0,0,0,.11.24"/><path class="cls-10" d="M13.15,21.55a11,11,0,0,1-2.58,4.6l-.14.16H9.35c.29-.58.63-1.28.93-2l0-.07h0a11.77,11.77,0,0,0,.81-2.49.13.13,0,0,0,0-.06.9.9,0,0,0,0-.16.13.13,0,0,1,0-.06c0-.11,0-.22,0-.33a6.61,6.61,0,0,0-.08-1.65l0-.13v0a.64.64,0,0,0-.08-.17,4.14,4.14,0,0,1,.72.43h0a4.08,4.08,0,0,1,.46.37c.39.42.61.7.61.7l-.56.41Z"/><path class="cls-11" d="M16.72,5.33C14.56.78,11.77,0,8.6,0h0C5.43,0,2.65.78.48,5.33c-1.54,3.25,1.1,12.35,1.1,12.35a7.91,7.91,0,0,0,3,1.22c.85.19,1.44.28,1.82.33h.09c.19,0,.33,0,.42,0H7L6.9,17.72h0l0,0A8.43,8.43,0,0,1,5,16.84a4.53,4.53,0,0,1-1.2-1.27c0-.07-.07-.15-.11-.23-.7-1.68-.21-5.18,0-6.84l1.19,0V8.44L5,7.24l.29,1.17,0,.12,1.22,0L6.32,7.44,6.9,8.51l0,.05h1l.28-1.17.13,1.19h.65l.13-1.19.28,1.17h.94l0-.05.57-1.07-.17,1.11,1.23,0,0-.12.29-1.17.12,1.2v.08l1.18,0c.18,1.59.39,5.14-.24,6.8-.08.19-.16.38-.25.56l-.15.27a5.3,5.3,0,0,1-1.17,1,8.2,8.2,0,0,1-1.41.58l0,0h0l-.09,1.57h.14l.42,0h.06a17.85,17.85,0,0,0,1.85-.33,7.81,7.81,0,0,0,2.94-1.23S18.27,8.57,16.72,5.33Z"/></g></g></g></g></svg>