<svg xmlns="http://www.w3.org/2000/svg" viewBox="0 0 15.68 24.34"><defs><style>.cls-1{fill:#550f0e;}.cls-2{fill:#e1bf9c;}.cls-3{fill:#f2d1ac;}.cls-4,.cls-6{fill:#c09a80;}.cls-4{opacity:0.7;}.cls-5{fill:#d3a789;}.cls-7{fill:#e0b89b;}.cls-8{fill:#fef5f0;}.cls-9{fill:#b64f6b;}.cls-10{fill:#fff;}</style></defs><g id="Layer_2" data-name="Layer 2"><g id="avatars"><g id="row-01"><g id="avatar-01-02"><path id="hair-back-right" class="cls-1" d="M4,12.3c-.11-.09-2.19-1.38-2.19-1.38a2.73,2.73,0,0,1,0,1.67,2,2,0,0,1-.75.85,1.48,1.48,0,0,1-.75.3l-.3,0a2.47,2.47,0,0,0,1.16.15,1.32,1.32,0,0,0,.71-.21,1,1,0,0,0-.14,1c.62,1.28-.21,1.7-.21,1.7a2.45,2.45,0,0,0,1.16-.45,0,0,0,0,0,0,0,.91.91,0,0,0,.68.71s-.31,0-.25-.65c0-.15.18-.22.38-.32.08.57.34,1.16-.2,1.4,0,0,.91-.18,1.07-.72,0-.1,0-.19.07-.28s0,.09,0,.15a1.94,1.94,0,0,1-.39,1.35S6,17.38,6,16.63a3.47,3.47,0,0,1,.08-.74c.06-.17.17-1,.17-1S4.07,12.38,4,12.3Z"/><path id="hair-back-left" class="cls-1" d="M11.72,12.3c.12-.09,2.2-1.38,2.2-1.38a2.73,2.73,0,0,0,0,1.67,2,2,0,0,0,.75.85,1.48,1.48,0,0,0,.74.3l.31,0a2.47,2.47,0,0,1-1.16.15,1.32,1.32,0,0,1-.71-.21,1.07,1.07,0,0,1,.14,1c-.63,1.28.21,1.7.21,1.7A2.45,2.45,0,0,1,13,15.91a0,0,0,0,0,0,0,.92.92,0,0,1-.68.71s.31,0,.25-.65c0-.15-.18-.22-.38-.32-.08.57-.34,1.16.19,1.4,0,0-.9-.18-1.07-.72,0-.1,0-.19-.06-.28s0,.09,0,.15a1.94,1.94,0,0,0,.39,1.35s-1.88-.2-1.89-.95a4.26,4.26,0,0,0-.08-.74c-.06-.17-.17-1-.17-1S11.61,12.38,11.72,12.3Z"/><path class="cls-2" d="M7.84,13.36v11H1.89l-.15-.07C1.74,18.39,5.38,18,5.38,18c.37,0,.6-.47.75-1.18a3.4,3.4,0,0,0,.07-.34c0-.2.06-.42.08-.64s0-.27,0-.41c0-.67.07-1.4.07-2.09C6.39,13.29,7.19,13.36,7.84,13.36Z"/><path class="cls-3" d="M14,24.27l-.14.07h-6v-11h0c.65,0,1.45-.07,1.45-.07,0,.69,0,1.41.07,2.08,0,.13,0,.27,0,.4s.05.44.08.65h0c0,.09,0,.18,0,.26.15.76.4,1.27.77,1.27C10.31,18,14,18.39,14,24.27Z"/><path class="cls-4" d="M9.49,16.42h0a1.89,1.89,0,0,1-1.64.9h0a2.06,2.06,0,0,1-1.64-.89c0-.2.06-.42.08-.64s0-.27,0-.41a6.4,6.4,0,0,0,1.5.2h0a6.15,6.15,0,0,0,1.53-.21c0,.13,0,.27,0,.4S9.46,16.21,9.49,16.42Z"/><path class="cls-5" d="M7.85.78c-6.3,0-6.34,5.29-6.06,8.75C1.36,8.71.08,9,.19,10.26S2.1,12.15,2.07,12c.52,2.85,3.48,4.49,5.78,4.49H7.9V.78Z"/><path class="cls-6" d="M.59,9.71a.59.59,0,0,1,.91-.17.51.51,0,0,1,.15.57c0,.17-.22.18-.18.43a.47.47,0,0,0,.25.37.55.55,0,0,1,.22.23.64.64,0,0,1,0,.36c0,.2-.34,0-.54-.05a3.59,3.59,0,0,1-.65-.53A1.13,1.13,0,0,1,.59,9.71Z"/><path class="cls-7" d="M7.88.78c6.31,0,6.34,5.29,6.07,8.75.43-.82,1.71-.56,1.6.73S13.64,12.15,13.67,12c-.52,2.85-3.48,4.49-5.79,4.49h0V.78Z"/><path class="cls-6" d="M15.15,9.71a.59.59,0,0,0-.91-.17.51.51,0,0,0-.15.57c0,.17.22.18.18.43a.45.45,0,0,1-.26.37.59.59,0,0,0-.21.23.75.75,0,0,0,0,.36c.05.2.35,0,.55-.05a4,4,0,0,0,.65-.53A1.15,1.15,0,0,0,15.15,9.71Z"/><path class="cls-2" d="M7.8,2.27a5.36,5.36,0,0,0-4.51,1.8C2,5.73,2.05,8.28,2.53,10.1c.14.56.22,2.06.32,2.61C3.29,15.18,6,16.49,7.8,16.49h0V2.27Z"/><path class="cls-3" d="M12.3,4.07a5.33,5.33,0,0,0-4.45-1.8V16.49c2,0,4.48-1.46,4.9-3.78.1-.55.18-2.05.32-2.61C13.54,8.28,13.59,5.74,12.3,4.07Z"/><path id="hair" class="cls-1" d="M14.74,5.93a1.26,1.26,0,0,0-.13-.26,10.86,10.86,0,0,0-1.38-3.62A6.23,6.23,0,0,0,8.94,0a5.72,5.72,0,0,0-3.82,1.2A2.34,2.34,0,0,0,4.53.62a2.43,2.43,0,0,0-1.05,0s.53.14.63.28a.57.57,0,0,1,.11.51,4,4,0,0,0-.89-.27c-.5,0-1.05.61-1.05.61a1.81,1.81,0,0,1,.91-.31,2.29,2.29,0,0,1,.54.19S3,1.74,1.63,3.25a4.29,4.29,0,0,0-1,2.64l.87-.5a2.14,2.14,0,0,0-.34.54,4.15,4.15,0,0,0,.24,3.19s.29,0,.55.64a12.49,12.49,0,0,1,.57,1.87h.31a9.62,9.62,0,0,1-.22-4c.13-.38.46-1.17.92-1.2a1.67,1.67,0,0,0,.43-.8A3.23,3.23,0,0,1,5.14,4.09a.51.51,0,0,1,.6.08A4,4,0,0,1,7.42,3.5c1.08-.19,1.68,1,1.91,1.58A1.38,1.38,0,0,1,9.45,6a3,3,0,0,0,.41-1.5,1.85,1.85,0,0,0-.13-.57c.14.07.76.24.88,1.85A1.62,1.62,0,0,1,10,7.05,2.28,2.28,0,0,0,11.2,4.47a3.32,3.32,0,0,1,.74,1.19,18.5,18.5,0,0,0,1.35,2,9.5,9.5,0,0,1-.21,4h.31A12.49,12.49,0,0,1,14,9.76c.26-.61.55-.64.55-.64A4.12,4.12,0,0,0,14.74,5.93ZM9.58,3.64l0,0,0,0Z"/><path class="cls-8" d="M14,24.27l-.14.07h-12l-.15-.07c0-.17,0-.35,0-.51,0-.39.05-.75.09-1.09s.09-.55.15-.8.05-.22.08-.33.08-.29.13-.42a2.53,2.53,0,0,1,.12-.33,5.7,5.7,0,0,1,.4-.82,4.36,4.36,0,0,1,.88-1.09,4.19,4.19,0,0,1,.74-.54h0a3.35,3.35,0,0,0,.49.55c.28.28.69.65,1.22,1.09l.1.08a2.52,2.52,0,0,0,3.4,0L9.68,20c.52-.44.93-.81,1.21-1.09a2.89,2.89,0,0,0,.49-.55h0a5.07,5.07,0,0,1,.74.54A4.57,4.57,0,0,1,13,20a4.17,4.17,0,0,1,.4.82,1.61,1.61,0,0,1,.12.33c.05.13.1.28.14.42s.05.22.08.33.1.52.14.8.08.7.1,1.09Z"/><path id="shirt-stripe-right" class="cls-9" d="M4.85,18.88c.28.28.69.65,1.22,1.09H2.72a4.36,4.36,0,0,1,.88-1.09Z"/><path id="shirt-stripe-left" class="cls-9" d="M13,20H9.68c.52-.44.93-.81,1.21-1.09h1.26A4.57,4.57,0,0,1,13,20Z"/><path id="shirt-logo" class="cls-9" d="M7.77,21.36a1.29,1.29,0,0,0,0,2.58,1,1,0,0,0,.3,0h0A1.25,1.25,0,0,0,9,23.14.88.88,0,0,0,9,23a1.27,1.27,0,0,0,.05-.34A1.29,1.29,0,0,0,7.77,21.36Z"/><path class="cls-10" d="M8.33,22.65a.63.63,0,0,0-.52-.49h0a.14.14,0,0,0-.15.12h0a.77.77,0,0,1,.23.06h0l0,0a.65.65,0,0,1,.29.3.86.86,0,0,0-.36-.28l-.12,0-.05,0h0c-.06,0-.06,0-.06.08s0,0,0,0a.05.05,0,0,0,0,0l-.17.24,0,.05c-.13.07-.06.12-.06.12h0s0,0,0,0a.06.06,0,0,1,0,.05v0h0a.19.19,0,0,0,0,.13h0l0,0h0a.22.22,0,0,0,0-.14h0a.06.06,0,0,1,0-.08h0s0,0,0,0h0s0,0,0,.06h0s0,0,0-.06h0s0,0,0,0h0s0,0,0,0,0,0,0,0h0s0,0,0,0h0s0,0,0,0h0v0a0,0,0,0,1,0,0v0h0s0,.05,0,.06h0a.06.06,0,0,0,0-.06h0a0,0,0,0,1,0,0h.08l.44-.05C8.35,22.77,8.34,22.66,8.33,22.65Zm-.88.17s-.06,0-.06,0,0,0,0,0,.06,0,.07,0S7.48,22.81,7.45,22.82Zm.24-.39s.07,0,.07.05,0,0-.09,0a.07.07,0,0,1-.07-.05S7.64,22.42,7.69,22.43Zm0,.3c-.07,0-.13,0-.15,0s0-.09.1-.11.14,0,.15,0S7.77,22.71,7.7,22.73Zm.28.05s-.08,0-.09,0,0-.05.06-.07.08,0,.09,0S8,22.77,8,22.78Z"/></g></g></g></g></svg>