<svg xmlns="http://www.w3.org/2000/svg" viewBox="0 0 17.63 26.4"><defs><style>.cls-1{fill:#563825;}.cls-2{fill:#e1bf9c;}.cls-3{fill:#f2d1ac;}.cls-4,.cls-6{fill:#c09a80;}.cls-4{opacity:0.7;}.cls-5{fill:#d3a789;}.cls-7{fill:#e0b89b;}.cls-8{fill:#c6696e;}.cls-9{fill:#d87373;}.cls-10{fill:#867096;}.cls-11{fill:#bda5cc;}</style></defs><g id="Layer_2" data-name="Layer 2"><g id="avatars"><g id="row-01"><g id="avatar-01-32"><path class="cls-1" d="M8.9,11.06A13.21,13.21,0,0,0,10,13.86c.54,1,2.18,2.23,2.24,3.56.12,2.87-3.89,4.23-5.51,4.72s-2.16.53-2.34,1.24a6.47,6.47,0,0,0,0,1.88,6.65,6.65,0,0,1-1.75-1.33,1.59,1.59,0,0,1,.07-2.09s.34.3-.06.95a1.54,1.54,0,0,0-.25,1.42l.65.7s-2.5-.72-2-2.77c.09-.36.32-.1,0,0-.69.21-.56,1.37-.56,1.37S-1.28,21.29,2.16,20c.33-.12,2.1-.56,2.28-2,.1-.83-.49-.9-.6-1.9-.14-1.3,1.7-1,2.41-2.25.13-.23-.54-.36,0-1s.87-.71,1.79-1.16S8.9,11.06,8.9,11.06Z"/><path class="cls-1" d="M8.73,12.12a13.41,13.41,0,0,1-1.08,2.8c-.53,1-2.18,2.22-2.23,3.56-.13,2.86,3.89,4.23,5.51,4.71s2.16.54,2.34,1.24a6.53,6.53,0,0,1,0,1.89A6.89,6.89,0,0,0,15.05,25,1.58,1.58,0,0,0,15,22.9s-.33.29.06,1,.4,1.24.25,1.41-.64.71-.64.71,2.5-.72,2-2.78c-.08-.35-.31-.09,0,0,.7.21.56,1.37.56,1.37s1.7-2.22-1.73-3.47c-.33-.12-2.1-.57-2.28-2.05-.11-.82.49-.89.6-1.89.14-1.3-1.7-1-2.41-2.25-.13-.23.53-.37,0-1s-.88-.7-1.79-1.15S8.73,12.12,8.73,12.12Z"/><path class="cls-2" d="M9.07,15.32V26.4h-6L3,26.33a9.17,9.17,0,0,1,.69-3.78A4.44,4.44,0,0,1,6,20.14,2.6,2.6,0,0,1,6.61,20h0l.08,0c.3-.09.5-.53.64-1.17a2.14,2.14,0,0,0,.06-.35,6,6,0,0,0,.09-.65c0-.13,0-.26,0-.4,0-.69.07-1.43.07-2.12C7.62,15.24,8.42,15.32,9.07,15.32Z"/><path class="cls-3" d="M15.19,26.33l-.14.07h-6V15.32h0c.64,0,1.45-.08,1.45-.08,0,.69,0,1.43.07,2.1,0,.14,0,.27,0,.4s0,.45.08.66h0c0,.09,0,.17,0,.26a1.9,1.9,0,0,0,.58,1.23l.06,0a.31.31,0,0,0,.13,0,4.08,4.08,0,0,1,2.91,2.48A9.14,9.14,0,0,1,15.19,26.33Z"/><path class="cls-4" d="M10.72,18.4h0a1.9,1.9,0,0,1-1.65.91h0a2.08,2.08,0,0,1-1.65-.9,6.17,6.17,0,0,0,.09-.64c0-.14,0-.27,0-.41a6.4,6.4,0,0,0,1.5.2h0a6.14,6.14,0,0,0,1.53-.22c0,.14,0,.27,0,.4S10.69,18.19,10.72,18.4Z"/><path class="cls-5" d="M9.06,3.41c-6.22,0-6.25,5-6,8.34-.43-.78-1.69-.49-1.59.75s1.88,1.72,1.86,1.59c.51,2.68,3.44,4.17,5.7,4.39h0V3.41Z"/><path class="cls-6" d="M1.81,12a.61.61,0,0,1,.91-.16.47.47,0,0,1,.15.55c0,.16-.22.17-.17.41a.41.41,0,0,0,.25.35.64.64,0,0,1,.21.22.61.61,0,0,1,0,.35c0,.19-.35,0-.55,0A3.83,3.83,0,0,1,2,13.13,1.07,1.07,0,0,1,1.81,12Z"/><path class="cls-7" d="M9.09,3.41c6.22,0,6.25,5,6,8.34.42-.78,1.69-.49,1.58.75s-1.88,1.72-1.85,1.59c-.51,2.68-3.44,4.17-5.71,4.39H9V3.41Z"/><path class="cls-6" d="M16.38,12a.61.61,0,0,0-.91-.16.5.5,0,0,0-.15.55c0,.16.22.17.18.41a.44.44,0,0,1-.25.35.58.58,0,0,0-.22.22.6.6,0,0,0,0,.35c0,.19.34,0,.54,0a3.47,3.47,0,0,0,.65-.51A1,1,0,0,0,16.38,12Z"/><path class="cls-2" d="M9,4.84c-2.08,0-3.6.58-4.52,1.72-1.28,1.6-1.23,4-.76,5.79.14.53.22,2,.32,2.5.45,2.37,3.17,3.63,5,3.63h.05V4.84Z"/><path class="cls-3" d="M13.53,6.57A5.42,5.42,0,0,0,9.08,4.84V18.48c2,0,4.48-1.41,4.91-3.63.09-.53.17-2,.31-2.5C14.78,10.6,14.82,8.17,13.53,6.57Z"/><path class="cls-8" d="M10.12,16.34a1.65,1.65,0,0,1-1,.51,1.55,1.55,0,0,1-1-.5,6.32,6.32,0,0,1,1-.08A8,8,0,0,1,10.12,16.34Z"/><path class="cls-9" d="M9.37,16.1a.29.29,0,0,0-.3.24.27.27,0,0,0-.29-.24,3.9,3.9,0,0,0-.75.24s.57.06.73.06.31.07.31-.06c0,.13.12.08.29.08s.76-.08.76-.08A4.16,4.16,0,0,0,9.37,16.1Z"/><path class="cls-10" d="M13.68,20.6c-.8-.39-1.75-.64-1.7-.52.52.74.32,1.36.24,2.42-.14,1.65-1.2-1.42-3.17-1.44S6,24.15,5.89,22.5c-.08-1.06-.28-1.68.24-2.42,0-.12-.9.13-1.7.52A8.38,8.38,0,0,0,3,21.51a1.5,1.5,0,0,1,.85.95,7.55,7.55,0,0,1,.24,1.67c.09,1.27.72,1.84.68,2.27h8.63c0-.43.59-1,.68-2.27a7.55,7.55,0,0,1,.24-1.67,1.49,1.49,0,0,1,.84-.95A8.07,8.07,0,0,0,13.68,20.6Z"/><path class="cls-11" d="M7.26,18.82a5.19,5.19,0,0,0,1.84.38A15.24,15.24,0,0,0,11,18.93s.53.62.08.87-3.21.64-4.1,0C6.81,19.65,7.26,18.82,7.26,18.82Z"/><path class="cls-1" d="M15.14,2.82A3.87,3.87,0,0,0,13.66,2S11.84,1,10.45.33,6.8.19,5.62.51s-2.57,2.06-3,3A27,27,0,0,0,.76,8,3.16,3.16,0,0,0,2.31,11.3c.47.21.5,1.37.5,1.37l.52.24a4.38,4.38,0,0,1-.27-1.64c0-.54-.06-2.18-.06-2.18s1.17-.25,2.44-.56C7.21,8,9.37,7,9.85,5.22c0,0,.53-2,1.61.48,0,0,.72,3,0,3.81a3.12,3.12,0,0,0,1.76-2.92l.1.08.25.19s1.87,2.49-2,4.52a4.45,4.45,0,0,0,3.6-1.06c-.05.76-.27,2.27-.27,2.27l.27-.2a1.45,1.45,0,0,1,.78-1.17c.62-.36.78-1.59.78-2.09C16.71,5.75,15.79,3.46,15.14,2.82Z"/><path class="cls-10" d="M6.13,20.08a6.27,6.27,0,0,0,5.85,0l.44.59s-4.31,1.63-6.64-.23Z"/></g></g></g></g></svg>