<svg xmlns="http://www.w3.org/2000/svg" xmlns:xlink="http://www.w3.org/1999/xlink" viewBox="0 0 16.2 27.03"><defs><style>.cls-1{fill:none;}.cls-2{fill:#2b0f0f;}.cls-3{fill:#e2bf9c;}.cls-4{fill:#f2d1ac;}.cls-5{clip-path:url(#clip-path);}.cls-6{fill:#c09a80;}.cls-7{fill:#d3a789;}.cls-8{fill:#e0b89b;}.cls-9{fill:#422326;}.cls-10{fill:#5b3638;}.cls-11{fill:#121212;}.cls-12{fill:#f6f0d7;}.cls-13{fill:#4c4c4c;}.cls-14{fill:#fff;}.cls-15{fill:#231f20;}.cls-16{fill:#3d3d3d;}.cls-17{fill:#27170f;}</style><clipPath id="clip-path"><rect class="cls-1" x="6.33" y="17.46" width="3.53" height="2.08"/></clipPath></defs><g id="Layer_2" data-name="Layer 2"><g id="avatars"><g id="row-02"><g id="avatar-02-24"><path class="cls-2" d="M14.09,14a1.62,1.62,0,0,1,1.21,1.3A3.71,3.71,0,0,1,15.09,18a4.23,4.23,0,0,1-3.73,2.38,3.35,3.35,0,0,1-2.51-1.18c-.29-.63-.54-.83-.5-1.33s2.6-4.34,3.22-4.34a19.9,19.9,0,0,1,2.52.43"/><path class="cls-3" d="M8.09,15.32V27H1.72L1.57,27c0-3.91,1.51-5.57,2.65-6.26a3.5,3.5,0,0,1,1.24-.49c.39,0,.64-.5.81-1.25,0-.12.05-.24.06-.37s.07-.44.09-.68,0-.29,0-.43c0-.72.07-1.5.07-2.24,0,0,.86.08,1.55.08"/><path class="cls-4" d="M14.63,27l-.15.07H8.09V15.32h0c.69,0,1.55-.08,1.55-.08,0,.73,0,1.51.08,2.22,0,.14,0,.28,0,.42s.05.48.09.7h0a2.33,2.33,0,0,0,.05.28c.16.81.42,1.35.83,1.35a3.71,3.71,0,0,1,1.54.69c1.09.79,2.35,2.48,2.35,6.06"/><g class="cls-5"><path class="cls-6" d="M9.86,18.58h0a2,2,0,0,1-1.76,1h0a2.21,2.21,0,0,1-1.75-1c0-.21.06-.44.09-.68s0-.29,0-.43a7.28,7.28,0,0,0,1.6.21h0a6.56,6.56,0,0,0,1.64-.23c0,.14,0,.29,0,.42s.06.48.09.7"/></g><path class="cls-7" d="M8.09,2.74c-6.65,0-6.69,5.32-6.39,8.81C1.24,10.73-.1,11,0,12.34S2,14.16,2,14c.54,2.84,3.68,4.42,6.1,4.64h.05V2.74H8.09"/><path class="cls-6" d="M.34,11.79a.65.65,0,0,1,1-.18.51.51,0,0,1,.16.58c0,.17-.23.18-.19.44a.46.46,0,0,0,.27.37.54.54,0,0,1,.23.24.57.57,0,0,1,0,.36c-.05.21-.37,0-.58,0A4.37,4.37,0,0,1,.53,13a1.11,1.11,0,0,1-.19-1.22"/><path class="cls-8" d="M8.12,2.74c6.64,0,6.68,5.32,6.39,8.81.45-.82,1.8-.52,1.69.79s-2,1.82-2,1.68c-.54,2.84-3.67,4.42-6.09,4.64h0V2.74h0"/><path class="cls-6" d="M15.91,11.79a.65.65,0,0,0-1-.18.51.51,0,0,0-.16.58c.05.17.23.18.19.44a.44.44,0,0,1-.27.37.54.54,0,0,0-.23.24.64.64,0,0,0,0,.36c.05.21.37,0,.58,0a4,4,0,0,0,.7-.54,1.11,1.11,0,0,0,.19-1.22"/><path class="cls-3" d="M8.05,4.25c-2.22,0-3.84.61-4.82,1.82-1.38,1.69-1.33,4.26-.82,6.11.16.57.24,2.09.34,2.65.48,2.5,3.39,3.83,5.3,3.83h0V4.25h0"/><path class="cls-4" d="M12.87,6.07c-1-1.2-2.59-1.81-4.77-1.82V18.66c2.19,0,4.8-1.48,5.25-3.83.1-.56.18-2.08.34-2.65.5-1.84.55-4.41-.82-6.11"/><path class="cls-9" d="M9.21,16.45A1.76,1.76,0,0,1,8.09,17,1.66,1.66,0,0,1,7,16.46a7.21,7.21,0,0,1,1.09-.08,9,9,0,0,1,1.12.07"/><path class="cls-10" d="M8.41,16.21a.29.29,0,0,0-.32.24c0-.14-.14-.24-.32-.24a4.67,4.67,0,0,0-.8.24s.61.07.79.07.33.07.33-.06c0,.13.13.08.3.08s.82-.09.82-.09a4.67,4.67,0,0,0-.8-.24"/><line class="cls-11" x1="6.98" y1="24.95" x2="9.79" y2="24.05"/><polygon class="cls-12" points="6.99 25 6.96 24.89 9.77 24 9.8 24.11 6.99 25"/><line class="cls-11" x1="9.2" y1="24.95" x2="6.39" y2="24.05"/><polygon class="cls-12" points="9.19 25 6.37 24.11 6.41 24 9.22 24.89 9.19 25"/><line class="cls-11" x1="6.31" y1="24.05" x2="10.97" y2="22.57"/><rect class="cls-12" x="6.19" y="23.25" width="4.89" height="0.11" transform="translate(-6.71 3.76) rotate(-17.8)"/><line class="cls-11" x1="9.87" y1="24.05" x2="5.2" y2="22.57"/><polygon class="cls-12" points="9.86 24.11 5.18 22.62 5.21 22.51 9.89 24 9.86 24.11"/><line class="cls-11" x1="5.36" y1="22.81" x2="12" y2="20.78"/><polygon class="cls-12" points="5.38 22.86 5.34 22.76 11.98 20.73 12.01 20.84 5.38 22.86"/><line class="cls-11" x1="10.87" y1="22.81" x2="4.23" y2="20.78"/><polygon class="cls-12" points="10.86 22.86 4.21 20.84 4.25 20.73 10.89 22.76 10.86 22.86"/><rect class="cls-13" x="14.37" y="14.02" width="0.11" height="1.26"/><path class="cls-14" d="M14.88,15.51a.44.44,0,0,0-.45-.42.44.44,0,0,0-.45.42.41.41,0,0,0,.25.37.21.21,0,0,0-.06.16.25.25,0,0,0,.26.23.25.25,0,0,0,.26-.23.22.22,0,0,0-.07-.16.42.42,0,0,0,.26-.37"/><path class="cls-15" d="M14.33,15.49a.11.11,0,0,1-.12.11.11.11,0,0,1-.11-.11.12.12,0,0,1,.11-.12.12.12,0,0,1,.12.12"/><path class="cls-15" d="M14.75,15.49a.11.11,0,0,1-.12.11.11.11,0,0,1-.11-.11.12.12,0,0,1,.11-.12.12.12,0,0,1,.12.12"/><polygon class="cls-15" points="14.43 15.82 14.3 15.82 14.36 15.71 14.43 15.6 14.49 15.71 14.55 15.82 14.43 15.82"/><rect class="cls-15" x="14.3" y="15.93" width="0.25" height="0.11"/><path class="cls-16" d="M14.67,13.94a.25.25,0,1,1-.24-.24.25.25,0,0,1,.24.24"/><path class="cls-2" d="M1.19,6.46A9.14,9.14,0,0,1,1.81,4C2.49,2.5,3.9,1.87,6.12,1,7.91.23,8.68.5,10.32.92a1.34,1.34,0,0,1,.32-.54c.74-.74,2.32-.36,3.53.85s1.51,2.5,1,3.3a7.5,7.5,0,0,1,.46,1.65c0,.1,0,.19,0,.28.28,2,0,2.8-.21,3.24a3.82,3.82,0,0,0-.23.47,5.16,5.16,0,0,1-.49,1.13,1.54,1.54,0,0,0-.47.64c-.21.56-.3.47-.3.47s.31-2,.34-2.71V9.6A4.64,4.64,0,0,0,13,6.46l-.18-.15A4.48,4.48,0,0,0,10,5.89s-.42.29-1,.57A4,4,0,0,1,7.09,7C2.88,6.74,2,9,1.9,9.46a1.94,1.94,0,0,0,0,.24c.05.59.11,1.27.16,1.72s.14,1,.14,1-.09.09-.3-.47a1.67,1.67,0,0,0-.39-.58,6.46,6.46,0,0,0-.35-1.19,1.6,1.6,0,0,1-.11-.47C1,9.36,1,8.91,1,8.63A18.68,18.68,0,0,1,1.19,6.46Z"/><path class="cls-17" d="M12,20.7a7.37,7.37,0,0,1-1.18,1.95,18.06,18.06,0,0,1-2.72,2.61,17.66,17.66,0,0,1-2.69-2.61A7.6,7.6,0,0,1,4.22,20.7c-1.14.69-2.65,2.35-2.65,6.26l.15.07H14.5l.16-.07c0-3.91-1.53-5.57-2.68-6.26"/></g></g></g></g></svg>