<svg xmlns="http://www.w3.org/2000/svg" xmlns:xlink="http://www.w3.org/1999/xlink" viewBox="0 0 16.39 26.41"><defs><style>.cls-1{fill:none;}.cls-2{fill:#e2bf9c;}.cls-3{fill:#f2d1ac;}.cls-4{clip-path:url(#clip-path);}.cls-5{fill:#c09a80;}.cls-6{fill:#d3a789;}.cls-7{fill:#e0b89b;}.cls-8{clip-path:url(#clip-path-2);}.cls-9{fill:#1b1d1e;opacity:0.4;}.cls-10{clip-path:url(#clip-path-3);}.cls-11{fill:#2c292a;}.cls-12{fill:#454545;}.cls-13{fill:#070708;}.cls-14{fill:#e2e2e2;}.cls-15{fill:#202d2d;}.cls-16{fill:#101212;}.cls-17{fill:#f9f9fa;}.cls-18{fill:#ebeced;opacity:0.1;}</style><clipPath id="clip-path"><rect class="cls-1" x="6.5" y="16.76" width="3.51" height="2.1"/></clipPath><clipPath id="clip-path-2"><rect class="cls-1" x="2.55" y="10.02" width="4.71" height="4.03"/></clipPath><clipPath id="clip-path-3"><rect class="cls-1" x="9.12" y="10.02" width="4.71" height="4.03"/></clipPath></defs><g id="Layer_2" data-name="Layer 2"><g id="avatars"><g id="row-02"><g id="avatar-02-30"><path class="cls-2" d="M8.25,14.6V26.4H1.91l-.16-.06c0-6.33,3.88-6.81,3.88-6.81.39,0,.64-.5.81-1.26,0-.12,0-.24.06-.37s.07-.45.09-.69,0-.28,0-.43c.06-.73.08-1.52.08-2.26,0,0,.85.08,1.54.08"/><path class="cls-3" d="M14.77,26.34l-.15.06H8.25V14.6h0c.69,0,1.55-.08,1.55-.08,0,.74,0,1.52.08,2.24,0,.14,0,.29,0,.43s.05.48.09.7h0a2.33,2.33,0,0,0,.05.28c.16.82.42,1.36.82,1.36,0,0,3.88.48,3.88,6.81"/><g class="cls-4"><path class="cls-5" d="M10,17.89h0a2.07,2.07,0,0,1-1.76,1h0a2.21,2.21,0,0,1-1.75-1q.06-.33.09-.69c0-.14,0-.29,0-.43a7.28,7.28,0,0,0,1.6.21h0a6.56,6.56,0,0,0,1.64-.23c0,.14,0,.29,0,.43s.05.48.09.7"/></g><path class="cls-6" d="M8.18,1.07c-6.72,0-6.76,5.69-6.46,9.41C1.26,9.6-.11,9.87,0,11.26s2,2,2,1.88C2.57,16.21,5.73,18,8.18,18h.05V1.07H8.18"/><path class="cls-5" d="M.44,10.68a.63.63,0,0,1,1-.19.58.58,0,0,1,.16.62c-.05.18-.24.19-.19.46a.46.46,0,0,0,.27.39.78.78,0,0,1,.22.25.66.66,0,0,1,0,.39c0,.22-.37,0-.58,0A4.16,4.16,0,0,1,.63,12a1.21,1.21,0,0,1-.19-1.29"/><path class="cls-7" d="M8.21,1.07c6.72,0,6.76,5.69,6.46,9.41.46-.88,1.83-.61,1.72.78s-2,2-2,1.88C13.83,16.21,10.66,18,8.21,18H8.16V1.07h.05"/><path class="cls-5" d="M16,10.68a.63.63,0,0,0-1-.19.56.56,0,0,0-.16.62c0,.18.23.19.19.46a.46.46,0,0,1-.27.39.7.7,0,0,0-.23.25.66.66,0,0,0,0,.39c0,.22.37,0,.58,0a4.16,4.16,0,0,0,.69-.58,1.21,1.21,0,0,0,.2-1.29"/><path class="cls-2" d="M8.21,2.68C6,2.68,4.38,3.33,3.4,4.61,2,6.4,2.09,9.13,2.59,11.1c.15.59.23,2.21.34,2.8C3.41,16.56,6.3,18,8.21,18h0V2.68h0"/><path class="cls-3" d="M13,4.61c-1-1.27-2.57-1.92-4.75-1.93V18c2.18,0,4.78-1.57,5.23-4.07.11-.59.19-2.21.34-2.8.5-2,.56-4.69-.82-6.49"/><g class="cls-8"><path class="cls-9" d="M7.24,11.88a2.47,2.47,0,0,1-2.52,2.17c-1.89,0-2.14-1-2.14-2.05s-.47-2,2.29-2,2.37.77,2.37,1.86"/></g><g class="cls-10"><path class="cls-9" d="M9.14,11.88a2.47,2.47,0,0,0,2.52,2.17c1.88,0,2.14-1,2.14-2.05s.46-2-2.29-2-2.37.77-2.37,1.86"/></g><path class="cls-11" d="M7.74,10.31c-.16,0-.55-.17-1-.28a8.27,8.27,0,0,0-.9-.2,13,13,0,0,0-2.46,0,6.06,6.06,0,0,0-1.62.26,2.15,2.15,0,0,0,0,.8c.07.08.32.22.38.46s.31,2,.87,2.44a3,3,0,0,0,4.52-2c.07-.39.17-.61.33-.68a.91.91,0,0,1,.3,0v-.66a1.57,1.57,0,0,1-.47,0M7.1,12c-.48,2.22-2.8,2-3.36,1.79-.24-.08-1-.36-1.08-2.17-.08-1.26.5-1.33,1.32-1.44a6.5,6.5,0,0,1,1.67,0c.4.05,1.34.25,1.43.59A2.48,2.48,0,0,1,7.1,12"/><path class="cls-11" d="M8.15,10.35V11a.91.91,0,0,1,.3,0c.16.07.26.29.33.68a3,3,0,0,0,4.52,2c.56-.47.81-2.2.87-2.44s.31-.38.38-.46a2.15,2.15,0,0,0,0-.8,6.16,6.16,0,0,0-1.62-.26,13,13,0,0,0-2.46,0,8.27,8.27,0,0,0-.9.2c-.4.11-.79.25-1,.28a1.57,1.57,0,0,1-.47,0m1.13.41c.09-.34,1-.54,1.43-.59a6.43,6.43,0,0,1,1.66,0c.83.11,1.41.18,1.33,1.44-.12,1.81-.84,2.09-1.08,2.17-.56.18-2.88.43-3.36-1.79a2.6,2.6,0,0,1,0-1.22"/><path class="cls-12" d="M2,10.72a.09.09,0,0,1-.09.08.08.08,0,0,1-.08-.09l0-.56A.07.07,0,0,1,2,10.08a.08.08,0,0,1,.08.09Z"/><path class="cls-12" d="M14.3,10.72a.08.08,0,0,0,.09.08.07.07,0,0,0,.07-.09l0-.56a.08.08,0,0,0-.09-.07.08.08,0,0,0-.08.09Z"/><path class="cls-13" d="M3.92,3.66A4.6,4.6,0,0,1,7.36,1.4,10.51,10.51,0,0,1,11,1.4a2.41,2.41,0,0,1,1.54,1.26c.25.54.14,2.24-3.19,2.48-1.27.09-3.42.6-3.79,1.17C5,7.26,6.53,8,6.53,8S4.42,7.34,3.91,6.22a2.72,2.72,0,0,1,0-2.56"/><path class="cls-14" d="M11.27,21.12a26.34,26.34,0,0,1-2,5.29H7.22a26.34,26.34,0,0,1-2-5.3,3.63,3.63,0,0,1,.33-1.44,4.22,4.22,0,0,1,.6-.89l0,0h.06l2,1.41,2-1.41h.06l0,.05a4.13,4.13,0,0,1,.46.62l.12.24a3.56,3.56,0,0,1,.34,1.46"/><path class="cls-15" d="M7.19,26.39c-.05-.09-.09-.19-.14-.28s0,0,0,0q-.13-.3-.27-.57L6.56,25c-.27-.59-.5-1.13-.64-1.51a9.52,9.52,0,0,1-.39-1.44l0-.18a.08.08,0,0,0,0,0c0-.05,0-.11,0-.17s0-.05,0-.08a6.06,6.06,0,0,1,0-2s0,0,0-.05c-.73.17-3.72,1.21-3.72,6.77l.16.07H7.2Z"/><path class="cls-15" d="M9.34,26.39l.13-.28,0,0q.13-.3.27-.57L10,25c.27-.59.5-1.13.63-1.51A8.48,8.48,0,0,0,11,22.09c0-.06,0-.12,0-.18v0l0-.17a.19.19,0,0,0,0-.08,6.08,6.08,0,0,0,0-2s0,0,0-.05c.73.17,3.72,1.21,3.72,6.77l-.15.07H9.33Z"/><path class="cls-16" d="M7.51,26.41H6.41c0-.06-.09-.12-.14-.17a11.37,11.37,0,0,1-2.61-4.72l.93-.47L4,20.62s.22-.28.63-.71a4.91,4.91,0,0,1,.45-.38,3.43,3.43,0,0,1,.75-.44s-.27.38-.21,2c0,.11,0,.21,0,.33a.15.15,0,0,0,0,.07l0,.16v0l0,.16a14.87,14.87,0,0,0,.93,2.72l.2.44.24.52c0,.1.09.2.14.29s.1.21.15.32.07.16.11.25"/><path class="cls-16" d="M12.87,21.52a11.37,11.37,0,0,1-2.61,4.72l-.14.17H9c.29-.6.63-1.31.94-2.05,0,0,0,0,0-.06a0,0,0,0,1,0,0,13.2,13.2,0,0,0,.82-2.56.09.09,0,0,1,0-.05l0-.17v-.07c0-.11,0-.22,0-.33a7.48,7.48,0,0,0-.08-1.69c0-.05,0-.09,0-.13v0a.62.62,0,0,0-.08-.18,3.75,3.75,0,0,1,.73.44h0a5.18,5.18,0,0,1,.46.38c.39.43.62.71.62.71l-.57.43Z"/><path class="cls-17" d="M10.69,19c-.09-.25-.32-.48-.41-.68L10,17.73a3.05,3.05,0,0,1-1,1.72c-.62.51-.94.75-.71.8A12.64,12.64,0,0,1,9.9,22.09c.32.37.27.73.35.21a10.8,10.8,0,0,0,.4-1.69c0-.67.3-.91,0-1.58"/><path class="cls-17" d="M7.48,19.45a3.05,3.05,0,0,1-1-1.72l-.27.62c-.08.2-.32.43-.41.68-.26.67,0,.91,0,1.58a12.14,12.14,0,0,0,.39,1.69c.09.52,0,.16.36-.21a12.64,12.64,0,0,1,1.56-1.84c.23-.05-.09-.29-.71-.8"/><path class="cls-18" d="M3.74,13.77c.49.15,2.34.37,3.11-1.09a4.52,4.52,0,0,0-4,0A1.39,1.39,0,0,0,3.74,13.77Z"/><path class="cls-18" d="M12.61,13.77a1.31,1.31,0,0,0,.84-.9A3.54,3.54,0,0,0,9.67,13,2.85,2.85,0,0,0,12.61,13.77Z"/><path class="cls-13" d="M14.76,9.87a1.54,1.54,0,0,0-.4.61c-.22.59-.31.48-.31.48S14.4,8.68,14.4,8s-2-5.35-3.07-5.72-2.07,2.4-3.25,2.4c0,0-2.3-2.77-3.39-2.4S1.62,7.41,1.62,8,2,11,2,11s-.09.11-.31-.48a1.52,1.52,0,0,0-.48-.67C.88,5.84,1.05,0,8,0H8c6.94,0,7.07,5.91,6.77,9.87"/></g></g></g></g></svg>