<svg xmlns="http://www.w3.org/2000/svg" viewBox="0 0 15.25 25.58"><defs><style>.cls-1{fill:#e1bf9c;}.cls-2{fill:#f2d1ac;}.cls-3,.cls-5{fill:#c09a80;}.cls-3{opacity:0.7;}.cls-4{fill:#d3a789;}.cls-6{fill:#e0b89b;}.cls-7{fill:#c6696e;}.cls-8{fill:#d87373;}.cls-9{fill:none;}.cls-10{fill:#f0efee;}.cls-11{fill:#191919;}</style></defs><g id="Layer_2" data-name="Layer 2"><g id="avatars"><g id="row-01"><g id="avatar-01-34"><path class="cls-1" d="M7.62,14.44V25.58h-6l-.15-.06c0-4.07,1.7-5.58,2.78-6.12a2.83,2.83,0,0,1,.89-.3h0l.08,0c.3-.09.5-.54.64-1.18A2,2,0,0,0,6,17.55a6.37,6.37,0,0,0,.09-.65c0-.13,0-.27,0-.41,0-.68.07-1.43.07-2.13C6.16,14.36,7,14.44,7.62,14.44Z"/><path class="cls-2" d="M13.78,25.52l-.15.06h-6V14.44h0c.65,0,1.46-.08,1.46-.08,0,.7,0,1.43.07,2.11,0,.14,0,.28,0,.41s.05.45.08.66h0c0,.1,0,.18.05.27.13.62.31,1.08.58,1.23l.06,0a.35.35,0,0,0,.14,0,2.56,2.56,0,0,1,.72.22C11.9,19.8,13.78,21.24,13.78,25.52Z"/><path class="cls-3" d="M9.28,17.54h0a1.93,1.93,0,0,1-1.66.91h0A2.14,2.14,0,0,1,6,17.55a6.37,6.37,0,0,0,.09-.65c0-.13,0-.27,0-.41a6.48,6.48,0,0,0,1.51.2h0a5.84,5.84,0,0,0,1.54-.22c0,.14,0,.28,0,.41S9.25,17.33,9.28,17.54Z"/><path class="cls-4" d="M7.61,2.46c-6.25,0-6.29,5.07-6,8.39-.43-.78-1.7-.49-1.59.75s1.89,1.73,1.86,1.6c.51,2.7,3.46,4.2,5.74,4.42h0V2.46Z"/><path class="cls-5" d="M.32,11.08a.62.62,0,0,1,.92-.17.51.51,0,0,1,.15.55c0,.16-.22.17-.18.42a.44.44,0,0,0,.25.35.55.55,0,0,1,.22.23.57.57,0,0,1,0,.34c0,.2-.34,0-.54-.05a4.49,4.49,0,0,1-.66-.51A1,1,0,0,1,.32,11.08Z"/><path class="cls-6" d="M7.64,2.46c6.25,0,6.29,5.07,6,8.39.43-.78,1.7-.49,1.6.75s-1.9,1.73-1.87,1.6c-.51,2.7-3.46,4.2-5.74,4.42h0V2.46Z"/><path class="cls-5" d="M15,11.08a.62.62,0,0,0-.92-.17.48.48,0,0,0-.15.55c.05.16.22.17.18.42a.43.43,0,0,1-.26.35.59.59,0,0,0-.21.23.66.66,0,0,0,0,.34c.05.2.35,0,.55-.05a4.49,4.49,0,0,0,.66-.51A1.07,1.07,0,0,0,15,11.08Z"/><path class="cls-1" d="M7.58,3.9C5.49,3.9,4,4.48,3,5.63c-1.3,1.61-1.25,4.06-.77,5.82.15.54.22,2,.32,2.52.45,2.38,3.19,3.65,5,3.65h0V3.9Z"/><path class="cls-2" d="M12.11,5.64A5.46,5.46,0,0,0,7.63,3.9V17.62c2.05,0,4.51-1.41,4.94-3.65.09-.53.17-2,.32-2.52C13.36,9.7,13.41,7.25,12.11,5.64Z"/><path class="cls-7" d="M8.68,15.47A1.66,1.66,0,0,1,7.62,16a1.55,1.55,0,0,1-1-.5,6.32,6.32,0,0,1,1-.08A8,8,0,0,1,8.68,15.47Z"/><path class="cls-8" d="M7.92,15.23a.29.29,0,0,0-.3.23.27.27,0,0,0-.29-.23,4,4,0,0,0-.76.24s.58.06.74.06.31.06.31-.06c0,.13.13.08.29.08s.77-.08.77-.08A4,4,0,0,0,7.92,15.23Z"/><polygon class="cls-9" points="3.65 22.98 3.65 22.98 3.66 22.98 3.65 22.98"/><path class="cls-1" d="M2.7,20.89H2.61C2.33,21.64,3.66,23,3.66,23h0C3.3,22.28,3,21.56,2.7,20.89Z"/><path class="cls-1" d="M2.7,20.89c.27.67.6,1.39,1,2.08C3.75,21,3,20.88,2.7,20.89Z"/><path class="cls-10" d="M13.42,2.5a3.57,3.57,0,0,0-1.36-.76S10.38.89,9.1.29,5.74.17,4.66.45A5.8,5.8,0,0,0,1.89,3.12a24.49,24.49,0,0,0-1.71,4A2.8,2.8,0,0,0,1.6,10c.44.17.47,1.21.47,1.21l.47.21A3.87,3.87,0,0,1,2.29,10c0-.48,0-1.94,0-1.94s.89-.18,1.93-.42c0,0,5.49-1.91,1.85,1.93,2.85-1,3.86-4.05,4-4.49l0,0a4.73,4.73,0,0,1,1.71.85,3.53,3.53,0,0,1,1.69,3c0,.57-.26,2.22-.26,2.22l.26-.18a1.28,1.28,0,0,1,.71-1c.58-.32.72-1.4.72-1.85C14.87,5.1,14,3.07,13.42,2.5Z"/><path class="cls-11" d="M13.16,21.87a5.29,5.29,0,0,0-.93-1.5,4.1,4.1,0,0,0-1.4-1.05,13.37,13.37,0,0,1-2.15,2.45C6,23.27,4,19.56,4,19.56a4.24,4.24,0,0,0-1.3,1.26l0,.07c.27,0,1,.13,1,2.08h0v2.58l1.52,0h8.45l.15-.06A9.53,9.53,0,0,0,13.16,21.87Z"/></g></g></g></g></svg>