<svg xmlns="http://www.w3.org/2000/svg" xmlns:xlink="http://www.w3.org/1999/xlink" viewBox="0 0 18.49 26.63"><defs><style>.cls-1{fill:none;}.cls-2{fill:#7b532d;}.cls-3{fill:#563825;}.cls-4{fill:#e2bf9c;}.cls-5{fill:#f2d1ac;}.cls-6{clip-path:url(#clip-path);}.cls-7{fill:#c09a80;}.cls-8{fill:#d3a789;}.cls-9{fill:#e0b89b;}.cls-10{fill:#c7696e;}.cls-11{fill:#d87373;}</style><clipPath id="clip-path"><rect class="cls-1" x="7.11" y="17.06" width="3.53" height="2.08"/></clipPath></defs><g id="Layer_2" data-name="Layer 2"><g id="avatars"><g id="row-02"><g id="avatar-02-26"><path class="cls-2" d="M2.36,15.43a5.39,5.39,0,0,1,1.19,3.16,3,3,0,0,1-.49,1.27,2.21,2.21,0,0,0,1-1.63A5.19,5.19,0,0,0,3,14.53Z"/><path class="cls-2" d="M3.87,16a5.39,5.39,0,0,1,1.19,3.16,3,3,0,0,1-.48,1.27,2.21,2.21,0,0,0,1-1.63,5.24,5.24,0,0,0-1.13-3.7Z"/><path class="cls-3" d="M8.65,19.47c-1.26.1-1.9.8-2.17.36a11.46,11.46,0,0,1-1.24-1.62c-.25-.59-.55-1.4-.55-1.4s-.3.06-.15,1a1.37,1.37,0,0,0,.61.94,1.41,1.41,0,0,1-1.09-.9c-.14-.39-.15-1.16-.3-1.7a3.31,3.31,0,0,0-.89-1.19,1.67,1.67,0,0,1,.07,1.3c-.08.28-.53,1.23-.12,1.71a1.19,1.19,0,0,0,1,.39s-.94.33-1.42-.14-.71-.43-.76-1.06a4.81,4.81,0,0,0-.15-1.47C1.31,15.06.88,14,.88,14a2.17,2.17,0,0,1,.52,2.45A1.25,1.25,0,0,1,.14,17s2-.26.19-2.54c-.43-.55.11-1.4-.17-2.33a4.16,4.16,0,0,1,.26-3,23.23,23.23,0,0,0,1-3.1C1.85,4.56,3.17,3.9,3.85,2.83s.61-1.37,1.47-1.66A3.65,3.65,0,0,1,7.08.83a6.77,6.77,0,0,1,2.2.52S9.63,1,9.62.88A1.87,1.87,0,0,0,9.28,0s.73.67.81.78a.92.92,0,0,1,.15.65.84.84,0,0,1,.88-.54,3,3,0,0,1,1.56.18,10.4,10.4,0,0,1,1.74,1.17,6.35,6.35,0,0,1,1.67,1.28,7.6,7.6,0,0,1,1.31,2,9.2,9.2,0,0,1,0,2.22,5.64,5.64,0,0,0,.26,2.13c.25.55-.14,1.36.39,1.29s.46-.27.46-.27a.66.66,0,0,1-.95.43c-.33-.14-.54-.79-.54-.79a3,3,0,0,1,.7,1.33c.1,1.58-.77,1.83-.67,3.63,0,.37,0,.76.6.55a1,1,0,0,0,.34-.23s-.58.71-1.08.28a6.81,6.81,0,0,1-.55-2.17,2.6,2.6,0,0,1,.09,2.23c-.27.74-1,1.09-1.14,1.24a.83.83,0,0,0,0,1.05,1,1,0,0,0,.75.12,1.39,1.39,0,0,1-.49.19.91.91,0,0,1-.82-.2c-.3-.25-.4-.57-.28-1.2A3,3,0,0,1,15,16.21a17.75,17.75,0,0,1-.66,1.9c-.17.29-.1.54-.38.74S13,19.1,13,20c0,.28.34.36.34.36s-.74,0-.75-.7a1.23,1.23,0,0,1,.15-.74c.21-.53.83-.69.83-1.27a1.56,1.56,0,0,0-.23-.88.71.71,0,0,1,0,.93,3.44,3.44,0,0,1-.83.71c-.5.34-.55.34-.61.57s.41.34-.12.55.35.73-1.16.29a5.93,5.93,0,0,0-1.94-.39"/><path class="cls-4" d="M9,14.92V26.63H2.61l-.16-.07c0-3,.86-4.63,1.77-5.56a3.92,3.92,0,0,1,2.13-1.19h0l.08,0c.33-.09.55-.56.69-1.24,0-.11,0-.24.07-.36s.07-.45.09-.68,0-.29,0-.44c.06-.72.07-1.5.07-2.24,0,0,.78.08,1.45.09Z"/><path class="cls-5" d="M15.41,26.56l-.15.07H8.87V14.92H9c.68,0,1.46-.09,1.46-.09,0,.74,0,1.51.08,2.22,0,.15,0,.29,0,.43s0,.48.09.7h0a2.33,2.33,0,0,0,0,.28,2,2,0,0,0,.61,1.3l.07,0a.32.32,0,0,0,.14,0,3.87,3.87,0,0,1,2,1,5.37,5.37,0,0,1,.61.7,8.36,8.36,0,0,1,1.31,5"/><g class="cls-6"><path class="cls-7" d="M10.64,18.18h0a2.07,2.07,0,0,1-1.77,1h0a2.21,2.21,0,0,1-1.75-.95c0-.22.07-.45.09-.68s0-.29,0-.44a6.81,6.81,0,0,0,1.61.21h0a6.65,6.65,0,0,0,1.65-.22c0,.14,0,.28,0,.42a7,7,0,0,0,.09.7"/></g><path class="cls-8" d="M8.86,2.33c-6.64,0-6.68,5.33-6.39,8.81-.45-.82-1.8-.51-1.69.8s2,1.82,2,1.68c.55,2.84,3.68,4.41,6.1,4.63h.05V2.33H8.86"/><path class="cls-7" d="M1.11,11.38a.67.67,0,0,1,1-.17.52.52,0,0,1,.16.58c0,.17-.24.18-.19.43a.48.48,0,0,0,.27.38.56.56,0,0,1,.23.23.75.75,0,0,1,0,.36c-.06.21-.37,0-.59,0a3.84,3.84,0,0,1-.69-.53,1.11,1.11,0,0,1-.2-1.23"/><path class="cls-9" d="M8.89,2.33c6.65,0,6.69,5.33,6.39,8.81.46-.82,1.8-.51,1.69.8s-2,1.82-2,1.68c-.54,2.84-3.68,4.41-6.1,4.63H8.84V2.33h.05"/><path class="cls-7" d="M16.69,11.38a.67.67,0,0,0-1-.17.52.52,0,0,0-.16.58c0,.17.24.18.19.43a.48.48,0,0,1-.27.38.48.48,0,0,0-.25.59c0,.21.36,0,.58,0a3.84,3.84,0,0,0,.69-.53,1.11,1.11,0,0,0,.2-1.23"/><path class="cls-4" d="M8.83,3.84C6.61,3.84,5,4.46,4,5.66c-1.37,1.69-1.32,4.27-.81,6.12.15.56.23,2.09.34,2.64.47,2.51,3.38,3.84,5.3,3.84h.05V3.84H8.83"/><path class="cls-5" d="M13.64,5.67c-1-1.2-2.58-1.81-4.76-1.83V18.26c2.18,0,4.79-1.49,5.24-3.84.11-.55.19-2.08.34-2.64.51-1.85.56-4.42-.82-6.11"/><path class="cls-10" d="M10,16a1.77,1.77,0,0,1-1.12.53A1.7,1.7,0,0,1,7.78,16a7.38,7.38,0,0,1,1.09-.08A9,9,0,0,1,10,16"/><path class="cls-11" d="M9.19,15.75a.3.3,0,0,0-.32.24.28.28,0,0,0-.31-.24,4.42,4.42,0,0,0-.81.25s.62.06.79.06.33.07.33-.06c0,.13.13.08.31.08S10,16,10,16a4.27,4.27,0,0,0-.8-.25"/><path class="cls-11" d="M15.41,26.56l-.15.07H2.61l-.16-.07c0-3,.87-4.84,1.92-5.71a2.71,2.71,0,0,0,0,.41,2.81,2.81,0,0,0,.15.73,7.18,7.18,0,0,0,3.56,2l.27,0,.45,0H9l.32,0,.27,0c.61-.06,3-1.06,3.56-2a3.22,3.22,0,0,0,.22-.72l0-.09c0-.1-.09-.39-.06-.54a5.31,5.31,0,0,1,.84.86,8.57,8.57,0,0,1,1.31,5.06"/><path class="cls-10" d="M8.41,26.63H7.7c0-.43,0-1.12,0-1.51a1.3,1.3,0,0,0-.64-1.34c-.72-.52-2.61-.48-2.8-1.73a3.32,3.32,0,0,1,0-.76h0a2.53,2.53,0,0,1,.12-.56s.35-.29.49-.38.7-.36.7-.36c0,.58-.47,1.85.11,2.28a12.71,12.71,0,0,0,2.16,1,.9.9,0,0,1,.51.73.78.78,0,0,1,0,.09c0,.42,0,1.85,0,2.58"/><path class="cls-10" d="M13.37,22.05c-.18,1.25-2.08,1.21-2.79,1.73a1.31,1.31,0,0,0-.65,1.34c0,.39,0,1.08.05,1.51H9.27c0-.73,0-2.16,0-2.58a.78.78,0,0,1,0-.09.92.92,0,0,1,.51-.73,12.71,12.71,0,0,0,2.16-1c.58-.43.11-1.73.11-2.31a4.73,4.73,0,0,1,.7.26,2,2,0,0,1,.51.46,3.88,3.88,0,0,1,.1.59h0a3.49,3.49,0,0,1,0,.78"/><path class="cls-3" d="M5.07,11.18Z"/><path class="cls-3" d="M15.84,5.7c-.57-.88-.61-.63-.61-.63s.57-2.39-3-2.92a9.2,9.2,0,0,0-1.39,0l.48.49A9.89,9.89,0,0,0,7,2.35,5.74,5.74,0,0,0,3,5a6.44,6.44,0,0,0-.89,2.39L3,6.1a6.14,6.14,0,0,0-.93,4.18c.55,4.16,2.48,4.94,2.48,4.94s-1.33-2.5-.45-4.12A5.17,5.17,0,0,1,8.2,8.31a3.73,3.73,0,0,0-3.13,2.86h0A2,2,0,0,1,6.31,10c.58-.23,1.35-.22,2.22-.45a4.66,4.66,0,0,0-.93,2.16,5.56,5.56,0,0,1,2.66-2l.36-.13a2.33,2.33,0,0,0-.18,2.17s-.07-1.09,2.31-1.77c1.37-.4,1.58-1.17,1.58-1.17a4.53,4.53,0,0,0,.18,1.26c.21.57.82.94.86,1.45a10.68,10.68,0,0,1-.43,2.75l.77-.61a23.43,23.43,0,0,0,.77-4.8A7,7,0,0,0,15.84,5.7Z"/></g></g></g></g></svg>