<svg xmlns="http://www.w3.org/2000/svg" xmlns:xlink="http://www.w3.org/1999/xlink" viewBox="0 0 18.26 24.9"><defs><style>.cls-1{fill:none;}.cls-2{fill:#cebc63;}.cls-3{fill:#b6a457;}.cls-4{fill:#b7a65b;}.cls-5{fill:#e2bf9c;}.cls-6{fill:#f2d1ac;}.cls-7{fill:#ddcd6b;}.cls-8{fill:#187f7c;}.cls-9{fill:#ccbc79;}.cls-10{clip-path:url(#clip-path);}.cls-11{fill:#c09a80;}.cls-12{fill:#d3a789;}.cls-13{fill:#e0b89b;}.cls-14{fill:#c7696e;}.cls-15{fill:#d87373;}</style><clipPath id="clip-path"><rect class="cls-1" x="6.34" y="15.33" width="3.53" height="2.08"/></clipPath></defs><g id="Layer_2" data-name="Layer 2"><g id="avatars"><g id="row-02"><g id="avatar-02-19"><path class="cls-2" d="M14.59,9.24a3.8,3.8,0,0,0,0,2.94c.39,1.1,2,2.94,2,4.37s-.78,2.58-.88,3.34,1.06,1.35.58,2.65a1.85,1.85,0,0,1-1,1,1.68,1.68,0,0,0,1.36-1.19c.35-1.09-.54-1.85-.13-2.7a6.2,6.2,0,0,0,.7-2.24c0-.6.42-1.1-.07-2.12s.17-1.39-.72-2.42a6.83,6.83,0,0,1-1.49-2.56,10.38,10.38,0,0,0-.34-1"/><path class="cls-3" d="M14.2,11.69a21.15,21.15,0,0,0,1.27,3.87,3.2,3.2,0,0,1,0,3A6.22,6.22,0,0,0,14.31,21c-.29,1.91.91,2.06.91,2.06a.89.89,0,0,1-1.12-.63c-.95-2.46.64-3.84.64-5s-1.54-3-1.7-3.55,1.16-2.22,1.16-2.22"/><path class="cls-4" d="M6.55,21.33c-.12.19-.07.17,0,0"/><path class="cls-4" d="M5.69,22.22c-.12.18-.08.17,0,0"/><path class="cls-4" d="M4.89,22.59c-.12.18-.07.17,0,0"/><path class="cls-4" d="M4.13,21.7c-.12.18-.07.17,0,0"/><path class="cls-4" d="M4.52,21.7c-.12.18-.07.17,0,0"/><path class="cls-4" d="M10,22.38c.12.19.07.17,0,0"/><path class="cls-4" d="M10,17.4c-.12,1.2-.77,2-.71,2.77a4.63,4.63,0,0,0,.51,2.14l.05.07a2,2,0,0,1-.11-1.17c.18-1.07.61-1.32.76-2.17.08-.49.3-.66.37-1a2.43,2.43,0,0,1,0,.27c-.12,1.19-.78,2-.72,2.77a4.66,4.66,0,0,0,.51,2.14l.05.07a2.22,2.22,0,0,1-.11-1.17,4,4,0,0,1,.4-1.18,1.77,1.77,0,0,0,0,.51,4.66,4.66,0,0,0,.51,2.14l.05.07a2,2,0,0,1-.11-1.17c0-.2.08-.36.12-.51a2.25,2.25,0,0,0,.32.72.43.43,0,0,0,0,.07,2.22,2.22,0,0,1-.11-1.17.66.66,0,0,1,0-.15,3.13,3.13,0,0,0,.41,1.25l.05.07a2.12,2.12,0,0,1-.11-1.17c.19-1.07.62-1.32.76-2.17s.7-.73.18-2.33a8,8,0,0,0-1.12-2.52c-.22-.37-.37-.3-.47-.12-.45-.57-.56.72-.56.72l0,0c-.14,0-.23.12-.29.32l-.26-.43c-.2-.33-.34-.31-.44-.17-.11-.21-.24-.41-.43-.72-.51-.84-.63.6-.63.6.33.85,1.21,1.42,1.08,2.61m1.39,2.41a1.25,1.25,0,0,1,.1-.31c0,.11-.07.21-.1.31"/><path class="cls-4" d="M10.87,23.27c.11.18.07.16,0,0"/><path class="cls-4" d="M11.66,23.64c.12.18.08.17,0,0"/><path class="cls-4" d="M12.43,22.75c.11.18.07.16,0,0"/><path class="cls-4" d="M12,22.75c.12.18.07.16,0,0"/><path class="cls-5" d="M8.09,13.19V24.9H1.72l-.15-.06c0-6.28,3.9-6.75,3.9-6.75h0l.08,0c.32-.09.54-.56.69-1.24,0-.12.05-.24.07-.37s.06-.44.09-.68,0-.28,0-.43c0-.72.07-1.5.07-2.24,0,0,.86.08,1.55.08"/><path class="cls-6" d="M14.64,24.84l-.15.06H8.09V13.19h0c.69,0,1.55-.08,1.55-.08,0,.74,0,1.51.07,2.22,0,.15,0,.29,0,.43s.05.47.08.69h0c0,.1,0,.19.05.27.14.66.33,1.14.62,1.3a.15.15,0,0,0,.07,0,.32.32,0,0,0,.14,0s3.9.47,3.9,6.75"/><path class="cls-7" d="M13.27,10.05c1.3-1.63,4.19,2.69,4.51,4s-.34,1.38-1,2.07-1.33,2.08-1.08,2.51c.42.74,1.23.51,1.72.41a2.09,2.09,0,0,0,.84-.37,3.56,3.56,0,0,1-1.8.78c-.73-.07-1.42-.77-1.32-1.37a5.32,5.32,0,0,1,.68-1.59c.18-.38,1.38-1.73.86-2.61a7,7,0,0,0-1.27-1.73c-.64-.66-2.6-1.49-2.14-2.08"/><path class="cls-8" d="M11.84,21a4.81,4.81,0,0,1-.54-2.76,3.45,3.45,0,0,0-.4-.13c-.07,0-.3-.08-.3-.05A3.94,3.94,0,0,1,8.15,22H8a4,4,0,0,1-2.45-3.92s-.22,0-.3.05a2.9,2.9,0,0,0-.39.13A4.81,4.81,0,0,1,4.35,21,4.3,4.3,0,0,0,3.19,24.9H13A4.35,4.35,0,0,0,11.84,21"/><path class="cls-2" d="M10.35,9.76a3.47,3.47,0,0,0,0,2.8c.39,1,2,2.8,2,4.17s-.78,2.46-.89,3.18,1.06,1.28.58,2.52a1.84,1.84,0,0,1-1,.93,1.65,1.65,0,0,0,1.35-1.13c.35-1-.54-1.76-.13-2.57A5.94,5.94,0,0,0,13,17.53c0-.58.41-1.05-.08-2s.17-1.33-.72-2.31a6.57,6.57,0,0,1-1.49-2.43,9.55,9.55,0,0,0-.34-1"/><path class="cls-3" d="M12.88,10.63a3.45,3.45,0,0,0-.4,2.77c.24,1.09,1.59,3,1.38,4.38s-1.11,2.34-1.32,3,.88,1.41.23,2.57a1.83,1.83,0,0,1-1.09.8,1.7,1.7,0,0,0,1.51-.94c.48-1-.3-1.82.22-2.57a5.76,5.76,0,0,0,1-2c.11-.56.56-1,.21-2s.36-1.29-.39-2.38a6.55,6.55,0,0,1-1.15-2.59,9.86,9.86,0,0,0-.19-1"/><path class="cls-9" d="M13.4,7.16c-2.09,4.28,2.48,6.52,2,7.6s-1.36,2.08-1.07,3.06.65.92.9,1.73A1.22,1.22,0,0,1,15,20.79s.75-.64.82-1.06-.49-1-.7-1.65-.35-.62.46-1.88,1.24-2.72.43-3.22c-1.14-.71-2.65-5.82-2.65-5.82"/><path class="cls-2" d="M10.62,14.21c.75,1.35,2.32,2.2,2.62,3.36s.33,1.79-.42,2.52c-1.4,1.35-1.19,2.16-.72,2.57a1.72,1.72,0,0,0,1.31.2s-2.07,0-.92-1.8c.77-1.22,1.44-1.39,1.93-2.14s.3-2.1-.43-3.6-.84-2-.74-2.44-2.61-1.17-2.79-.91a8.5,8.5,0,0,0,.16,2.24"/><path class="cls-7" d="M13.15,11.64a9.53,9.53,0,0,0,1.74,1.75c.72.65,2,1.64,1.88,2.52s-1.86.38-2.38.81-.75.88-.48,1.19-1-.36-.17-1.11,1.62-.67,1.6-1.26a2.37,2.37,0,0,0-.76-1.39c-.34-.38-1.83-1.45-1.79-1.64a8.1,8.1,0,0,1,.36-.87"/><g class="cls-10"><path class="cls-11" d="M9.86,16.45h0a2,2,0,0,1-1.76,1h0a2.21,2.21,0,0,1-1.75-1c0-.21.06-.44.09-.67s0-.29,0-.44a6.73,6.73,0,0,0,1.6.21h0a6.49,6.49,0,0,0,1.64-.23c0,.15,0,.29,0,.43s.06.48.09.69"/></g><path class="cls-12" d="M8.09.61C1.44.6,1.4,5.94,1.7,9.42,1.24,8.6-.1,8.91,0,10.21S2,12,2,11.9c.54,2.83,3.68,4.41,6.1,4.63h.05V.61H8.09"/><path class="cls-11" d="M.34,9.66a.65.65,0,0,1,1-.17.51.51,0,0,1,.16.58c0,.16-.23.18-.19.43a.48.48,0,0,0,.27.38.56.56,0,0,1,.23.23.57.57,0,0,1,0,.36c-.05.21-.37,0-.58-.05a4,4,0,0,1-.7-.54A1.11,1.11,0,0,1,.34,9.66"/><path class="cls-13" d="M8.12.61c6.65,0,6.68,5.33,6.39,8.81.45-.82,1.8-.51,1.69.79s-2,1.83-2,1.69c-.55,2.83-3.68,4.41-6.1,4.63h0V.61h0"/><path class="cls-11" d="M15.91,9.66a.65.65,0,0,0-1-.17.52.52,0,0,0-.16.58c.05.16.23.18.19.43a.48.48,0,0,1-.27.38.5.5,0,0,0-.26.59c.05.21.37,0,.58-.05a4,4,0,0,0,.7-.54,1.09,1.09,0,0,0,.19-1.22"/><path class="cls-5" d="M8.05,2.12c-2.22,0-3.84.61-4.83,1.82C1.85,5.63,1.9,8.2,2.41,10.06c.15.56.24,2.08.34,2.64.48,2.5,3.39,3.84,5.3,3.84h0V2.12h0"/><path class="cls-6" d="M12.87,3.94c-1-1.19-2.58-1.81-4.77-1.82V16.53c2.19,0,4.8-1.48,5.25-3.83.11-.56.19-2.08.34-2.64.5-1.85.56-4.42-.82-6.12"/><path class="cls-14" d="M9.22,14.27a1.76,1.76,0,0,1-1.12.54A1.66,1.66,0,0,1,7,14.29a7.21,7.21,0,0,1,1.09-.08,10.49,10.49,0,0,1,1.12.06"/><path class="cls-15" d="M8.42,14c-.18,0-.32.11-.32.24,0-.13-.14-.24-.32-.24a4.53,4.53,0,0,0-.8.25s.61.06.79.06.33.07.33-.06c0,.13.13.08.3.08s.82-.08.82-.08a4.53,4.53,0,0,0-.8-.25"/><path class="cls-7" d="M14.73,5.35l-.24-.66V4.6a1.2,1.2,0,0,0-.34-.8.53.53,0,0,0-.06-.69A.42.42,0,0,0,14.34,3a.44.44,0,0,0,0-.62l-.15-.14a.39.39,0,0,0,.15-.11c.16-.17.2-.41.08-.52l-.07-.07a.51.51,0,0,0,.13-.09c.12-.13.14-.3,0-.38l-1.06-1c-.09-.09-.26,0-.38.07A.42.42,0,0,0,13,.26L12.93.21c-.12-.12-.35-.07-.52.1a.65.65,0,0,0-.1.15L12.24.4a.44.44,0,0,0-.61,0,.36.36,0,0,0-.11.26.52.52,0,0,0-.71,0A.62.62,0,0,0,10.7.9,2,2,0,0,0,9.45.56v0a9.26,9.26,0,0,0-4.29,0c-1.58.6-2.88,1.62-3.79,4.37a9.16,9.16,0,0,0-.23,4.8c0,.19.07.36.1.52s.11.46.14.63l0,.16c.05.19.1.38.16.57.92,2.77,4,5.32,4,5.32a16.49,16.49,0,0,1-1.86-2.71l0,0a9,9,0,0,1-.57-3.25A3.37,3.37,0,0,1,3.18,10,1.78,1.78,0,0,1,3.9,8.93a4.92,4.92,0,0,0-.15,1,3.88,3.88,0,0,0,.6,2.41,2.56,2.56,0,0,1,.56-3.08A10.74,10.74,0,0,0,6.12,8h0c-.38,1,.48,3.46.48,3.46s-.12-2.88.67-3.33c.35-.2.65-.38.9-.55l.06,0,.07,0A2.93,2.93,0,0,0,9.76,5.69a1.47,1.47,0,0,0,.07-.34l1.75,2.57c.08.11.22.3.37.54A6.05,6.05,0,0,1,13,11.36c0,.29,0,.55,0,.78a4.76,4.76,0,0,1-.22,1.38,1,1,0,0,0,.53-.26,4.7,4.7,0,0,0,1.09-1.38c.1-.17.2-.36.31-.57v0a5,5,0,0,0,.38-1.24c0-.15.05-.3.07-.46A9.62,9.62,0,0,0,14.73,5.35Z"/></g></g></g></g></svg>