<svg xmlns="http://www.w3.org/2000/svg" viewBox="0 0 22.2 28.24"><defs><style>.cls-1{fill:#191919;}.cls-2{fill:#e1bf9c;}.cls-3{fill:#f2d1ac;}.cls-4,.cls-6{fill:#c09a80;}.cls-4{opacity:0.7;}.cls-5{fill:#d3a789;}.cls-7{fill:#e0b89b;}.cls-8{fill:#c6696e;}.cls-9{fill:#d87373;}.cls-10{fill:#965458;}.cls-11{fill:#dfdfef;}</style></defs><g id="Layer_2" data-name="Layer 2"><g id="avatars"><g id="row-01"><g id="avatar-01-31"><path class="cls-1" d="M12.33,10.66a14.25,14.25,0,0,1-1.19,3.1c-.6,1.08-2.42,2.47-2.48,4-.13,3.17,4.32,4.68,6.11,5.22s2.39.6,2.59,1.38a7.29,7.29,0,0,1,0,2.09,7.65,7.65,0,0,0,1.94-1.48,1.76,1.76,0,0,0-.09-2.31s-.37.32.07,1.05a1.68,1.68,0,0,1,.27,1.57c-.15.19-.71.78-.71.78s2.77-.8,2.23-3.08c-.09-.39-.35-.1,0,0,.77.24.63,1.52.63,1.52S23.62,22,19.81,20.6c-.36-.14-2.33-.63-2.53-2.27-.11-.91.55-1,.67-2.1.15-1.44-1.88-1.13-2.67-2.49-.15-.26.59-.4,0-1.1-.71-.85-1-.78-2-1.28S12.33,10.66,12.33,10.66Z"/><path class="cls-2" d="M11.79,14.21V26.48H5l-.16-.07a10.21,10.21,0,0,1,.76-4.19,4.93,4.93,0,0,1,2.58-2.67,2.6,2.6,0,0,1,.7-.21h0l.09,0c.33-.1.56-.59.71-1.3a2.44,2.44,0,0,0,.07-.39c0-.22.07-.46.1-.71s0-.3,0-.45c.06-.76.08-1.58.08-2.35C10,14.12,11.07,14.21,11.79,14.21Z"/><path class="cls-3" d="M18.37,26.41l-.16.07H11.58V14.21h0c.71,0,1.61-.09,1.61-.09,0,.77,0,1.58.08,2.33,0,.15,0,.3,0,.44s.05.5.09.73h0a2.93,2.93,0,0,0,.05.29c.14.69.34,1.19.64,1.36l.07,0a.4.4,0,0,0,.15,0,4.5,4.5,0,0,1,3.22,2.75A10.05,10.05,0,0,1,18.37,26.41Z"/><path class="cls-4" d="M13.42,17.62h0a2.13,2.13,0,0,1-1.83,1h0a2.28,2.28,0,0,1-1.82-1c0-.22.07-.46.1-.71s0-.3,0-.45a7.24,7.24,0,0,0,1.66.22h0a7.13,7.13,0,0,0,1.71-.24c0,.15,0,.3,0,.44S13.38,17.39,13.42,17.62Z"/><path class="cls-5" d="M11.58,1C4.69,1,4.65,6.6,5,10.25c-.47-.86-1.87-.54-1.75.83S5.28,13,5.26,12.84c.56,3,3.81,4.63,6.32,4.86h.05V1Z"/><path class="cls-6" d="M3.55,10.5a.67.67,0,0,1,1-.18.53.53,0,0,1,.16.61c0,.17-.24.19-.2.45a.49.49,0,0,0,.29.39c.08.07.18.12.23.25a.63.63,0,0,1,0,.38c-.05.22-.38,0-.6-.05a4.36,4.36,0,0,1-.73-.57A1.15,1.15,0,0,1,3.55,10.5Z"/><path class="cls-7" d="M11.61,1c6.89,0,6.93,5.59,6.62,9.24.48-.86,1.87-.54,1.76.83S17.91,13,17.93,12.84c-.56,3-3.81,4.63-6.32,4.86h0V1Z"/><path class="cls-6" d="M19.69,10.5a.67.67,0,0,0-1-.18.53.53,0,0,0-.16.61c.05.17.24.19.19.45a.47.47,0,0,1-.28.39c-.08.07-.18.12-.23.25a.63.63,0,0,0,0,.38c0,.22.38,0,.6-.05a4.29,4.29,0,0,0,.72-.57A1.16,1.16,0,0,0,19.69,10.5Z"/><path class="cls-2" d="M11.54,2.6c-2.3,0-4,.64-5,1.91C5.11,6.27,5.17,9,5.69,10.91c.16.6.25,2.19.36,2.78.49,2.62,3.51,4,5.49,4h.05V2.6Z"/><path class="cls-3" d="M16.54,4.51c-1-1.26-2.68-1.9-4.95-1.91V17.71c2.27,0,5-1.56,5.44-4,.11-.59.2-2.18.36-2.78C17.91,9,18,6.28,16.54,4.51Z"/><path class="cls-8" d="M12.75,15.34a1.83,1.83,0,0,1-1.16.56,1.72,1.72,0,0,1-1.13-.55,7.79,7.79,0,0,1,1.13-.08A9.7,9.7,0,0,1,12.75,15.34Z"/><path class="cls-9" d="M11.92,15.08c-.18,0-.33.11-.33.25,0-.14-.15-.25-.33-.25a4.59,4.59,0,0,0-.83.26s.64.07.82.07.34.07.34-.07c0,.14.14.09.32.09s.84-.09.84-.09A4.59,4.59,0,0,0,11.92,15.08Z"/><path class="cls-10" d="M16.7,20.06a4.15,4.15,0,0,0-1.89-.58c.57.82.36,1.51.26,2.68C14.93,24,13.75,25,11.57,25s-3.36-1-3.51-2.79C8,21,7.76,20.3,8.33,19.48a4.15,4.15,0,0,0-1.89.58,8.78,8.78,0,0,0-1.61,1,1.63,1.63,0,0,1,.94,1.05A8.92,8.92,0,0,1,6,24c.1,1.4.79,2,.75,2.5h9.56c0-.47.65-1.1.75-2.5a8.92,8.92,0,0,1,.27-1.86,1.63,1.63,0,0,1,.94-1.05A8.78,8.78,0,0,0,16.7,20.06Z"/><path class="cls-11" d="M9.58,18.09a5.71,5.71,0,0,0,2,.41,16.75,16.75,0,0,0,2.08-.29s.59.68.1,1-3.57.71-4.55-.05C9.09,19,9.58,18.09,9.58,18.09Z"/><path class="cls-1" d="M15.62.94C14.48-.13,12,0,10.73,0,5.1-.06,4,3.69,3.83,5.76h0s-1,6.62-3.8,7.94c0,0,2.41.75,4.14-3.45A40.28,40.28,0,0,1,3.83,15c0,3.29,2,6,1.67,9.33a12.7,12.7,0,0,1-1,3.88,13.06,13.06,0,0,0,1.31-2.9,12.28,12.28,0,0,0-.38-5.94,11.67,11.67,0,0,1-.17-5.25c0-.08,0-.17,0-.26s.08-.44.13-.65,0-.13,0-.2l.12-.5a.18.18,0,0,0,0-.1.68.68,0,0,0,0-.19L5.71,12a7.89,7.89,0,0,0,0,1.29v.06a3.42,3.42,0,0,0,0,.44l0,.29,0,.11c0,.07,0,.14,0,.22s.09.41.14.6c.13.53.31,1,.47,1.48s.31.91.43,1.33.2.82.25,1.2c0,.19,0,.38.06.55a4.52,4.52,0,0,1,0,.51c0,.32,0,.59,0,.83,0,.46-.07.73-.07.73a1.52,1.52,0,0,0,.07-.18c0-.12.11-.29.18-.51a5.92,5.92,0,0,0,.19-.84A5.57,5.57,0,0,0,7.63,19a8,8,0,0,0-.23-1.88c-.05-.24-.11-.48-.18-.71,0-.06,0-.12,0-.18-.11-.38-.21-.77-.31-1.16,0-.1,0-.19-.07-.29s-.1-.48-.15-.72l-.05-.4c0-.1,0-.24,0-.36,0-.31,0-.62,0-.93s0-.37.05-.55a11.24,11.24,0,0,1,.24-1.45c.21-.94.48-1.82.71-2.58.1-.34.2-.65.28-.94a1.91,1.91,0,0,0,.4,1,5.52,5.52,0,0,0,4,2.15h.06a6,6,0,0,1,1.35.22c2.28.82,2.66,3.64,4,3.83a.86.86,0,0,0,.32,0,1.19,1.19,0,0,0,.63-.32,3.77,3.77,0,0,0,1-1.55h0a4.83,4.83,0,0,0,.17-.59,2.46,2.46,0,0,0,.06-.36,1.7,1.7,0,0,0,0-.22V11C20.6,5,15.62.94,15.62.94Z"/></g></g></g></g></svg>