<svg xmlns="http://www.w3.org/2000/svg" xmlns:xlink="http://www.w3.org/1999/xlink" viewBox="0 0 17.03 28.95"><defs><style>.cls-1{fill:none;}.cls-2{fill:#3a2817;}.cls-3{fill:#e2bf9c;}.cls-4{fill:#f2d1ac;}.cls-5{clip-path:url(#clip-path);}.cls-6{fill:#c09a80;}.cls-7{fill:#d3a789;}.cls-8{fill:#e0b89b;}.cls-9{fill:#454545;}.cls-10{fill:#187f7c;}.cls-11{fill:#202d2d;}.cls-12{fill:#d04d30;}.cls-13{fill:#f9f9fa;}.cls-14{fill:#4c4c4c;}.cls-15{fill:#404040;}</style><clipPath id="clip-path"><rect class="cls-1" x="7.08" y="19.37" width="3.53" height="2.08"/></clipPath></defs><g id="Layer_2" data-name="Layer 2"><g id="avatars"><g id="row-01"><g id="avatar-01-22"><path class="cls-2" d="M8.79,16.52a.15.15,0,0,0,0,.07C8,16.39,1.3,15.07,1.3,15.07a10.65,10.65,0,0,0,1.44,2.66c.42.64.67,1.16,1.41,1.32s4.58.07,4.58.07,3.8.09,4.53-.07,1-.68,1.42-1.32a8.27,8.27,0,0,0,1.26-2.32s-7,1-7.15,1.11"/><path class="cls-3" d="M8.83,17.24V29H2.46l-.15-.07c0-6.28,3.9-6.75,3.9-6.75.38,0,.63-.5.8-1.26,0-.12,0-.24.07-.37s.06-.44.08-.67,0-.29,0-.44c0-.72.07-1.5.07-2.24,0,0,.86.09,1.55.09"/><path class="cls-4" d="M15.37,28.88l-.15.07H8.83V17.24h0c.7,0,1.56-.09,1.56-.09,0,.74,0,1.51.07,2.22,0,.15,0,.29,0,.43s.06.48.09.7h0c0,.1,0,.19.05.28.17.8.43,1.35.83,1.35,0,0,3.89.47,3.89,6.75"/><g class="cls-5"><path class="cls-6" d="M10.6,20.49h0a2,2,0,0,1-1.76,1h0a2.21,2.21,0,0,1-1.75-1c0-.21.06-.44.08-.67s0-.29,0-.44a6.73,6.73,0,0,0,1.6.21h0a6.56,6.56,0,0,0,1.64-.23c0,.15,0,.29,0,.43s.06.48.09.69"/></g><path class="cls-7" d="M8.76,3.81C2,3.81,2,9.45,2.28,13.15c-.46-.88-1.83-.61-1.72.77s2,2,2,1.86c.56,3,3.73,4.8,6.19,4.8h.05V3.81H8.76"/><path class="cls-6" d="M1,13.34a.64.64,0,0,1,1-.19.56.56,0,0,1,.16.62c-.05.17-.23.19-.19.45a.48.48,0,0,0,.27.4c.08.07.18.12.23.25a.62.62,0,0,1,0,.38c0,.21-.37,0-.58-.06a4.1,4.1,0,0,1-.7-.56A1.23,1.23,0,0,1,1,13.34"/><path class="cls-8" d="M8.79,3.81c6.75,0,6.79,5.64,6.49,9.34.46-.88,1.83-.61,1.71.77s-2,2-2,1.86c-.55,3-3.73,4.8-6.19,4.8h0V3.81h0"/><path class="cls-6" d="M16.56,13.34a.64.64,0,0,0-1-.19.56.56,0,0,0-.16.62c.05.17.23.19.19.45a.48.48,0,0,1-.27.4c-.08.07-.18.12-.23.25a.62.62,0,0,0,0,.38c.05.21.37,0,.58-.06a4.1,4.1,0,0,0,.7-.56,1.21,1.21,0,0,0,.19-1.29"/><path class="cls-3" d="M8.79,5.4C6.57,5.4,5,6.05,4,7.32c-1.37,1.77-1.32,4.49-.81,6.43.15.6.23,2.2.34,2.79.48,2.64,3.39,4,5.3,4h.05V5.4H8.79"/><path class="cls-4" d="M13.61,7.32A5.73,5.73,0,0,0,8.84,5.4V20.58c2.19,0,4.8-1.56,5.25-4,.1-.59.18-2.19.34-2.79.5-1.94.55-4.65-.82-6.43"/><path class="cls-2" d="M14.2,4.3A7.8,7.8,0,0,0,8.73,3.13,7.83,7.83,0,0,0,3.25,4.3C.5,6.4,1.14,12.62,1.14,12.62a.79.79,0,0,1,.7.16A2.42,2.42,0,0,1,2.49,14a1,1,0,0,0,.5.64s-.66-3,0-4.32A5.79,5.79,0,0,1,5,7.74,6.93,6.93,0,0,1,8.73,7a6.87,6.87,0,0,1,3.68.71,5.82,5.82,0,0,1,2.05,2.59c.67,1.33,0,4.32,0,4.32A1,1,0,0,0,15,14a2.52,2.52,0,0,1,.66-1.23.79.79,0,0,1,.7-.16S17,6.4,14.2,4.3"/><path class="cls-9" d="M2.59,13.38s0,.09-.09.08a.08.08,0,0,1-.08-.09l0-.55a.08.08,0,0,1,.09-.08.09.09,0,0,1,.08.09Z"/><path class="cls-9" d="M14.9,13.38a.08.08,0,0,0,.09.08.08.08,0,0,0,.08-.09l0-.55a.09.09,0,0,0-.17,0Z"/><path class="cls-10" d="M11.86,23.7a26.18,26.18,0,0,1-2,5.25H7.79a25.78,25.78,0,0,1-2-5.26,3.62,3.62,0,0,1,.33-1.43,3.88,3.88,0,0,1,.61-.88l0,0h.06l2,1.41,2-1.41h.06l0,0a5,5,0,0,1,.46.62l.12.23a3.52,3.52,0,0,1,.34,1.45"/><path class="cls-11" d="M7.76,28.93l-.13-.28,0,0-.26-.56c-.08-.16-.15-.31-.22-.47-.27-.59-.5-1.12-.63-1.49a9.22,9.22,0,0,1-.4-1.44l0-.17a.06.06,0,0,0,0,0,1,1,0,0,1,0-.17s0-.05,0-.08a5.93,5.93,0,0,1,0-2s0,0,0-.06c-.73.17-3.73,1.21-3.73,6.72l.15.07H7.77Z"/><path class="cls-11" d="M9.92,28.93c.05-.09.09-.18.14-.28l0,0c.08-.19.17-.38.26-.56l.21-.47c.27-.59.5-1.12.64-1.49a8.23,8.23,0,0,0,.39-1.44c0-.06,0-.12,0-.17v0l0-.17s0-.05,0-.08a6,6,0,0,0,0-2s0,0,0-.06c.74.17,3.73,1.21,3.73,6.72l-.15.07H9.91Z"/><path class="cls-12" d="M8.09,29H7l-.14-.16A11.44,11.44,0,0,1,4.22,24.1l.94-.46-.58-.43s.23-.28.63-.71a3.21,3.21,0,0,1,.46-.37,3.43,3.43,0,0,1,.75-.44s-.27.37-.21,2c0,.11,0,.22,0,.33s0,.05,0,.07l0,.16v0l0,.16a14.71,14.71,0,0,0,.93,2.7c.07.15.14.29.2.43s.17.35.24.52.1.19.14.29.1.21.15.32l.12.24"/><path class="cls-12" d="M13.47,24.1a11.25,11.25,0,0,1-2.63,4.69L10.7,29H9.61c.29-.59.63-1.3.94-2l0-.07h0a13.12,13.12,0,0,0,.83-2.54.13.13,0,0,1,0-.06.88.88,0,0,0,0-.16.17.17,0,0,0,0-.07c0-.11,0-.22,0-.33A7.27,7.27,0,0,0,11.4,22c0-.05,0-.1,0-.13v0a.62.62,0,0,0-.08-.18,3.75,3.75,0,0,1,.73.44h0a3.1,3.1,0,0,1,.46.38c.4.42.62.7.62.7l-.57.43Z"/><path class="cls-13" d="M11.28,21.63c-.09-.24-.33-.48-.41-.67l-.27-.62a3,3,0,0,1-1,1.7c-.63.51-1,.75-.72.8a12.89,12.89,0,0,1,1.57,1.82c.32.38.27.73.35.22a11.73,11.73,0,0,0,.4-1.69c0-.66.3-.89,0-1.56"/><path class="cls-13" d="M8.05,22a3,3,0,0,1-1-1.7L6.82,21c-.08.19-.32.43-.41.67-.26.67,0,.9,0,1.56a10.53,10.53,0,0,0,.4,1.69c.08.51,0,.16.35-.22a12.89,12.89,0,0,1,1.57-1.82c.23-.05-.09-.29-.72-.8"/><path class="cls-14" d="M2.34,16.73c-.91-1.69-1.23-2.55-1-3.82a9.83,9.83,0,0,0,.42-2.12c-.11-.9,2-5.19,3.68-6A8,8,0,0,1,9.71,3.9a4.83,4.83,0,0,1,3.6,2.48c.9,1.69,1.29,1.83,1.36,2.34s.29,1.1.4,1.76A18.07,18.07,0,0,1,15.94,14a7.94,7.94,0,0,1-1.12,3.09s1.14-1.63,1.4-1.91A2.56,2.56,0,0,0,17,13.64c.12-.88-.45-2.5-.38-3.28a10.17,10.17,0,0,0-.57-4.22c-.66-1.7-1.44-3.6-3.07-4.63S9.61-.31,8.18.12,5.48.05,3.63,1.5,1.48,2.61.32,5.77C-.33,7.56.23,9,.1,10a12.21,12.21,0,0,0,0,2.41c.13,2.1,2.26,4.34,2.26,4.34"/><path class="cls-15" d="M1.79,9.12c.65-2,1.88-4.19,3-4.78A7.51,7.51,0,0,1,9,3.38,7.62,7.62,0,0,1,13.24,5a8,8,0,0,1,1.69,3.06c.1.76.07,1.19.14,1.63s.58,3.07.58,3.07-1-2.64-1.11-3.14A5.81,5.81,0,0,0,13,7a11.66,11.66,0,0,0-1.44-1.14S11,4.68,9,4.74C6,4.82,4.94,6.42,4.94,6.42s-.56.5-.82.8A9.27,9.27,0,0,0,2,10.75a15.07,15.07,0,0,1-.49,1.94,7.46,7.46,0,0,1,0-1.36,7,7,0,0,1,.21-2.21"/></g></g></g></g></svg>