<svg xmlns="http://www.w3.org/2000/svg" xmlns:xlink="http://www.w3.org/1999/xlink" viewBox="0 0 17.55 28.22"><defs><style>.cls-1{fill:none;}.cls-2{fill:#6c557b;}.cls-3{fill:#b64f6b;}.cls-4{fill:#e2bf9c;}.cls-5{fill:#f2d1ac;}.cls-6{clip-path:url(#clip-path);}.cls-7{fill:#c09a80;}.cls-8{fill:#d3a789;}.cls-9{fill:#e0b89b;}.cls-10{fill:#f9f9fa;}.cls-11{fill:#353838;}.cls-12{fill:#bca7c6;}</style><clipPath id="clip-path"><rect class="cls-1" x="6.62" y="18.62" width="3.54" height="2.09"/></clipPath></defs><g id="Layer_2" data-name="Layer 2"><g id="avatars"><g id="row-02"><g id="avatar-02-37"><path class="cls-2" d="M5.44,12.89a1.12,1.12,0,0,0-.78-.4,4,4,0,0,0-.49-1.08c-.66-.81-2.32-.18-2.32-.18,0,1,.37,1.44,0,2.21s-.08.38-.76,1.13a3.31,3.31,0,0,0-1,1.49,4.6,4.6,0,0,0,.21,2.53c.08.26-.32-1.78.74-2.11a3.29,3.29,0,0,0,.52-.21,2.56,2.56,0,0,1-.06,1.16A2.27,2.27,0,0,0,1.65,19a1.43,1.43,0,0,0,.81.68,1,1,0,0,1-.38-1.18c.15-.52.43-.75.59-1.2a3,3,0,0,0,.15-.56.92.92,0,0,0,.1.51c.18.33.76.86.63,1.52A2.62,2.62,0,0,0,4,21.36,2.27,2.27,0,0,1,4,20.1a1.23,1.23,0,0,1,.62-.68,1.22,1.22,0,0,1,.19.86,2.65,2.65,0,0,0,.49,2.56,2.28,2.28,0,0,1,0-1.27c.26-.68.74-.6,1.14-1.08a2.66,2.66,0,0,0,.43-2.62C6.81,17.72,6.1,13.7,5.44,12.89Z"/><path class="cls-3" d="M16.81,16a3.31,3.31,0,0,0-1-1.49c-.69-.75-.4-.36-.77-1.13s0-1.25,0-2.21c0,0-1.65-.64-2.31.18a3.69,3.69,0,0,0-.49,1.08,1.15,1.15,0,0,0-.78.39c-.66.82-1.37,4.84-1.43,5a2.66,2.66,0,0,0,.44,2.61c.4.49.88.41,1.14,1.09a2.09,2.09,0,0,1,0,1.27,2.62,2.62,0,0,0,.5-2.56,1.17,1.17,0,0,1,.19-.86,1.2,1.2,0,0,1,.61.67,2.09,2.09,0,0,1,0,1.27,2.61,2.61,0,0,0,.5-2.56c-.13-.65.45-1.18.63-1.51a.92.92,0,0,0,.1-.51,3.16,3.16,0,0,0,.15.56c.15.44.44.67.59,1.2a1,1,0,0,1-.38,1.18,1.43,1.43,0,0,0,.81-.68,2.3,2.3,0,0,0,.12-1.62,2.65,2.65,0,0,1-.05-1.15,3.15,3.15,0,0,0,.51.21c1.07.33.67,2.37.75,2.11A4.6,4.6,0,0,0,16.81,16Z"/><path class="cls-4" d="M8.38,16.47V28.22H2l-.16-.06c0-4.85,2.31-6.25,3.38-6.64a2.43,2.43,0,0,1,.54-.14c.39,0,.63-.5.8-1.26,0-.12,0-.24.07-.37s.06-.44.09-.68,0-.29,0-.44c.06-.72.08-1.51.08-2.25,0,0,.86.09,1.55.09"/><path class="cls-5" d="M15,28.16l-.15.06H8.38V16.47h0c.69,0,1.56-.09,1.56-.09,0,.74,0,1.52.07,2.24,0,.14,0,.28,0,.42s0,.48.09.7h0a2.56,2.56,0,0,0,.05.27c.17.81.43,1.36.83,1.36a3.21,3.21,0,0,1,.81.25c1.14.52,3.1,2.06,3.1,6.53"/><g class="cls-6"><path class="cls-7" d="M10.16,19.74h0a2.08,2.08,0,0,1-1.77,1h0a2.25,2.25,0,0,1-1.76-1c0-.22.07-.45.09-.68s0-.29,0-.44a6.81,6.81,0,0,0,1.61.21h0A7.15,7.15,0,0,0,10,18.62c0,.14,0,.28,0,.42s0,.48.09.7"/></g><path class="cls-8" d="M8.26,3c-6.77,0-6.8,5.66-6.5,9.37-.47-.88-1.84-.61-1.73.78s2.05,2,2,1.87c.56,3,3.74,4.81,6.21,4.81h.05V3H8.26"/><path class="cls-7" d="M.46,12.55a.64.64,0,0,1,1-.18A.54.54,0,0,1,1.6,13c-.05.18-.23.19-.19.46a.45.45,0,0,0,.27.39.66.66,0,0,1,.23.26.62.62,0,0,1,0,.38c-.05.22-.37,0-.58-.06a4.1,4.1,0,0,1-.7-.56,1.23,1.23,0,0,1-.2-1.3"/><path class="cls-9" d="M8.3,3c6.77,0,6.8,5.66,6.5,9.37.47-.88,1.84-.61,1.73.78s-2.05,2-2,1.87c-.56,3-3.74,4.81-6.21,4.81H8.25V3H8.3"/><path class="cls-7" d="M16.1,12.55a.64.64,0,0,0-1-.18A.54.54,0,0,0,15,13c0,.18.23.19.19.46a.45.45,0,0,1-.27.39.66.66,0,0,0-.23.26.62.62,0,0,0,0,.38c.05.22.37,0,.58-.06a3.74,3.74,0,0,0,.7-.56,1.23,1.23,0,0,0,.2-1.3"/><path class="cls-4" d="M8.34,4.58c-2.23,0-3.86.65-4.84,1.93C2.12,8.29,2.17,11,2.68,13c.15.6.23,2.21.34,2.8.48,2.64,3.4,4.05,5.32,4.05h.05V4.58H8.34"/><path class="cls-5" d="M13.17,6.51c-1-1.27-2.59-1.91-4.78-1.93V19.82c2.2,0,4.82-1.57,5.27-4.05.1-.59.19-2.2.34-2.8.51-2,.56-4.67-.83-6.46"/><path class="cls-10" d="M17.55,9.09s-1.2-.37-2.05-2.67c-.14-.52-.29-.92-.29-.92h.22a2.49,2.49,0,0,0,1.92-1.18s-.47.67-2.06.15-1.51-2.17-3.75-3.1a2.89,2.89,0,0,0-2.22-.24,2.21,2.21,0,0,1,1.22-.3A3.51,3.51,0,0,0,8,.79a6.8,6.8,0,0,0-2.13,1l.62-.59S6,1.39,5.37,1.7A10.89,10.89,0,0,1,6.58,0c-2,.74-3.64,3.38-3.64,3.38a11.29,11.29,0,0,1,.5-1.91C0,4,.57,8.51.57,8.51A7.23,7.23,0,0,0,1.7,12.45c.45.51.31,1.25.44,1.25s.27,0,.28-1.29c0-.43.17-1.13.74-.92l.09,0h0C6.13,12.67,7.59,9.8,7.59,9.8A7.85,7.85,0,0,1,9.45,7.28a4,4,0,0,1,1.12-.49C13.18,6,14.26,10.11,14,11.2c-.34,1.67.13,2.64.31,2.59a2.5,2.5,0,0,1,.17-.8c.48-1.13.88-.35,1-1.88.06-1.23.21-1.93.27-2.55A2.87,2.87,0,0,0,17.55,9.09Z"/><path class="cls-11" d="M12.47,22a5.86,5.86,0,0,1-4.09,1.47q-.32,0-.63-.06A7.27,7.27,0,0,1,4.5,21.87c-1.15.69-2.67,2.35-2.67,6.29l.16.06H14.8l.15-.06C15,24.43,13.59,22.74,12.47,22Z"/><path class="cls-12" d="M11.18,21.36a5.23,5.23,0,0,1-1-1.34,2.08,2.08,0,0,1-1.82,2.09,2,2,0,0,1-1.84-2,6.18,6.18,0,0,1-1,1.24S7.18,25.92,8.38,27v0h0v0C9.6,25.92,11.18,21.36,11.18,21.36Z"/></g></g></g></g></svg>