<svg xmlns="http://www.w3.org/2000/svg" xmlns:xlink="http://www.w3.org/1999/xlink" viewBox="0 0 15.91 24.94"><defs><style>.cls-1{fill:none;}.cls-2{fill:#e2bf9c;}.cls-3{fill:#f2d1ac;}.cls-4{clip-path:url(#clip-path);}.cls-5{fill:#c09a80;}.cls-6{fill:#d3a789;}.cls-7{fill:#e0b89b;}.cls-8{fill:#f9f9fa;}.cls-9{fill:#718faf;}.cls-10{fill:#607298;}.cls-11{fill:#191919;}</style><clipPath id="clip-path"><rect class="cls-1" x="6.36" y="15.68" width="3.41" height="2.02"/></clipPath></defs><g id="Layer_2" data-name="Layer 2"><g id="avatars"><g id="row-01"><g id="avatar-01-11"><path class="cls-2" d="M8.06,13.61V24.94H1.9a.64.64,0,0,0-.16-.06c0-4.68,2.23-6,3.26-6.4a3,3,0,0,1,.52-.14c.37,0,.61-.48.77-1.21,0-.12,0-.23.07-.36s.06-.43.09-.65,0-.28,0-.42c.06-.7.08-1.46.08-2.17,0,0,.83.08,1.5.08"/><path class="cls-3" d="M14.39,24.88a.52.52,0,0,0-.15.06H8.06V13.61h0c.67,0,1.5-.08,1.5-.08,0,.71,0,1.46.07,2.15,0,.14,0,.27,0,.4a6.36,6.36,0,0,0,.08.68h0a2.56,2.56,0,0,0,.05.27c.16.77.41,1.3.8,1.3a3,3,0,0,1,.77.24c1.11.51,3,2,3,6.3"/><g class="cls-4"><path class="cls-5" d="M9.77,16.76h0a2,2,0,0,1-1.71.93h0a2.13,2.13,0,0,1-1.69-.93c0-.21.06-.43.08-.66s0-.27,0-.41A7.55,7.55,0,0,0,8,15.9h0a6.56,6.56,0,0,0,1.59-.22c0,.13,0,.27,0,.41s.05.46.09.67"/></g><path class="cls-6" d="M7.94.61c-6.52,0-6.56,5.46-6.27,9C1.22,8.8-.1,9.06,0,10.4s2,1.95,2,1.8c.53,2.94,3.6,4.64,6,4.64H8V.61h0"/><path class="cls-5" d="M.42,9.83a.62.62,0,0,1,1-.17.53.53,0,0,1,.15.59c-.05.17-.23.18-.18.44a.47.47,0,0,0,.26.38c.07.07.17.12.22.24a.8.8,0,0,1,0,.37c-.05.21-.36,0-.57,0a4.25,4.25,0,0,1-.67-.55A1.2,1.2,0,0,1,.42,9.83"/><path class="cls-7" d="M8,.61c6.53,0,6.57,5.46,6.28,9,.44-.85,1.77-.59,1.66.75s-2,1.95-1.95,1.8c-.53,2.94-3.6,4.64-6,4.64h0V.61H8"/><path class="cls-5" d="M15.49,9.83a.61.61,0,0,0-.94-.17.53.53,0,0,0-.15.59c0,.17.22.18.18.44a.47.47,0,0,1-.26.38.64.64,0,0,0-.22.24.6.6,0,0,0,0,.37c0,.21.35,0,.56,0a3.9,3.9,0,0,0,.68-.55,1.18,1.18,0,0,0,.18-1.25"/><path class="cls-2" d="M8,2.15C5.87,2.15,4.3,2.78,3.35,4,2,5.73,2.07,8.35,2.56,10.24c.15.57.23,2.12.33,2.69.46,2.55,3.27,3.91,5.13,3.91h0V2.15H8"/><path class="cls-3" d="M12.68,4A5.58,5.58,0,0,0,8.06,2.15V16.84c2.12,0,4.65-1.51,5.08-3.91.1-.57.18-2.12.33-2.69C14,8.36,14,5.73,12.68,4"/><path class="cls-8" d="M14.39,24.88a.52.52,0,0,0-.15.06H1.9a.64.64,0,0,0-.16-.06c0-4.68,2.23-6,3.26-6.4.6.3,1.56.78,1.91.94a2.58,2.58,0,0,0,1.15.39,7.89,7.89,0,0,0,1.71-.5,8.79,8.79,0,0,0,1.62-.73c1.11.51,3,2,3,6.3"/><path class="cls-9" d="M13,24.94H3.12c0-.48.06-1.36,0-2.54v-.22c0-.09,0-.17,0-.26s0-.13,0-.19c0-.48-.12-1-.21-1.63a4.72,4.72,0,0,1,.91-1A.27.27,0,0,1,3.92,19,4,4,0,0,1,5,18.42l.15-.05a2.75,2.75,0,0,1,.37-.09.48.48,0,0,0,.31-.13h0L5.92,18s0,0,.06.11a20,20,0,0,0,2.08,2,20.45,20.45,0,0,0,2.09-2c0-.07,0-.1.06-.11l.09.11h0a.48.48,0,0,0,.31.13,1.73,1.73,0,0,1,.35.08l.15.05A4.13,4.13,0,0,1,12.2,19l.09.07a4.56,4.56,0,0,1,.91,1c-.1.61-.18,1.18-.21,1.66,0,.07,0,.13,0,.19a1.15,1.15,0,0,1,0,.19v.22c0,1.2,0,2.09,0,2.58"/><polygon class="cls-10" points="5.54 20.91 5.54 20.9 5.54 20.9 4.91 19.83 4.29 18.74 3.66 19.83 3.03 20.9 3.03 20.9 3.03 20.91 3.03 20.91 3.03 20.91 3.66 21.99 4.29 23.08 4.91 21.99 5.54 20.91 5.54 20.91 5.54 20.91"/><polygon class="cls-10" points="8.06 20.91 8.06 20.9 8.05 20.9 7.43 19.83 6.8 18.74 6.18 19.83 5.55 20.9 5.54 20.9 5.55 20.91 5.54 20.91 5.55 20.91 6.18 21.99 6.8 23.08 7.43 21.99 8.05 20.91 8.06 20.91 8.06 20.91"/><polygon class="cls-10" points="10.58 20.91 10.58 20.9 10.57 20.9 9.95 19.83 9.32 18.74 8.7 19.83 8.07 20.9 8.06 20.9 8.07 20.91 8.06 20.91 8.07 20.91 8.7 21.99 9.32 23.08 9.95 21.99 10.57 20.91 10.58 20.91 10.58 20.91"/><polygon class="cls-10" points="13.09 20.91 13.1 20.9 13.09 20.9 12.46 19.83 11.84 18.74 11.21 19.83 10.59 20.9 10.58 20.9 10.58 20.91 10.58 20.91 10.59 20.91 11.21 21.99 11.84 23.08 12.46 21.99 13.09 20.91 13.1 20.91 13.09 20.91"/><polygon class="cls-10" points="5.36 24.94 3.21 24.94 3.66 24.17 4.29 23.08 4.91 24.17 5.36 24.94"/><polygon class="cls-10" points="7.88 24.94 5.73 24.94 6.18 24.17 6.8 23.08 7.42 24.17 7.88 24.94"/><polygon class="cls-10" points="10.4 24.94 8.25 24.94 8.7 24.17 9.32 23.08 9.95 24.17 10.4 24.94"/><polygon class="cls-10" points="12.91 24.94 10.76 24.94 11.21 24.17 11.84 23.08 12.46 24.17 12.91 24.94"/><path class="cls-11" d="M5.59,22l0-.06H5.56L5,20.93l-.67-1.17-.67,1.17-.47.8c0,.06,0,.13,0,.19L3.7,21l.58-1,.58,1L5.47,22,4.86,23.1l-.58,1-.58-1-.53-.92v.22l.44.75.67,1.17L5,23.15l.61-1h.07Z"/><path class="cls-11" d="M6.8,24.32l-.67-1.17-.62-1H5.45l0-.06,0-.06h.06l.62-1.05.67-1.17.67,1.17L8.08,22h.06l0,.06,0,.05H8.08l-.61,1ZM5.6,22l.62,1.05.58,1,.57-1L8,22,7.37,21,6.8,20l-.58,1Z"/><path class="cls-11" d="M9.31,24.32l-.67-1.17L8,22.1H8L8,22,8,22H8l.61-1.05.67-1.17L10,20.93,10.6,22h.06l0,.06,0,.05H10.6l-.62,1ZM8.12,22l.62,1.05.57,1,.58-1L10.51,22,9.89,21l-.58-1-.57,1Z"/><path class="cls-11" d="M11.83,20l.58,1L13,22c0-.06,0-.12,0-.19l-.49-.83-.67-1.17-.67,1.17L10.55,22h-.07l0,.05,0,.06h.07l.61,1,.67,1.17.67-1.17.46-.79v-.22l-.55,1-.58,1-.57-1L10.64,22,11.26,21Z"/><polygon class="cls-11" points="4.28 24.1 3.8 24.94 3.92 24.94 4.28 24.31 4.64 24.94 4.76 24.94 4.28 24.1"/><polygon class="cls-11" points="6.8 24.1 6.32 24.94 6.44 24.94 6.8 24.31 7.16 24.94 7.28 24.94 6.8 24.1"/><polygon class="cls-11" points="9.31 24.1 8.83 24.94 8.96 24.94 9.31 24.31 9.67 24.94 9.8 24.94 9.31 24.1"/><polygon class="cls-11" points="11.83 24.1 11.35 24.94 11.47 24.94 11.83 24.31 12.19 24.94 12.32 24.94 11.83 24.1"/><path class="cls-11" d="M5,18.42l-.72,1.24L3.92,19a.27.27,0,0,0-.08.07l.44.78.87-1.51L5,18.42"/><path class="cls-11" d="M12.2,19l-.36.64-.73-1.25L11,18.36l.88,1.52.45-.79L12.2,19"/><path class="cls-8" d="M10.42,17.94c-.09-.24-.32-.47-.4-.66s-.26-.59-.26-.59a16.4,16.4,0,0,1-.5,1.64S7.8,19.9,8,20a5,5,0,0,1,1.62.92c.32.36.27.7.35.21s.67-2.5.42-3.14"/><path class="cls-8" d="M6.87,18.33a16.4,16.4,0,0,1-.5-1.64s-.13.28-.26.59-.31.42-.4.66c-.25.64.34,2.65.42,3.14s0,.15.34-.21A5.09,5.09,0,0,1,8.06,20c.23-.05-1.19-1.63-1.19-1.63"/><path class="cls-11" d="M8.24,4c.67,0,1.26-.85,1.85-1.12V.34A5.07,5.07,0,0,0,8.19,0h0A4.92,4.92,0,0,0,6,.48V2.82C6.68,2.79,7.39,4,8.17,4Z"/><path class="cls-11" d="M13.3,15.7a3.77,3.77,0,0,0,.89.49,1.29,1.29,0,0,1-.62-1c-.05-.27-.08-.43-.09-.54h-.1a3,3,0,0,0,.56-1.7A3.07,3.07,0,0,0,13,10.85a3.12,3.12,0,0,1,0,.54,4.7,4.7,0,0,1-2.71,4.23,2.18,2.18,0,0,0,.12-.7,1.72,1.72,0,0,0-.38-1.14,2.45,2.45,0,0,0-2-.94,2.48,2.48,0,0,0-1.93.81,1.55,1.55,0,0,0-.53,1.27,2,2,0,0,0,.11.66,4.72,4.72,0,0,1-2.65-4.19c0-.2,0-.4,0-.6a3.14,3.14,0,0,0-1,2.2,2.9,2.9,0,0,0,.57,1.7H2.62a4.12,4.12,0,0,1-.09.54,1.29,1.29,0,0,1-.62,1,3.59,3.59,0,0,0,.89-.49l.37-.44h0a1.44,1.44,0,0,0,0,.91,2.33,2.33,0,0,0,.88,1.19,1.69,1.69,0,0,1-.3-1.18s0,.25.66.93a8.82,8.82,0,0,0,2,1.3s0-.43,0-.9A6,6,0,0,0,8,17.75h.2a5.92,5.92,0,0,0,1.58-.23c0,.47,0,.9,0,.9a8.82,8.82,0,0,0,2-1.3c.69-.68.67-.93.67-.93A1.68,1.68,0,0,1,12,17.37a2.33,2.33,0,0,0,.88-1.19,1.37,1.37,0,0,0,0-.91h0Zm-7.13-1A2.42,2.42,0,0,1,7.64,14a2.83,2.83,0,0,1,.41,0,2.69,2.69,0,0,1,.4,0,2.43,2.43,0,0,1,1.42.67,2.45,2.45,0,0,1,0,.27,2.08,2.08,0,0,1-.15.78,2.82,2.82,0,0,1-.58.19v0c0-.21-.51-.39-1.14-.39s-1.14.18-1.14.39h0a3.08,3.08,0,0,1-.59-.21,2,2,0,0,1-.14-.75A1.62,1.62,0,0,1,6.17,14.7Z"/></g></g></g></g></svg>