<svg xmlns="http://www.w3.org/2000/svg" xmlns:xlink="http://www.w3.org/1999/xlink" viewBox="0 0 16.37 28.63"><defs><style>.cls-1{fill:none;}.cls-2{fill:#e2bf9c;}.cls-3{fill:#f2d1ac;}.cls-4{fill:#d3a789;}.cls-5{clip-path:url(#clip-path);}.cls-6{fill:#c09a80;}.cls-7{fill:#fff;}.cls-8{fill:#607298;}.cls-9{fill:#191919;}</style><clipPath id="clip-path"><rect class="cls-1" x="6.45" y="19.05" width="3.49" height="2.09"/></clipPath></defs><g id="Layer_2" data-name="Layer 2"><g id="avatars"><g id="row-02"><g id="avatar-02-33"><path class="cls-2" d="M8.18,16.91V28.63H1.88l-.15-.07c0-6.28,3.85-6.76,3.85-6.76.39,0,.64-.49.8-1.25,0-.12,0-.24.07-.37s.06-.44.08-.68,0-.29,0-.43c.06-.72.08-1.5.08-2.24,0,0,.85.08,1.53.08"/><path class="cls-3" d="M14.66,28.56l-.15.07H8.18V16.91h0c.69,0,1.55-.08,1.55-.08,0,.73,0,1.5.07,2.22,0,.14,0,.28,0,.42s.05.48.08.7h0l.06.27c.16.81.41,1.35.81,1.35,0,0,3.86.48,3.86,6.76"/><path class="cls-4" d="M8.19,3.47V20.25h.05c2.44,0,5.58-1.75,6.13-4.8a.23.23,0,0,0,0,.14.57.57,0,0,0,.87.21c.29-.26.1-.74.11-.75a2.1,2.1,0,0,0,1-1.46c.11-1.38-1.24-1.65-1.7-.77.3-3.7.26-9.35-6.42-9.35Zm6.51,12a.2.2,0,1,1,.2.2.2.2,0,0,1-.2-.2"/><g class="cls-5"><path class="cls-6" d="M9.93,20.17h0a2,2,0,0,1-1.74,1h0a2.19,2.19,0,0,1-1.73-1c0-.21.06-.44.08-.68s0-.29,0-.43a7.2,7.2,0,0,0,1.6.21h0a6.54,6.54,0,0,0,1.63-.23c0,.14,0,.28,0,.42s.05.48.08.7"/></g><path class="cls-4" d="M8.2,3.47c-6.68,0-6.71,5.65-6.41,9.35-.46-.88-1.82-.61-1.7.77a2.09,2.09,0,0,0,1,1.46s-.17.49.11.75a.58.58,0,0,0,.88-.21.82.82,0,0,0,0-.14c.54,3.05,3.69,4.8,6.12,4.8h.05V3.47ZM1.54,15.62a.19.19,0,0,1-.19-.2.18.18,0,0,1,.19-.19.19.19,0,0,1,.2.19.2.2,0,0,1-.2.2"/><path class="cls-6" d="M.51,13a.62.62,0,0,1,1-.18.55.55,0,0,1,.16.61c0,.18-.23.19-.19.46a.46.46,0,0,0,.27.39c.08.07.18.12.23.25a.84.84,0,0,1,0,.38c-.05.22-.37.05-.58-.05A4,4,0,0,1,.7,14.3,1.24,1.24,0,0,1,.51,13"/><path class="cls-2" d="M8.14,5.06C6,5.06,4.34,5.71,3.37,7,2,8.75,2.06,11.47,2.56,13.42c.15.6.23,2.2.34,2.79.47,2.64,3.35,4,5.24,4h0V5.06h0"/><path class="cls-3" d="M12.91,7A5.63,5.63,0,0,0,8.19,5.06V20.25c2.17,0,4.75-1.56,5.2-4,.1-.59.18-2.19.33-2.79.5-1.94.55-4.66-.81-6.44"/><path class="cls-7" d="M1.54,15a.42.42,0,0,0,0,.84.42.42,0,1,0,0-.84m0,.62a.19.19,0,0,1-.19-.2.18.18,0,0,1,.19-.19.19.19,0,0,1,.2.19.2.2,0,0,1-.2.2"/><path class="cls-7" d="M14.48,15.42A.42.42,0,1,0,14.9,15a.42.42,0,0,0-.42.42m.22,0a.2.2,0,1,1,.2.2.2.2,0,0,1-.2-.2"/><path class="cls-6" d="M15.92,13a.62.62,0,0,0-1-.18.57.57,0,0,0-.16.61c0,.18.23.19.19.46a.46.46,0,0,1-.27.39.6.6,0,0,0-.22.25.63.63,0,0,0,0,.38c0,.22.36.05.57-.05a4,4,0,0,0,.69-.56,1.22,1.22,0,0,0,.19-1.3"/><path class="cls-8" d="M13.22,28.63H3.14c0-.4.07-1,.11-1.3.18-1.53,1.26-1.81,1.2-5.09,0,0,0-.09,0-.14l1.07-.34v0c0,.44.08,3.29.15,4.07a3.16,3.16,0,0,0,2.46,1.88,3.16,3.16,0,0,0,2.46-1.88c.07-.79.14-3.66.15-4.07v0l1.07.34.05.12c0,3.47,1,3.57,1.21,5.11,0,.31.08.9.1,1.3"/><path class="cls-9" d="M15.34,7.59a1.52,1.52,0,0,0,.23-.79s0-.06,0-.09,0,0,0,0a1.4,1.4,0,0,0-.54-1,6.09,6.09,0,0,0-.53-.61c0-.11,0-.22,0-.33A2.73,2.73,0,0,0,11.8,2a2.67,2.67,0,0,0-.75.11A1.94,1.94,0,0,0,9.19.68a1.91,1.91,0,0,0-1.46.67A2.38,2.38,0,0,0,3.21,2.41a1.81,1.81,0,0,0,0,.4h0A2.07,2.07,0,0,0,1.15,4.88a2.18,2.18,0,0,0,.21.92A2.1,2.1,0,0,0,.51,7.51,2.14,2.14,0,0,0,1,8.84c-.28,1.45-1,1.82-1,1.82a1.6,1.6,0,0,0,.89-.39,1.39,1.39,0,0,0,.21-.21c0,.21-.05.44-.07.7A5.29,5.29,0,0,0,1.66,14a5.47,5.47,0,0,0,1.66,1.65,2.86,2.86,0,0,1-1.11-1.56h0V14C.78,9.73,3.76,10.33,4.7,10.61L5,10.7H5A6.39,6.39,0,0,0,6.76,11a5.35,5.35,0,0,0,3.29-1,2.25,2.25,0,0,0,.77-.82A2.36,2.36,0,0,0,11,7.34l.33.08A3.44,3.44,0,0,1,11.89,10a4.06,4.06,0,0,1-1,1.52A4.68,4.68,0,0,0,13,10.33l.16.21A3.14,3.14,0,0,1,13.94,12a4.84,4.84,0,0,1-.75,3.66s1.5-2,1.53-2.19a2.18,2.18,0,0,1-.07,1,2,2,0,0,1-.49.8s1.52-1.08,1.72-4A7.27,7.27,0,0,0,15.34,7.59Z"/></g></g></g></g></svg>