<svg xmlns="http://www.w3.org/2000/svg" xmlns:xlink="http://www.w3.org/1999/xlink" viewBox="0 0 16.39 25.7"><defs><style>.cls-1{fill:none;}.cls-2{fill:#e2bf9c;}.cls-3{fill:#f2d1ac;}.cls-4{clip-path:url(#clip-path);}.cls-5{fill:#c09a80;}.cls-6{fill:#d3a789;}.cls-7{fill:#e0b89b;}.cls-8{fill:#f9f9fa;}.cls-9{fill:#414042;}.cls-10{fill:#965458;}.cls-11{fill:#191919;}.cls-12{fill:#231f20;}</style><clipPath id="clip-path"><rect class="cls-1" x="6.55" y="16.16" width="3.51" height="2.08"/></clipPath></defs><g id="Layer_2" data-name="Layer 2"><g id="avatars"><g id="row-02"><g id="avatar-02-14"><path class="cls-2" d="M8.3,14V25.7H2l-.16-.06c0-4.82,2.3-6.21,3.36-6.59a2.3,2.3,0,0,1,.53-.14c.39,0,.63-.5.8-1.25,0-.12,0-.24.07-.37s.06-.44.09-.67,0-.29,0-.44c.06-.72.07-1.5.07-2.23,0,0,.86.09,1.55.09"/><path class="cls-3" d="M14.82,25.64l-.15.06H8.3V14h0C9,14,9.86,14,9.86,14c0,.73,0,1.5.07,2.22,0,.14,0,.28,0,.41s0,.49.09.7h0c0,.09,0,.18,0,.27.17.8.42,1.35.83,1.35a3.1,3.1,0,0,1,.79.25c1.14.52,3.09,2.05,3.09,6.48"/><g class="cls-4"><path class="cls-5" d="M10.06,17.28h0a2.07,2.07,0,0,1-1.76.95h0a2.21,2.21,0,0,1-1.75-.95c0-.21.06-.44.09-.68s0-.28,0-.43a7.2,7.2,0,0,0,1.6.21h0a6.54,6.54,0,0,0,1.63-.23c0,.14,0,.29,0,.42s0,.48.09.7"/></g><path class="cls-6" d="M8.18.65C1.46.65,1.42,6.27,1.72,10,1.26,9.08-.1,9.35,0,10.73s2,2,2,1.85c.56,3,3.72,4.78,6.17,4.78h.05V.65H8.18"/><path class="cls-5" d="M.44,10.15a.63.63,0,0,1,1-.19.55.55,0,0,1,.15.61c0,.18-.23.19-.18.46a.48.48,0,0,0,.27.39c.07.07.17.12.22.25a.63.63,0,0,1,0,.38c0,.21-.37,0-.58-.06a3.61,3.61,0,0,1-.69-.56,1.19,1.19,0,0,1-.19-1.28"/><path class="cls-7" d="M8.21.65C14.93.65,15,6.27,14.67,10c.46-.88,1.83-.61,1.71.77s-2,2-2,1.85c-.54,3-3.71,4.78-6.16,4.78H8.16V.65h.05"/><path class="cls-5" d="M16,10.15A.63.63,0,0,0,15,10a.55.55,0,0,0-.15.61c0,.18.23.19.18.46a.48.48,0,0,1-.27.39c-.07.07-.17.12-.22.25a.63.63,0,0,0,0,.38c0,.21.37,0,.58-.06a3.61,3.61,0,0,0,.69-.56A1.17,1.17,0,0,0,16,10.15"/><path class="cls-2" d="M8.26,2.23c-2.22,0-3.83.65-4.81,1.91-1.37,1.77-1.32,4.48-.82,6.42.16.59.24,2.19.34,2.78.48,2.63,3.38,4,5.29,4h.05V2.24H8.26"/><path class="cls-3" d="M13.05,4.15c-1-1.26-2.57-1.9-4.74-1.91V17.36c2.17,0,4.78-1.56,5.22-4,.11-.59.19-2.19.34-2.78.51-1.94.56-4.64-.82-6.41"/><path class="cls-8" d="M14.82,25.64l-.15.06H2l-.16-.06c0-4.82,2.3-6.2,3.36-6.59.62.31,1.61.8,2,1a2.68,2.68,0,0,0,1.19.41,8,8,0,0,0,1.76-.52,9.36,9.36,0,0,0,1.67-.74c1.14.52,3.09,2.05,3.09,6.48"/><path class="cls-9" d="M13.4,25.7H3.21c0-.5.06-1.4,0-2.62v-.22a2.44,2.44,0,0,0,0-.27c0-.06,0-.13,0-.2,0-.48-.12-1.06-.21-1.67a4.3,4.3,0,0,1,.93-1L4,19.62A3.93,3.93,0,0,1,5.15,19a1,1,0,0,1,.16-.06,2.75,2.75,0,0,1,.37-.09A.48.48,0,0,0,6,18.71H6a1.25,1.25,0,0,0,.09-.12.3.3,0,0,1,.06.12,20.55,20.55,0,0,0,2.15,2.06,21.23,21.23,0,0,0,2.14-2.06l.06-.12a.58.58,0,0,0,.1.12h0a.48.48,0,0,0,.32.13l.35.08.16.06a4.28,4.28,0,0,1,1.13.63.27.27,0,0,1,.08.07,4.86,4.86,0,0,1,.95,1,15.44,15.44,0,0,0-.22,1.71,1.37,1.37,0,0,0,0,.19,1.09,1.09,0,0,1,0,.19V23c0,1.24,0,2.16.05,2.66"/><polygon class="cls-10" points="5.52 25.7 3.31 25.7 3.77 24.91 4.41 23.79 5.06 24.91 5.52 25.7"/><polygon class="cls-10" points="8.12 25.7 5.9 25.7 6.37 24.91 7.01 23.79 7.65 24.91 8.12 25.7"/><polygon class="cls-10" points="10.71 25.7 8.49 25.7 8.96 24.91 9.6 23.79 10.24 24.91 10.71 25.7"/><polygon class="cls-10" points="13.3 25.7 11.09 25.7 11.55 24.91 12.19 23.79 12.84 24.91 13.3 25.7"/><path class="cls-11" d="M5.76,22.71l0-.06H5.73L5.1,21.57l-.69-1.21-.69,1.21-.49.82c0,.07,0,.14,0,.2l.56-1,.6-1,.59,1,.64,1.08L5,23.8l-.6,1-.59-1-.55-.94v.22l.46.78.68,1.2.7-1.2.63-1.08h.06Z"/><path class="cls-11" d="M7,25.06l-.69-1.2-.63-1.08H5.61l0-.07,0-.05h.07l.63-1.08L7,20.37l.69,1.2.63,1.08h.06l0,.06,0,.06H8.32l-.63,1.09ZM5.77,22.71l.64,1.09.59,1,.59-1,.64-1.09-.64-1.08-.59-1-.59,1Z"/><path class="cls-11" d="M9.59,25.06l-.69-1.2-.63-1.08H8.2l0-.07,0-.05h.07l.63-1.08.69-1.2.69,1.2.63,1.08H11l0,.06,0,.06h-.07l-.63,1.09ZM8.36,22.71,9,23.8l.59,1,.6-1,.63-1.09-.63-1.08-.6-1-.59,1Z"/><path class="cls-11" d="M12.19,20.59l.59,1,.58,1a1.37,1.37,0,0,1,0-.19l-.51-.86-.68-1.21-.69,1.21-.64,1.08h-.07l0,.05,0,.07h.06l.64,1.08.69,1.2.68-1.2.48-.82v-.23l-.57,1-.59,1-.6-1L11,22.71l.63-1.08Z"/><polygon class="cls-11" points="4.41 24.84 3.91 25.7 4.04 25.7 4.41 25.06 4.78 25.7 4.91 25.7 4.41 24.84"/><polygon class="cls-11" points="7 24.84 6.5 25.7 6.63 25.7 7 25.06 7.37 25.7 7.5 25.7 7 24.84"/><polygon class="cls-11" points="9.59 24.84 9.1 25.7 9.23 25.7 9.59 25.06 9.96 25.7 10.09 25.7 9.59 24.84"/><polygon class="cls-11" points="12.19 24.84 11.69 25.7 11.81 25.7 12.19 25.06 12.55 25.7 12.68 25.7 12.19 24.84"/><path class="cls-11" d="M5.15,19l-.74,1.28L4,19.62,4,19.69l.46.8.9-1.56a1,1,0,0,0-.16.06"/><path class="cls-11" d="M12.57,19.61l-.38.66L11.44,19l-.16-.06.91,1.57.46-.81a.27.27,0,0,0-.08-.07"/><path class="cls-8" d="M10.73,18.49a6.56,6.56,0,0,0-.41-.67l-.27-.62a17.12,17.12,0,0,1-.51,1.7S8,20.51,8.27,20.56a5.47,5.47,0,0,1,1.67,1c.33.37.27.72.36.22s.69-2.58.43-3.24"/><path class="cls-8" d="M7.07,18.9a17.12,17.12,0,0,1-.51-1.7l-.27.62c-.08.19-.32.42-.41.67-.26.66.35,2.73.44,3.24s0,.15.35-.22a5,5,0,0,1,1.64-.94c.23-.05-1.24-1.67-1.24-1.67"/><path class="cls-12" d="M6.47,17.8a6.94,6.94,0,0,0,1.6.18h.46a7,7,0,0,0,1.6-.18c.65-.2.86-1,1.62-1.64a7.55,7.55,0,0,0-1.66.33,11.45,11.45,0,0,1-1.57.72.93.93,0,0,0-.22.08.93.93,0,0,0-.22-.08,10.92,10.92,0,0,1-1.57-.72,7.71,7.71,0,0,0-1.67-.33C5.61,16.79,5.81,17.6,6.47,17.8Z"/><path class="cls-11" d="M8.23,0h0C1.62,0,1.49,6.17,1.78,9.62a1.51,1.51,0,0,1,.38.53c.21.51.29.42.29.42s0-2,0-2.55S4,4.38,5,4.05s2,1.62,3.1,1.62h.16c1.12,0,2.06-1.95,3.1-1.62S14,7.47,14,8s0,2.55,0,2.55.08.09.29-.42a1.51,1.51,0,0,1,.38-.53C14.93,6.17,14.8,0,8.23,0Z"/></g></g></g></g></svg>