<svg xmlns="http://www.w3.org/2000/svg" viewBox="0 0 15.68 25.37"><defs><style>.cls-1{fill:#e1bf9c;}.cls-2{fill:#f2d1ac;}.cls-3,.cls-5{fill:#c09a80;}.cls-3{opacity:0.7;}.cls-4{fill:#d3a789;}.cls-6{fill:#e0b89b;}.cls-7{fill:#c6696e;}.cls-8{fill:#d87373;}.cls-9{fill:#2b0f0f;}.cls-10{fill:#965458;}.cls-11{fill:#f6f0d7;}</style></defs><g id="Layer_2" data-name="Layer 2"><g id="avatars"><g id="row-01"><g id="avatar-01-09"><path class="cls-1" d="M8,14.25V25.37H2l-.15-.06a7.71,7.71,0,0,1,1.39-5A3.84,3.84,0,0,1,5.5,18.9h0l.08,0c.3-.08.51-.53.65-1.18a1.86,1.86,0,0,0,.06-.34,6.37,6.37,0,0,0,.09-.65c0-.13,0-.27,0-.41,0-.68.07-1.42.07-2.13C6.52,14.17,7.33,14.25,8,14.25Z"/><path class="cls-2" d="M14.19,25.31l-.15.06H8V14.25H8c.66,0,1.47-.08,1.47-.08,0,.7,0,1.44.07,2.11,0,.14,0,.27,0,.41s.05.45.09.66h0c0,.1,0,.18,0,.27a1.87,1.87,0,0,0,.59,1.23l.06,0a.32.32,0,0,0,.14,0,3.89,3.89,0,0,1,2.38,1.56A7.84,7.84,0,0,1,14.19,25.31Z"/><path class="cls-3" d="M9.67,17.35h0A2,2,0,0,1,8,18.27H8a2.12,2.12,0,0,1-1.66-.91c0-.2.06-.42.08-.65s0-.27,0-.41A6.57,6.57,0,0,0,8,16.5H8a6.38,6.38,0,0,0,1.55-.21c0,.13,0,.27,0,.4S9.63,17.14,9.67,17.35Z"/><path class="cls-4" d="M8,2.31c-6.29,0-6.33,5.05-6.05,8.36-.43-.78-1.71-.49-1.6.76S2.23,13.15,2.21,13c.51,2.7,3.48,4.19,5.77,4.41H8V2.31Z"/><path class="cls-5" d="M.64,10.9a.64.64,0,0,1,.93-.17.5.5,0,0,1,.14.55c0,.16-.22.18-.17.42a.42.42,0,0,0,.25.35.55.55,0,0,1,.22.23.66.66,0,0,1,0,.34c-.05.2-.35,0-.55,0a3.6,3.6,0,0,1-.67-.51A1.07,1.07,0,0,1,.64,10.9Z"/><path class="cls-6" d="M8,2.31c6.3,0,6.33,5.05,6.05,8.36.44-.78,1.71-.49,1.61.76S13.76,13.15,13.79,13c-.52,2.7-3.48,4.19-5.78,4.41H8V2.31Z"/><path class="cls-5" d="M15.4,10.9a.64.64,0,0,0-.93-.17.5.5,0,0,0-.14.55c0,.16.22.18.17.42a.42.42,0,0,1-.25.35.55.55,0,0,0-.22.23.66.66,0,0,0,0,.34c.05.2.35,0,.55,0a3.6,3.6,0,0,0,.67-.51A1.07,1.07,0,0,0,15.4,10.9Z"/><path class="cls-1" d="M8,3.74c-2.1,0-3.64.58-4.57,1.73-1.3,1.6-1.25,4.05-.77,5.8.14.54.22,2,.32,2.52.45,2.37,3.21,3.64,5,3.64H8V3.74Z"/><path class="cls-2" d="M12.51,5.47A5.53,5.53,0,0,0,8,3.74V17.43c2.07,0,4.54-1.41,5-3.64.1-.53.17-2,.32-2.52C13.77,9.52,13.82,7.08,12.51,5.47Z"/><path class="cls-7" d="M9.06,15.28A1.69,1.69,0,0,1,8,15.79a1.59,1.59,0,0,1-1-.5,6.59,6.59,0,0,1,1-.08A8.21,8.21,0,0,1,9.06,15.28Z"/><path class="cls-8" d="M8.3,15.05c-.17,0-.3.1-.3.23a.28.28,0,0,0-.3-.23,4.18,4.18,0,0,0-.76.23s.57.06.74.06.31.07.32-.06c0,.13.12.08.28.08s.78-.08.78-.08A4.45,4.45,0,0,0,8.3,15.05Z"/><path class="cls-9" d="M14.19,25.31l-.15.06H2l-.15-.06a7.71,7.71,0,0,1,1.39-5,3.33,3.33,0,0,0,2.35,1.72,20.6,20.6,0,0,0,2.44.3,6.13,6.13,0,0,0,3.1-.46,6.84,6.84,0,0,0,1.79-1.45A7.84,7.84,0,0,1,14.19,25.31Z"/><path class="cls-10" d="M13.7,12.56c.12,0,0-.71.39-1.2a7.14,7.14,0,0,0,1-3.77,6.68,6.68,0,0,0-1.9-4.65A9.5,9.5,0,0,0,9.83.63l.93.93A4.47,4.47,0,0,0,8.46.2a3,3,0,0,0-2.33,0s.93,0,1.22.41A1.4,1.4,0,0,0,7.68,1S7.25-.12,5.23.77s-2,2.47-3.38,3S0,3.59,0,3.59A2.22,2.22,0,0,0,1.73,4.72c.21,0,.2,0,.2,0a11,11,0,0,0-.5,2.11c-.08.92.17,1.55.25,3.26.07,1.47.43.72.87,1.8a2.61,2.61,0,0,1,.15.77c.16,0,.58-.88.28-2.48-.2-1.05.77-5,3.12-4.23,1.44.47,1.8,1.43,2.88.58A2.94,2.94,0,0,1,12.17,6c1,.58,1.51,1.88,1.34,4C13.29,12.58,13.7,12.56,13.7,12.56Z"/><path class="cls-11" d="M10.39,19a1.18,1.18,0,0,1-.26-.85c0-.3-.44-.29-.44-.29s.17.24,0,.4A2.9,2.9,0,0,1,8,18.68a3.16,3.16,0,0,1-1.54-.24c-.2-.12-.4-.38-.11-.63a.78.78,0,0,0-.51.16c-.27.19.17.33,0,.58a1.87,1.87,0,0,1-.42.57c-.3.29,0,.45.41.67a4.31,4.31,0,0,0,.77.34A1.3,1.3,0,0,0,8,21.28a1.32,1.32,0,0,0,1.38-1.15,3,3,0,0,0,1.05-.57C10.85,19.22,10.57,19.28,10.39,19ZM8,20.94a.85.85,0,1,1,.85-.85A.85.85,0,0,1,8,20.94Z"/></g></g></g></g></svg>