<svg xmlns="http://www.w3.org/2000/svg" viewBox="0 0 16 26.13"><defs><style>.cls-1{fill:#e1bf9c;}.cls-2{fill:#f2d1ac;}.cls-3,.cls-6{fill:#c09a80;}.cls-3{opacity:0.7;}.cls-4{fill:#d3a789;}.cls-5{fill:#607298;}.cls-7{fill:#e0b89b;}.cls-8{fill:#e2e2e2;}.cls-9{fill:#191919;}.cls-10{fill:#ffde17;}</style></defs><g id="Layer_2" data-name="Layer 2"><g id="avatars"><g id="row-02"><g id="avatar-02-13"><path class="cls-1" d="M8,14.73V26.12H1.77l-.15-.07c0-6.11,3.79-6.56,3.79-6.56.38,0,.62-.49.78-1.23,0-.11,0-.23.07-.35s.06-.43.09-.67,0-.27,0-.42c0-.57.07-1.18.07-1.77,0-.14,0-.27,0-.41S7.29,14.73,8,14.73Z"/><path class="cls-2" d="M14.33,26.05l-.15.07H8V14.73H8c.67,0,1.51-.09,1.51-.09v.47c0,.57,0,1.15.07,1.7,0,.14,0,.28,0,.41s.05.46.09.68h0a2.16,2.16,0,0,0,.05.27c.16.79.41,1.32.8,1.32C10.54,19.49,14.33,19.94,14.33,26.05Z"/><path class="cls-3" d="M9.69,17.9h0A2,2,0,0,1,8,18.84H8a2.2,2.2,0,0,1-1.71-.93q0-.32.09-.66c0-.14,0-.28,0-.42A6.93,6.93,0,0,0,8,17H8a6.63,6.63,0,0,0,1.59-.22c0,.14,0,.28,0,.41S9.66,17.69,9.69,17.9Z"/><path class="cls-4" d="M8,1.66c-6.56,0-6.59,5.49-6.3,9.09C1.23,9.9-.1,10.16,0,11.5s2,2,2,1.81C2.5,16.27,5.59,18,8,18H8V1.66Z"/><path class="cls-5" d="M14.33,26.05l-.15.07H1.77l-.15-.07c0-6,3.61-6.54,3.79-6.56h0c.29,0,.5-.28.65-.73a.62.62,0,0,0,.27.23A3.57,3.57,0,0,0,8,19.23a3.34,3.34,0,0,0,1.86-.39.22.22,0,0,0,.05-.08c.15.43.35.7.62.73h0S14.33,19.94,14.33,26.05Z"/><path class="cls-6" d="M.43,10.93a.61.61,0,0,1,.94-.18.55.55,0,0,1,.16.6c-.05.17-.23.18-.19.45a.48.48,0,0,0,.27.38.58.58,0,0,1,.22.24.78.78,0,0,1,0,.37c-.05.21-.36,0-.57,0a3.9,3.9,0,0,1-.68-.55A1.19,1.19,0,0,1,.43,10.93Z"/><path class="cls-7" d="M8,1.66c6.56,0,6.59,5.49,6.3,9.09.45-.85,1.78-.59,1.67.75s-2,2-2,1.81c-.53,3-3.62,4.67-6,4.67H8V1.66Z"/><path class="cls-6" d="M15.58,10.93a.62.62,0,0,0-.95-.18.55.55,0,0,0-.16.6c0,.17.23.18.19.45a.48.48,0,0,1-.27.38.58.58,0,0,0-.22.24.78.78,0,0,0,0,.37c0,.21.36,0,.57,0a3.9,3.9,0,0,0,.68-.55A1.22,1.22,0,0,0,15.58,10.93Z"/><path class="cls-1" d="M7.93,3.21c-2.16,0-3.74.63-4.7,1.86C1.9,6.8,2,9.44,2.44,11.34c.15.58.23,2.14.33,2.71C3.24,16.61,6.07,18,7.93,18H8V3.21Z"/><path class="cls-2" d="M12.61,5.08A5.55,5.55,0,0,0,8,3.21V18c2.12,0,4.66-1.52,5.1-3.93.1-.57.18-2.13.33-2.71C13.9,9.45,14,6.81,12.61,5.08Z"/><path class="cls-8" d="M10.58,21.56a21.51,21.51,0,0,1-1.71,4.57H7.05a21.89,21.89,0,0,1-1.72-4.58,3,3,0,0,1,.29-1.25,3.37,3.37,0,0,1,.52-.77l0,0h0L8,20.73l1.73-1.22h.06l0,0a5.56,5.56,0,0,1,.39.54l.11.2a3,3,0,0,1,.29,1.27"/><path class="cls-9" d="M7.3,26.13h-1L6.22,26a9.75,9.75,0,0,1-2.28-4.08l.81-.41-.5-.37s.2-.25.55-.62a3.91,3.91,0,0,1,.4-.33,4.32,4.32,0,0,1,.65-.38s-.24.33-.18,1.75c0,.09,0,.19,0,.28s0,.05,0,.07l0,.14v0a.89.89,0,0,0,0,.14,12.18,12.18,0,0,0,.81,2.35c.06.13.11.25.17.37l.21.46.12.25.13.27.1.22"/><path class="cls-9" d="M12,21.91A9.75,9.75,0,0,1,9.7,26l-.12.14h-1c.26-.52.56-1.14.83-1.77,0,0,0,0,0-.06h0a10.75,10.75,0,0,0,.72-2.22s0,0,0,0a.77.77,0,0,0,0-.15.11.11,0,0,0,0-.05c0-.1,0-.2,0-.29a6.34,6.34,0,0,0-.07-1.46l0-.11v0a.49.49,0,0,0-.07-.16,5,5,0,0,1,.64.38h0a3.08,3.08,0,0,1,.41.34c.34.36.54.61.54.61l-.5.37Z"/><path class="cls-10" d="M3.61,9.18Z"/><path class="cls-10" d="M14.32,3.64c-.56-.89-.6-.64-.6-.64s.56-2.41-3-2.95A8,8,0,0,0,9.36,0l.49.5A9.7,9.7,0,0,0,5.53.25a5.7,5.7,0,0,0-4,2.63A6.63,6.63,0,0,0,.63,5.3L1.56,4A6.33,6.33,0,0,0,.63,8.27c.55,4.21,2.47,5,2.47,5S1.78,10.74,2.65,9.1A5.13,5.13,0,0,1,6.72,6.28a3.72,3.72,0,0,0-3.1,2.89h0A2,2,0,0,1,4.85,8c.58-.23,1.34-.22,2.21-.45a4.69,4.69,0,0,0-.93,2.18,5.52,5.52,0,0,1,2.65-2l.35-.14A2.42,2.42,0,0,0,9,9.81S8.89,8.71,11.25,8c1.36-.4,1.57-1.19,1.57-1.19A4.68,4.68,0,0,0,13,8.11c.21.57.81,1,.85,1.47a10.9,10.9,0,0,1-.43,2.77l.77-.61A23.91,23.91,0,0,0,15,6.89,7.33,7.33,0,0,0,14.32,3.64Z"/><path class="cls-5" d="M10.58,20.13A3.74,3.74,0,0,1,8,20.85a4.17,4.17,0,0,1-2.31-.49c-.45-.22-.76-.39-.44-.68l.2-.19h0a3.31,3.31,0,0,0,.25-.39c.17-.25-.3-.39,0-.58a.78.78,0,0,1,.52-.15c-.11.39,0,.56.16.62A3.57,3.57,0,0,0,8,19.23a3.4,3.4,0,0,0,1.71-.34c.18-.1.14-.3.13-.39l0-.08s.56,0,.51.31a1.08,1.08,0,0,0,.21.76.61.61,0,0,0,.07.1C10.78,19.84,11.08,19.78,10.58,20.13Z"/></g></g></g></g></svg>