<svg xmlns="http://www.w3.org/2000/svg" xmlns:xlink="http://www.w3.org/1999/xlink" viewBox="0 0 17 26.38"><defs><style>.cls-1{fill:none;}.cls-2{fill:#e2bf9c;}.cls-3{fill:#f2d1ac;}.cls-4{clip-path:url(#clip-path);}.cls-5{fill:#c09a80;}.cls-6{fill:#d3a789;}.cls-7{fill:#e0b89b;}.cls-8{fill:#718faf;}.cls-9{fill:#f9f9fa;}.cls-10{fill:#191919;}.cls-11{fill:#432612;}.cls-12{fill:#3a2817;}</style><clipPath id="clip-path"><rect class="cls-1" x="6.72" y="17.08" width="3.39" height="2.03"/></clipPath></defs><g id="Layer_2" data-name="Layer 2"><g id="avatars"><g id="row-02"><g id="avatar-02-28"><path class="cls-2" d="M8.41,15V26.38H2.29l-.16-.06c0-4.69,2.22-6.05,3.25-6.42a2,2,0,0,1,.5-.14c.38,0,.61-.49.78-1.22,0-.12,0-.23.06-.36s.06-.43.09-.66,0-.28,0-.42c.05-.7.07-1.46.07-2.18,0,0,.82.09,1.49.09"/><path class="cls-3" d="M14.7,26.32l-.15.06H8.41V15h0c.67,0,1.5-.09,1.5-.09,0,.72,0,1.47.07,2.16,0,.14,0,.28,0,.41a6.69,6.69,0,0,0,.08.68h0a2.56,2.56,0,0,0,.05.27c.16.78.41,1.31.79,1.31a3,3,0,0,1,.77.24c1.1.51,3,2,3,6.32"/><g class="cls-4"><path class="cls-5" d="M10.11,18.17h0a2,2,0,0,1-1.69.93h0a2.13,2.13,0,0,1-1.69-.93,6.62,6.62,0,0,0,.08-.66c0-.14,0-.28,0-.42a6.91,6.91,0,0,0,1.55.2h0A6.15,6.15,0,0,0,10,17.08l0,.41c0,.24.05.47.09.68"/></g><path class="cls-6" d="M8.29,2C1.81,2,1.78,7.44,2.06,11c-.44-.85-1.75-.59-1.65.75s2,2,1.94,1.81c.53,2.95,3.58,4.66,5.94,4.66h.05V2H8.29"/><path class="cls-5" d="M.83,11.21A.61.61,0,0,1,1.76,11a.55.55,0,0,1,.15.6c0,.17-.22.18-.18.44a.46.46,0,0,0,.26.38c.08.07.18.12.22.25a.67.67,0,0,1,0,.37c-.05.21-.35,0-.56-.05A4.89,4.89,0,0,1,1,12.47a1.19,1.19,0,0,1-.18-1.26"/><path class="cls-7" d="M8.33,2c6.48,0,6.51,5.49,6.23,9.08.44-.85,1.76-.59,1.65.75s-2,2-1.94,1.81c-.53,2.95-3.58,4.66-5.94,4.66H8.28V2h.05"/><path class="cls-5" d="M15.79,11.21a.61.61,0,0,0-.93-.18.55.55,0,0,0-.15.6c0,.17.22.18.17.44a.42.42,0,0,1-.25.38.6.6,0,0,0-.22.25.59.59,0,0,0,0,.37c0,.21.36,0,.56-.05a4.35,4.35,0,0,0,.67-.55,1.19,1.19,0,0,0,.18-1.26"/><path class="cls-2" d="M8.37,3.5c-2.14,0-3.7.62-4.64,1.86C2.41,7.08,2.46,9.72,3,11.62c.15.57.22,2.13.32,2.71.46,2.56,3.26,3.92,5.1,3.92h.05V3.5H8.37"/><path class="cls-3" d="M13,5.36A5.45,5.45,0,0,0,8.42,3.5V18.25c2.1,0,4.61-1.52,5-3.92.1-.58.18-2.14.33-2.71.48-1.89.53-4.53-.79-6.26"/><path class="cls-8" d="M14.7,26.32l-.15.06H2.29l-.16-.06c0-4.69,2.22-6.05,3.25-6.42.59.29,1.54.78,1.89.94a2.58,2.58,0,0,0,1.15.39,7.24,7.24,0,0,0,1.69-.5A9,9,0,0,0,11.72,20c1.1.51,3,2,3,6.32"/><path class="cls-9" d="M13.33,26.38H3.5c0-.48.06-1.36,0-2.55v-.22a2.35,2.35,0,0,0,0-.26c0-.06,0-.13,0-.19,0-.48-.11-1-.2-1.63a4.3,4.3,0,0,1,.9-1,.27.27,0,0,1,.08-.07,4,4,0,0,1,1.07-.62l.16,0a1.73,1.73,0,0,1,.35-.08.46.46,0,0,0,.31-.13,0,0,0,0,1,0,0l.09-.11a.36.36,0,0,1,0,.12,23.55,23.55,0,0,0,2.08,2,24.52,24.52,0,0,0,2.07-2q0-.11.06-.12a.44.44,0,0,0,.08.11,0,0,0,0,1,0,0,.46.46,0,0,0,.31.13,1.91,1.91,0,0,1,.34.07l.15.06a3.86,3.86,0,0,1,1.09.61l.08.07a4.41,4.41,0,0,1,.91,1c-.1.6-.18,1.18-.21,1.66,0,.07,0,.13,0,.19a1.15,1.15,0,0,1,0,.19v.22c0,1.21,0,2.1.05,2.59"/><polygon class="cls-8" points="5.91 22.34 5.92 22.33 5.91 22.33 5.28 21.25 4.67 20.15 4.04 21.25 3.42 22.33 3.41 22.33 3.42 22.34 3.41 22.34 3.42 22.34 4.04 23.43 4.67 24.52 5.28 23.43 5.91 22.34 5.92 22.34 5.91 22.34"/><polygon class="cls-8" points="8.41 22.34 8.41 22.33 8.41 22.33 7.79 21.25 7.17 20.15 6.55 21.25 5.92 22.33 5.92 22.33 5.92 22.34 5.92 22.34 5.92 22.34 6.55 23.43 7.16 24.52 7.79 23.43 8.41 22.34 8.41 22.34 8.41 22.34"/><polygon class="cls-8" points="10.91 22.34 10.91 22.33 10.91 22.33 10.29 21.25 9.67 20.15 9.05 21.25 8.42 22.33 8.41 22.33 8.42 22.34 8.41 22.34 8.42 22.34 9.05 23.43 9.66 24.52 10.29 23.43 10.91 22.34 10.91 22.34 10.91 22.34"/><polygon class="cls-8" points="13.41 22.34 13.41 22.33 13.41 22.33 12.79 21.25 12.17 20.15 11.54 21.25 10.92 22.33 10.91 22.33 10.92 22.34 10.91 22.34 10.92 22.34 11.54 23.43 12.17 24.52 12.79 23.43 13.41 22.34 13.41 22.34 13.41 22.34"/><polygon class="cls-8" points="5.73 26.38 3.6 26.38 4.04 25.61 4.66 24.52 5.29 25.61 5.73 26.38"/><polygon class="cls-8" points="8.23 26.38 6.09 26.38 6.55 25.61 7.16 24.52 7.78 25.61 8.23 26.38"/><polygon class="cls-8" points="10.73 26.38 8.6 26.38 9.05 25.61 9.67 24.52 10.28 25.61 10.73 26.38"/><polygon class="cls-8" points="13.23 26.38 11.1 26.38 11.54 25.61 12.17 24.52 12.79 25.61 13.23 26.38"/><path class="cls-10" d="M6,23.47l0-.06H5.93l-.61-1.06-.66-1.17L4,22.35l-.47.81c0,.06,0,.13,0,.19l.54-.94.58-1,.57,1,.61,1.06-.61,1.06-.58,1-.57-1-.53-.92v.22l.44.75.66,1.18.67-1.18.61-1H6Z"/><path class="cls-10" d="M7.16,25.76l-.67-1.17-.61-1.06H5.82l0-.06,0,0h.06l.61-1.06.67-1.17.66,1.17.61,1.06h.06l0,.06,0,.05H8.43l-.61,1.06ZM6,23.47l.61,1.06.58,1,.57-1,.61-1.06-.61-1.06-.57-1-.58,1Z"/><path class="cls-10" d="M9.66,25.76,9,24.59l-.61-1.06H8.32l0-.06,0,0h.06L9,22.35l.67-1.17.66,1.17.61,1.06H11l0,.06,0,.05h-.06l-.61,1.06ZM8.47,23.47l.62,1.06.57,1,.57-1,.61-1.06-.61-1.06-.57-1-.57,1Z"/><path class="cls-10" d="M12.16,21.4l.57,1,.56,1c0-.06,0-.12,0-.19l-.49-.84-.66-1.17-.67,1.17-.61,1.06h-.06l0,0,0,.06h.06l.61,1,.67,1.18.66-1.18.46-.79v-.22l-.55,1-.57,1-.57-1L11,23.47l.62-1.06Z"/><polygon class="cls-10" points="4.65 25.54 4.18 26.38 4.3 26.38 4.65 25.75 5.02 26.38 5.14 26.38 4.65 25.54"/><polygon class="cls-10" points="7.16 25.54 6.68 26.38 6.8 26.38 7.16 25.75 7.51 26.38 7.63 26.38 7.16 25.54"/><polygon class="cls-10" points="9.66 25.54 9.18 26.38 9.3 26.38 9.66 25.75 10.01 26.38 10.14 26.38 9.66 25.54"/><polygon class="cls-10" points="12.16 25.54 11.68 26.38 11.8 26.38 12.16 25.75 12.51 26.38 12.64 26.38 12.16 25.54"/><path class="cls-10" d="M5.37,19.83l-.71,1.25-.36-.63a.27.27,0,0,0-.08.07l.44.78.86-1.52-.15,0"/><path class="cls-10" d="M12.53,20.44l-.37.64-.72-1.25-.15-.06.87,1.53.45-.79-.08-.07"/><path class="cls-11" d="M10.71,16a4.87,4.87,0,0,0-2.22-1.39H8.32A4.76,4.76,0,0,0,6.1,16a4.1,4.1,0,0,0,2.3-.38A4.14,4.14,0,0,0,10.71,16Z"/><path class="cls-11" d="M14,14.31c-.24.46-.84.54-1.3,1.18a11.36,11.36,0,0,1-2.57,1.73s-.05,1-1.31,1c-.23,0-.39-.4-.58-.39h0c-.19,0-.35.39-.58.39-1.26,0-1.31-1-1.31-1a11.36,11.36,0,0,1-2.57-1.73c-.46-.64-1.06-.72-1.3-1.18A8.57,8.57,0,0,0,3,16.38,20,20,0,0,0,3.89,19a3,3,0,0,0,.77,1c.15.18,0-.85,0-.85a11.82,11.82,0,0,0,.8,1.28A9.62,9.62,0,0,0,8,21.9l.19.06v0H8.3v0l.2-.06A9.62,9.62,0,0,0,11,20.37a11.82,11.82,0,0,0,.8-1.28s-.15,1,0,.85a3,3,0,0,0,.77-1,20,20,0,0,0,.94-2.6A8.57,8.57,0,0,0,14,14.31"/><path class="cls-12" d="M17,3.55s-.47.63-2.08.14a2,2,0,0,1-.61-.29,2.72,2.72,0,0,0-1-1A5,5,0,0,0,11.13.76,3.1,3.1,0,0,0,8.88.53,2.38,2.38,0,0,1,10.12.25,3.78,3.78,0,0,0,7.5.2a7.2,7.2,0,0,0-2.16,1L6,.62A11.12,11.12,0,0,0,2.17,2.9,6.34,6.34,0,0,0,.06,7.06a4.7,4.7,0,0,0,0,1.59,8.81,8.81,0,0,1,.18,3.59h0C.16,13.21,0,14,0,14.51c0,2.85,2,5.21,1.66,8.08A10,10,0,0,1,.66,26,10.6,10.6,0,0,0,2,23.44a9.33,9.33,0,0,0-.37-5.14,8.35,8.35,0,0,1-.29-3.87c.65.06,1.29,1.4,1.29,1.4.15.39.3.76.42,1.12a8.17,8.17,0,0,1,.25,1,4.49,4.49,0,0,1,.06.48,3.31,3.31,0,0,1,0,.44c0,.27,0,.51,0,.72,0,.4-.07.63-.07.63a1.37,1.37,0,0,1,.07-.16c0-.1.11-.24.18-.44a6,6,0,0,0,.18-.73,4.1,4.1,0,0,0,.09-1,6.49,6.49,0,0,0-.22-1.63c0-.21-.11-.41-.18-.62,0-.05,0-.1,0-.15l-.15-.47a10.53,10.53,0,0,1-.08-4.76h0a.1.1,0,0,1,0,0,0,0,0,0,1,0,0A2.15,2.15,0,0,1,3.17,10h0C3.38,9.28,4,7.69,5,8.84A3.83,3.83,0,0,0,6.7,9.89L7,10a4.87,4.87,0,0,0-.87,2.14l.1-.14c1.63-2.28,3.19-2.61,4.16-2.52h0s.26,0,.62.06a5.38,5.38,0,0,1,1.55.46,1.84,1.84,0,0,1,.76.64,1.17,1.17,0,0,1,.2.53h0c0,.89.3,1.38.43,1.34a2,2,0,0,1,.17-.76,1.46,1.46,0,0,1,.25-.41,1.3,1.3,0,0,1,.3.64A19.58,19.58,0,0,1,14,14.31a1.94,1.94,0,0,1-.36.95l1.41-1c.15-.53.3-1.18.43-1.86a4,4,0,0,0,.33-.84c0-.12,0-.22.06-.32s0-.13,0-.19a3.84,3.84,0,0,0-.07-.76c0-.49.09-.93.09-1.25a7.66,7.66,0,0,0-.7-3.5l-.12-.19a5.91,5.91,0,0,0-.26-.73h.23A2.5,2.5,0,0,0,17,3.55Z"/></g></g></g></g></svg>