<svg xmlns="http://www.w3.org/2000/svg" viewBox="0 0 15.49 23.51"><defs><style>.cls-1{fill:#231f20;}.cls-2{fill:#e1bf9c;}.cls-3{fill:#f2d1ac;}.cls-4,.cls-6{fill:#c09a80;}.cls-4{opacity:0.7;}.cls-5{fill:#d3a789;}.cls-7{fill:#e0b89b;}.cls-8{fill:#c6696e;}.cls-9{fill:#d87373;}.cls-10{fill:#8967ac;}</style></defs><g id="Layer_2" data-name="Layer 2"><g id="avatars"><g id="row-01"><g id="avatar-01-08"><path class="cls-1" d="M13.67,15.45c0,1.94-2.62,3.51-5.86,3.51S2,17.39,2,15.45s2.63-3.51,5.86-3.51S13.67,13.51,13.67,15.45Z"/><path class="cls-2" d="M7.74,12.3V23.51H1.65l-.15-.06a10.48,10.48,0,0,1,.28-2.56C2.64,17.3,5.23,17,5.23,17h.11c.31-.09.51-.54.66-1.19l.06-.35c0-.21.06-.43.08-.65s0-.28,0-.42c.06-.69.08-1.44.08-2.15C6.26,12.21,7.07,12.3,7.74,12.3Z"/><path class="cls-3" d="M14,23.45l-.14.06H7.74V12.3h0c.66,0,1.48-.09,1.48-.09,0,.71,0,1.45.08,2.14l0,.4c0,.24.06.46.09.67h0a2.16,2.16,0,0,0,.05.27c.12.63.31,1.09.59,1.24l.06,0,.14,0,.12,0A4.17,4.17,0,0,1,13,19.06,8.49,8.49,0,0,1,14,23.45Z"/><path class="cls-4" d="M9.43,15.42h0a2,2,0,0,1-1.69.92h0a2.12,2.12,0,0,1-1.68-.91c0-.21.06-.43.08-.65s0-.28,0-.42a6.75,6.75,0,0,0,1.54.2h0a6.39,6.39,0,0,0,1.56-.21c0,.13,0,.27,0,.4S9.39,15.21,9.43,15.42Z"/><path class="cls-5" d="M7.73.24c-6.35,0-6.39,5.11-6.1,8.44C1.19,7.9-.1,8.19,0,9.44s1.92,1.74,1.89,1.61c.52,2.72,3.52,4.23,5.83,4.44h0V.24Z"/><path class="cls-6" d="M.33,8.91a.64.64,0,0,1,.93-.17.51.51,0,0,1,.15.56c0,.16-.23.17-.18.42a.41.41,0,0,0,.26.35c.07.07.17.11.21.23a.54.54,0,0,1,0,.35c-.05.19-.35,0-.55-.05a3.66,3.66,0,0,1-.67-.52A1,1,0,0,1,.33,8.91Z"/><path class="cls-7" d="M7.76.24c6.35,0,6.39,5.11,6.11,8.44.43-.78,1.72-.49,1.61.76s-1.92,1.74-1.89,1.61c-.52,2.72-3.51,4.23-5.83,4.44h0V.24Z"/><path class="cls-6" d="M15.21,8.91a.64.64,0,0,0-.93-.17.49.49,0,0,0-.15.56c0,.16.22.17.18.42a.43.43,0,0,1-.26.35c-.07.07-.17.11-.22.23a.71.71,0,0,0,0,.35c0,.19.36,0,.56-.05a4,4,0,0,0,.67-.52A1.06,1.06,0,0,0,15.21,8.91Z"/><path class="cls-2" d="M7.7,1.69c-2.12,0-3.68.59-4.62,1.74C1.77,5.05,1.82,7.52,2.31,9.29c.14.54.22,2,.32,2.54.46,2.39,3.24,3.67,5.07,3.67h0V1.69Z"/><path class="cls-3" d="M12.3,3.44A5.59,5.59,0,0,0,7.75,1.69v13.8c2.08,0,4.58-1.41,5-3.66.1-.54.18-2,.33-2.54C13.57,7.52,13.62,5.06,12.3,3.44Z"/><path class="cls-8" d="M8.81,13.33a1.68,1.68,0,0,1-1.07.52,1.58,1.58,0,0,1-1-.51,6.59,6.59,0,0,1,1-.08A8.27,8.27,0,0,1,8.81,13.33Z"/><path class="cls-9" d="M8.05,13.09a.29.29,0,0,0-.31.24.27.27,0,0,0-.3-.24,4.2,4.2,0,0,0-.77.24s.59.06.75.06.32.07.32-.06c0,.13.13.08.29.08s.78-.08.78-.08A4.31,4.31,0,0,0,8.05,13.09Z"/><path class="cls-10" d="M14.49,20.62S12.72,17.13,10.26,17c-.07,0,1.83,2.78-.69,3.42a6.47,6.47,0,0,1-1.82.2h0a6.43,6.43,0,0,1-1.82-.2C3.4,19.76,5.29,17,5.23,17,2.76,17.13,1,20.62,1,20.62l.78.27,1.1.37a7.54,7.54,0,0,0-.41,2.25H13a7.19,7.19,0,0,0-.41-2.25l1.11-.37Z"/><path class="cls-1" d="M13.32,12.09c0,.46-.05.51.17.87s.49.5.24.91-.66.46-.63.82.47.54.39,1-.77.9-.91,1c.11-.08.57-.43.5-.88s-.13-.54-.67-.83-.63-.41-.48-.83.65-.45.27-.88-.59-.74-.49-1-.06-.46.38-1A2.33,2.33,0,0,0,12.32,10c0-.32.44-1.85-.27-2.52-.13-.12-.35-.39-.62-.71s-.46-.55-.71-.81a3.74,3.74,0,0,1-.65-1c-.16-.34-.27-.62-.3-.69s.06.4.09.66q0,.15,0,.24a1.5,1.5,0,0,0,.56,1.08,4.83,4.83,0,0,1-1.22-1A2.08,2.08,0,0,1,9,4.79a1.75,1.75,0,0,1,0-1.29A6.57,6.57,0,0,1,8,4.61l-.1.09a11.08,11.08,0,0,1-1.4.94,3.78,3.78,0,0,0,.77-1l.09-.19c.09-.22.47-1.36.47-1.36a15.68,15.68,0,0,1-1,1.52,5.09,5.09,0,0,1-1,1.1l-.55.45c-.78.65-1.87,1.62-2,2.15a7.42,7.42,0,0,0,.44,2.77c.23.61.25.8,0,1s-.87.68-.76.9.47.58.39.88-.89,1-1,1.38c-.18.69.89,1.29,1,1.35-.13,0-1.58-.59-1.42-1.33.11-.47,0-.55-.25-.92s-.67-1-.29-1.33.89-.78.76-1.19S.82,8.6.82,7.59A8.89,8.89,0,0,1,1,6.08a12.22,12.22,0,0,1,.46-1.71A5.73,5.73,0,0,1,3.52,1.44C5.63.1,7.12-.11,7.86.06a7.88,7.88,0,0,0,1.7,0,9.82,9.82,0,0,1,2.82,1.67,12.24,12.24,0,0,1,2.53,3.88,4.91,4.91,0,0,1,.29,1.6,1.09,1.09,0,0,1,0,.18C15.1,9.64,13.34,11.64,13.32,12.09Z"/></g></g></g></g></svg>