<svg xmlns="http://www.w3.org/2000/svg" viewBox="0 0 18.43 26.73"><defs><style>.cls-1{fill:#3c2415;}.cls-2{fill:#e1bf9c;}.cls-3{fill:#f2d1ac;}.cls-4,.cls-6{fill:#c09a80;}.cls-4{opacity:0.7;}.cls-5{fill:#d3a789;}.cls-7{fill:#e0b89b;}.cls-8{fill:#c6696e;}.cls-9{fill:#d87373;}.cls-10{fill:#550f0e;}.cls-11{fill:#fef5f0;}.cls-12{fill:#d1d3d4;}.cls-13{fill:#414042;}</style></defs><g id="Layer_2" data-name="Layer 2"><g id="avatars"><g id="row-02"><g id="avatar-02-02"><path class="cls-1" d="M8.87,11.52a14.1,14.1,0,0,1-1.16,3c-.58,1-2.35,2.37-2.41,3.8-.13,3.05,4.18,4.5,5.93,5s2.32.57,2.51,1.32a7,7,0,0,1,0,2,7.39,7.39,0,0,0,1.88-1.42A1.67,1.67,0,0,0,15.57,23s-.36.31.06,1,.43,1.32.27,1.5-.69.75-.69.75,2.69-.76,2.16-2.95c-.09-.38-.33-.1,0,0,.75.22.61,1.46.61,1.46s1.83-2.37-1.87-3.71c-.35-.13-2.25-.6-2.45-2.17-.11-.88.53-.95.65-2,.15-1.39-1.83-1.09-2.59-2.4-.14-.24.57-.38,0-1.06s-.94-.75-1.93-1.23S8.87,11.52,8.87,11.52Z"/><path class="cls-2" d="M8.14,14.93v11.8H1.73l-.15-.07a9.9,9.9,0,0,1,.73-4,4.76,4.76,0,0,1,2.5-2.57,2.77,2.77,0,0,1,.69-.2h0l.08,0c.33-.09.55-.57.69-1.25,0-.12,0-.24.07-.37a6.45,6.45,0,0,0,.09-.69c0-.14,0-.28,0-.43.06-.73.08-1.51.08-2.26C6.58,14.84,7.44,14.93,8.14,14.93Z"/><path class="cls-3" d="M14.72,26.66l-.16.07H8.14V14.93h0c.69,0,1.56-.09,1.56-.09,0,.75,0,1.53.08,2.24,0,.15,0,.29,0,.43a7,7,0,0,0,.09.7h0a2.33,2.33,0,0,0,.05.28,2,2,0,0,0,.62,1.31l.06,0a.4.4,0,0,0,.15,0,4.38,4.38,0,0,1,3.12,2.64A9.54,9.54,0,0,1,14.72,26.66Z"/><path class="cls-4" d="M9.92,18.21h0a2.08,2.08,0,0,1-1.78,1h0a2.22,2.22,0,0,1-1.77-1,6.6,6.6,0,0,0,.09-.68c0-.15,0-.29,0-.44a6.9,6.9,0,0,0,1.62.21h0a6.71,6.71,0,0,0,1.65-.23c0,.15,0,.29,0,.43A7,7,0,0,0,9.92,18.21Z"/><path class="cls-5" d="M8.13,2.25c-6.68,0-6.72,5.37-6.42,8.87-.46-.82-1.81-.51-1.7.81s2,1.83,2,1.69c.55,2.86,3.7,4.44,6.13,4.67h0v-16Z"/><path class="cls-6" d="M.34,11.37a.66.66,0,0,1,1-.18.52.52,0,0,1,.16.59c-.05.17-.24.18-.19.44s.19.3.27.37.18.12.23.24a.57.57,0,0,1,0,.36c-.05.21-.37,0-.59,0a4.87,4.87,0,0,1-.7-.54A1.13,1.13,0,0,1,.34,11.37Z"/><path class="cls-7" d="M8.16,2.25c6.68,0,6.72,5.37,6.42,8.87.46-.82,1.82-.51,1.71.81s-2,1.83-2,1.69c-.54,2.86-3.69,4.44-6.13,4.67H8.11v-16Z"/><path class="cls-6" d="M16,11.37a.66.66,0,0,0-1-.18.52.52,0,0,0-.16.59c.05.17.24.18.19.44s-.19.3-.27.37-.18.12-.23.24a.57.57,0,0,0,0,.36c.05.21.37,0,.58,0a4,4,0,0,0,.71-.54A1.13,1.13,0,0,0,16,11.37Z"/><path class="cls-2" d="M8.09,3.77c-2.23,0-3.86.62-4.85,1.84-1.38,1.7-1.33,4.29-.81,6.16.15.56.23,2.1.34,2.66C3.25,17,6.17,18.3,8.09,18.3h.06V3.78Z"/><path class="cls-3" d="M12.94,5.61c-1-1.21-2.6-1.83-4.79-1.83V18.29c2.19,0,4.82-1.49,5.27-3.86.11-.56.19-2.1.34-2.66C14.27,9.91,14.32,7.31,12.94,5.61Z"/><path class="cls-8" d="M9.27,16a1.77,1.77,0,0,1-1.13.54A1.66,1.66,0,0,1,7.05,16,7.21,7.21,0,0,1,8.14,16,9.08,9.08,0,0,1,9.27,16Z"/><path class="cls-9" d="M8.46,15.77a.3.3,0,0,0-.32.24.28.28,0,0,0-.31-.24A4.42,4.42,0,0,0,7,16s.61.06.79.06.33.07.33-.06c0,.13.13.08.31.08s.82-.08.82-.08A4.42,4.42,0,0,0,8.46,15.77Z"/><path class="cls-10" d="M15.38,5.94c-.09-.28-.18-.53-.27-.78V5.05c0-1-.85-2.4-2.2-3.72s-2.21-1-3.33-1v0C9.08.23,6.43-.34,4.86.29,3.12,1,1.69,2.19.69,5.41a13,13,0,0,0,0,7,10.34,10.34,0,0,0,3.58,5.81,7.76,7.76,0,0,1-1.08-1.9,11,11,0,0,1-.65-3.85c0-1.86,1.69-4.17,1.69-4.17a9.12,9.12,0,0,0-.93,3A4.66,4.66,0,0,0,4,14.12a3.14,3.14,0,0,1,.62-3.6A10.79,10.79,0,0,0,5.91,9.05h0a2.53,2.53,0,0,0,.42,2.24s0-1.56.85-2.09C9.29,7.91,9.62,7.38,9.92,6.34a2.25,2.25,0,0,0,.07-.4l1.93,3c.09.14.24.36.41.64A7.53,7.53,0,0,1,13.51,13a11.16,11.16,0,0,1-.64,3.86,8,8,0,0,1-1.09,1.9,10.33,10.33,0,0,0,3.59-5.81A13.07,13.07,0,0,0,15.38,5.94Z"/><path class="cls-11" d="M13.09,20.55A4.22,4.22,0,0,0,11.26,20c.56.79.35,1.45.26,2.57-.14,1.76-1.28,1.33-3.4,1.31s-3.25.45-3.39-1.31c-.1-1.12-.31-1.78.25-2.57a4.29,4.29,0,0,0-1.83.55,8.76,8.76,0,0,0-1.56,1,1.59,1.59,0,0,1,.91,1,8.25,8.25,0,0,1,.26,1.78c.09,1.35.77,1.95.73,2.41h9.27c0-.46.63-1.06.73-2.41a7.67,7.67,0,0,1,.26-1.78,1.57,1.57,0,0,1,.91-1A8.63,8.63,0,0,0,13.09,20.55Z"/><path class="cls-12" d="M7.19,20a10.74,10.74,0,0,1-.71,3.75,6.12,6.12,0,0,1-.73,1.43l.66,0c.08,0,.83.19,1-.38a39.66,39.66,0,0,0,.85-4.37c0-.09-.23-.48-.23-.48Z"/><path class="cls-13" d="M6.19,18.66a5.46,5.46,0,0,0,2,.4,16.47,16.47,0,0,0,2-.28s.57.65.09.92-3.46.68-4.41,0C5.72,19.54,6.19,18.66,6.19,18.66Z"/><path class="cls-13" d="M7.58,19a2.73,2.73,0,0,1,.65,0c.24,0,.34-.07.54,0s.33.65.33.74,0,.29-.09.3,0,.55,0,.79C9.29,25,8.68,26,8.55,26.09s-2.27.13-2.27.13.59-1.31.81-2a17.87,17.87,0,0,0,.68-4s-.25.08-.25-.14S7.38,19.16,7.58,19Z"/></g></g></g></g></svg>