<svg xmlns="http://www.w3.org/2000/svg" viewBox="0 0 15.96 25.84"><defs><style>.cls-1{fill:#e1bf9c;}.cls-2{fill:#f2d1ac;}.cls-3,.cls-5{fill:#c09a80;}.cls-3{opacity:0.7;}.cls-4{fill:#d3a789;}.cls-6{fill:#e0b89b;}.cls-7{fill:#c6696e;}.cls-8{fill:#d87373;}.cls-9{fill:#9e1d24;}.cls-10{fill:#965458;}.cls-11{fill:#f9f9fa;}</style></defs><g id="Layer_2" data-name="Layer 2"><g id="avatars"><g id="row-02"><g id="avatar-02-08"><path class="cls-1" d="M7.67,14.72V25.84h-6l-.15-.07A9.81,9.81,0,0,1,2,22.43a4.57,4.57,0,0,1,2.69-2.94,3.4,3.4,0,0,1,.49-.13h0l.08,0c.2-.05.36-.27.49-.61a3.43,3.43,0,0,0,.16-.56c0-.11,0-.23.07-.35s.06-.42.08-.65,0-.26,0-.4c0-.69.07-1.43.07-2.13C6.2,14.64,7,14.72,7.67,14.72Z"/><path class="cls-2" d="M13.87,25.77l-.15.07H7.67V14.72h0c.66,0,1.47-.08,1.47-.08,0,.69,0,1.43.07,2.11,0,.13,0,.27,0,.4s.05.46.09.66h0c0,.09,0,.18,0,.26a4.87,4.87,0,0,0,.22.75h0a1,1,0,0,0,.37.48s0,0,.06,0l.14,0a1.82,1.82,0,0,1,.29.06,4.66,4.66,0,0,1,3,3.45,9.25,9.25,0,0,1,.35,2.26C13.87,25.33,13.87,25.55,13.87,25.77Z"/><path class="cls-3" d="M9.34,17.81h0a1.94,1.94,0,0,1-1.67.91h0A2.16,2.16,0,0,1,6,17.82a6.17,6.17,0,0,0,.09-.64c0-.14,0-.27,0-.41A6.58,6.58,0,0,0,7.65,17h0a5.92,5.92,0,0,0,1.55-.21c0,.13,0,.27,0,.4S9.31,17.6,9.34,17.81Z"/><path class="cls-4" d="M7.66,2.77c-6.29,0-6.33,5.06-6,8.36-.43-.77-1.71-.48-1.6.76s1.9,1.73,1.88,1.6c.51,2.69,3.48,4.18,5.77,4.4h0V2.77Z"/><path class="cls-5" d="M.32,11.36a.61.61,0,0,1,.92-.16.47.47,0,0,1,.15.55c0,.16-.22.17-.17.41a.42.42,0,0,0,.25.35.55.55,0,0,1,.22.23.67.67,0,0,1,0,.34c-.05.2-.35,0-.56,0a4,4,0,0,1-.66-.52A1,1,0,0,1,.32,11.36Z"/><path class="cls-6" d="M7.69,2.77c6.3,0,6.33,5.06,6.05,8.36.44-.77,1.71-.48,1.61.76s-1.91,1.73-1.88,1.6C13,16.18,10,17.67,7.69,17.89H7.64V2.77Z"/><path class="cls-5" d="M15.08,11.36a.62.62,0,0,0-.93-.16.5.5,0,0,0-.15.55c.05.16.23.17.18.41a.42.42,0,0,1-.25.35.55.55,0,0,0-.22.23.67.67,0,0,0,0,.34c.05.2.35,0,.55,0a3.29,3.29,0,0,0,.66-.52A1,1,0,0,0,15.08,11.36Z"/><path class="cls-1" d="M7.63,4.21c-2.1,0-3.64.58-4.57,1.72-1.3,1.6-1.25,4.05-.78,5.81.15.53.23,2,.33,2.51.45,2.38,3.2,3.64,5,3.64h0V4.21Z"/><path class="cls-2" d="M12.19,5.93A5.55,5.55,0,0,0,7.68,4.21V17.89c2.07,0,4.54-1.41,5-3.64.1-.53.17-2,.32-2.51C13.45,10,13.5,7.54,12.19,5.93Z"/><path class="cls-7" d="M8.73,15.74a1.66,1.66,0,0,1-1.06.51,1.58,1.58,0,0,1-1-.5,7.45,7.45,0,0,1,1-.07A9.33,9.33,0,0,1,8.73,15.74Z"/><path class="cls-8" d="M8,15.51a.28.28,0,0,0-.3.23c0-.13-.13-.23-.3-.23a4.45,4.45,0,0,0-.76.23s.58.07.75.07.31.06.31-.06c0,.12.13.07.29.07s.77-.08.77-.08A4.18,4.18,0,0,0,8,15.51Z"/><path class="cls-9" d="M12.38,22.93a17,17,0,0,1-1.73-3.44,3.31,3.31,0,0,0-.5-.13h0l-.08,0c-.21-.05-.37-.27-.49-.61a2.18,2.18,0,0,1-.42.16l-1.45.38a21.48,21.48,0,0,1,.88,2.18c.35,1-.21,1.82-.9,1.85s-1.26-.81-.9-1.85a23.21,23.21,0,0,1,.87-2.18L6.2,18.89a2.18,2.18,0,0,1-.42-.16c-.13.34-.29.56-.49.61l-.08,0h0a3.4,3.4,0,0,0-.49.13A17.59,17.59,0,0,1,3,22.93a3.82,3.82,0,0,0,.13,2.91h9.16A3.81,3.81,0,0,0,12.38,22.93Z"/><path class="cls-10" d="M16,7.46A2,2,0,0,1,14.8,6.27a7.82,7.82,0,0,1-.45-2A2.59,2.59,0,0,0,13.57,3l0,0c1.19.63,1.24,1.18,1.25,1.25a2.49,2.49,0,0,0-1.1-1.94,5.49,5.49,0,0,0-.94-.47,4.34,4.34,0,0,0,2.57-.74,5.23,5.23,0,0,1-3.47,0A12.73,12.73,0,0,0,9.08,0,4.85,4.85,0,0,0,7,.52a7.07,7.07,0,0,1-1.27.73c-.22,0-.17.07-1.16.25A3.76,3.76,0,0,0,1.84,2.9C.57,4.17.58,7.49.58,7.49A2.33,2.33,0,0,1,1,6.24c.21-.28.3-.42.34-.48a5.49,5.49,0,0,0-.6,2.43c0,2.28-.5,2.59-.5,2.59a1.62,1.62,0,0,0,.8-.55A2.37,2.37,0,0,0,1,11C1.43,13.38.61,14.2.61,14.2a3.81,3.81,0,0,0,1.28-1.43,3.5,3.5,0,0,0,.35-1c0,.19,0,.4,0,.64a2.85,2.85,0,0,1-.75,2.07A3.17,3.17,0,0,0,3,13.21a7.88,7.88,0,0,1,0,1c0,.78-.35,1-.35,1a2.18,2.18,0,0,0,.91-1.53,8.62,8.62,0,0,0,.21-1.3c0-.13,0-.26,0-.39l0,0s0,0,0,0a.57.57,0,0,1,0-.13c0-.62.07-1.53.07-2.46,0-.35,0-.69,0-1,.09.23.19.46.29.68a4.15,4.15,0,0,1,.24,1A3.31,3.31,0,0,0,4.75,7.6c0-.28-.1-.53-.13-.76A1.92,1.92,0,0,0,6,7.92a1.71,1.71,0,0,1-.47-1.26,2.51,2.51,0,0,1,.28-1.21,7.63,7.63,0,0,0,.25.89A4.11,4.11,0,0,0,7.72,8.26h0l0,0c.27.17.45.26.45.26a3.4,3.4,0,0,1-.45-.5l0-.07h0a3,3,0,0,1-.55-1.84V6a2.49,2.49,0,0,0,.24.54c.12.19.22.33.31.45V7s0,0,0,0a2.14,2.14,0,0,0,.83.64,4.76,4.76,0,0,0,1.9.52A2.37,2.37,0,0,1,9.2,6.92C9.11,6.71,9,6.5,8.92,6.3a3.63,3.63,0,0,0,1,.8,4.6,4.6,0,0,1,1.95,2.54.78.78,0,0,1,.05.14c.16.45.29.91.41,1.39v0a4.46,4.46,0,0,1-.56,3.1v0a2.22,2.22,0,0,0,.59,1.4,1.44,1.44,0,0,1-.19-1,9.53,9.53,0,0,1,.12-1,2.87,2.87,0,0,0,1.17,1.39A3.27,3.27,0,0,1,13,12.86c0-.24.07-.46.1-.66a4.49,4.49,0,0,0,.2,1.13,3.77,3.77,0,0,0,1,1.58s-.63-.92-.06-3.4a2.58,2.58,0,0,0,0-.76,2.13,2.13,0,0,0,.22.3,2.18,2.18,0,0,1-.17.66,2.87,2.87,0,0,0,.33-.49.81.81,0,0,0,.26.17.79.79,0,0,1-.16-.35A3.82,3.82,0,0,0,15,8.51a9.13,9.13,0,0,0-.35-1.16V7.27A4,4,0,0,0,16,7.46Z"/><path class="cls-11" d="M5,1.08c-.26-.06-1.28,1-1.7,1.67a.52.52,0,0,0-.35,0A.49.49,0,0,0,2.66,3,4.74,4.74,0,0,0,.29,2.65C.05,2.92.74,4,.74,4s.1,1.29.45,1.36,1.28-1,1.71-1.68a.52.52,0,0,0,.35,0,.49.49,0,0,0,.27-.22c.74.27,2.19.51,2.37.3s-.45-1.35-.45-1.35S5.34,1.15,5,1.08Z"/></g></g></g></g></svg>