<svg xmlns="http://www.w3.org/2000/svg" xmlns:xlink="http://www.w3.org/1999/xlink" viewBox="0 0 16.45 26.13"><defs><style>.cls-1{fill:none;}.cls-2{fill:#e2bf9c;}.cls-3{fill:#f2d1ac;}.cls-4{clip-path:url(#clip-path);}.cls-5{fill:#c09a80;}.cls-6{fill:#d3a789;}.cls-7{fill:#e0b89b;}.cls-8{fill:#f9f9fa;}.cls-9{fill:#41130d;}.cls-10{fill:#9a1c1f;}.cls-11{fill:#191919;}.cls-12{fill:#070708;}</style><clipPath id="clip-path"><rect class="cls-1" x="6.57" y="16.56" width="3.53" height="2.08"/></clipPath></defs><g id="Layer_2" data-name="Layer 2"><g id="avatars"><g id="row-02"><g id="avatar-02-21"><path class="cls-2" d="M8.33,14.42V26.13H2l-.16-.07c0-4.83,2.3-6.22,3.37-6.61a3.21,3.21,0,0,1,.53-.14c.39,0,.64-.5.81-1.26q0-.16.06-.36c0-.21.06-.44.09-.68s0-.29,0-.43c.06-.73.08-1.51.08-2.24,0,0,.85.08,1.55.08"/><path class="cls-3" d="M14.87,26.06l-.15.07H8.33V14.42h0c.69,0,1.55-.08,1.55-.08,0,.73,0,1.51.08,2.22,0,.14,0,.28,0,.42s.05.48.08.7h0l.06.28c.16.81.42,1.35.83,1.35a3.22,3.22,0,0,1,.8.25c1.14.52,3.09,2.06,3.09,6.5"/><g class="cls-4"><path class="cls-5" d="M10.1,17.68h0a2.07,2.07,0,0,1-1.77,1h0a2.21,2.21,0,0,1-1.75-.95c0-.22.07-.45.09-.68s0-.29,0-.43a7.29,7.29,0,0,0,1.61.21h0A6.64,6.64,0,0,0,10,16.56c0,.14,0,.28,0,.42a7,7,0,0,0,.09.7"/></g><path class="cls-6" d="M8.21,1C1.47,1,1.43,6.63,1.73,10.33,1.26,9.45-.1,9.72,0,11.1s2,2,2,1.86c.56,3,3.73,4.8,6.19,4.8h0V1h0"/><path class="cls-5" d="M.44,10.52a.64.64,0,0,1,1-.19.55.55,0,0,1,.16.61c-.05.18-.23.2-.19.47a.48.48,0,0,0,.27.39.56.56,0,0,1,.23.25.62.62,0,0,1,0,.38c0,.21-.37,0-.58-.06a4.1,4.1,0,0,1-.7-.56,1.23,1.23,0,0,1-.19-1.29"/><path class="cls-7" d="M8.24,1C15,1,15,6.63,14.72,10.33c.46-.88,1.83-.61,1.72.77s-2,2-2,1.86c-.56,3-3.73,4.8-6.19,4.8H8.19V1h.05"/><path class="cls-5" d="M16,10.52a.64.64,0,0,0-1-.19.55.55,0,0,0-.16.61c0,.18.23.2.19.47a.48.48,0,0,1-.27.39.56.56,0,0,0-.23.25.62.62,0,0,0,0,.38c.05.21.37,0,.58-.06a4.1,4.1,0,0,0,.7-.56A1.23,1.23,0,0,0,16,10.52"/><path class="cls-2" d="M8.28,2.58c-2.21,0-3.84.64-4.82,1.92C2.08,6.27,2.14,9,2.64,10.93c.16.6.24,2.2.34,2.79.48,2.64,3.39,4,5.3,4h.06V2.58H8.28"/><path class="cls-3" d="M13.1,4.5A5.72,5.72,0,0,0,8.34,2.58V17.76c2.18,0,4.79-1.56,5.24-4,.11-.59.19-2.19.34-2.79.51-1.94.56-4.65-.82-6.43"/><path class="cls-8" d="M14.87,26.06l-.15.07H2l-.16-.07c0-4.83,2.3-6.22,3.37-6.61.62.31,1.61.81,2,1a2.76,2.76,0,0,0,1.19.41,7.7,7.7,0,0,0,1.76-.52,9.59,9.59,0,0,0,1.69-.75c1.14.52,3.09,2.06,3.09,6.5"/><path class="cls-9" d="M13.45,26.13H3.22c0-.5.07-1.41,0-2.63v-.23a2.35,2.35,0,0,0,0-.26c0-.07,0-.13,0-.2,0-.49-.11-1.07-.21-1.68a5.09,5.09,0,0,1,.93-1L4.05,20a4,4,0,0,1,1.12-.63l.16-.05a2.75,2.75,0,0,1,.37-.09A.45.45,0,0,0,6,19.11H6L6.12,19a.24.24,0,0,1,.06.11,20.74,20.74,0,0,0,2.16,2.07,20.35,20.35,0,0,0,2.15-2.07.24.24,0,0,1,.06-.11l.09.11h0a.45.45,0,0,0,.32.14,1.73,1.73,0,0,1,.35.08l.16.06a3.81,3.81,0,0,1,1.13.62l.09.08a4.61,4.61,0,0,1,.94,1c-.1.63-.18,1.22-.21,1.71a1.5,1.5,0,0,0,0,.2,1.34,1.34,0,0,0,0,.19v.23c0,1.24,0,2.17,0,2.67"/><polygon class="cls-10" points="5.73 21.97 5.73 21.96 5.72 21.96 5.08 20.85 4.43 19.72 3.79 20.85 3.13 21.96 3.13 21.96 3.13 21.97 3.13 21.97 3.13 21.97 3.79 23.09 4.43 24.21 5.08 23.09 5.72 21.97 5.73 21.97 5.73 21.97"/><polygon class="cls-10" points="8.33 21.97 8.33 21.96 8.32 21.96 7.68 20.85 7.03 19.72 6.39 20.85 5.74 21.96 5.73 21.96 5.74 21.97 5.73 21.97 5.74 21.97 6.39 23.09 7.03 24.21 7.68 23.09 8.32 21.97 8.33 21.97 8.33 21.97"/><polygon class="cls-10" points="10.93 21.97 10.93 21.96 10.93 21.96 10.28 20.85 9.63 19.72 8.99 20.85 8.34 21.96 8.34 21.96 8.34 21.97 8.34 21.97 8.34 21.97 8.99 23.09 9.63 24.21 10.28 23.09 10.93 21.97 10.93 21.97 10.93 21.97"/><polygon class="cls-10" points="13.53 21.97 13.54 21.96 13.53 21.96 12.88 20.85 12.24 19.72 11.59 20.85 10.94 21.96 10.94 21.96 10.94 21.97 10.94 21.97 10.94 21.97 11.59 23.09 12.24 24.21 12.88 23.09 13.53 21.97 13.54 21.97 13.53 21.97"/><polygon class="cls-10" points="5.54 26.13 3.32 26.13 3.79 25.33 4.43 24.21 5.08 25.33 5.54 26.13"/><polygon class="cls-10" points="8.14 26.13 5.92 26.13 6.39 25.33 7.03 24.21 7.67 25.33 8.14 26.13"/><polygon class="cls-10" points="10.75 26.13 8.52 26.13 8.99 25.33 9.63 24.21 10.28 25.33 10.75 26.13"/><polygon class="cls-10" points="13.34 26.13 11.13 26.13 11.59 25.33 12.24 24.21 12.88 25.33 13.34 26.13"/><path class="cls-11" d="M5.78,23.13l0-.06H5.75L5.12,22l-.7-1.21L3.73,22l-.49.83c0,.07,0,.13,0,.2l.57-1,.59-1L5,22l.64,1.09L5,24.23l-.6,1-.59-1-.56-1v.23l.46.78.69,1.21.7-1.21.63-1.09h.06Z"/><path class="cls-11" d="M7,25.49l-.69-1.21L5.7,23.19H5.63l0-.06,0-.05H5.7L6.33,22l.7-1.2L7.72,22l.63,1.09h.06l0,.06,0,.06H8.35l-.63,1.09ZM5.79,23.13l.64,1.09.59,1,.6-1,.64-1.09L7.62,22,7,21l-.6,1Z"/><path class="cls-11" d="M9.63,25.49l-.7-1.21L8.3,23.19H8.23l0-.06,0-.05H8.3L8.93,22l.7-1.2.69,1.2L11,23.07H11l0,.06,0,.06H11l-.63,1.09ZM8.39,23.13,9,24.22l.6,1,.59-1,.64-1.09L10.22,22l-.59-1L9,22Z"/><path class="cls-11" d="M12.23,21l.6,1,.58,1a1.5,1.5,0,0,1,0-.2L12.92,22l-.69-1.21L11.54,22l-.64,1.09h-.07l0,.05,0,.06h.06l.64,1.09.69,1.21.69-1.21.48-.82v-.23l-.57,1-.6,1-.6-1L11,23.13,11.63,22Z"/><polygon class="cls-11" points="4.42 25.26 3.92 26.13 4.05 26.13 4.42 25.48 4.8 26.13 4.92 26.13 4.42 25.26"/><polygon class="cls-11" points="7.02 25.26 6.53 26.13 6.66 26.13 7.02 25.48 7.39 26.13 7.52 26.13 7.02 25.26"/><polygon class="cls-11" points="9.63 25.26 9.13 26.13 9.26 26.13 9.63 25.48 10 26.13 10.13 26.13 9.63 25.26"/><polygon class="cls-11" points="12.23 25.26 11.73 26.13 11.85 26.13 12.23 25.48 12.59 26.13 12.73 26.13 12.23 25.26"/><path class="cls-11" d="M5.17,19.39l-.75,1.29L4.05,20,4,20.09l.46.81.91-1.56-.16.05"/><path class="cls-11" d="M12.61,20l-.38.67-.75-1.29-.16-.06.91,1.57.47-.81L12.61,20"/><path class="cls-8" d="M10.77,18.89c-.09-.25-.33-.48-.41-.67l-.27-.62a16.72,16.72,0,0,1-.52,1.7S8.06,20.92,8.3,21a5.5,5.5,0,0,1,1.68,1c.32.38.27.73.35.22s.7-2.58.44-3.25"/><path class="cls-8" d="M7.1,19.3a16.72,16.72,0,0,1-.52-1.7l-.27.62c-.08.19-.32.42-.41.67-.26.67.36,2.74.44,3.25s0,.16.35-.22A5,5,0,0,1,8.34,21c.23-.05-1.24-1.68-1.24-1.68"/><path class="cls-12" d="M8.51,4c.66,0,1.23-.84,1.82-1.1V.34A4.93,4.93,0,0,0,8.47,0h0A4.89,4.89,0,0,0,6.27.47v2.3C7,2.74,7.68,3.92,8.44,4Z"/><path class="cls-12" d="M11.19,15.41h0v0a1.7,1.7,0,0,0-.13-.4,1.51,1.51,0,0,0-.11-.22,3.35,3.35,0,0,0-1.32-1.53l-.26-.13-.14,0h0a2.94,2.94,0,0,0-.8-.08,2.91,2.91,0,0,0-.79.08h0l-.15,0-.25.13a3.35,3.35,0,0,0-1.32,1.53,1.51,1.51,0,0,0-.11.22,1.7,1.7,0,0,0-.13.4v0h0a3.32,3.32,0,0,0-.07.65,2.63,2.63,0,0,0,.22,1.1c.13.77,1.25,2.5,2.62,2.53s2.5-1.76,2.63-2.53a2.63,2.63,0,0,0,.22-1.1A3.32,3.32,0,0,0,11.19,15.41ZM10.43,17a3.93,3.93,0,0,1-1.4.41,1.75,1.75,0,0,0,0-.4v-.47A1.6,1.6,0,0,0,9,16.05a3.33,3.33,0,0,0-1.15,0,1.6,1.6,0,0,0-.09.51V17a1.75,1.75,0,0,0,0,.4A3.87,3.87,0,0,1,6.4,17a2.61,2.61,0,0,1-.17-1,3,3,0,0,1,0-.42,3.06,3.06,0,0,1,.73-.4,3.94,3.94,0,0,1,2.8,0,5.4,5.4,0,0,1,.77.33,3.58,3.58,0,0,1,0,.48A2.61,2.61,0,0,1,10.43,17Z"/></g></g></g></g></svg>