<svg xmlns="http://www.w3.org/2000/svg" viewBox="0 0 15.66 25.98"><defs><style>.cls-1{fill:#0f0f0f;}.cls-2{fill:#e1bf9c;}.cls-3{fill:#f2d1ac;}.cls-4,.cls-6{fill:#c09a80;}.cls-4{opacity:0.7;}.cls-5{fill:#d3a789;}.cls-7{fill:#e0b89b;}.cls-8{fill:#c6696e;}.cls-9{fill:#d87373;}.cls-10{fill:#867096;}.cls-11{fill:#1c75bc;}</style></defs><g id="Layer_2" data-name="Layer 2"><g id="avatars"><g id="row-01"><g id="avatar-01-35"><path class="cls-1" d="M.69,13.62s5.67,11.19,14.28,0Z"/><path class="cls-2" d="M7.79,14.84V26h-6l-.15-.06a11,11,0,0,1,.27-2.55c.85-3.56,3.4-3.88,3.4-3.88h.11c.3-.09.51-.54.65-1.18L6.14,18c0-.21.06-.42.08-.65s0-.27,0-.41c.06-.68.07-1.43.07-2.13C6.33,14.76,7.14,14.84,7.79,14.84Z"/><path class="cls-3" d="M14,25.92l-.14.06h-6V14.84h0c.65,0,1.46-.08,1.46-.08,0,.7,0,1.43.08,2.11l0,.41c0,.23.05.45.09.66h0c0,.1,0,.18,0,.27.13.62.31,1.08.58,1.23l.07,0a.3.3,0,0,0,.13,0l.12,0a4,4,0,0,1,2.57,2A8.5,8.5,0,0,1,14,25.92Z"/><path class="cls-4" d="M9.46,17.94h0a1.94,1.94,0,0,1-1.66.92h0A2.11,2.11,0,0,1,6.14,18c0-.21.06-.42.08-.65s0-.27,0-.41a6.56,6.56,0,0,0,1.51.2h0a6.29,6.29,0,0,0,1.54-.22c0,.14,0,.28,0,.41S9.42,17.73,9.46,17.94Z"/><path class="cls-5" d="M7.79,2.86c-6.26,0-6.3,5.07-6,8.39-.43-.78-1.7-.49-1.59.75s1.89,1.73,1.87,1.6c.51,2.7,3.46,4.2,5.74,4.41h0V2.87Z"/><path class="cls-6" d="M.49,11.47a.61.61,0,0,1,.92-.16.48.48,0,0,1,.15.55c-.05.16-.22.17-.18.42a.43.43,0,0,0,.26.35.64.64,0,0,1,.21.22.71.71,0,0,1,0,.35c0,.19-.35,0-.55,0a4.49,4.49,0,0,1-.66-.51A1.08,1.08,0,0,1,.49,11.47Z"/><path class="cls-7" d="M7.81,2.86c6.26,0,6.29,5.07,6,8.39.43-.78,1.69-.49,1.59.75s-1.89,1.73-1.87,1.6C13,16.3,10.09,17.8,7.81,18h0V2.87Z"/><path class="cls-6" d="M15.15,11.47a.61.61,0,0,0-.92-.16.49.49,0,0,0-.14.55c0,.16.21.17.17.42a.44.44,0,0,1-.25.35.58.58,0,0,0-.22.22.6.6,0,0,0,0,.35c0,.19.34,0,.54,0a4.49,4.49,0,0,0,.66-.51A1.06,1.06,0,0,0,15.15,11.47Z"/><path class="cls-2" d="M7.75,4.3C5.66,4.3,4.14,4.88,3.21,6,1.92,7.64,2,10.09,2.44,11.85c.15.54.22,2,.32,2.52C3.21,16.75,6,18,7.75,18h0V4.3Z"/><path class="cls-3" d="M12.28,6A5.47,5.47,0,0,0,7.8,4.3V18c2.05,0,4.51-1.41,4.94-3.65.1-.53.17-2,.32-2.52C13.53,10.09,13.58,7.65,12.28,6Z"/><path class="cls-8" d="M8.85,15.87a1.65,1.65,0,0,1-1,.51,1.55,1.55,0,0,1-1-.5,6.38,6.38,0,0,1,1-.08A8,8,0,0,1,8.85,15.87Z"/><path class="cls-9" d="M8.09,15.63a.26.26,0,0,0-.29.23.28.28,0,0,0-.3-.23,4,4,0,0,0-.76.24s.58.06.74.06.31.06.32-.06c0,.12.12.08.28.08s.77-.08.77-.08A4,4,0,0,0,8.09,15.63Z"/><path class="cls-10" d="M14.44,23.11s-1.74-3.47-4.17-3.62c-.06,0,1.81,2.76-.68,3.4a5.88,5.88,0,0,1-1.79.19h0A5.88,5.88,0,0,1,6,22.89c-2.48-.64-.62-3.4-.68-3.4-2.42.15-4.16,3.62-4.16,3.62l.76.26L3,23.74A7.34,7.34,0,0,0,2.61,26H13a7.34,7.34,0,0,0-.4-2.24l1.09-.37Z"/><path class="cls-11" d="M1.16,23.11a1.07,1.07,0,0,0,.65.79l.11-.53Z"/><path class="cls-11" d="M14.44,23.11a1.53,1.53,0,0,1-.63.95l-.14-.69Z"/><path class="cls-1" d="M3.6,8.36h.3L4,7.65H4l.09.72H4.4l.18-1.49.1-.1.19,1.59H6.61l.1-.74.09.74h.64l.06-.5.06.5H9.85L10,6.93l.18,1.43h.57l.07-.58.07.58h1.51l.15-1.24.15,1.24h.11A15.39,15.39,0,0,1,13.21,11a19.71,19.71,0,0,1-.54,2.65h2.91a36.59,36.59,0,0,0,0-4.92C15,.07,8.62,0,8.53,0a8.39,8.39,0,0,0-1,0C.47,1-.23,8.69.05,13.62h2.8A10.72,10.72,0,0,1,3.6,8.36Z"/></g></g></g></g></svg>