<svg xmlns="http://www.w3.org/2000/svg" viewBox="0 0 15.9 26.11"><defs><style>.cls-1{fill:#e1bf9c;}.cls-2{fill:#f2d1ac;}.cls-3,.cls-5{fill:#c09a80;}.cls-3{opacity:0.7;}.cls-4{fill:#d3a789;}.cls-6{fill:#e0b89b;}.cls-7{fill:#c6696e;}.cls-8{fill:#d87373;}.cls-9{fill:#413342;}.cls-10{fill:#5c4c52;}.cls-11{fill:#580d0d;}</style></defs><g id="Layer_2" data-name="Layer 2"><g id="avatars"><g id="row-02"><g id="avatar-02-03"><path class="cls-1" d="M7.94,14.6V26.11H1.69l-.15-.06c0-6.18,3.82-6.64,3.82-6.64h0l.09,0c.31-.08.53-.55.67-1.22a3.29,3.29,0,0,0,.07-.36q0-.31.09-.66l0-.43c.06-.71.08-1.47.08-2.2C6.42,14.52,7.26,14.6,7.94,14.6Z"/><path class="cls-2" d="M14.36,26.05l-.15.06H7.94V14.6H8c.68,0,1.52-.08,1.52-.08,0,.72,0,1.48.08,2.18,0,.14,0,.28,0,.42s.05.47.09.68h0c0,.1,0,.18,0,.27a2,2,0,0,0,.61,1.28l.06,0a.4.4,0,0,0,.15,0S14.36,19.87,14.36,26.05Z"/><path class="cls-3" d="M9.68,17.81h0A2,2,0,0,1,8,18.75h0a2.11,2.11,0,0,1-1.72-.94c0-.21.06-.43.08-.66s0-.28,0-.43a6.56,6.56,0,0,0,1.58.21h0a6.32,6.32,0,0,0,1.61-.23c0,.15,0,.29,0,.42S9.64,17.59,9.68,17.81Z"/><path class="cls-4" d="M7.93,2.23c-6.52,0-6.55,5.24-6.26,8.66-.45-.8-1.77-.5-1.66.78S2,13.46,2,13.33c.53,2.78,3.61,4.33,6,4.55H8V2.23Z"/><path class="cls-5" d="M.33,11.13a.65.65,0,0,1,1-.17.49.49,0,0,1,.15.56c0,.17-.23.18-.18.43a.45.45,0,0,0,.26.37.56.56,0,0,1,.23.23.75.75,0,0,1,0,.36c-.06.2-.37,0-.57-.05a3.84,3.84,0,0,1-.69-.53A1.08,1.08,0,0,1,.33,11.13Z"/><path class="cls-6" d="M8,2.23c6.52,0,6.56,5.24,6.27,8.66.45-.8,1.77-.5,1.66.78s-2,1.79-1.94,1.66c-.54,2.78-3.61,4.33-6,4.55h0V2.23Z"/><path class="cls-5" d="M15.61,11.13a.65.65,0,0,0-1-.17.49.49,0,0,0-.15.56c.05.17.23.18.18.43a.42.42,0,0,1-.26.37c-.08.06-.18.11-.22.23a.57.57,0,0,0,0,.36c.05.2.36,0,.57-.05a3.78,3.78,0,0,0,.68-.53A1.08,1.08,0,0,0,15.61,11.13Z"/><path class="cls-1" d="M7.9,3.72c-2.18,0-3.77.6-4.74,1.78-1.34,1.66-1.29,4.2-.79,6,.15.56.22,2.06.33,2.61.47,2.46,3.32,3.77,5.2,3.77H8V3.72Z"/><path class="cls-2" d="M12.62,5.51c-1-1.18-2.53-1.78-4.67-1.79V17.88c2.14,0,4.7-1.45,5.15-3.76.1-.55.18-2,.33-2.61C13.93,9.7,14,7.17,12.62,5.51Z"/><path class="cls-7" d="M9,15.66A1.72,1.72,0,0,1,8,16.19a1.62,1.62,0,0,1-1.07-.52A7.89,7.89,0,0,1,8,15.6,10,10,0,0,1,9,15.66Z"/><path class="cls-8" d="M8.26,15.42a.28.28,0,0,0-.31.24.29.29,0,0,0-.31-.24,4.25,4.25,0,0,0-.79.24s.6.07.77.07.32.06.33-.06c0,.13.12.08.29.08s.8-.09.8-.09A4.35,4.35,0,0,0,8.26,15.42Z"/><path class="cls-9" d="M1.55,16.07h0S1.58,16.11,1.55,16.07Z"/><path class="cls-10" d="M14.37,26.05a.52.52,0,0,0-.15.06H1.71a.64.64,0,0,0-.16-.06,10,10,0,0,1,.53-3.44,5.11,5.11,0,0,1,5.87.6s2.42-2,4.88-.94a3.64,3.64,0,0,1,1.16.78A10.54,10.54,0,0,1,14.37,26.05Z"/><path class="cls-11" d="M5.85,18.23c0,.16.83,0,.54,2.28s-2.81,1.89-3.53,3.1a3.9,3.9,0,0,0-.47,2.5H1.33l.22-.77a2.93,2.93,0,0,1,.18-1.94c.47-1,0-1.55.05-2a2.57,2.57,0,0,1,1.28-1.55,8.21,8.21,0,0,1,1.29-.25c.74-.18,1.57-.59,1.57-1.06S5.85,18.23,5.85,18.23Z"/><path class="cls-11" d="M10,18.17c0,.15-.84,0-.55,2.28s2.81,1.89,3.53,3.1a3.87,3.87,0,0,1,.44,2.56H14.5l-.13-.82a3.25,3.25,0,0,0-.22-2c-.47-1,0-1.55-.05-2a2.62,2.62,0,0,0-1.28-1.54c-.59-.22-.57,0-1.31-.2S10,19,10,18.52,10,18.17,10,18.17Z"/><path class="cls-10" d="M1.07,9.94A7.25,7.25,0,0,1,5.62,7.13,10.07,10.07,0,0,1,13,8.79c1.75,1.42,2,1.12,2,1.12a3.46,3.46,0,0,0,.21-.75c.12-.59.54-.92.45-1.24a6.29,6.29,0,0,1-.29-1.56,5.17,5.17,0,0,0-1.93-3.14C12,2.1,10.63-.12,7.14,0S4.3.93,3.58,1.2s-2.12.24-3,3.09A7.33,7.33,0,0,0,.45,7c0,.84-.34,1.34-.31,1.62C.2,9.11,1.07,9.94,1.07,9.94Z"/></g></g></g></g></svg>