<svg xmlns="http://www.w3.org/2000/svg" viewBox="0 0 20.8 25.5"><defs><style>.cls-1{fill:#4a484a;}.cls-2{fill:#7b532d;}.cls-3{fill:#976339;}.cls-4{fill:#563b20;}.cls-5{fill:#332214;}.cls-6{fill:#d7878e;}.cls-7{fill:#fff;}.cls-8{fill:#f8fbf5;}</style></defs><g id="Layer_2" data-name="Layer 2"><g id="avatars"><g id="row-01"><g id="avatar-01-26"><path class="cls-1" d="M8.79,5.51a9.78,9.78,0,0,1-.5,3c-.41.71-.19,1.24-2.82,1.92-1.61.42-4.26.08-5.17-2.29C.06,7.46-.63,6,2.08,5.87s6.71-.36,6.71-.36"/><path class="cls-2" d="M12.65,13.79V25.5H6.28l-.15-.07c0-6.28,3.89-6.75,3.89-6.75.39,0,.64-.5.81-1.26,0-.12.05-.24.07-.37s.06-.44.08-.68,0-.28,0-.43c.06-.72.08-1.5.08-2.24,0,0,.86.09,1.55.09"/><path class="cls-3" d="M19.19,25.43,19,25.5H12.65V13.79h0c.7,0,1.56-.09,1.56-.09,0,.74,0,1.51.07,2.22,0,.15,0,.29,0,.43s.06.48.09.69h0c0,.1,0,.19.05.27.17.81.42,1.36.83,1.36,0,0,3.89.47,3.89,6.75"/><path class="cls-4" d="M14.42,17h0a2.07,2.07,0,0,1-1.76,1h0a2.21,2.21,0,0,1-1.75-1c0-.21.06-.44.08-.68s0-.28,0-.43a6.81,6.81,0,0,0,1.61.21h0a6.56,6.56,0,0,0,1.64-.23c0,.15,0,.29,0,.43s.06.48.09.69"/><path class="cls-4" d="M12.56.36C5.82.36,5.78,6,6.08,9.7c-.47-.88-1.83-.61-1.72.77s2,2,2,1.86c.55,3,3.73,4.8,6.19,4.8h0V.36h0"/><path class="cls-5" d="M4.79,9.89a.63.63,0,0,1,1-.19.55.55,0,0,1,.16.61c0,.18-.23.19-.19.46a.48.48,0,0,0,.27.39.7.7,0,0,1,.23.25.72.72,0,0,1,0,.38c0,.22-.37.05-.58,0a3.72,3.72,0,0,1-.7-.57,1.21,1.21,0,0,1-.19-1.28"/><path class="cls-4" d="M12.59.36C19.33.36,19.37,6,19.07,9.7c.46-.88,1.83-.61,1.72.77s-2,2-2,1.86c-.56,3-3.73,4.8-6.19,4.8h-.05V.36h.05"/><path class="cls-5" d="M20.36,9.89a.63.63,0,0,0-1-.19.55.55,0,0,0-.16.61c0,.18.23.19.19.46a.48.48,0,0,1-.27.39.7.7,0,0,0-.23.25.63.63,0,0,0,0,.38c.05.22.37.05.58,0a3.72,3.72,0,0,0,.7-.57,1.21,1.21,0,0,0,.19-1.28"/><path class="cls-2" d="M12.61,2c-2.22,0-3.84.64-4.83,1.91C6.41,5.64,6.46,8.35,7,10.3c.15.6.23,2.2.34,2.79.48,2.63,3.39,4,5.3,4h.05V2h-.05"/><path class="cls-3" d="M17.43,3.87C16.45,2.6,14.85,2,12.66,2V17.12c2.19,0,4.8-1.56,5.25-4,.1-.59.18-2.19.34-2.79.5-1.94.55-4.65-.82-6.43"/><path class="cls-6" d="M19.2,25.43l-.15.07H6.28l-.16-.07c0-4.79,2.27-6.19,3.34-6.6a5.75,5.75,0,0,0,3.17,1.89h0a5.74,5.74,0,0,0,3.17-1.89c1.07.4,3.35,1.8,3.35,6.6"/><path class="cls-7" d="M8.86,19.11c.83.92,2.49,2.18,3.76,2.24h.06C14,21.29,15.6,20,16.44,19.11a4.38,4.38,0,0,0-.6-.28,5.74,5.74,0,0,1-3.17,1.89h-.05a5.68,5.68,0,0,1-3.17-1.89,6,6,0,0,0-.59.28"/><path class="cls-8" d="M6.15,5.17S6.38,1.31,7.62.91,11.28-.32,13.21.13s5.6,1.06,6,4.45a34.63,34.63,0,0,1-.15,5.12,4,4,0,0,0-1.32-2.77C16.45,5.87,15,4.64,12.44,4.82s-6.29.35-6.29.35"/><path class="cls-8" d="M6.17,4.85a3.33,3.33,0,0,1-1.35.49,22,22,0,0,1-3.5.44c-.88,0-1.23,0-1.29.86S0,7,0,7,0,6.52.85,6.34,4,7.3,7,7.07a24.51,24.51,0,0,0,7-2.18,13.81,13.81,0,0,0-3-.62,35.39,35.39,0,0,0-4.75.58"/></g></g></g></g></svg>