<svg xmlns="http://www.w3.org/2000/svg" viewBox="0 0 15.57 25.43"><defs><style>.cls-1{fill:#9b5458;}.cls-2{fill:#e1bf9c;}.cls-3{fill:#f2d1ac;}.cls-4,.cls-6{fill:#c09a80;}.cls-4{opacity:0.7;}.cls-5{fill:#d3a789;}.cls-7{fill:#e0b89b;}.cls-8{fill:#c6696e;}.cls-9{fill:#d87373;}.cls-10{fill:#2b0f0f;}.cls-11{fill:#ee837c;}.cls-12{fill:#965458;}.cls-13{fill:#0f0f0f;}</style></defs><g id="Layer_2" data-name="Layer 2"><g id="avatars"><g id="row-01"><g id="avatar-01-36"><path class="cls-1" d="M10.1,18.22c0,.33-1.31.61-2.4.61s-2-.28-2-.61.89-.61,2-.61S10.1,17.88,10.1,18.22Z"/><path class="cls-2" d="M7.93,14.29V25.43h-6l-.15-.06a7.72,7.72,0,0,1,1.39-5,3.79,3.79,0,0,1,2.28-1.46h.11c.3-.09.51-.54.65-1.19l.06-.34c0-.21.07-.43.09-.65l0-.41c.06-.69.08-1.43.08-2.14C6.48,14.2,7.28,14.29,7.93,14.29Z"/><path class="cls-3" d="M14.09,25.37l-.14.06h-6V14.29H8c.65,0,1.46-.09,1.46-.09,0,.7,0,1.44.07,2.12,0,.14,0,.27,0,.4s.05.46.08.67h0c0,.09,0,.18.05.26a1.83,1.83,0,0,0,.58,1.24l.06,0,.13,0a3.83,3.83,0,0,1,2.37,1.56A7.92,7.92,0,0,1,14.09,25.37Z"/><path class="cls-4" d="M9.6,17.39h0a1.91,1.91,0,0,1-1.66.92h0a2.13,2.13,0,0,1-1.65-.91,6.37,6.37,0,0,0,.09-.65l0-.41a6.65,6.65,0,0,0,1.52.2h0a6.3,6.3,0,0,0,1.55-.22c0,.14,0,.27,0,.41S9.57,17.18,9.6,17.39Z"/><path class="cls-5" d="M7.93,2.31c-6.25,0-6.29,5.07-6,8.38-.43-.77-1.7-.48-1.6.76s1.9,1.73,1.87,1.6c.51,2.7,3.46,4.2,5.74,4.41H8V2.31Z"/><path class="cls-6" d="M.64,10.92a.61.61,0,0,1,.92-.16.49.49,0,0,1,.14.55c0,.16-.22.17-.17.41a.43.43,0,0,0,.25.36A.58.58,0,0,1,2,12.3a.6.6,0,0,1,0,.35c0,.19-.34,0-.54-.05a3.63,3.63,0,0,1-.66-.51A1.06,1.06,0,0,1,.64,10.92Z"/><path class="cls-7" d="M8,2.31c6.25,0,6.29,5.07,6,8.38.43-.77,1.7-.48,1.6.76s-1.9,1.73-1.87,1.6c-.51,2.7-3.46,4.2-5.74,4.41h0V2.31Z"/><path class="cls-6" d="M15.3,10.92a.61.61,0,0,0-.92-.16.47.47,0,0,0-.15.55c0,.16.22.17.18.41a.43.43,0,0,1-.26.36.64.64,0,0,0-.21.22.61.61,0,0,0,0,.35c.05.19.35,0,.55-.05a3.94,3.94,0,0,0,.65-.51A1.09,1.09,0,0,0,15.3,10.92Z"/><path class="cls-2" d="M7.9,3.75c-2.09,0-3.62.58-4.55,1.73C2.06,7.09,2.11,9.54,2.59,11.3c.14.54.22,2,.32,2.52.45,2.38,3.19,3.65,5,3.65H8V3.75Z"/><path class="cls-3" d="M12.43,5.49A5.46,5.46,0,0,0,8,3.75V17.46c2.05,0,4.51-1.41,4.93-3.64.1-.53.18-2,.32-2.52C13.68,9.54,13.73,7.1,12.43,5.49Z"/><path class="cls-8" d="M9,15.32a1.69,1.69,0,0,1-1.06.51,1.55,1.55,0,0,1-1-.5,6.32,6.32,0,0,1,1-.08A8.21,8.21,0,0,1,9,15.32Z"/><path class="cls-9" d="M8.24,15.08a.28.28,0,0,0-.3.23.26.26,0,0,0-.29-.23,4,4,0,0,0-.76.24s.57.06.74.06.31.06.31-.06c0,.12.12.08.29.08s.77-.08.77-.08A4,4,0,0,0,8.24,15.08Z"/><path class="cls-10" d="M14.09,25.37l-.14.06h-12l-.15-.06a7.72,7.72,0,0,1,1.39-5,3.31,3.31,0,0,0,2.34,1.72,20.06,20.06,0,0,0,2.41.3A5.91,5.91,0,0,0,11,22a6.42,6.42,0,0,0,1.78-1.45A7.92,7.92,0,0,1,14.09,25.37Z"/><path class="cls-11" d="M6.83,20a1.8,1.8,0,0,0-.47,1.16,20.39,20.39,0,0,0,0,4.05s-1.49.08-1.8-.65c-.06-.15-.51.07-.74.38a15,15,0,0,1,.65-4.37c.09-.18.73-1.06,1-1S6.83,20,6.83,20Z"/><path class="cls-12" d="M6.2,17.82c-.3.25-.09.51.13.63a3.39,3.39,0,0,0,1.59.23,3.13,3.13,0,0,0,1.8-.38c.18-.16,0-.4,0-.4s.51,0,.46.29a1.11,1.11,0,0,0,.27.84c.2.25.48.19,0,.53a3.61,3.61,0,0,1-2.54.71,4.07,4.07,0,0,1-2.24-.48c-.43-.22-.73-.38-.42-.67a2,2,0,0,0,.44-.56c.16-.25-.3-.39,0-.57A.9.9,0,0,1,6.2,17.82Z"/><path class="cls-13" d="M13.13,2.94A9.67,9.67,0,0,0,9.76.63l.56.56A6.27,6.27,0,0,0,8.41.2a2.94,2.94,0,0,0-2.32,0,2,2,0,0,1,1.1.29,2.37,2.37,0,0,0-2,.23c-2,.89-2,2.48-3.36,3S0,3.6,0,3.6A2.22,2.22,0,0,0,1.72,4.73c.17,0,.19,0,.19,0a11.51,11.51,0,0,0-.49,2.11c-.08.92.17,1.55.25,3.28.07,1.47.43.71.86,1.8a2.61,2.61,0,0,1,.15.77c.16,0,.58-.88.28-2.49-.2-1,.77-5,3.1-4.23a3.68,3.68,0,0,1,.44.17,5.16,5.16,0,0,1,2.91,4.54,4.93,4.93,0,0,0,0-4.93s1.57.41,1.3,4.54c0,0,.71-.59.83-3.25a6.66,6.66,0,0,1,.53,2.52A3,3,0,0,0,13.3,7.81a6.8,6.8,0,0,1,.12,2.13c-.22,2.67.19,2.65.19,2.65s0-.71.39-1.2a7.33,7.33,0,0,0,1-3.78A6.74,6.74,0,0,0,13.13,2.94Z"/></g></g></g></g></svg>