<svg xmlns="http://www.w3.org/2000/svg" xmlns:xlink="http://www.w3.org/1999/xlink" viewBox="0 0 17.01 27.5"><defs><style>.cls-1{fill:none;}.cls-2{fill:#3a2817;}.cls-3{fill:#e2bf9c;}.cls-4{fill:#f2d1ac;}.cls-5{clip-path:url(#clip-path);}.cls-6{fill:#c09a80;}.cls-7{fill:#d3a789;}.cls-8{fill:#e0b89b;}.cls-9{fill:#ddd;}.cls-10{fill:#7e6052;}</style><clipPath id="clip-path"><rect class="cls-1" x="6.49" y="17.93" width="3.53" height="2.09"/></clipPath></defs><g id="Layer_2" data-name="Layer 2"><g id="avatars"><g id="row-01"><g id="avatar-01-23"><path class="cls-2" d="M14.07,16.17c-.19-1.13-.07-.72.18-1.75l-.09.06a10,10,0,0,0,.57-3.39c0-4.58-2.92-8.3-6.53-8.3s-6.53,3.72-6.53,8.3a10.06,10.06,0,0,0,.56,3.35l0,0c.24,1,.36.62.17,1.75a1.62,1.62,0,0,1-.67,1.22,3.94,3.94,0,0,0,1-.62l.4-.56h0a2.11,2.11,0,0,0,0,1.17A2.9,2.9,0,0,0,4,18.91a2.46,2.46,0,0,1-.33-1.52s0,.32.71,1.2a9.1,9.1,0,0,0,2.14,1.66s0-.55,0-1.15a5.1,5.1,0,0,0,1.7.29,5.35,5.35,0,0,0,1.74-.3c0,.61,0,1.16,0,1.16A9.1,9.1,0,0,0,12,18.59c.74-.88.72-1.2.72-1.2a2.5,2.5,0,0,1-.34,1.52,3,3,0,0,0,1-1.52,2,2,0,0,0,0-1.21s.32.45.43.59a3.75,3.75,0,0,0,1,.62,1.62,1.62,0,0,1-.67-1.22"/><path class="cls-3" d="M8.25,15.79V27.5H1.88l-.15-.07c0-5.81,3.33-6.65,3.83-6.74h.06c.39,0,.64-.5.81-1.26,0-.12.05-.24.06-.37s.07-.44.09-.67,0-.29,0-.44c.06-.72.08-1.5.08-2.24,0,0,.86.09,1.55.09"/><path class="cls-4" d="M14.79,27.43l-.15.07H8.25V15.79h0c.69,0,1.55-.09,1.55-.09,0,.74,0,1.51.08,2.23,0,.14,0,.28,0,.42s.06.48.09.7h0a2.33,2.33,0,0,0,.05.28c.17.81.42,1.35.83,1.35l.16,0h0c.75.18,3.72,1.23,3.72,6.72"/><g class="cls-5"><path class="cls-6" d="M10,19.05h0a2.07,2.07,0,0,1-1.76,1h0a2.23,2.23,0,0,1-1.76-1c0-.21.07-.44.09-.67s0-.29,0-.44a6.81,6.81,0,0,0,1.61.21h0a7.06,7.06,0,0,0,1.64-.22c0,.14,0,.28,0,.42s.06.48.09.7"/></g><path class="cls-7" d="M8.21,2.36C1.46,2.36,1.43,8,1.73,11.7c-.47-.88-1.84-.61-1.72.77s2,2,2,1.86c.55,3,3.73,4.8,6.19,4.8h0V2.36h0"/><path class="cls-6" d="M.44,11.89a.64.64,0,0,1,1-.19.55.55,0,0,1,.16.61c-.05.18-.23.2-.19.46a.45.45,0,0,0,.27.39.7.7,0,0,1,.23.25.66.66,0,0,1,0,.39c0,.21-.37,0-.58-.06a4.1,4.1,0,0,1-.7-.56,1.23,1.23,0,0,1-.19-1.29"/><path class="cls-8" d="M8.24,2.36C15,2.36,15,8,14.72,11.7c.47-.88,1.84-.61,1.72.77s-2,2-2,1.86c-.55,3-3.73,4.8-6.19,4.8H8.19V2.36h.05"/><path class="cls-6" d="M16,11.89a.64.64,0,0,0-1-.19.55.55,0,0,0-.16.61c0,.18.23.2.19.46a.45.45,0,0,1-.27.39.7.7,0,0,0-.23.25.66.66,0,0,0,0,.39c.05.21.37,0,.58-.06a4.1,4.1,0,0,0,.7-.56A1.21,1.21,0,0,0,16,11.89"/><path class="cls-3" d="M8.21,4C6,4,4.36,4.6,3.38,5.88,2,7.65,2.06,10.37,2.57,12.31c.15.6.23,2.21.34,2.79.48,2.64,3.38,4,5.3,4h0V4h0"/><path class="cls-4" d="M13,5.88C12.05,4.62,10.44,4,8.26,4V19.14c2.18,0,4.8-1.56,5.25-4,.1-.58.18-2.19.34-2.79.5-1.94.55-4.65-.83-6.43"/><path class="cls-9" d="M14.79,27.43l-.15.07H1.88l-.15-.07c0-5.9,3.33-6.76,3.83-6.85.82.93,2.6,2.56,2.6,2.56s1.84-1.55,2.6-2.25l.11-.11a1.79,1.79,0,0,0,.19-.18h0a3.84,3.84,0,0,1,.49.16l.11,0a4.71,4.71,0,0,1,.77.46l.11.09c1.06.83,2.24,2.56,2.24,6.07"/><path class="cls-10" d="M10.73,19.7c.06.05.69,1.39.8,1.67a3.56,3.56,0,0,1,0,1.1s-.09-.44-.34-.55a1.56,1.56,0,0,0-1-.08c-.21.1-1.2.88-1.38,1a1.08,1.08,0,0,0-.36.42V27.5H8l0-4.2.47-1.49,1.74-1.69s-.1-.43-.12-.49a1.63,1.63,0,0,1,.59.07"/><path class="cls-10" d="M5.75,19.77c-.06.05-.69,1.39-.8,1.67a3.56,3.56,0,0,0,0,1.1S5,22.1,5.28,22a1.56,1.56,0,0,1,1-.08c.22.11,1.21.88,1.39,1s.8.56.8.56l-.62-1.67L6.22,20.18s.14-.44.14-.48a1.71,1.71,0,0,0-.61.07"/><path class="cls-2" d="M2.23,14.7c-.13,0,0-.83-.42-1.4A8.94,8.94,0,0,1,.71,8.88,8.16,8.16,0,0,1,2.76,3.44,10.18,10.18,0,0,1,6.41.74l-1,1.09A4.85,4.85,0,0,1,7.88.23,3,3,0,0,1,10.4.3s-1,0-1.31.48a1.82,1.82,0,0,1-.36.33S9.2-.14,11.37.9,13.51,3.8,15,4.37s2-.17,2-.17a2.42,2.42,0,0,1-1.86,1.32h-.21A14.34,14.34,0,0,1,15.47,8c.09,1.08-.19,1.81-.27,3.82-.07,1.72-.47.84-.93,2.11a3.08,3.08,0,0,0-.17.9c-.17,0-.63-1-.3-2.91C14,10.68,13,6.06,10.43,7c-1.55.55-1.94,1.67-3.1.68-1-.87-2.4-1.36-3.44-.68S2.25,9.17,2.44,11.61C2.67,14.73,2.23,14.7,2.23,14.7Z"/></g></g></g></g></svg>