<svg xmlns="http://www.w3.org/2000/svg" viewBox="0 0 15.36 24.31"><defs><style>.cls-1{fill:#191919;}.cls-2{fill:#e1bf9c;}.cls-3{fill:#f2d1ac;}.cls-4,.cls-6{fill:#c09a80;}.cls-4{opacity:0.7;}.cls-5{fill:#d3a789;}.cls-7{fill:#e0b89b;}.cls-8{fill:#c6696e;}.cls-9{fill:#d87373;}.cls-10{fill:none;}</style></defs><g id="Layer_2" data-name="Layer 2"><g id="avatars"><g id="row-01"><g id="avatar-01-13"><path class="cls-1" d="M9.79,7.05a12.69,12.69,0,0,0,1.09,2.79c.54,1,2.19,2.22,2.25,3.55.12,2.85-3.92,4.21-5.55,4.69S5.4,19,5.22,19.73a3.83,3.83,0,0,0,0,1.47,7.07,7.07,0,0,1-1.76-1.33,1.57,1.57,0,0,1,.08-2.08s.34.29-.06.95-.4,1.23-.26,1.4l.66.71s-2.52-.72-2-2.77c.08-.35.31-.09,0,0-.7.21-.57,1.37-.57,1.37S-.46,17.24,3,16c.33-.12,2.11-.56,2.3-2,.1-.82-.5-.89-.61-1.89-.14-1.29,1.71-1,2.42-2.23.14-.24-.53-.37,0-1S8,8.13,8.92,7.68,9.79,7.05,9.79,7.05Z"/><path class="cls-1" d="M6,7.29a13.21,13.21,0,0,1-1.09,2.79c-.54,1-2.19,2.22-2.25,3.55-.12,2.85,3.92,4.2,5.55,4.69s2.17.53,2.35,1.24a6.17,6.17,0,0,1,0,1.87,7,7,0,0,0,1.76-1.32A1.57,1.57,0,0,0,12.23,18s-.34.29.06.94.4,1.24.25,1.41-.65.7-.65.7,2.52-.71,2-2.76c-.08-.35-.31-.09,0,0,.7.21.57,1.36.57,1.36s1.71-2.21-1.75-3.46c-.33-.12-2.12-.56-2.3-2-.1-.82.5-.89.61-1.89.14-1.29-1.71-1-2.42-2.24-.14-.23.53-.36,0-1s-.89-.7-1.81-1.15S6,7.29,6,7.29Z"/><path class="cls-2" d="M7.39,24.23H1.2l-.15-.06"/><path class="cls-3" d="M13.76,24.17l-.15.06H7.39"/><path class="cls-2" d="M7.67,13.22V24.31h-6l-.15-.06c0-4.05,1.71-5.55,2.8-6.1a3.19,3.19,0,0,1,.89-.3h.11c.3-.09.51-.54.65-1.18A1.82,1.82,0,0,0,6,16.31a6.17,6.17,0,0,0,.09-.64c0-.13,0-.27,0-.41,0-.68.07-1.42.07-2.12C6.2,13.14,7,13.22,7.67,13.22Z"/><path class="cls-3" d="M13.87,24.25l-.15.06H7.67V13.22h0c.66,0,1.47-.08,1.47-.08,0,.69,0,1.43.07,2.1,0,.14,0,.27,0,.4s.05.46.09.66h0c0,.09,0,.18,0,.26A1.87,1.87,0,0,0,10,17.8l.06,0,.14,0a2.86,2.86,0,0,1,.72.23C12,18.56,13.87,20,13.87,24.25Z"/><path class="cls-4" d="M9.35,16.31h0a2,2,0,0,1-1.67.91h0A2.11,2.11,0,0,1,6,16.31a5.8,5.8,0,0,0,.09-.64c0-.13,0-.27,0-.41a6.57,6.57,0,0,0,1.52.2h0a5.92,5.92,0,0,0,1.55-.22c0,.14,0,.28,0,.41S9.31,16.1,9.35,16.31Z"/><path class="cls-5" d="M7.66,1.29c-6.29,0-6.33,5.05-6,8.35-.43-.77-1.71-.49-1.6.75s1.9,1.73,1.88,1.6c.51,2.69,3.48,4.18,5.77,4.39h0V1.29Z"/><path class="cls-6" d="M.32,9.87a.62.62,0,0,1,.92-.17.48.48,0,0,1,.15.55c0,.16-.22.17-.17.42a.42.42,0,0,0,.25.35.58.58,0,0,1,.22.22.68.68,0,0,1,0,.34c-.05.2-.35,0-.56,0A4.49,4.49,0,0,1,.5,11,1.07,1.07,0,0,1,.32,9.87Z"/><path class="cls-7" d="M7.69,1.29c6.3,0,6.33,5.05,6.06,8.35.43-.77,1.7-.49,1.6.75s-1.91,1.73-1.88,1.6C13,14.68,10,16.17,7.69,16.38H7.64V1.29Z"/><path class="cls-6" d="M15.08,9.87a.64.64,0,0,0-.93-.17.5.5,0,0,0-.14.55c0,.16.22.17.17.42a.42.42,0,0,1-.25.35.58.58,0,0,0-.22.22.68.68,0,0,0,0,.34c.05.2.35,0,.55,0A4.09,4.09,0,0,0,14.9,11,1.07,1.07,0,0,0,15.08,9.87Z"/><path class="cls-2" d="M7.63,2.73c-2.1,0-3.64.58-4.57,1.72-1.3,1.6-1.26,4-.77,5.79.14.54.22,2,.32,2.51.45,2.37,3.21,3.63,5,3.63h0V2.73Z"/><path class="cls-3" d="M12.19,4.45A5.55,5.55,0,0,0,7.68,2.73V16.38c2.07,0,4.54-1.4,5-3.63.1-.53.17-2,.32-2.51C13.45,8.5,13.5,6.06,12.19,4.45Z"/><path class="cls-8" d="M8.74,14.24a1.69,1.69,0,0,1-1.06.51,1.59,1.59,0,0,1-1-.5,7.51,7.51,0,0,1,1-.07A9.55,9.55,0,0,1,8.74,14.24Z"/><path class="cls-9" d="M8,14c-.17,0-.3.1-.3.23a.28.28,0,0,0-.3-.23,4.33,4.33,0,0,0-.77.23s.58.06.75.06.31.07.32-.06c0,.13.12.08.28.08s.78-.08.78-.08A4.45,4.45,0,0,0,8,14Z"/><polygon class="cls-10" points="3.68 21.72 3.68 21.72 3.68 21.72 3.68 21.72"/><path class="cls-2" d="M2.72,19.64H2.63c-.29.74,1.05,2.07,1.05,2.07h0C3.32,21,3,20.31,2.72,19.64Z"/><path class="cls-2" d="M2.72,19.64c.27.67.6,1.38,1,2.08C3.77,19.77,3,19.63,2.72,19.64Z"/><path class="cls-1" d="M13.25,20.62a5.16,5.16,0,0,0-.94-1.5,3.87,3.87,0,0,0-1.41-1,14.33,14.33,0,0,1-2.45,2.7C6,22.44,5,20.83,5,20.78a15.12,15.12,0,0,1-1-2.47,4.52,4.52,0,0,0-1.32,1.26l0,.07c.26,0,1,.13,1,2.08h0v2.57l1.52,0h8.51l.15-.06A9.42,9.42,0,0,0,13.25,20.62Z"/><path class="cls-1" d="M13.8,6.25c-.41-.58-.2-1.4-.27-2.13S11.85,1.48,10.92.69,8,0,6.94,0A3.13,3.13,0,0,0,4.88.83c-.44.34-.55.24-1.1.34s-.89.35-1.89,2.13S1.48,6,1.57,7.52A26.82,26.82,0,0,1,1.32,11c0,2.41,1.61,4.42,1.36,6.85a8.61,8.61,0,0,1-.82,2.85,9.13,9.13,0,0,0,1.07-2.13,8.29,8.29,0,0,0-.31-4.36,7.91,7.91,0,0,1-.15-3.86,1.06,1.06,0,0,0,0-.19c0-.16.07-.33.11-.48l0-.14c0-.12.06-.24.1-.37l0-.07c0-.06,0-.1,0-.14s0-.11,0-.17a6,6,0,0,0,0,.95v.05c0,.11,0,.2,0,.32l0,.21v.08a.94.94,0,0,0,0,.16,2.83,2.83,0,0,0,.11.44,9.92,9.92,0,0,0,.38,1.09c.12.35.25.67.35,1A6.55,6.55,0,0,1,4,14c0,.14,0,.28,0,.41a2.36,2.36,0,0,1,0,.37,5.72,5.72,0,0,1,0,.61c0,.34,0,.53,0,.53a1.11,1.11,0,0,0,0-.13c0-.09.1-.21.15-.38a4.53,4.53,0,0,0,.15-.61A4.1,4.1,0,0,0,4.42,14a5.85,5.85,0,0,0-.19-1.38c0-.18-.09-.35-.14-.52l0-.13c-.09-.29-.17-.57-.25-.85l-.06-.22c-.05-.18-.08-.35-.12-.53l0-.29c0-.07,0-.18,0-.26a5.3,5.3,0,0,1,0-.69c0-.13,0-.27,0-.41a9,9,0,0,1,.2-1.06c.17-.69.4-1.33.58-1.89L4.59,5a1.28,1.28,0,0,0,.32.77A4.7,4.7,0,0,0,8.19,7.39h.06a5.18,5.18,0,0,1,1.09.17c1.86.6,2.17,2.67,3.29,2.81a1.13,1.13,0,0,0,.26,0,1,1,0,0,0,.51-.24,3,3,0,0,0,.93-1.56c0-.1,0-.19.05-.27a.92.92,0,0,0,0-.16A3.09,3.09,0,0,0,13.8,6.25Z"/></g></g></g></g></svg>