<svg xmlns="http://www.w3.org/2000/svg" xmlns:xlink="http://www.w3.org/1999/xlink" viewBox="0 0 16.21 25.75"><defs><style>.cls-1{fill:none;}.cls-2{fill:#e2bf9c;}.cls-3{fill:#f2d1ac;}.cls-4{clip-path:url(#clip-path);}.cls-5{fill:#c09a80;}.cls-6{fill:#d3a789;}.cls-7{fill:#e0b89b;}.cls-8{fill:#c7696e;}.cls-9{fill:#d87373;}.cls-10{fill:#f6f0d7;}.cls-11{fill:#27170f;}</style><clipPath id="clip-path"><rect class="cls-1" x="6.34" y="16.18" width="3.53" height="2.08"/></clipPath></defs><g id="Layer_2" data-name="Layer 2"><g id="avatars"><g id="row-02"><g id="avatar-02-25"><path class="cls-2" d="M8.09,14V25.75H1.73l-.16-.07c0-6.28,3.9-6.75,3.9-6.75h0l.08,0c.3-.08.51-.49.65-1.09a.54.54,0,0,0,0-.15,3.29,3.29,0,0,0,.07-.36c0-.22.06-.44.09-.68s0-.29,0-.43c.06-.72.07-1.5.07-2.24,0,0,.86.08,1.55.08"/><path class="cls-3" d="M14.64,25.68l-.16.07H8.09V14h0C8.8,14,9.66,14,9.66,14c0,.73,0,1.5.08,2.22,0,.14,0,.28,0,.42s.05.48.08.7h0c0,.1,0,.19.05.28s0,.17.06.24a1.64,1.64,0,0,0,.56,1.06l.07,0,.14,0s3.9.47,3.9,6.75"/><g class="cls-4"><path class="cls-5" d="M9.86,17.3h0a2,2,0,0,1-1.76,1h0a2.21,2.21,0,0,1-1.75-1c0-.21.06-.44.09-.68s0-.28,0-.43a7.29,7.29,0,0,0,1.61.21h0a6.49,6.49,0,0,0,1.64-.23c0,.14,0,.29,0,.42s.05.48.08.7"/></g><path class="cls-6" d="M8.09,1.46c-6.65,0-6.69,5.32-6.39,8.8-.46-.81-1.8-.51-1.69.8s2,1.82,2,1.68c.54,2.84,3.68,4.41,6.1,4.64h.05V1.46H8.09"/><path class="cls-5" d="M.34,10.51a.65.65,0,0,1,1-.18.49.49,0,0,1,.16.58c-.05.17-.23.18-.19.44s.19.3.28.37.17.11.22.24a.57.57,0,0,1,0,.36c-.05.2-.37,0-.58-.05a4.37,4.37,0,0,1-.7-.54,1.11,1.11,0,0,1-.19-1.22"/><path class="cls-7" d="M8.12,1.46c6.64,0,6.68,5.32,6.39,8.8.45-.81,1.8-.51,1.69.8s-2,1.82-2,1.68c-.55,2.84-3.68,4.41-6.1,4.64h0V1.46h0"/><path class="cls-5" d="M15.91,10.51a.65.65,0,0,0-1-.18.52.52,0,0,0-.16.58c.05.17.23.18.19.44s-.19.3-.27.37-.18.11-.23.24a.57.57,0,0,0,0,.36c.05.2.37,0,.58-.05a4,4,0,0,0,.7-.54,1.09,1.09,0,0,0,.19-1.22"/><path class="cls-2" d="M8.05,3c-2.22,0-3.84.61-4.82,1.82C1.85,6.48,1.91,9.05,2.41,10.9c.16.57.24,2.09.34,2.65.48,2.5,3.39,3.83,5.3,3.83h0V3h0"/><path class="cls-3" d="M12.87,4.79C11.89,3.59,10.29,3,8.1,3V17.38c2.19,0,4.8-1.48,5.25-3.83.11-.56.19-2.08.34-2.65.51-1.84.55-4.42-.82-6.11"/><path class="cls-8" d="M9.22,15.12a1.76,1.76,0,0,1-1.12.54A1.66,1.66,0,0,1,7,15.13a7.21,7.21,0,0,1,1.09-.08,9,9,0,0,1,1.12.07"/><path class="cls-9" d="M8.42,14.87a.29.29,0,0,0-.32.25.29.29,0,0,0-.32-.25,4.53,4.53,0,0,0-.8.25s.61.07.79.07.33.07.33-.07c0,.14.13.08.3.08s.82-.08.82-.08a4.53,4.53,0,0,0-.8-.25"/><path class="cls-10" d="M14.65,25.68l-.16.07H1.72l-.16-.07a12.46,12.46,0,0,1,.16-2.05c.74-4.35,3.74-4.71,3.74-4.71h.12c.3-.09.49-.77.64-1.36A10.91,10.91,0,0,0,8.08,18,11.26,11.26,0,0,0,10,17.55c.13.53.32,1.18.57,1.32l.07,0,.14,0s3.91.47,3.91,6.76"/><path class="cls-2" d="M3.33,23.63v2.12H1.73l-.16-.07a12.46,12.46,0,0,1,.16-2.05Z"/><path class="cls-2" d="M12.87,23.63v2.12h1.61l.16-.07a12.46,12.46,0,0,0-.16-2.05Z"/><path class="cls-11" d="M3.89,9.08s0,0,0,0Z"/><path class="cls-11" d="M14.66,3.6c-.57-.88-.61-.63-.61-.63s.58-2.39-3-2.92A9.2,9.2,0,0,0,9.68,0l.48.49A9.89,9.89,0,0,0,5.82.25a5.77,5.77,0,0,0-4,2.6A6.44,6.44,0,0,0,.89,5.24L1.82,4A6.19,6.19,0,0,0,.89,8.18c.55,4.16,2.48,4.93,2.48,4.93S2,10.62,2.92,9A5.17,5.17,0,0,1,7,6.21,3.73,3.73,0,0,0,3.89,9.07h0A2,2,0,0,1,5.13,7.91c.58-.22,1.35-.22,2.22-.45a4.66,4.66,0,0,0-.93,2.16,5.62,5.62,0,0,1,2.67-2l.35-.13A2.33,2.33,0,0,0,9.26,9.7s-.07-1.09,2.31-1.77c1.37-.4,1.59-1.17,1.59-1.17A4.37,4.37,0,0,0,13.33,8c.22.57.82.94.86,1.45a10.58,10.58,0,0,1-.43,2.74l.77-.6a22.77,22.77,0,0,0,.77-4.8A7,7,0,0,0,14.66,3.6Z"/></g></g></g></g></svg>