<svg xmlns="http://www.w3.org/2000/svg" xmlns:xlink="http://www.w3.org/1999/xlink" viewBox="0 0 15.81 26.38"><defs><style>.cls-1{fill:none;}.cls-2{fill:#432612;}.cls-3{fill:#e2bf9c;}.cls-4{fill:#f2d1ac;}.cls-5{clip-path:url(#clip-path);}.cls-6{fill:#c09a80;}.cls-7{fill:#d3a789;}.cls-8{fill:#e0b89b;}.cls-9{fill:#187f7c;}.cls-10{fill:#965458;}.cls-11{fill:#607298;}.cls-12{fill:#191919;}.cls-13{fill:#3a2817;}</style><clipPath id="clip-path"><rect class="cls-1" x="6.31" y="17.07" width="3.39" height="2.03"/></clipPath></defs><g id="Layer_2" data-name="Layer 2"><g id="avatars"><g id="row-01"><g id="avatar-01-29"><path class="cls-2" d="M13.89,13.5c-.24.45-.86.54-1.34,1.18A11.65,11.65,0,0,1,9.9,16.41s0,.94-1.35.95c-.24,0-.4-.4-.59-.4h0c-.19,0-.36.4-.6.4C6,17.35,6,16.41,6,16.41a11.88,11.88,0,0,1-2.66-1.73C2.87,14,2.25,14,2,13.5s.31,1.64.48,2.07a18,18,0,0,0,1,2.6,2.93,2.93,0,0,0,.79,1c.16.18,0-.85,0-.85a11.55,11.55,0,0,0,.83,1.28,9.84,9.84,0,0,0,2.61,1.53l.2.06v0H8v0l.2-.06a10,10,0,0,0,2.61-1.53,11.55,11.55,0,0,0,.83-1.28s-.16,1,0,.85a3.07,3.07,0,0,0,.79-1,19.29,19.29,0,0,0,1-2.6,8.37,8.37,0,0,0,.48-2.07"/><path class="cls-3" d="M8,15V26.38H1.88l-.15-.07c0-4.69,2.21-6,3.24-6.42a2,2,0,0,1,.51-.14c.37,0,.61-.49.77-1.22a2.08,2.08,0,0,0,.06-.36,6.57,6.57,0,0,0,.09-.66c0-.14,0-.28,0-.42,0-.7.07-1.46.07-2.18,0,0,.83.09,1.49.09"/><path class="cls-4" d="M14.29,26.31a.73.73,0,0,0-.14.07H8V15H8c.67,0,1.5-.09,1.5-.09,0,.72,0,1.47.07,2.16,0,.14,0,.28,0,.41s0,.47.08.68h0c0,.09,0,.18.05.27.16.78.41,1.31.8,1.31a3.16,3.16,0,0,1,.77.24c1.1.51,3,2,3,6.32"/><g class="cls-5"><path class="cls-6" d="M9.7,18.16h0A2,2,0,0,1,8,19.1H8a2.17,2.17,0,0,1-1.69-.93,6.57,6.57,0,0,0,.09-.66c0-.14,0-.28,0-.42a6.75,6.75,0,0,0,1.54.2H8a6.09,6.09,0,0,0,1.58-.22c0,.14,0,.28,0,.41s.05.47.08.68"/></g><path class="cls-7" d="M7.89,1.94C1.4,1.94,1.37,7.43,1.66,11c-.45-.85-1.76-.59-1.65.75s2,2,1.93,1.81c.54,3,3.58,4.66,5.95,4.66h.05V1.94H7.89"/><path class="cls-6" d="M.42,11.2A.62.62,0,0,1,1.36,11a.55.55,0,0,1,.15.6c-.05.17-.23.18-.18.44a.48.48,0,0,0,.26.39.58.58,0,0,1,.22.24.67.67,0,0,1,0,.37c0,.21-.35,0-.55-.05a4.43,4.43,0,0,1-.68-.55A1.22,1.22,0,0,1,.42,11.2"/><path class="cls-8" d="M7.92,1.94c6.48,0,6.52,5.49,6.23,9.08.44-.85,1.76-.59,1.65.75s-2,2-1.94,1.81c-.53,3-3.57,4.66-5.94,4.66h0V1.94h0"/><path class="cls-6" d="M15.39,11.2a.62.62,0,0,0-.94-.18.55.55,0,0,0-.15.6c0,.17.22.18.18.44a.48.48,0,0,1-.26.39.58.58,0,0,0-.22.24.59.59,0,0,0,0,.37c0,.21.35,0,.55-.05a3.92,3.92,0,0,0,.67-.55,1.22,1.22,0,0,0,.19-1.26"/><path class="cls-3" d="M8,3.49c-2.13,0-3.69.62-4.64,1.86C2,7.08,2.05,9.71,2.54,11.61c.15.57.22,2.13.33,2.71.46,2.56,3.25,3.92,5.09,3.92H8V3.49H8"/><path class="cls-4" d="M12.59,5.35A5.48,5.48,0,0,0,8,3.49V18.24c2.1,0,4.61-1.52,5-3.92.1-.58.18-2.14.33-2.71.48-1.89.53-4.53-.79-6.26"/><path class="cls-9" d="M14.29,26.31a.73.73,0,0,0-.14.07H1.88l-.15-.07c0-4.69,2.21-6,3.24-6.42l1.89.94A2.63,2.63,0,0,0,8,21.22a7.24,7.24,0,0,0,1.69-.5A9.11,9.11,0,0,0,11.32,20c1.1.51,3,2,3,6.32"/><path class="cls-10" d="M12.92,26.38H3.1c0-.49.06-1.37,0-2.56V23.6a2.35,2.35,0,0,0,0-.26c0-.06,0-.13,0-.19,0-.48-.12-1-.21-1.63a4.53,4.53,0,0,1,.9-1l.08-.07A3.67,3.67,0,0,1,5,19.83l.16-.06a1.72,1.72,0,0,1,.36-.08.48.48,0,0,0,.31-.13h0l.09-.11s0,0,.06.12c.11.3,1.27.39,2.07,1.19.8-.8,2-.89,2.07-1.19a.3.3,0,0,1,.06-.12l.09.11h0a.48.48,0,0,0,.31.13,1.91,1.91,0,0,1,.34.07l.16.06a4,4,0,0,1,1.08.61l.08.07a4.19,4.19,0,0,1,.91,1c-.1.6-.18,1.18-.21,1.66,0,.07,0,.13,0,.19a1.15,1.15,0,0,1,0,.19v.22c0,1.21,0,2.11.05,2.6"/><polygon class="cls-11" points="5.5 22.33 5.51 22.32 5.5 22.32 4.88 21.24 4.26 20.14 3.64 21.24 3.01 22.32 3.01 22.32 3.01 22.33 3.01 22.33 3.01 22.33 3.64 23.41 4.26 24.51 4.88 23.41 5.5 22.33 5.51 22.33 5.5 22.33"/><polygon class="cls-11" points="8 22.33 8.01 22.32 8 22.32 7.38 21.24 6.76 20.14 6.14 21.24 5.51 22.32 5.51 22.32 5.51 22.33 5.51 22.33 5.51 22.33 6.14 23.41 6.75 24.51 7.38 23.41 8 22.33 8.01 22.33 8 22.33"/><polygon class="cls-11" points="10.5 22.33 10.51 22.32 10.5 22.32 9.88 21.24 9.26 20.14 8.64 21.24 8.02 22.32 8.01 22.32 8.01 22.33 8.01 22.33 8.02 22.33 8.64 23.41 9.26 24.51 9.88 23.41 10.5 22.33 10.51 22.33 10.5 22.33"/><polygon class="cls-11" points="13 22.33 13.01 22.32 13 22.32 12.38 21.24 11.76 20.14 11.14 21.24 10.52 22.32 10.51 22.32 10.51 22.33 10.51 22.33 10.52 22.33 11.14 23.41 11.76 24.51 12.38 23.41 13 22.33 13.01 22.33 13 22.33"/><polygon class="cls-11" points="5.32 26.38 3.19 26.38 3.64 25.6 4.26 24.5 4.88 25.6 5.32 26.38"/><polygon class="cls-11" points="7.83 26.38 5.69 26.38 6.14 25.6 6.75 24.5 7.38 25.6 7.83 26.38"/><polygon class="cls-11" points="10.33 26.38 8.19 26.38 8.64 25.6 9.26 24.5 9.88 25.6 10.33 26.38"/><polygon class="cls-11" points="12.83 26.38 10.69 26.38 11.14 25.6 11.76 24.5 12.38 25.6 12.83 26.38"/><path class="cls-12" d="M5.56,23.46l0-.06H5.52l-.6-1-.67-1.18-.67,1.18-.46.8c0,.06,0,.13,0,.19l.55-.94.57-1,.57,1,.62,1.06-.62,1.06-.57,1-.57-1-.54-.92v.22l.44.75.67,1.18.67-1.18.6-1.05h.07Z"/><path class="cls-12" d="M6.75,25.75l-.67-1.17-.6-1.06H5.41l0-.06,0-.05h.07l.6-1,.67-1.18.67,1.18.6,1h.06l0,.06,0,.05H8l-.6,1.06ZM5.56,23.46l.62,1.06.57,1,.57-1,.61-1.06L7.32,22.4l-.57-1-.57,1Z"/><path class="cls-12" d="M9.25,25.75l-.66-1.17L8,23.52H7.91l0-.06,0-.05H8l.61-1,.66-1.18.67,1.18.6,1h.06l0,.06,0,.05h-.07l-.6,1.06ZM8.06,23.46l.62,1.06.57,1,.57-1,.62-1.06L9.82,22.4l-.57-1-.57,1Z"/><path class="cls-12" d="M11.75,21.39l.58,1,.55,1c0-.06,0-.12,0-.19l-.48-.83-.67-1.18-.66,1.18-.61,1h-.07l0,.05,0,.06h.07l.61,1.05.66,1.18.67-1.18.45-.79v-.22l-.54,1-.58,1-.57-1-.61-1.06.61-1.06Z"/><polygon class="cls-12" points="4.25 25.53 3.77 26.38 3.9 26.38 4.25 25.75 4.61 26.38 4.73 26.38 4.25 25.53"/><polygon class="cls-12" points="6.75 25.53 6.27 26.38 6.4 26.38 6.75 25.75 7.11 26.38 7.23 26.38 6.75 25.53"/><polygon class="cls-12" points="9.25 25.53 8.77 26.38 8.9 26.38 9.25 25.75 9.61 26.38 9.73 26.38 9.25 25.53"/><polygon class="cls-12" points="11.75 25.53 11.27 26.38 11.39 26.38 11.75 25.75 12.1 26.38 12.23 26.38 11.75 25.53"/><path class="cls-12" d="M5,19.83l-.71,1.24-.36-.63-.08.07.44.78.87-1.52L5,19.83"/><path class="cls-12" d="M12.12,20.43l-.37.64L11,19.82l-.16-.06.87,1.53.45-.79-.08-.07"/><path class="cls-13" d="M15.17,6.51A2.44,2.44,0,0,0,15,6.23a12.24,12.24,0,0,0-1.44-4A6.4,6.4,0,0,0,9.11,0a5.83,5.83,0,0,0-4,1.32A2.37,2.37,0,0,0,4.49.68,2.46,2.46,0,0,0,3.4.71,2,2,0,0,1,4.06,1a.69.69,0,0,1,.11.57,3.9,3.9,0,0,0-.93-.31c-.52,0-1.1.68-1.1.68a1.86,1.86,0,0,1,.95-.35,2.71,2.71,0,0,1,.57.22s-.76.08-2.2,1.74A4.91,4.91,0,0,0,.38,6.47l.91-.55a2.38,2.38,0,0,0-.35.59A4.74,4.74,0,0,0,1.18,10s.3,0,.57.71a12.9,12.9,0,0,1,.61,2h.31a11.11,11.11,0,0,1-.22-4.35c.13-.43.47-1.29.95-1.32a1.88,1.88,0,0,0,.46-.88A3.53,3.53,0,0,1,5.14,4.49a.5.5,0,0,1,.62.09,4.06,4.06,0,0,1,1.76-.73c1.13-.21,1.75,1.07,2,1.74a1.62,1.62,0,0,1,.12,1,3.29,3.29,0,0,0,.42-1.65,2.23,2.23,0,0,0-.13-.62c.15.08.8.27.93,2a1.82,1.82,0,0,1-.65,1.4,2.55,2.55,0,0,0,1.26-2.84,3.68,3.68,0,0,1,.77,1.31,20.78,20.78,0,0,0,1.42,2.2,11,11,0,0,1-.23,4.35h.32a13.55,13.55,0,0,1,.6-2c.28-.68.58-.71.58-.71A4.74,4.74,0,0,0,15.17,6.51ZM9.77,4l0,0,0,0Z"/><path class="cls-13" d="M12.31,15.92a4.31,4.31,0,0,1-1.73.66c0-.77-.15-3.56-2.74-3.49S5.09,15.81,5.1,16.58a4.21,4.21,0,0,1-1.72-.66,9.8,9.8,0,0,1-1.72-2.27,6.13,6.13,0,0,0,2.4,3.45,7.71,7.71,0,0,0,3.06,1.24c.19,0,.43.05.7.07h0c.27,0,.51,0,.7-.07a7.65,7.65,0,0,0,3.06-1.24A6.07,6.07,0,0,0,14,13.65,9.66,9.66,0,0,1,12.31,15.92Zm-4.43,1h0l-.48,0a2.93,2.93,0,0,1-1.07-.34.78.78,0,0,1-.43-.63.73.73,0,0,1,.35-.56H9.4a.72.72,0,0,1,.34.56.76.76,0,0,1-.41.61,2.56,2.56,0,0,1-1.15.37Z"/></g></g></g></g></svg>