<svg xmlns="http://www.w3.org/2000/svg" xmlns:xlink="http://www.w3.org/1999/xlink" viewBox="0 0 15.66 25.7"><defs><style>.cls-1{fill:none;}.cls-2{fill:#e2bf9c;}.cls-3{fill:#f2d1ac;}.cls-4{clip-path:url(#clip-path);}.cls-5{fill:#c09a80;}.cls-6{fill:#d3a789;}.cls-7{fill:#e0b89b;}.cls-8{fill:#c7696e;}.cls-9{fill:#d87373;}.cls-10{fill:#070708;}.cls-11{fill:#f6f0d7;}</style><clipPath id="clip-path"><rect class="cls-1" x="6.16" y="16.49" width="3.4" height="2.01"/></clipPath></defs><g id="Layer_2" data-name="Layer 2"><g id="avatars"><g id="row-02"><g id="avatar-02-23"><path class="cls-2" d="M7.75,14V25.7H1.38l-.15-.07c0-4,1.55-5.62,2.7-6.29a3.32,3.32,0,0,1,1.19-.46c.39,0,.64-.5.81-1.26,0-.12.05-.24.07-.37s.06-.44.09-.67l0-.44c.06-.72.08-1.5.08-2.24,0,0,.86.09,1.55.09"/><path class="cls-3" d="M14.15,25.63,14,25.7H7.85V14.43h0c.66,0,1.49-.09,1.49-.09,0,.71,0,1.46.07,2.14,0,.14,0,.28,0,.41s0,.46.09.67h0a2,2,0,0,0,0,.26c.16.78.4,1.31.79,1.31a3.32,3.32,0,0,1,1.14.43c1.11.65,2.61,2.23,2.61,6.06"/><g class="cls-4"><path class="cls-5" d="M9.56,17.56h0a2,2,0,0,1-1.7.92h0a2.14,2.14,0,0,1-1.69-.92,6,6,0,0,0,.09-.65c0-.14,0-.28,0-.42a6.32,6.32,0,0,0,1.55.2h0a6.23,6.23,0,0,0,1.59-.21l0,.4c0,.24.06.46.09.67"/></g><path class="cls-6" d="M7.85,2.32c-6.4,0-6.43,5.12-6.15,8.47C1.26,10,0,10.3.07,11.56S2,13.31,2,13.18c.52,2.73,3.54,4.24,5.87,4.46H7.9V2.32H7.85"/><path class="cls-5" d="M.39,11a.63.63,0,0,1,.94-.17.49.49,0,0,1,.15.56c0,.16-.22.17-.18.42a.43.43,0,0,0,.26.35.55.55,0,0,1,.22.23.61.61,0,0,1,0,.35c-.05.2-.36,0-.56,0a4,4,0,0,1-.67-.52A1.07,1.07,0,0,1,.39,11"/><path class="cls-7" d="M7.88,2.32c6.4,0,6.43,5.12,6.15,8.47.44-.78,1.73-.49,1.63.77s-1.94,1.75-1.91,1.62c-.52,2.73-3.54,4.24-5.87,4.46h0V2.32h0"/><path class="cls-5" d="M15.38,11a.63.63,0,0,0-.94-.17.5.5,0,0,0-.15.56c.05.16.23.17.18.42a.41.41,0,0,1-.26.35c-.07.06-.17.11-.21.23a.54.54,0,0,0,0,.35c0,.2.35,0,.56,0a4,4,0,0,0,.67-.52A1,1,0,0,0,15.38,11"/><path class="cls-2" d="M7.82,3.77c-2.14,0-3.7.59-4.65,1.75C1.85,7.15,1.9,9.63,2.39,11.4c.15.55.22,2,.32,2.55.47,2.41,3.26,3.69,5.11,3.69h0V3.77h0"/><path class="cls-3" d="M12.45,5.52C11.51,4.37,10,3.78,7.86,3.77V17.64c2.11,0,4.62-1.43,5.05-3.69.11-.53.18-2,.33-2.55.49-1.77.54-4.25-.79-5.88"/><path class="cls-8" d="M8.93,15.57a1.7,1.7,0,0,1-1.08.51,1.63,1.63,0,0,1-1-.5,6.81,6.81,0,0,1,1-.08,8.34,8.34,0,0,1,1.08.07"/><path class="cls-9" d="M8.16,15.33a.28.28,0,0,0-.31.23c0-.13-.13-.23-.3-.23a4.2,4.2,0,0,0-.77.24s.59.06.75.06.32.06.32-.06c0,.12.13.08.29.08s.79-.08.79-.08a4.2,4.2,0,0,0-.77-.24"/><path class="cls-10" d="M14.38,25.63l-.16.07H1.28l-.16-.07c0-4,1.6-5.58,2.77-6.26-.25,1.3,1.79,1.81,3.85,1.78s4-.57,3.85-1.81c1.16.67,2.79,2.25,2.79,6.29"/><path class="cls-9" d="M8.47,22.94a.65.65,0,0,0-.64.16.63.63,0,0,0-.63-.16.65.65,0,0,0-.44.82,6.28,6.28,0,0,0,1.07,1.29v0a6.62,6.62,0,0,0,1.07-1.29.66.66,0,0,0-.44-.82"/><polygon class="cls-11" points="9.26 24.69 9.15 24.43 9 24.62 6.55 22.9 6.55 22.62 6.51 22.62 6.51 22.87 6.48 22.85 6.48 22.55 6.43 22.55 6.43 22.82 6.39 22.79 6.39 22.47 6.35 22.47 6.35 22.76 6.27 22.71 6.21 22.8 6.29 22.85 6.02 22.97 6.04 23.01 6.33 22.88 6.38 22.91 6.08 23.05 6.09 23.09 6.42 22.94 6.46 22.97 6.19 23.08 6.21 23.12 6.5 23 8.94 24.71 8.8 24.88 9.09 24.92 9.37 24.95 9.26 24.69"/><path class="cls-11" d="M15.41,6.44a1.25,1.25,0,0,0-.15-.28,11.64,11.64,0,0,0-1.5-3.93A6.8,6.8,0,0,0,9.09,0,6.24,6.24,0,0,0,4.93,1.34,2.55,2.55,0,0,0,4.29.67,2.67,2.67,0,0,0,3.15.7,2,2,0,0,1,3.83,1,.62.62,0,0,1,4,1.57a4.16,4.16,0,0,0-1-.3c-.54,0-1.14.67-1.14.67a1.87,1.87,0,0,1,1-.34,2.53,2.53,0,0,1,.59.21s-.8.08-2.29,1.72A4.67,4.67,0,0,0,0,6.4l1-.55a2.49,2.49,0,0,0-.37.59A4.44,4.44,0,0,0,.84,9.91s.31,0,.59.7a12.62,12.62,0,0,1,.63,2h.33s-.72-2.79-.23-4.31c.13-.41.49-1.27,1-1.3a1.83,1.83,0,0,0,.48-.87A3.53,3.53,0,0,1,5,4.44a.54.54,0,0,1,.64.09,4.42,4.42,0,0,1,1.83-.72C8.61,3.6,9.26,4.86,9.52,5.52a1.44,1.44,0,0,1,.12,1,3.15,3.15,0,0,0,.45-1.63A2.19,2.19,0,0,0,10,4.27c.15.08.83.27,1,2a1.74,1.74,0,0,1-.68,1.38,2.47,2.47,0,0,0,1.32-2.8,3.77,3.77,0,0,1,.81,1.29,18.72,18.72,0,0,0,1.47,2.17c.48,1.52-.23,4.31-.23,4.31h.33a12.62,12.62,0,0,1,.63-2c.28-.67.59-.7.59-.7A4.44,4.44,0,0,0,15.41,6.44ZM9.78,4l0,0,0,0Z"/></g></g></g></g></svg>