<svg xmlns="http://www.w3.org/2000/svg" viewBox="0 0 15.78 25.53"><defs><style>.cls-1{fill:#e1bf9c;}.cls-2{fill:#f2d1ac;}.cls-3,.cls-5{fill:#c09a80;}.cls-3{opacity:0.7;}.cls-4{fill:#d3a789;}.cls-6{fill:#e0b89b;}.cls-7{fill:#c6696e;}.cls-8{fill:#d87373;}.cls-9{fill:#9e1d24;}.cls-10{fill:#fff;}</style></defs><g id="Layer_2" data-name="Layer 2"><g id="avatars"><g id="row-01"><g id="avatar-01-17"><path class="cls-1" d="M7.93,14.44V25.53h-6l-.15-.06A10.36,10.36,0,0,1,2,22.93c.85-3.55,3.42-3.86,3.42-3.86h0l.08,0c.3-.08.51-.53.65-1.17l.06-.35c0-.2.06-.42.09-.64l0-.41c.06-.68.08-1.42.08-2.13C6.47,14.35,7.28,14.44,7.93,14.44Z"/><path class="cls-2" d="M14.13,25.47l-.14.06H7.93V14.44H8c.65,0,1.47-.09,1.47-.09,0,.7,0,1.43.07,2.11,0,.14,0,.27,0,.4s.05.46.08.66h0a2,2,0,0,0,.05.26c.13.62.31,1.08.58,1.23l.07,0,.13,0,.12,0a4.14,4.14,0,0,1,2.59,2A8.32,8.32,0,0,1,14.13,25.47Z"/><path class="cls-3" d="M9.61,17.52h0a2,2,0,0,1-1.67.91h0a2.09,2.09,0,0,1-1.66-.91c0-.2.06-.42.08-.64s0-.27,0-.41a6.65,6.65,0,0,0,1.52.2h0a6.38,6.38,0,0,0,1.56-.22c0,.14,0,.27,0,.4S9.58,17.32,9.61,17.52Z"/><path class="cls-4" d="M7.93,2.51c-6.3,0-6.33,5.05-6,8.35-.44-.78-1.71-.49-1.61.75s1.91,1.73,1.88,1.59c.52,2.69,3.48,4.19,5.78,4.4H8V2.51Z"/><path class="cls-5" d="M.59,11.09a.62.62,0,0,1,.92-.17.48.48,0,0,1,.15.55c0,.16-.22.17-.18.41s.18.29.26.36.17.1.21.22a.51.51,0,0,1,0,.34c-.05.2-.35,0-.55,0a4.49,4.49,0,0,1-.66-.51A1,1,0,0,1,.59,11.09Z"/><path class="cls-6" d="M8,2.51c6.29,0,6.33,5.05,6.05,8.35.43-.78,1.71-.49,1.6.75s-1.9,1.73-1.88,1.59c-.51,2.69-3.48,4.19-5.77,4.4h0V2.51Z"/><path class="cls-5" d="M15.34,11.09a.62.62,0,0,0-.92-.17.48.48,0,0,0-.15.55c0,.16.22.17.18.41s-.18.29-.26.36-.17.1-.21.22a.51.51,0,0,0,0,.34c.05.2.35,0,.55,0a4.49,4.49,0,0,0,.66-.51A1,1,0,0,0,15.34,11.09Z"/><path class="cls-1" d="M7.89,3.94c-2.1,0-3.64.58-4.57,1.73-1.3,1.6-1.25,4-.77,5.79.15.54.22,2,.32,2.51.46,2.37,3.21,3.63,5,3.63h.05V4Z"/><path class="cls-2" d="M12.46,5.67C11.53,4.53,10,4,7.94,4V17.6c2.07,0,4.55-1.4,5-3.63.1-.53.18-2,.33-2.51C13.71,9.71,13.76,7.27,12.46,5.67Z"/><path class="cls-7" d="M9,15.46A1.66,1.66,0,0,1,7.94,16a1.55,1.55,0,0,1-1-.5,6.38,6.38,0,0,1,1-.08A8,8,0,0,1,9,15.46Z"/><path class="cls-8" d="M8.24,15.22c-.16,0-.3.11-.3.23,0-.12-.14-.23-.3-.23a4,4,0,0,0-.76.24s.58.06.74.06.32.07.32-.06c0,.13.12.08.29.08s.77-.08.77-.08A4,4,0,0,0,8.24,15.22Z"/><path class="cls-9" d="M14.62,22.67s-1.75-3.45-4.19-3.6c-.06,0,1.82,2.75-.68,3.39a6.69,6.69,0,0,1-1.8.19h0a6.69,6.69,0,0,1-1.8-.19c-2.5-.64-.62-3.39-.68-3.39-2.44.15-4.2,3.6-4.2,3.6l.78.26,1.09.37a7.32,7.32,0,0,0-.4,2.23H13.16a7.32,7.32,0,0,0-.4-2.23l1.09-.37Z"/><path class="cls-10" d="M1.09,5.7A3.55,3.55,0,0,1,2,3.38a7.59,7.59,0,0,1,1.5-1.67c.35-.31.73-.7.73-.7A4.08,4.08,0,0,1,5.64.38,2.5,2.5,0,0,1,7.46.7l.26.11a2.3,2.3,0,0,1,1-.68,1.47,1.47,0,0,1,1.56.19L9.68.4a2.73,2.73,0,0,1,1.69.39,3.67,3.67,0,0,1,1,.92s-1.1-.25-.39,0a5.45,5.45,0,0,1,1.9,1.14,5.23,5.23,0,0,1,1.45,2c.27.74-.14-.39-.68-.8a4,4,0,0,0-1-.57,7.43,7.43,0,0,1,1.38,2.23,8.2,8.2,0,0,1,.67,4.1c-.2,3.15-1.7,4.3-1.7,4.3a2.36,2.36,0,0,0,.49-.85,2.24,2.24,0,0,0,.05-1c0,.15-1.5,2.32-1.5,2.32a5.43,5.43,0,0,0,.74-3.88A3.41,3.41,0,0,0,13,9.12c-.06-.07-.1-.15-.15-.22a4.66,4.66,0,0,1-2.08,1.3,4.37,4.37,0,0,0,1-1.62,3.78,3.78,0,0,0-.71-2.91c-.1-.11-.22-.22-.35-.34a2.64,2.64,0,0,1,0,2.28,2.31,2.31,0,0,1-.76.87A5.07,5.07,0,0,1,6.71,9.56a5.93,5.93,0,0,1-1.78-.27h0l-.27-.1c-.94-.3-3.89-.93-2.48,3.62v.07h0A3.09,3.09,0,0,0,3.3,14.54a5.6,5.6,0,0,1-1.66-1.76A6,6,0,0,1,1,9.35c0-.27,0-.52.07-.75a1.71,1.71,0,0,1-.21.24,1.46,1.46,0,0,1-.88.4S1.12,8.6,1.09,5.7Z"/></g></g></g></g></svg>