<svg xmlns="http://www.w3.org/2000/svg" viewBox="0 0 15.26 23.77"><defs><style>.cls-1{fill:#ffde17;}.cls-2{fill:#e1bf9c;}.cls-3{fill:#f2d1ac;}.cls-4,.cls-6{fill:#c09a80;}.cls-4{opacity:0.7;}.cls-5{fill:#d3a789;}.cls-7{fill:#e0b89b;}.cls-8{fill:#c6696e;}.cls-9{fill:#d87373;}.cls-10{fill:#fff;}.cls-11{fill:none;}</style></defs><g id="Layer_2" data-name="Layer 2"><g id="avatars"><g id="row-01"><g id="avatar-01-14"><path class="cls-1" d="M13.2,11.84c0,2.65-2.55,4.8-5.7,4.8s-5.71-2.15-5.71-4.8S4.35,7,7.5,7,13.2,9.18,13.2,11.84Z"/><path class="cls-2" d="M7.62,12.74v11h-6a.55.55,0,0,0-.14-.06,9.08,9.08,0,0,1,.69-3.77,4.43,4.43,0,0,1,2.34-2.4,2.6,2.6,0,0,1,.64-.19h0l.08,0c.3-.09.51-.53.65-1.17L6,15.82c0-.2.06-.42.08-.65s0-.26,0-.4c.06-.68.07-1.42.07-2.11C6.16,12.66,7,12.74,7.62,12.74Z"/><path class="cls-3" d="M13.79,23.71a.52.52,0,0,0-.15.06h-6v-11h0c.66,0,1.47-.08,1.47-.08,0,.69,0,1.42.07,2.09,0,.14,0,.27,0,.4s0,.45.08.66h0a1.72,1.72,0,0,0,.05.26,1.83,1.83,0,0,0,.58,1.23l.06,0a.31.31,0,0,0,.13,0A4.1,4.1,0,0,1,13,19.82,8.92,8.92,0,0,1,13.79,23.71Z"/><path class="cls-4" d="M9.29,15.81h0a1.94,1.94,0,0,1-1.66.91h0A2.11,2.11,0,0,1,6,15.82c0-.2.06-.42.08-.64s0-.27,0-.41A6.56,6.56,0,0,0,7.6,15h0a6.3,6.3,0,0,0,1.55-.22c0,.14,0,.27,0,.4S9.26,15.6,9.29,15.81Z"/><path class="cls-5" d="M7.62.89c-6.26,0-6.3,5-6,8.29C1.17,8.41-.1,8.7,0,9.93s1.89,1.72,1.86,1.59c.52,2.67,3.47,4.15,5.75,4.36h0V.89Z"/><path class="cls-6" d="M.32,9.41a.62.62,0,0,1,.92-.17.52.52,0,0,1,.15.55c0,.16-.22.17-.18.41a.44.44,0,0,0,.25.35.55.55,0,0,1,.22.23.57.57,0,0,1,0,.34c0,.19-.34,0-.54,0a3.89,3.89,0,0,1-.66-.51A1,1,0,0,1,.32,9.41Z"/><path class="cls-7" d="M7.65.89c6.26,0,6.29,5,6,8.29.43-.77,1.7-.48,1.6.75s-1.9,1.72-1.87,1.59c-.51,2.67-3.46,4.15-5.74,4.36H7.6V.89Z"/><path class="cls-6" d="M15,9.41a.62.62,0,0,0-.92-.17.48.48,0,0,0-.15.55c.05.16.22.17.18.41a.43.43,0,0,1-.26.35.59.59,0,0,0-.21.23.66.66,0,0,0,0,.34c.05.19.35,0,.55,0a3.89,3.89,0,0,0,.66-.51A1,1,0,0,0,15,9.41Z"/><path class="cls-2" d="M7.58,2.31C5.49,2.31,4,2.89,3,4c-1.3,1.59-1.25,4-.77,5.76.15.53.22,2,.32,2.5.45,2.35,3.19,3.61,5,3.61h0V2.31Z"/><path class="cls-3" d="M12.12,4A5.52,5.52,0,0,0,7.63,2.31V15.88c2.06,0,4.52-1.39,4.94-3.6.1-.53.18-2,.32-2.5C13.37,8,13.42,5.62,12.12,4Z"/><path class="cls-8" d="M8.68,13.76a1.66,1.66,0,0,1-1,.5,1.59,1.59,0,0,1-1-.49,6.54,6.54,0,0,1,1-.08A8,8,0,0,1,8.68,13.76Z"/><path class="cls-9" d="M7.93,13.52a.27.27,0,0,0-.3.23c0-.12-.14-.23-.3-.23a4.31,4.31,0,0,0-.76.24s.58.06.75.06.31.06.31-.06c0,.12.12.08.28.08s.77-.08.77-.08A4.16,4.16,0,0,0,7.93,13.52Z"/><path class="cls-10" d="M12.27,18c-.81-.38-1.77-.63-1.72-.51.53.74.33,1.35.25,2.41-.14,1.64-1.21,1.24-3.19,1.22s-3.05.42-3.18-1.22c-.09-1.06-.29-1.67.24-2.41,0-.12-.91.13-1.72.51a8.79,8.79,0,0,0-1.46.92,1.5,1.5,0,0,1,.85.94,8,8,0,0,1,.25,1.67c.08,1.26.72,1.83.68,2.25H12c0-.42.6-1,.68-2.25a8,8,0,0,1,.25-1.67,1.5,1.5,0,0,1,.85-.94A8.3,8.3,0,0,0,12.27,18Z"/><path class="cls-11" d="M5.19,9.2a6.56,6.56,0,0,0-.71,0l.68,0c.38.05,1.27.24,1.36.56a2.41,2.41,0,0,1,0,1.14,2.18,2.18,0,0,1-2.29,1.77A2.19,2.19,0,0,0,6.56,10.9a2.29,2.29,0,0,0,0-1.14C6.46,9.44,5.57,9.25,5.19,9.2Z"/><path class="cls-11" d="M8.63,10.9a2.27,2.27,0,0,1,0-1.14c.08-.32,1-.51,1.35-.56l.69,0a6.38,6.38,0,0,0-.71,0c-.38.05-1.27.24-1.36.56a2.41,2.41,0,0,0,0,1.14,2.18,2.18,0,0,0,2.31,1.77A2.17,2.17,0,0,1,8.63,10.9Z"/><path class="cls-1" d="M3.76,8.52Z"/><path class="cls-1" d="M13.71,3.38c-.53-.82-.57-.59-.57-.59S13.67.55,10.39.05A7.93,7.93,0,0,0,9.1,0l.45.46a9,9,0,0,0-4-.24A5.32,5.32,0,0,0,1.82,2.67,6.1,6.1,0,0,0,1,4.91l.86-1.16A5.88,5.88,0,0,0,1,7.68c.51,3.91,2.29,4.63,2.29,4.63S2.06,10,2.87,8.45A4.75,4.75,0,0,1,6.65,5.83,3.44,3.44,0,0,0,3.77,8.51h0a1.93,1.93,0,0,1,1.15-1.1C5.45,7.21,6.15,7.22,7,7A4.38,4.38,0,0,0,6.1,9,5.1,5.1,0,0,1,8.56,7.19l.33-.12a2.18,2.18,0,0,0-.17,2s-.06-1,2.13-1.66c1.26-.37,1.46-1.1,1.46-1.1a4.18,4.18,0,0,0,.17,1.18c.19.54.75.89.79,1.37a10.32,10.32,0,0,1-.4,2.58l.71-.57a22.47,22.47,0,0,0,.71-4.51A6.94,6.94,0,0,0,13.71,3.38Z"/></g></g></g></g></svg>