<svg xmlns="http://www.w3.org/2000/svg" xmlns:xlink="http://www.w3.org/1999/xlink" viewBox="0 0 16.21 25.04"><defs><style>.cls-1{fill:none;}.cls-2{fill:#070708;}.cls-3{fill:#e2bf9c;}.cls-4{fill:#f2d1ac;}.cls-5{clip-path:url(#clip-path);}.cls-6{fill:#c09a80;}.cls-7{fill:#231f20;}.cls-8{fill:#d3a789;}.cls-9{fill:#e0b89b;}.cls-10{fill:#331a1d;}.cls-11{fill:#441d1e;}</style><clipPath id="clip-path"><rect class="cls-1" x="6.34" y="15.47" width="3.53" height="2.08"/></clipPath></defs><g id="Layer_2" data-name="Layer 2"><g id="avatars"><g id="row-02"><g id="avatar-02-20"><path class="cls-2" d="M1,11c0,1.56.71,1.81,1.54,4.3.68,2.07-.7,1.84-.7,1.84s2.11,1.43,1.87-6c0-1.52,4-3.82,4.53-4.07s.7-.17,1.15-.75.61-3.1.61-3.1c-.83-.17-3.84-.27-5.3.57A8,8,0,0,0,1.24,8.59Z"/><path class="cls-2" d="M2.19,12.24c0,1.56.71,1.81,1.54,4.3.68,2.07-.7,1.83-.7,1.83s2.11,1.44,1.87-6c0-1.52,4-3.82,4.53-4.07s.7-.17,1.15-.75.61-3.1.61-3.1c-.83-.17-3.84-.27-5.3.57A8,8,0,0,0,2.45,9.87Z"/><path class="cls-2" d="M3.64,14.87c0,1.57.71,1.82,1.53,4.31C5.86,21.25,4.48,21,4.48,21s2.11,1.43,1.87-6c0-1.52,4-3.82,4.52-4.07s.71-.18,1.16-.75.6-3.1.6-3.1c-.83-.17-3.84-.28-5.29.57A8,8,0,0,0,3.9,12.5Z"/><path class="cls-2" d="M15.22,11c0,1.56-.7,1.81-1.53,4.3-.68,2.07.69,1.84.69,1.84s-2.1,1.43-1.87-6C12.56,9.57,8.52,7.27,8,7s-.7-.17-1.15-.75-.61-3.1-.61-3.1c.83-.17,3.84-.27,5.3.57A8,8,0,0,1,15,8.59Z"/><path class="cls-2" d="M14,12.24c0,1.56-.71,1.81-1.54,4.3-.68,2.07.69,1.83.69,1.83s-2.1,1.44-1.86-6c0-1.52-4-3.82-4.53-4.07s-.7-.17-1.15-.75S5,4.45,5,4.45c.83-.17,3.84-.27,5.3.57a8,8,0,0,1,3.44,4.85Z"/><path class="cls-2" d="M12.57,14.87c0,1.57-.71,1.82-1.53,4.31-.69,2.07.69,1.83.69,1.83s-2.11,1.43-1.87-6c0-1.52-4-3.82-4.52-4.07s-.71-.18-1.16-.75-.6-3.1-.6-3.1c.82-.17,3.84-.28,5.29.57a8,8,0,0,1,3.44,4.84Z"/><path class="cls-3" d="M8.09,13.33V25H1.73L1.57,25c0-6.27,3.9-6.74,3.9-6.74h0l.08,0,.08,0c.28-.14.47-.58.61-1.2,0-.12.05-.24.07-.37s.06-.44.09-.68,0-.28,0-.43c0-.72.07-1.5.07-2.24,0,0,.86.08,1.55.08"/><path class="cls-4" d="M14.64,25l-.16.07H8.09V13.33h0c.7,0,1.56-.08,1.56-.08,0,.73,0,1.51.07,2.22,0,.14,0,.29,0,.42s.06.48.09.7h0c0,.1,0,.19.05.28.14.66.33,1.14.62,1.3l.06,0a.4.4,0,0,0,.15,0s3.9.47,3.9,6.74"/><g class="cls-5"><path class="cls-6" d="M9.86,16.59h0a2,2,0,0,1-1.76,1h0a2.24,2.24,0,0,1-1.75-1c0-.21.06-.44.09-.68s0-.28,0-.43a7.28,7.28,0,0,0,1.6.21h0a6.49,6.49,0,0,0,1.64-.23c0,.14,0,.29,0,.42s.06.48.09.7"/></g><polygon class="cls-7" points="9.57 17.16 9.66 17.23 9.61 17.3 9.55 17.2 9.57 17.16"/><polygon class="cls-7" points="13.52 22.9 13.43 22.97 11.87 20.65 11.8 20.55 11.68 20.37 11.67 20.36 11.49 20.09 11.42 19.99 11.11 19.53 11.05 19.43 10.74 18.98 10.67 18.87 10.36 18.41 10.3 18.32 9.99 17.86 9.92 17.76 9.98 17.66 10.05 17.76 10.36 18.22 10.43 18.32 10.74 18.77 10.81 18.88 11.11 19.33 11.18 19.43 11.38 19.74 11.49 19.89 11.55 19.99 11.87 20.45 11.93 20.55 13.52 22.9"/><polygon class="cls-7" points="12.9 23.11 12.81 23.17 11.93 21.86 11.83 21.72 11.76 21.62 11.49 21.21 11.42 21.11 11.11 20.65 11.05 20.55 10.74 20.09 10.67 19.99 10.67 19.99 10.36 19.53 10.3 19.43 10.3 19.43 9.98 18.98 9.92 18.88 9.61 18.42 9.54 18.32 9.23 17.86 9.17 17.76 9.23 17.66 9.3 17.76 9.61 18.22 9.68 18.32 9.99 18.77 10.05 18.87 10.36 19.33 10.43 19.43 10.74 19.89 10.81 19.99 11.11 20.45 11.18 20.55 11.49 21.01 11.55 21.11 11.83 21.52 11.9 21.62 11.99 21.76 12.9 23.11"/><polygon class="cls-7" points="7.64 16.61 7.71 16.57 7.66 16.64 7.64 16.61"/><polygon class="cls-7" points="7.75 16.57 7.73 16.55 7.74 16.55 7.75 16.57"/><polygon class="cls-7" points="12.29 23.31 12.2 23.37 11.46 22.27 11.39 22.17 11.36 22.13 11.11 21.77 11.05 21.66 10.74 21.21 10.67 21.1 10.36 20.65 10.3 20.55 9.99 20.09 9.92 19.99 9.61 19.53 9.55 19.43 9.23 18.97 9.17 18.87 8.86 18.41 8.79 18.32 8.48 17.86 8.42 17.76 8.48 17.65 8.55 17.76 8.86 18.22 8.92 18.31 9.23 18.77 9.3 18.87 9.61 19.33 9.68 19.43 9.99 19.89 10.05 19.99 10.36 20.44 10.43 20.55 10.74 21.01 10.81 21.11 11.11 21.57 11.18 21.66 11.46 22.07 11.46 22.08 11.52 22.17 12.29 23.31"/><polygon class="cls-7" points="11.68 23.52 11.58 23.58 11.08 22.84 11.01 22.73 10.8 22.42 10.74 22.32 10.67 22.23 10.36 21.77 10.3 21.67 9.98 21.21 9.92 21.1 9.61 20.65 9.54 20.55 9.23 20.09 9.17 19.99 8.86 19.53 8.79 19.43 8.48 18.97 8.42 18.88 8.1 18.42 8.1 18.41 8.04 18.32 7.73 17.86 7.66 17.76 7.73 17.66 7.8 17.76 8.1 18.21 8.18 18.32 8.48 18.77 8.55 18.87 8.86 19.33 8.92 19.43 9.23 19.89 9.3 19.99 9.61 20.45 9.68 20.55 9.98 21.01 10.05 21.1 10.36 21.57 10.43 21.67 10.74 22.12 10.81 22.23 10.9 22.36 10.9 22.36 11.08 22.63 11.15 22.73 11.68 23.52"/><polygon class="cls-7" points="11.06 23.72 10.97 23.79 10.36 22.88 10.3 22.78 10.22 22.68 9.99 22.32 9.92 22.23 9.61 21.77 9.54 21.66 9.23 21.21 9.17 21.1 8.86 20.65 8.79 20.55 8.48 20.09 8.42 19.99 8.1 19.53 8.04 19.43 7.73 18.97 7.66 18.87 7.36 18.42 7.29 18.32 6.98 17.86 6.91 17.76 6.61 17.3 6.54 17.2 6.61 17.1 6.67 17.2 6.98 17.65 7.05 17.76 7.36 18.21 7.42 18.32 7.73 18.77 7.8 18.87 8.11 19.33 8.18 19.43 8.48 19.89 8.55 19.99 8.86 20.45 8.92 20.55 9.23 21.01 9.3 21.1 9.61 21.56 9.68 21.66 9.99 22.12 10.05 22.23 10.33 22.63 10.36 22.68 10.43 22.78 11.06 23.72"/><polygon class="cls-7" points="10.45 23.93 10.36 23.99 10.33 23.95 10.26 23.85 9.99 23.44 9.92 23.34 9.62 22.89 9.61 22.88 9.55 22.78 9.23 22.32 9.23 22.32 9.17 22.22 8.86 21.77 8.79 21.66 8.48 21.2 8.42 21.1 8.11 20.65 8.04 20.55 7.73 20.09 7.67 19.99 7.36 19.53 7.29 19.43 6.98 18.97 6.91 18.87 6.61 18.41 6.54 18.31 6.23 17.86 6.16 17.76 6.23 17.66 6.3 17.76 6.61 18.22 6.67 18.32 6.98 18.77 7.05 18.87 7.36 19.33 7.42 19.43 7.73 19.89 7.8 19.99 8.1 20.45 8.18 20.55 8.48 21.01 8.55 21.1 8.86 21.57 8.92 21.67 9.23 22.12 9.3 22.23 9.61 22.68 9.61 22.68 9.68 22.78 9.72 22.86 9.98 23.24 10.05 23.34 10.33 23.75 10.39 23.85 10.45 23.93"/><polygon class="cls-7" points="9.84 24.13 9.74 24.19 9.61 24 9.54 23.89 9.23 23.44 9.17 23.34 8.97 23.05 8.86 22.88 8.79 22.78 8.48 22.32 8.42 22.23 8.1 21.77 8.04 21.67 7.73 21.21 7.66 21.1 7.36 20.65 7.29 20.55 6.98 20.09 6.91 19.99 6.61 19.53 6.54 19.43 6.23 18.97 6.16 18.87 5.86 18.42 5.78 18.32 5.86 18.22 5.92 18.32 6.23 18.77 6.3 18.87 6.61 19.33 6.67 19.43 6.98 19.89 7.05 19.99 7.36 20.45 7.42 20.55 7.73 21 7.73 21.01 7.8 21.1 8.11 21.57 8.18 21.66 8.48 22.12 8.55 22.23 8.86 22.68 8.92 22.78 9.09 23.02 9.23 23.24 9.3 23.34 9.61 23.8 9.68 23.89 9.84 24.13"/><path class="cls-7" d="M9.22,24.34l-.09.06L8.86,24l-.07-.11-.31-.45-.06-.1-.13-.19-.18-.27L8,22.78l-.31-.46-.06-.09-.31-.46h0l-.07-.1L7,21.2l-.07-.1-.31-.45-.06-.1-.31-.46L6.16,20l-.31-.46-.06-.1L5.48,19l-.07-.1-.07-.1-.24-.36L5,18.33l.11,0,0,0,.23.34.07.11.07.11.31.45.07.1.31.46.07.1.3.46.07.1L7,21l.07.09.3.46.07.11.31.45h0l.07.1.3.45h0l.08.09.23.35.07.11.07.1.31.46.06.1Z"/><path class="cls-7" d="M8.61,24.54l-.09.06,0,0-.06-.1L8.1,24,8,23.89l-.31-.45-.07-.1-.16-.25-.15-.21-.06-.1L7,22.32l-.07-.09-.31-.46-.06-.1-.31-.46-.07-.11-.31-.45-.07-.1-.31-.46L5.41,20l-.31-.46L5,19.44l0-.05L4.72,19l-.06-.1-.2-.29a.31.31,0,0,1,.1,0l.16.24.07.1.27.41,0,0,.07.11.3.45.07.1.31.46.07.1.31.46.07.09.3.46.07.1.31.46.07.11.31.45.06.1.23.33.08.13.07.1.3.46.08.09.3.46.07.11Z"/><path class="cls-7" d="M8,24.75l-.09.06-.17-.26-.07-.1L7.36,24l-.07-.11L7,23.44l-.07-.1-.3-.44v0l-.06-.1-.31-.46-.07-.09-.31-.46-.07-.11-.31-.46-.06-.1-.31-.45L5,20.55l-.31-.46,0-.06,0,0-.31-.46-.07-.1-.35-.52A.24.24,0,0,1,4,18.85l.33.48.07.11.3.45,0,0,0,.07.31.46.07.1.3.46.07.1.31.45.07.11.31.46.06.1.31.45.07.1.11.16.2.3.07.1.3.46.07.1.31.45.07.11Z"/><path class="cls-7" d="M7.38,25,7.29,25,7,24.56l-.07-.1L6.6,24l-.06-.1-.31-.46-.07-.1-.31-.46-.07-.1L5.6,22.5l-.13-.18-.06-.09-.31-.46L5,21.67l-.31-.46-.06-.1-.27-.39,0-.07-.07-.1L4,20.09,3.9,20l-.45-.68a.6.6,0,0,0,.08-.08l.44.66L4,20l.31.46.07.1,0,0,.28.42.07.09.31.46.07.1.3.46.07.11.25.36.06.09.07.1.31.46.07.1.3.46.07.09.31.46.07.11Z"/><path class="cls-7" d="M6.69,25H6.56l-.71-1-.07-.11-.31-.45-.06-.1-.31-.46L5,22.78l-.31-.46-.06-.09L4.48,22l-.13-.19-.07-.11-.09-.13L4,21.21l-.07-.1-.31-.46-.07-.1L3,19.79l.07-.09.51.75.07.1L4,21l.06.1.17.25.14.2.07.1.25.38,0,.08.07.1.31.46.07.1.31.46.06.1.31.46.07.09Z"/><path class="cls-7" d="M13.15,19.75l-.3.46-.07.1-.31.46-.07.1-.13.19-.06.1,0,0-.09.13-.07.11,0,0-.11.17h0l-.06.1-.11.17-.07.09v0h0l-.12.17-.06.1-.12.17-.06.1-.13.19-.07.11L11,23l-.07.1-.13.19-.06.1-.12.17-.07.1-.12.19-.07.1-.51.75-.12.18-.09-.06.08-.12.57-.85.07-.1.13-.19.06-.1.12-.17.07-.1.13-.19.06-.1.11-.17.07-.1.13-.19.07-.1.11-.17,0-.08h0v0l.13-.19.06-.1.06-.08,0-.08.07-.1.13-.2,0,0h0l0-.07.11-.16,0,0,0-.06.13-.19.06-.1.31-.46.07-.1.3-.45.07.09"/><path class="cls-8" d="M8.09.75C1.44.74,1.4,6.08,1.7,9.56,1.24,8.74-.1,9,0,10.35S2,12.17,2,12c.54,2.84,3.68,4.42,6.1,4.64h.05V.75H8.09"/><path class="cls-6" d="M.34,9.8a.65.65,0,0,1,1-.18.51.51,0,0,1,.16.58c0,.17-.23.18-.19.44a.44.44,0,0,0,.27.37c.08.07.18.12.23.24a.57.57,0,0,1,0,.36c-.05.21-.37,0-.58,0A4,4,0,0,1,.53,11,1.11,1.11,0,0,1,.34,9.8"/><path class="cls-9" d="M8.12.75c6.64,0,6.68,5.33,6.39,8.81.45-.82,1.8-.52,1.69.79s-2,1.82-2,1.68c-.54,2.84-3.67,4.42-6.09,4.64h0V.75h0"/><path class="cls-6" d="M15.91,9.8a.65.65,0,0,0-1-.18.52.52,0,0,0-.16.58c.05.17.23.18.19.44a.44.44,0,0,1-.27.37c-.08.07-.18.12-.23.24a.57.57,0,0,0,0,.36c.05.21.37,0,.58,0a4,4,0,0,0,.7-.54,1.09,1.09,0,0,0,.19-1.22"/><path class="cls-3" d="M8.05,2.26c-2.22,0-3.84.61-4.82,1.82C1.85,5.77,1.9,8.34,2.41,10.19c.15.57.23,2.09.34,2.65.48,2.5,3.39,3.83,5.3,3.83h0V2.26h0"/><path class="cls-4" d="M12.87,4.08c-1-1.2-2.58-1.81-4.77-1.82V16.67c2.19,0,4.8-1.48,5.25-3.83.11-.56.19-2.08.34-2.65.5-1.84.55-4.42-.82-6.11"/><path class="cls-10" d="M9.22,14.41A1.76,1.76,0,0,1,8.1,15,1.66,1.66,0,0,1,7,14.42a7.21,7.21,0,0,1,1.09-.08,9,9,0,0,1,1.12.07"/><path class="cls-11" d="M8.42,14.17c-.18,0-.32.1-.32.24,0-.14-.14-.24-.32-.24a4.67,4.67,0,0,0-.8.24s.61.07.79.07.33.07.33-.06c0,.13.13.08.3.08s.82-.09.82-.09a4.67,4.67,0,0,0-.8-.24"/><polygon class="cls-7" points="6.67 17.2 6.61 17.3 6.3 17.76 6.23 17.86 5.92 18.32 5.86 18.42 5.54 18.88 5.48 18.98 5.17 19.43 5.1 19.53 4.79 19.99 4.72 20.09 4.54 20.37 4.53 20.38 4.42 20.55 4.35 20.65 4.04 21.11 3.98 21.21 2.65 23.17 2.56 23.11 3.91 21.11 3.98 21.01 4.28 20.55 4.35 20.45 4.66 19.99 4.72 19.89 4.83 19.74 5.03 19.43 5.1 19.33 5.41 18.87 5.47 18.77 5.78 18.32 5.86 18.22 6.16 17.76 6.23 17.66 6.54 17.2 6.61 17.1 6.67 17.2"/><polygon class="cls-7" points="7.05 17.76 6.98 17.86 6.67 18.32 6.61 18.41 6.3 18.87 6.23 18.97 5.92 19.43 5.86 19.53 5.54 19.99 5.47 20.09 5.17 20.55 5.1 20.65 4.79 21.1 4.72 21.21 4.42 21.66 4.35 21.77 4.28 21.86 3.26 23.37 3.17 23.31 4.21 21.76 4.35 21.56 4.66 21.11 4.72 21.01 5.03 20.55 5.1 20.45 5.41 19.99 5.47 19.89 5.79 19.43 5.85 19.33 6.16 18.87 6.23 18.77 6.54 18.31 6.61 18.22 6.91 17.76 6.98 17.66 7.05 17.76"/><polygon class="cls-7" points="7.8 17.76 7.73 17.86 7.42 18.32 7.36 18.42 7.05 18.87 6.98 18.97 6.67 19.43 6.61 19.53 6.3 19.99 6.23 20.09 5.92 20.55 5.85 20.65 5.54 21.11 5.47 21.2 5.17 21.66 5.1 21.77 4.85 22.13 4.79 22.22 4.72 22.32 3.88 23.58 3.79 23.52 4.66 22.23 4.72 22.12 4.75 22.08 5.03 21.67 5.1 21.56 5.41 21.1 5.47 21.01 5.78 20.55 5.86 20.45 6.16 19.99 6.23 19.89 6.54 19.43 6.61 19.33 6.91 18.87 6.98 18.77 7.29 18.32 7.36 18.21 7.66 17.76 7.73 17.66 7.8 17.76"/><polygon class="cls-7" points="8.55 17.76 8.48 17.86 8.18 18.32 8.1 18.41 8.1 18.42 7.8 18.87 7.73 18.97 7.42 19.43 7.36 19.53 7.05 19.99 6.98 20.09 6.67 20.55 6.61 20.65 6.3 21.1 6.23 21.21 5.92 21.67 5.86 21.77 5.54 22.23 5.47 22.32 5.41 22.42 5.17 22.78 5.1 22.88 4.49 23.79 4.4 23.72 5.03 22.78 5.1 22.68 5.31 22.36 5.41 22.23 5.47 22.12 5.78 21.66 5.85 21.56 6.16 21.1 6.23 21.01 6.54 20.55 6.61 20.45 6.91 19.99 6.98 19.89 7.29 19.43 7.36 19.33 7.66 18.87 7.73 18.77 8.04 18.32 8.1 18.21 8.42 17.76 8.48 17.66 8.55 17.76"/><polygon class="cls-7" points="9.66 17.23 9.61 17.3 9.3 17.76 9.23 17.86 8.92 18.31 8.86 18.41 8.55 18.87 8.48 18.97 8.18 19.43 8.1 19.53 7.8 19.99 7.73 20.09 7.42 20.55 7.36 20.65 7.05 21.1 6.98 21.2 6.67 21.66 6.61 21.76 6.61 21.77 6.29 22.23 6.23 22.32 5.99 22.68 5.92 22.78 5.85 22.88 5.54 23.34 5.47 23.44 5.11 23.99 5.01 23.93 5.41 23.34 5.48 23.24 5.78 22.78 5.85 22.68 5.88 22.63 6.16 22.23 6.23 22.13 6.54 21.67 6.61 21.57 6.91 21.1 6.98 21.01 7.29 20.55 7.36 20.45 7.67 19.99 7.73 19.89 8.04 19.43 8.11 19.33 8.42 18.88 8.48 18.77 8.79 18.31 8.86 18.22 9.17 17.76 9.23 17.66 9.55 17.2 9.57 17.16 9.66 17.23"/><polygon class="cls-7" points="10.05 17.76 9.99 17.86 9.68 18.32 9.61 18.42 9.3 18.87 9.23 18.97 8.92 19.43 8.86 19.53 8.55 19.99 8.48 20.09 8.18 20.55 8.11 20.65 7.8 21.1 7.73 21.21 7.42 21.67 7.36 21.76 7.36 21.77 7.05 22.23 6.98 22.32 6.67 22.78 6.61 22.88 6.6 22.89 6.6 22.89 6.3 23.34 6.23 23.44 5.92 23.89 5.86 24 5.72 24.19 5.63 24.13 5.78 23.89 5.86 23.8 6.16 23.34 6.23 23.24 6.48 22.86 6.54 22.78 6.61 22.68 6.91 22.23 6.98 22.12 7.29 21.66 7.36 21.56 7.66 21.1 7.73 21.01 7.73 21 8.04 20.55 8.1 20.45 8.42 19.99 8.48 19.89 8.79 19.43 8.86 19.33 9.17 18.87 9.23 18.77 9.54 18.32 9.61 18.22 9.92 17.76 9.98 17.66 10.05 17.76"/><polygon class="cls-7" points="10.43 18.32 10.36 18.41 10.05 18.87 9.98 18.98 9.68 19.43 9.61 19.53 9.3 19.99 9.23 20.09 8.92 20.55 8.86 20.65 8.55 21.1 8.48 21.2 8.18 21.66 8.1 21.77 7.8 22.23 7.73 22.32 7.42 22.78 7.36 22.88 7.24 23.05 7.05 23.34 6.98 23.44 6.67 23.89 6.61 24 6.33 24.4 6.24 24.34 6.54 23.9 6.61 23.8 6.91 23.34 6.98 23.24 7.12 23.03 7.13 23.03 7.29 22.78 7.36 22.68 7.67 22.23 7.73 22.13 7.73 22.12 8.04 21.67 8.11 21.56 8.42 21.1 8.48 21.01 8.79 20.55 8.86 20.45 9.17 19.99 9.23 19.89 9.55 19.43 9.61 19.33 9.92 18.88 9.99 18.77 10.3 18.32 10.36 18.22 10.43 18.32"/><path class="cls-7" d="M11.17,18.33l-.29.44-.07.11-.07.09-.31.47-.07.09-.31.46-.06.1-.31.46-.07.1-.3.45-.08.11-.31.46-.06.1-.31.46-.07.09-.3.46-.07.1-.18.27-.13.19-.07.1-.31.46-.06.1-.31.46-.07.1,0,0-.1-.06.06-.08L7,24.35l.31-.46.06-.09.31-.46.07-.1.08-.11L8,22.78l.06-.09h0l.32-.45.06-.11.31-.46.07-.1.31-.46L9.23,21l.31-.46.07-.1L9.92,20l.07-.1.31-.45h0l.06-.1.31-.46.07-.1.07-.11.25-.36.11,0"/><path class="cls-7" d="M11.75,18.58l-.54.81,0,.05-.07.09-.3.46-.07.1-.31.46-.07.1-.31.45-.07.11-.3.45-.07.11-.31.46-.07.09h0l-.31.46-.06.1-.15.21-.16.25-.07.1-.3.45L8.1,24l-.3.46-.07.1-.17.25-.09-.06.19-.3.07-.1L8,23.89l.06-.09.32-.46.06-.1.08-.13h0l.22-.33.07-.1.31-.46.06-.1.31-.46.07-.1h0l.31-.46L10,21l.32-.46.06-.11.31-.45h0l.07-.1.31-.46.06-.1,0,0,.5-.75.1,0"/><path class="cls-7" d="M12.28,18.91,11.56,20l0,.05,0,.05-.31.46-.07.1-.3.46-.07.1-.31.46-.07.1-.31.46-.06.09-.31.46-.07.1h0l-.29.45-.08.1-.31.46-.06.1-.31.46-.07.1-.3.46L8.08,25l.34-.49.06-.11.31-.46.07-.09.31-.46.06-.1.2-.3h0l.11-.16.06-.09h0l.31-.45.07-.11.31-.45.06-.11.31-.46.07-.09.31-.46.06-.1.31-.46.05-.07,0,0,.7-1,.09.06"/><path class="cls-7" d="M12.76,19.32l-.83,1.23-.06.1,0,.07-.26.39-.07.1-.31.45-.07.11-.3.46-.07.09-.12.18-.19.28-.07.1-.31.46-.06.1-.31.45L9.61,24l-.7,1H8.77l.77-1.15.07-.09.31-.46.06-.1.31-.46.07-.1.06-.08h0l.25-.37.07-.11.31-.46.06-.1.31-.45.07-.1.28-.42,0,0,.06-.1.82-1.21.08.08"/><path class="cls-2" d="M14.69,25l-.16.07H1.67L1.52,25A8.19,8.19,0,0,1,3,19.74a.27.27,0,0,1,.07-.08,4.81,4.81,0,0,1,.36-.4.3.3,0,0,0,.08-.08,3.81,3.81,0,0,1,.41-.32A.22.22,0,0,1,4,18.79l.44-.27.1-.05L5,18.28H5a.45.45,0,0,0,.11,0h0a1.87,1.87,0,0,1,.28-.06h0l.08,0,.08,0h0s-.12.19-.29.49l-.07.11L5,19.23,5,19.34l-.18.36a1,1,0,0,0-.08.18L4.66,20c0,.12-.11.23-.15.34h0l-.09.22a.61.61,0,0,1,0,.12,4.34,4.34,0,0,0-.18.65,1.11,1.11,0,0,0,0,.17.75.75,0,0,0,0,.23.41.41,0,0,0,.07.11.19.19,0,0,0,.09.05l.11.05.19.08.08,0,.11,0,.45.24.11.06.18.08.2.09.1,0,.1.05.5.18.11,0h0l.17.05.34.08h0l.12,0,.25,0,.16,0,.15,0h.61l.16,0h0l.15,0L9,23l.12,0,.35-.09h0a.55.55,0,0,0,.17-.05h0l.11,0,.5-.18.11-.05a.24.24,0,0,1,.09,0h0l.2-.1.18-.08.1-.06h0l.46-.23.08,0h0s0,0,0,0l.18-.09h0l.21-.08.08-.05a.41.41,0,0,0,.07-.11.78.78,0,0,0,0-.31.5.5,0,0,0,0-.16h0a3.21,3.21,0,0,0-.16-.58l0-.12a2.29,2.29,0,0,0-.1-.23h0L11.56,20l-.06-.12c0-.07-.06-.12-.09-.18l-.18-.36a.3.3,0,0,0-.06-.11l-.27-.51s-.05-.08-.06-.11c-.17-.3-.29-.49-.29-.49l.06,0a.4.4,0,0,0,.15,0,1.75,1.75,0,0,1,.32.07l.12,0a3.94,3.94,0,0,1,.48.19l.1.06c.14.07.29.16.45.26a.22.22,0,0,0,.09.07l.4.33.08.08c.11.11.21.22.32.35l.07.09A8,8,0,0,1,14.69,25"/><path class="cls-2" d="M8.11,18.81a4.46,4.46,0,0,0,2.42-.64,4.1,4.1,0,0,1-.38-.85.94.94,0,0,0-.24-.45,3,3,0,0,1-1.81.38,3,3,0,0,1-1.8-.38.89.89,0,0,0-.23.45,4.77,4.77,0,0,1-.38.85,4.44,4.44,0,0,0,2.41.64h0Z"/><path class="cls-2" d="M9.36,14a.05.05,0,1,1,0-.05,0,0,0,0,1,0,.05"/><path class="cls-2" d="M4.24,4.5c.49.86.35,1.83,2,2.47s2.39.81,4.2,1.58c4.09,1.74,2,5.78,2,5.78A6.9,6.9,0,0,0,14,12.21c.4-1.08,2-5.79,0-9.51C12.88.65,10.88.18,9.11,0A5.16,5.16,0,0,0,4.82,1.16c-.28.24-1.07.3-1.95.88C.92,3.36,1.08,5.3,1,6.53a8.87,8.87,0,0,0,.51,3.79A32.28,32.28,0,0,0,4.18,14.6s-1.79-3.9-.79-6.44C4,6.68,5,6.76,5.05,6.18S4.24,4.5,4.24,4.5Z"/></g></g></g></g></svg>