<svg xmlns="http://www.w3.org/2000/svg" xmlns:xlink="http://www.w3.org/1999/xlink" viewBox="0 0 16.45 26.17"><defs><style>.cls-1{fill:none;}.cls-2{fill:#e2bf9c;}.cls-3{fill:#f2d1ac;}.cls-4{clip-path:url(#clip-path);}.cls-5{fill:#c09a80;}.cls-6{fill:#d3a789;}.cls-7{fill:#e0b89b;}.cls-8{fill:#fff;}.cls-9{fill:#432612;}.cls-10{fill:#c52026;}</style><clipPath id="clip-path"><rect class="cls-1" x="6.44" y="16.6" width="3.53" height="2.08"/></clipPath></defs><g id="Layer_2" data-name="Layer 2"><g id="avatars"><g id="row-01"><g id="avatar-01-19"><path class="cls-2" d="M8.19,14.46V26.17H1.82l-.15-.07c0-6.28,3.9-6.75,3.9-6.75.39,0,.63-.5.8-1.26a3.29,3.29,0,0,0,.07-.36c0-.22.06-.44.09-.68s0-.29,0-.43c0-.72.07-1.51.07-2.25,0,0,.86.09,1.55.09"/><path class="cls-3" d="M14.73,26.1l-.14.07H8.19V14.46h0c.7,0,1.56-.09,1.56-.09,0,.74,0,1.51.07,2.23,0,.14,0,.28,0,.42s.06.48.09.7h0c0,.1,0,.19,0,.28.17.81.43,1.35.83,1.35,0,0,3.89.47,3.89,6.75"/><g class="cls-4"><path class="cls-5" d="M10,17.72h0a2,2,0,0,1-1.76,1h0a2.21,2.21,0,0,1-1.75-.95c0-.22.06-.44.09-.68s0-.29,0-.43a6.74,6.74,0,0,0,1.6.2h0a6.13,6.13,0,0,0,1.64-.22c0,.14,0,.28,0,.42s.06.48.09.7"/></g><path class="cls-6" d="M8.26,1V17.8H8.19C5.73,17.79,2.57,16,2,13c0,.14-1.9-.55-2-1.87s1.26-1.65,1.72-.77c0-.07,0-.14,0-.21C1.43,6.47,1.59,1,8.21,1h0"/><path class="cls-5" d="M.44,10.56a.64.64,0,0,1,1-.19.56.56,0,0,1,.16.62c0,.17-.23.19-.18.46a.46.46,0,0,0,.26.39c.08.07.18.12.23.25a.6.6,0,0,1,0,.37c0,.22-.37,0-.58-.05a4.1,4.1,0,0,1-.7-.56,1.23,1.23,0,0,1-.19-1.29"/><path class="cls-7" d="M16.44,11.14c-.11,1.32-2,2-2,1.87-.55,3-3.71,4.78-6.17,4.79H8.19V1h.05c6.66,0,6.79,5.5,6.49,9.19v.15c.46-.88,1.83-.61,1.71.77"/><path class="cls-5" d="M16,10.56a.64.64,0,0,0-1-.19.58.58,0,0,0-.16.62c0,.17.23.19.19.46a.48.48,0,0,1-.27.39c-.08.07-.18.12-.23.25a.6.6,0,0,0,0,.37c.05.22.37,0,.58-.05a4.1,4.1,0,0,0,.7-.56A1.21,1.21,0,0,0,16,10.56"/><path class="cls-2" d="M8.15,2.62c-2.22,0-3.84.65-4.83,1.92C2,6.31,2,9,2.51,11c.15.6.24,2.2.34,2.79.48,2.64,3.39,4,5.3,4h0V2.62h0"/><path class="cls-3" d="M13,4.54A5.73,5.73,0,0,0,8.2,2.62V17.8c2.19,0,4.8-1.56,5.25-4,.11-.59.19-2.19.34-2.79.5-1.94.56-4.65-.82-6.43"/><path class="cls-8" d="M14.73,26.1l-.15.07H1.82l-.15-.07c0-4.2,1.75-5.81,2.9-6.4a3.4,3.4,0,0,1,.71-.28.3.3,0,0,1,.12,0,.43.43,0,0,0,0,.05S7,23.57,8.25,23.56,11,19.44,11,19.44a.08.08,0,0,0,0-.05.53.53,0,0,1,.16,0,4,4,0,0,1,.7.28c1.15.61,2.87,2.22,2.87,6.39"/><path class="cls-9" d="M8.25,15.23c-.07,1-1.78.91-2.67.91a4.63,4.63,0,0,1,2.5-1.45,1.71,1.71,0,0,1,.17.54"/><path class="cls-9" d="M8.13,15.23c.07,1,1.78.91,2.68.91A4.7,4.7,0,0,0,8.3,14.69a2,2,0,0,0-.17.54"/><path class="cls-10" d="M5.28,26.17H4.57V19.7a3.4,3.4,0,0,1,.71-.28c0,1.25,0,5.33,0,6.75"/><path class="cls-10" d="M11.87,26.17h-.71V19.43a4,4,0,0,1,.7.28c0,1.5,0,5.13,0,6.46"/><path class="cls-9" d="M14.43,13c-.26.47-.9.56-1.4,1.23A12.48,12.48,0,0,1,10.25,16s-.05,1-1.42,1c-.25,0-.43-.42-.63-.41h0c-.2,0-.38.41-.63.41-1.36,0-1.41-1-1.41-1a12.26,12.26,0,0,1-2.78-1.79c-.5-.67-1.15-.76-1.4-1.23a8.33,8.33,0,0,0,.5,2.15,20.23,20.23,0,0,0,1,2.7,3.35,3.35,0,0,0,.83,1c.16.18,0-.89,0-.89a12.25,12.25,0,0,0,.87,1.33,10.77,10.77,0,0,0,2.73,1.58l.21.06v0h.13v0l.22-.06a10.77,10.77,0,0,0,2.73-1.58A12.25,12.25,0,0,0,12.08,18s-.17,1.07,0,.89a3.4,3.4,0,0,0,.82-1,18.92,18.92,0,0,0,1-2.7A8.52,8.52,0,0,0,14.43,13"/><path class="cls-9" d="M14.91,11.66a23.54,23.54,0,0,0,.76-4.82A7.3,7.3,0,0,0,15,3.61c-.56-.87-.6-.63-.6-.63S15,.59,11.49.05a8.94,8.94,0,0,0-1.37,0L10.6.5A9.67,9.67,0,0,0,6.31.25a5.72,5.72,0,0,0-4,2.61,6.62,6.62,0,0,0-.88,2.4L2.74,3.5a6.17,6.17,0,0,0-1.3,4.72C2,12.4,3.89,13.17,3.89,13.17S2.58,10.67,3.45,9a5.08,5.08,0,0,1,4-2.8A3.69,3.69,0,0,0,4.41,9.11,2,2,0,0,1,5.63,7.94a21.7,21.7,0,0,0,3.06-.75,25.27,25.27,0,0,0,3.08-2A17.35,17.35,0,0,0,8.41,6.86a4.67,4.67,0,0,0-1.5,2.8,5.43,5.43,0,0,1,2.62-2c1-.4,2.87-1.08,2.87-1.08a3.6,3.6,0,0,0-2.33.74,2.24,2.24,0,0,0-.36,2.38S9.64,8.65,12,8c1.35-.39,1.56-1.17,1.56-1.17a4.16,4.16,0,0,0,.18,1.26c.21.57.8.95.85,1.46a11.27,11.27,0,0,1-.43,2.76Z"/></g></g></g></g></svg>