<svg xmlns="http://www.w3.org/2000/svg" viewBox="0 0 15.38 25.18"><defs><style>.cls-1{fill:#e1bf9c;}.cls-2{fill:#f2d1ac;}.cls-3,.cls-5{fill:#c09a80;}.cls-3{opacity:0.7;}.cls-4{fill:#d3a789;}.cls-6{fill:#e0b89b;}.cls-7{fill:#5c4c52;}.cls-8{fill:#0d0d0d;}.cls-9{fill:#f6f0d7;}</style></defs><g id="Layer_2" data-name="Layer 2"><g id="avatars"><g id="row-01"><g id="avatar-01-03"><path class="cls-1" d="M7.65,14.21v11H1.7l-.14-.06c0-5.88,3.64-6.32,3.64-6.32.27,0,.47-.26.62-.68a5.16,5.16,0,0,0,.13-.5A1.86,1.86,0,0,0,6,17.28c0-.21.07-.42.09-.64l0-.41c.06-.67.08-1.4.08-2.1C6.21,14.13,7,14.21,7.65,14.21Z"/><path class="cls-2" d="M13.77,25.12l-.14.06h-6v-11h0c.64,0,1.45-.08,1.45-.08,0,.7,0,1.42.07,2.09,0,.13,0,.26,0,.4s0,.44.08.65h0a2,2,0,0,0,0,.26,2.81,2.81,0,0,0,.29.89c.12.24.28.38.48.38C10.13,18.8,13.77,19.24,13.77,25.12Z"/><path class="cls-3" d="M9.31,17.27h0a1.9,1.9,0,0,1-1.65.9h0A2.1,2.1,0,0,1,6,17.28a6.17,6.17,0,0,0,.09-.64c0-.13,0-.27,0-.4a7,7,0,0,0,1.5.19h0a6.21,6.21,0,0,0,1.53-.21c0,.13,0,.27,0,.4S9.28,17.06,9.31,17.27Z"/><path class="cls-4" d="M7.67,1.63c-6.3,0-6.34,5.29-6.06,8.75-.43-.82-1.71-.56-1.6.73S1.91,13,1.89,12.85c.52,2.85,3.48,4.5,5.78,4.5h0V1.63Z"/><path class="cls-5" d="M.41,10.56a.59.59,0,0,1,.91-.17.54.54,0,0,1,.15.57c-.05.17-.22.18-.18.43a.47.47,0,0,0,.25.37.55.55,0,0,1,.22.23.64.64,0,0,1,0,.36c0,.2-.34,0-.54,0a3.59,3.59,0,0,1-.65-.53A1.13,1.13,0,0,1,.41,10.56Z"/><path class="cls-6" d="M7.7,1.63c6.31,0,6.34,5.29,6.06,8.75.44-.82,1.72-.56,1.61.73S13.46,13,13.49,12.85C13,15.7,10,17.35,7.7,17.35h0V1.63Z"/><path class="cls-5" d="M15,10.56a.59.59,0,0,0-.91-.17.51.51,0,0,0-.15.57c0,.17.22.18.18.43a.45.45,0,0,1-.26.37.59.59,0,0,0-.21.23.75.75,0,0,0,0,.36c.05.2.35,0,.55,0a4,4,0,0,0,.65-.53A1.17,1.17,0,0,0,15,10.56Z"/><path class="cls-1" d="M7.62,3.12a5.36,5.36,0,0,0-4.51,1.8c-1.29,1.66-1.24,4.2-.77,6,.15.56.22,2.06.32,2.61.45,2.47,3.17,3.79,5,3.79h0V3.13Z"/><path class="cls-2" d="M12.12,4.92A5.3,5.3,0,0,0,7.67,3.13V17.34c2,0,4.48-1.46,4.9-3.78.1-.55.17-2.05.32-2.61C13.36,9.13,13.41,6.59,12.12,4.92Z"/><path class="cls-7" d="M13.77,25.12l-.14.06H1.7l-.14-.06c0-5.92,3.64-6.36,3.64-6.36.27,0,.47-.26.62-.69l1.83.15,2,.16c.12.24.28.38.48.38C10.13,18.76,13.77,19.2,13.77,25.12Z"/><path class="cls-8" d="M9.8,18.53s-.23-1-.4-1-1.83.77-1.83.77L8.1,19.4Z"/><path class="cls-8" d="M5.38,18.53s.24-1,.41-1,1.83.77,1.83.77L7.09,19.4Z"/><path class="cls-9" d="M9.08,14.7a.5.5,0,0,0-.27.08,1.63,1.63,0,0,1,.57,1.39,2.29,2.29,0,0,1-.14.81l-.06,0a1.86,1.86,0,0,0-1.66-.66A1.87,1.87,0,0,0,5.85,17l0,0a2.25,2.25,0,0,1-.15-.81,1.6,1.6,0,0,1,.58-1.39A.57.57,0,0,0,6,14.7c-.46,0-.84.66-.84,1.47a2.08,2.08,0,0,0,.27,1.08A2,2,0,0,0,6.81,18a4,4,0,0,0,.71.07A3.43,3.43,0,0,0,8.26,18a2.75,2.75,0,0,0,1.1-.41,1.65,1.65,0,0,0,.57-1.38C9.93,15.36,9.55,14.7,9.08,14.7Z"/><path class="cls-9" d="M12.73,2.06C11.24,1,9-.09,7.65.05A5.65,5.65,0,0,0,2.57,1.82C.14,3.54,1,9.68,1,9.68a.75.75,0,0,1,.62.13,2,2,0,0,1,.57,1,.86.86,0,0,0,.44.53S2,8.89,2.6,7.81a5.38,5.38,0,0,1,1.12-1.6A2.75,2.75,0,0,0,3.94,7.3c.38.91,1.91,1.47,1.91,1.47s-1.13-.63-.68-1.4c.27-.46,1.84-.88,2.76-1,1.35-.11,2-.57,2.23-1a3,3,0,0,1,.74.32,4.75,4.75,0,0,1,1.8,2.12c.6,1.08,0,3.53,0,3.53a.86.86,0,0,0,.43-.53,2,2,0,0,1,.57-1,.75.75,0,0,1,.62-.13S15.16,3.77,12.73,2.06Z"/><path d="M13.17,20.58A4.64,4.64,0,0,0,11.08,19L7.67,24.15l0,.06,0-.06L4.19,19A4.64,4.64,0,0,0,2.1,20.58a2.37,2.37,0,0,1,.54,1,8.27,8.27,0,0,1,.1,3.58h9.79a8.39,8.39,0,0,1,.09-3.58A2.37,2.37,0,0,1,13.17,20.58Z"/></g></g></g></g></svg>