<svg xmlns="http://www.w3.org/2000/svg" viewBox="0 0 16.3 25.77"><defs><style>.cls-1{fill:#050606;}.cls-2{fill:#e1bf9c;}.cls-3{fill:#f2d1ac;}.cls-4,.cls-6{fill:#c09a80;}.cls-4{opacity:0.7;}.cls-5{fill:#d3a789;}.cls-7{fill:#e0b89b;}.cls-8{fill:#f16624;}.cls-9{fill:#fef5f0;}.cls-10{fill:#adb637;}.cls-11{fill:#30606b;}.cls-12{fill:#8967ac;}</style></defs><g id="Layer_2" data-name="Layer 2"><g id="avatars"><g id="row-02"><g id="avatar-02-06"><path class="cls-1" d="M3.9,13.87c-.11-.08-2.16-1.35-2.16-1.35a2.75,2.75,0,0,1,0,1.65A2,2,0,0,1,1,15a1.58,1.58,0,0,1-.74.3,1.92,1.92,0,0,1-.3,0,2.36,2.36,0,0,0,1.14.14,1.25,1.25,0,0,0,.71-.2,1,1,0,0,0-.14,1c.61,1.26-.21,1.68-.21,1.68a2.32,2.32,0,0,0,1.15-.45v0a.92.92,0,0,0,.68.71s-.31-.05-.25-.64c0-.16.18-.22.38-.33.08.57.33,1.15-.2,1.39,0,0,.9-.18,1.06-.71a1.57,1.57,0,0,0,.06-.28.83.83,0,0,1,0,.15A1.89,1.89,0,0,1,4,19.09s1.85-.19,1.87-.93A3.38,3.38,0,0,1,6,17.43c0-.17.17-1,.17-1S4,14,3.9,13.87Z"/><path class="cls-1" d="M11.58,13.87l2.17-1.35a2.75,2.75,0,0,0,0,1.65,2,2,0,0,0,.74.84,1.58,1.58,0,0,0,.74.3,1.92,1.92,0,0,0,.3,0,2.38,2.38,0,0,1-1.15.14,1.24,1.24,0,0,1-.7-.2,1,1,0,0,1,.14,1c-.62,1.26.21,1.68.21,1.68a2.32,2.32,0,0,1-1.15-.45v0a.92.92,0,0,1-.68.71s.31-.05.25-.64c0-.16-.18-.22-.38-.33-.08.57-.33,1.15.19,1.39,0,0-.89-.18-1.05-.71a1.57,1.57,0,0,1-.06-.28.88.88,0,0,0,0,.15,1.93,1.93,0,0,0,.39,1.33s-1.85-.19-1.87-.93a3.38,3.38,0,0,0-.08-.73c-.05-.17-.17-1-.17-1S11.47,14,11.58,13.87Z"/><path class="cls-2" d="M7.74,14.93V25.77H1.86l-.14-.06c0-5.82,3.6-6.25,3.6-6.25.36,0,.59-.46.74-1.17A1.72,1.72,0,0,0,6.12,18c0-.19.06-.4.09-.62l0-.4c.06-.67.07-1.39.07-2.08C6.31,14.85,7.1,14.93,7.74,14.93Z"/><path class="cls-3" d="M13.79,25.71l-.14.06H7.74V14.93h0c.64,0,1.44-.08,1.44-.08,0,.68,0,1.4.07,2.06,0,.13,0,.26,0,.39s0,.44.08.65h0a2.38,2.38,0,0,0,0,.26c.15.75.39,1.25.76,1.25C10.19,19.46,13.79,19.89,13.79,25.71Z"/><path class="cls-4" d="M9.38,18h0a1.89,1.89,0,0,1-1.63.89h0A2,2,0,0,1,6.12,18c0-.19.06-.4.09-.62l0-.4a6.89,6.89,0,0,0,1.49.19h0a6.06,6.06,0,0,0,1.52-.21c0,.13,0,.26,0,.39S9.35,17.74,9.38,18Z"/><path class="cls-5" d="M7.76,2.5c-6.23,0-6.26,5.22-6,8.64-.42-.81-1.69-.56-1.58.72S2.07,13.73,2,13.58C2.56,16.4,5.49,18,7.76,18h0V2.5Z"/><path class="cls-6" d="M.58,11.32a.59.59,0,0,1,.9-.17.5.5,0,0,1,.15.57c0,.16-.22.17-.17.42a.42.42,0,0,0,.24.36c.08.07.17.11.21.23a.57.57,0,0,1,0,.36c-.05.2-.34,0-.54-.05a3.91,3.91,0,0,1-.64-.53A1.13,1.13,0,0,1,.58,11.32Z"/><path class="cls-7" d="M7.79,2.5c6.23,0,6.26,5.22,6,8.64.43-.81,1.69-.56,1.59.72s-1.89,1.87-1.87,1.72C13,16.4,10.06,18,7.79,18h0V2.5Z"/><path class="cls-6" d="M15,11.32a.59.59,0,0,0-.9-.17.52.52,0,0,0-.15.57c.05.16.22.17.18.42a.44.44,0,0,1-.25.36c-.08.07-.17.11-.21.23a.57.57,0,0,0,0,.36c.05.2.34,0,.54-.05a3.53,3.53,0,0,0,.64-.53A1.13,1.13,0,0,0,15,11.32Z"/><path class="cls-2" d="M7.71,4A5.3,5.3,0,0,0,3.25,5.75C2,7.39,2,9.9,2.5,11.7c.14.56.21,2,.31,2.59C3.25,16.72,5.94,18,7.71,18h0V4Z"/><path class="cls-3" d="M12.15,5.75A5.26,5.26,0,0,0,7.75,4V18c2,0,4.44-1.44,4.85-3.73.1-.55.17-2,.31-2.59C13.38,9.91,13.43,7.4,12.15,5.75Z"/><path class="cls-1" d="M14.57,7.58a1.48,1.48,0,0,0-.14-.25,10.41,10.41,0,0,0-1.36-3.57,6.11,6.11,0,0,0-4.23-2A5.7,5.7,0,0,0,5.05,2.94a2.12,2.12,0,0,0-.58-.6,2.38,2.38,0,0,0-1,0,1.82,1.82,0,0,1,.62.29.55.55,0,0,1,.11.5,3.89,3.89,0,0,0-.88-.27c-.49,0-1,.61-1,.61a1.71,1.71,0,0,1,.9-.31,2.29,2.29,0,0,1,.54.19S3,3.45,1.61,4.93a4.26,4.26,0,0,0-1,2.61l.86-.49a2.33,2.33,0,0,0-.33.53,4.09,4.09,0,0,0,.23,3.16s.29,0,.54.63a11.9,11.9,0,0,1,.57,1.84h.3a9.45,9.45,0,0,1-.21-3.92c.12-.38.45-1.16.9-1.18a1.73,1.73,0,0,0,.44-.79,3.27,3.27,0,0,1,1.2-1.56.51.51,0,0,1,.59.08,4,4,0,0,1,1.66-.65C8.4,5,9,6.14,9.22,6.75a1.27,1.27,0,0,1,.11.9,2.88,2.88,0,0,0,.41-1.48,1.78,1.78,0,0,0-.13-.56c.14.07.75.24.88,1.82a1.59,1.59,0,0,1-.62,1.26,2.25,2.25,0,0,0,1.19-2.55,3.43,3.43,0,0,1,.74,1.18,16.63,16.63,0,0,0,1.33,2,9.45,9.45,0,0,1-.21,3.92h.31a11.32,11.32,0,0,1,.56-1.84c.26-.6.54-.63.54-.63A4.07,4.07,0,0,0,14.57,7.58ZM9.46,5.32s0,0,0,0l0,0Z"/><path class="cls-8" d="M15.4,8.87a19.12,19.12,0,0,0-2.33-5.11,3.06,3.06,0,0,0-.52-.57.6.6,0,0,0,.17-.31c0-.33.19-1-.27-.76s.09.34-.16.71C12,2.46,11.17,1.7,8.44.68,4.52-.78,3.5.47,2.2,1.12S.85,2.42,1,2.84a13.67,13.67,0,0,0,.6,2.09c.27.35,1.46-.13,3.78,1.92s7.09,3,8.49,5,2.06,1.28,2.06,1.28.16-.38.32-.81S16,11.14,15.4,8.87Z"/><path class="cls-9" d="M13.84,25.71l-.15.06H1.87l-.15-.06V25.2c0-.38.05-.74.1-1.07s.08-.54.14-.79S2,23.12,2,23s.08-.28.13-.42l.12-.32a6.27,6.27,0,0,1,.4-.82,4.18,4.18,0,0,1,.87-1.07,3.62,3.62,0,0,1,.73-.53h0a2.82,2.82,0,0,0,.48.54c.28.28.69.64,1.2,1.07l.11.09a2.48,2.48,0,0,0,3.35,0l.11-.09c.52-.43.92-.79,1.2-1.07a3.59,3.59,0,0,0,.49-.54h0a3.92,3.92,0,0,1,.73.53,4.64,4.64,0,0,1,.87,1.07,5.2,5.2,0,0,1,.39.82,3,3,0,0,1,.12.32c0,.14.09.27.13.42s.06.22.08.33a5.88,5.88,0,0,1,.14.79c0,.33.08.69.1,1.07C13.83,25.36,13.84,25.54,13.84,25.71Z"/><path class="cls-8" d="M6,23.66a.61.61,0,1,1-1.22,0,.61.61,0,0,1,1.22,0Z"/><path class="cls-10" d="M7.38,24.29a.33.33,0,1,1-.65,0,.33.33,0,0,1,.65,0Z"/><path class="cls-11" d="M10.61,24.6a.77.77,0,0,1-.77.76.76.76,0,0,1-.76-.76.77.77,0,0,1,.76-.77A.78.78,0,0,1,10.61,24.6Z"/><path class="cls-10" d="M12.41,24.6a.22.22,0,0,1-.22.22.22.22,0,0,1,0-.44A.22.22,0,0,1,12.41,24.6Z"/><path class="cls-12" d="M11.52,22.1a.24.24,0,1,1-.47,0,.24.24,0,1,1,.47,0Z"/><path class="cls-10" d="M4.52,21.72a.3.3,0,0,1-.3.31.31.31,0,0,1-.31-.31.3.3,0,0,1,.31-.3A.29.29,0,0,1,4.52,21.72Z"/><path class="cls-10" d="M3.57,24.28a.41.41,0,0,1-.81,0,.41.41,0,1,1,.81,0Z"/></g></g></g></g></svg>