<svg xmlns="http://www.w3.org/2000/svg" viewBox="0 0 15.88 24.74"><defs><style>.cls-1{fill:#e1bf9c;}.cls-2{fill:#f2d1ac;}.cls-3,.cls-5{fill:#c09a80;}.cls-3{opacity:0.7;}.cls-4{fill:#d3a789;}.cls-6{fill:#e0b89b;}.cls-7{fill:#c6696e;}.cls-8{fill:#d87373;}.cls-9{fill:#fff;}.cls-10{fill:#965458;}.cls-11{fill:#5c4c52;}</style></defs><g id="Layer_2" data-name="Layer 2"><g id="avatars"><g id="row-01"><g id="avatar-01-15"><path class="cls-1" d="M7.93,13.26V24.74H1.69l-.15-.07a9.56,9.56,0,0,1,.71-3.92,4.65,4.65,0,0,1,2.44-2.5,2.72,2.72,0,0,1,.67-.19h0l.08,0c.31-.09.53-.55.67-1.22,0-.11.05-.23.07-.35s.06-.44.08-.67,0-.28,0-.42c.06-.71.08-1.48.08-2.2C6.41,13.18,7.25,13.26,7.93,13.26Z"/><path class="cls-2" d="M14.34,24.67l-.15.07H7.93V13.26h0c.68,0,1.52-.08,1.52-.08,0,.72,0,1.48.08,2.18l0,.41c0,.24.06.47.09.68h0c0,.1,0,.18.05.27.13.65.32,1.12.6,1.27l.07,0a.32.32,0,0,0,.14,0,4.25,4.25,0,0,1,3,2.57A9.22,9.22,0,0,1,14.34,24.67Z"/><path class="cls-3" d="M9.66,16.46h0a2,2,0,0,1-1.73.94h0a2.16,2.16,0,0,1-1.72-.94c0-.2.06-.43.08-.66s0-.28,0-.42a7.11,7.11,0,0,0,1.58.2h0a6.88,6.88,0,0,0,1.61-.22l0,.41Q9.61,16.13,9.66,16.46Z"/><path class="cls-4" d="M7.92.93C1.41.92,1.37,6.15,1.66,9.56c-.44-.8-1.76-.5-1.65.78S2,12.13,2,12c.53,2.78,3.6,4.32,6,4.54H8V.94Z"/><path class="cls-5" d="M.33,9.8a.65.65,0,0,1,1-.17.5.5,0,0,1,.15.57c0,.16-.23.17-.18.43s.18.29.26.36.18.11.22.23a.54.54,0,0,1,0,.35c-.05.21-.36,0-.57,0A4.17,4.17,0,0,1,.52,11,1.08,1.08,0,0,1,.33,9.8Z"/><path class="cls-6" d="M8,.93c6.51,0,6.55,5.22,6.26,8.63.45-.8,1.77-.5,1.66.78s-2,1.79-1.94,1.65c-.54,2.78-3.6,4.32-6,4.54h0V.94Z"/><path class="cls-5" d="M15.59,9.8a.65.65,0,0,0-1-.17.5.5,0,0,0-.15.57c0,.16.23.17.18.43s-.18.29-.26.36a.5.5,0,0,0-.25.58c0,.21.36,0,.57,0A3.78,3.78,0,0,0,15.4,11,1.08,1.08,0,0,0,15.59,9.8Z"/><path class="cls-1" d="M7.89,2.42C5.71,2.42,4.12,3,3.16,4.2c-1.35,1.65-1.29,4.17-.8,6,.15.55.23,2,.34,2.59.46,2.45,3.31,3.76,5.19,3.76h.05V2.42Z"/><path class="cls-2" d="M12.61,4.2c-1-1.17-2.53-1.77-4.67-1.78V16.53c2.14,0,4.7-1.45,5.14-3.75.1-.55.18-2,.33-2.59C13.91,8.38,14,5.86,12.61,4.2Z"/><path class="cls-7" d="M9,14.32a1.73,1.73,0,0,1-1.1.53,1.61,1.61,0,0,1-1.06-.52,6.87,6.87,0,0,1,1.06-.08A8.67,8.67,0,0,1,9,14.32Z"/><path class="cls-8" d="M8.25,14.08a.3.3,0,0,0-.32.24c0-.13-.13-.24-.31-.24a4.35,4.35,0,0,0-.78.24s.6.06.77.06.32.07.32-.06c0,.13.13.08.3.08s.8-.08.8-.08A4.35,4.35,0,0,0,8.25,14.08Z"/><path class="cls-9" d="M12.76,18.73A4.13,4.13,0,0,0,11,18.19c.54.77.34,1.41.25,2.51-.14,1.7-1.25-1-3.31-1.06S4.74,22.4,4.6,20.7c-.09-1.1-.29-1.74.26-2.51a4.12,4.12,0,0,0-1.79.54,8.62,8.62,0,0,0-1.52.95,1.53,1.53,0,0,1,.88,1,8,8,0,0,1,.26,1.73c.09,1.31.75,1.9.71,2.35h9c0-.45.62-1,.71-2.35a8.71,8.71,0,0,1,.26-1.73,1.53,1.53,0,0,1,.88-1A8.62,8.62,0,0,0,12.76,18.73Z"/><path class="cls-10" d="M6,16.9A5.7,5.7,0,0,0,8,17.28a15.71,15.71,0,0,0,2-.28s.55.64.09.91-3.37.65-4.3-.05C5.57,17.75,6,16.9,6,16.9Z"/><path class="cls-11" d="M12.06,4.71c-.5.9-.36,1.91-2.08,2.58S7.5,8.14,5.63,8.94C1.39,10.76,3.56,15,3.56,15A7.17,7.17,0,0,1,2,12.77c-.42-1.13-2-6.06,0-9.95C3.1.68,5.18.19,7,.05s3.13,0,4.45,1.16c.29.26,1.11.31,2,.93,2,1.37,1.86,3.4,1.95,4.69a9.49,9.49,0,0,1-.53,4,33.87,33.87,0,0,1-2.78,4.47S14,11.19,13,8.54C12.34,7,11.26,7.07,11.22,6.47S12.06,4.71,12.06,4.71Z"/></g></g></g></g></svg>