<svg xmlns="http://www.w3.org/2000/svg" xmlns:xlink="http://www.w3.org/1999/xlink" viewBox="0 0 15.66 25.33"><defs><style>.cls-1{fill:none;}.cls-2{fill:#e2bf9c;}.cls-3{fill:#f2d1ac;}.cls-4{clip-path:url(#clip-path);}.cls-5{fill:#c09a80;}.cls-6{fill:#d3a789;}.cls-7{fill:#e0b89b;}.cls-8{fill:#e2e2e2;}.cls-9{fill:#607298;}.cls-10{fill:#101212;}.cls-11{fill:#f9f9fa;}.cls-12{fill:#191919;}</style><clipPath id="clip-path"><rect class="cls-1" x="6.21" y="16.21" width="3.36" height="1.98"/></clipPath></defs><g id="Layer_2" data-name="Layer 2"><g id="avatars"><g id="row-02"><g id="avatar-02-12"><path class="cls-2" d="M7.88,14.17V25.32H1.82l-.15-.06c0-6,3.71-6.43,3.71-6.43.37,0,.61-.47.77-1.19l.06-.35a6.37,6.37,0,0,0,.09-.65c0-.14,0-.27,0-.41,0-.69.07-1.43.07-2.14,0,0,.81.08,1.47.08"/><path class="cls-3" d="M14.11,25.26l-.14.06H7.88V14.17h0c.66,0,1.48-.08,1.48-.08,0,.71,0,1.44.08,2.12l0,.41q0,.35.09.66h0a2.16,2.16,0,0,0,0,.27c.15.76.4,1.28.78,1.28,0,0,3.71.45,3.71,6.43"/><g class="cls-4"><path class="cls-5" d="M9.57,17.28h0a2,2,0,0,1-1.68.92h0a2.16,2.16,0,0,1-1.67-.91,6.37,6.37,0,0,0,.09-.65c0-.13,0-.27,0-.41a6.65,6.65,0,0,0,1.52.2h0a6.54,6.54,0,0,0,1.57-.22l0,.41q0,.35.09.66"/></g><path class="cls-6" d="M7.81,1.39c-6.42,0-6.45,5.38-6.17,8.89C1.2,9.45-.1,9.71,0,11S2,12.94,1.93,12.79c.52,2.9,3.54,4.57,5.88,4.57h.05v-16H7.81"/><path class="cls-5" d="M.42,10.47a.6.6,0,0,1,.92-.18.54.54,0,0,1,.16.58c-.05.17-.23.18-.18.44a.43.43,0,0,0,.25.37.64.64,0,0,1,.22.24.75.75,0,0,1,0,.36c-.05.21-.35,0-.56,0a4.11,4.11,0,0,1-.66-.54,1.13,1.13,0,0,1-.18-1.22"/><path class="cls-7" d="M7.85,1.39c6.42,0,6.45,5.38,6.17,8.89.44-.83,1.74-.57,1.63.74s-1.94,1.92-1.91,1.77c-.53,2.9-3.55,4.57-5.89,4.57h0v-16h0"/><path class="cls-5" d="M15.24,10.47a.6.6,0,0,0-.92-.18.52.52,0,0,0-.15.58c0,.17.22.18.17.44a.43.43,0,0,1-.25.37.64.64,0,0,0-.22.24.75.75,0,0,0,0,.36c.05.21.35,0,.56,0a4.11,4.11,0,0,0,.66-.54,1.13,1.13,0,0,0,.18-1.22"/><path class="cls-2" d="M7.84,2.91c-2.11,0-3.66.61-4.59,1.82C1.94,6.42,2,9,2.47,10.86c.15.57.23,2.09.33,2.66.46,2.5,3.22,3.84,5,3.84h0V2.91h0"/><path class="cls-3" d="M12.43,4.73A5.45,5.45,0,0,0,7.89,2.91V17.36c2.08,0,4.57-1.49,5-3.84.1-.57.17-2.09.32-2.66.48-1.85.53-4.43-.78-6.13"/><path class="cls-8" d="M10.76,20.33a24.08,24.08,0,0,1-1.87,5h-2a24.08,24.08,0,0,1-1.88-5A3.28,3.28,0,0,1,5.33,19a4.1,4.1,0,0,1,.58-.84s0,0,0,0H6l1.9,1.34,1.9-1.34h.06l0,.05a4.51,4.51,0,0,1,.44.59,2.26,2.26,0,0,1,.11.22,3.22,3.22,0,0,1,.32,1.38"/><path class="cls-9" d="M6.87,25.31A2.24,2.24,0,0,1,6.74,25l0,0c-.08-.18-.17-.36-.25-.53L6.26,24c-.25-.55-.47-1.06-.6-1.42a7.57,7.57,0,0,1-.37-1.36.55.55,0,0,1,0-.17s0,0,0,0l0-.16s0-.05,0-.08a5.62,5.62,0,0,1,0-1.88s0,0,0-.06c-.7.17-3.55,1.15-3.55,6.4l.14.07H6.87Z"/><path class="cls-9" d="M8.92,25.31,9.05,25l0,0c.08-.18.17-.36.25-.53s.14-.3.2-.45c.26-.55.48-1.06.61-1.42a8.5,8.5,0,0,0,.37-1.36l0-.17s0,0,0,0l0-.16a.25.25,0,0,1,0-.08,5.35,5.35,0,0,0,0-1.88s0,0,0-.06c.7.17,3.55,1.15,3.55,6.4l-.14.07H8.91Z"/><path class="cls-10" d="M7.18,25.33H6.12L6,25.17A10.64,10.64,0,0,1,3.5,20.71l.89-.44-.55-.41a8.93,8.93,0,0,1,.6-.67,2.93,2.93,0,0,1,.44-.36,4.63,4.63,0,0,1,.7-.42s-.25.36-.19,1.91c0,.11,0,.21,0,.31a.64.64,0,0,0,0,.07.77.77,0,0,0,0,.15s0,0,0,0a.77.77,0,0,0,0,.15,14.6,14.6,0,0,0,.89,2.57c.07.14.13.28.19.41s.16.34.23.5.09.18.13.27.1.2.15.3a2.56,2.56,0,0,0,.11.24"/><path class="cls-10" d="M12.29,20.71A10.64,10.64,0,0,1,9.8,25.17l-.14.16h-1c.28-.57.61-1.24.9-1.93a.25.25,0,0,0,0-.07h0a12.19,12.19,0,0,0,.78-2.41.09.09,0,0,0,0-.05l0-.16a.13.13,0,0,1,0-.06c0-.11,0-.21,0-.32a7.49,7.49,0,0,0-.07-1.59.93.93,0,0,1,0-.13v0a.91.91,0,0,0-.08-.17,5.2,5.2,0,0,1,.7.42h0a3.55,3.55,0,0,1,.44.36c.38.4.59.67.59.67l-.55.41Z"/><path class="cls-11" d="M10.22,18.36c-.1-.23-.32-.46-.4-.64s-.26-.59-.26-.59a2.81,2.81,0,0,1-.91,1.62c-.6.48-.91.71-.68.76a12.33,12.33,0,0,1,1.49,1.74c.31.35.26.69.34.2a9.73,9.73,0,0,0,.37-1.6c0-.64.29-.86.05-1.49"/><path class="cls-11" d="M7.14,18.75a2.87,2.87,0,0,1-.91-1.62s-.13.27-.26.59-.3.41-.39.64c-.25.63,0,.85,0,1.49A10.87,10.87,0,0,0,6,21.45c.08.49,0,.15.34-.2a12.33,12.33,0,0,1,1.49-1.74c.23-.05-.08-.28-.68-.76"/><path class="cls-12" d="M14.63,5.63c-.08-.2-.17-.39-.26-.57l0-.13c0-.09,0-.21-.05-.36-.08-.88,0-1-.52-1.64a3.61,3.61,0,0,0-.33-.35A2.43,2.43,0,0,0,12.28.76a3.2,3.2,0,0,0-2.2-.37L9.69.21a3.26,3.26,0,0,0-2.31,0,2.92,2.92,0,0,0-1,.06,1.26,1.26,0,0,1,.93.24.69.69,0,0,1,.39.61A3.55,3.55,0,0,0,4.35.42C3,.72,3.42.84,3.91.84a3.79,3.79,0,0,1,1.83.45h0l-.22,0C4.57,1.13,2,.66.8,1.51a1.51,1.51,0,0,0-.65.8,1.9,1.9,0,0,1,2.07-.26,4.82,4.82,0,0,0-1,.88C.71,3.57.8,3.69.72,4.57S.54,5.06.42,6a4.52,4.52,0,0,0-.14,2c0,.22,0,.42.08.61.12.74.32,1.32.4,1.69.58,2.61,3.38,4.27,3.38,4.27s-.36-.72-.67-1.42a5.74,5.74,0,0,1-1-2.81C2.51,9,4.1,7.34,4.1,7.34a5.83,5.83,0,0,0-.88,2.23,3,3,0,0,0,.63,2.07A1.93,1.93,0,0,1,4.43,9,9.44,9.44,0,0,0,5.68,7.92h0a1.56,1.56,0,0,0,.4,1.64A1.76,1.76,0,0,1,6.88,8c2-.95,2.3-1.35,2.59-2.11,0-.1,0-.2.07-.29l1.82,2.21c.08.09.22.26.38.47a4.71,4.71,0,0,1,1.12,2.48,6.54,6.54,0,0,1-.61,2.84,5.65,5.65,0,0,1-1,1.39s2.8-1.65,3.38-4.27A7.48,7.48,0,0,0,14.63,5.63ZM9.24,1.5C9,1.17,8.34.36,7.69.26L7.5.24A1.7,1.7,0,0,1,8.81.55a1.18,1.18,0,0,1,.55,1Zm2.23.25A2.32,2.32,0,0,0,10.12.41a1.47,1.47,0,0,1,1.13.78,1.49,1.49,0,0,1,.24.57Z"/></g></g></g></g></svg>