<svg xmlns="http://www.w3.org/2000/svg" viewBox="0 0 15.93 25.23"><defs><style>.cls-1{fill:#fef5f0;}.cls-2{fill:#e1bf9c;}.cls-3{fill:#f2d1ac;}.cls-4,.cls-6{fill:#c09a80;}.cls-4{opacity:0.7;}.cls-5{fill:#d3a789;}.cls-7{fill:#e0b89b;}.cls-8{fill:#101010;}.cls-9{fill:#0f0f0f;}.cls-10{fill:#f8ad3a;}</style></defs><g id="Layer_2" data-name="Layer 2"><g id="avatars"><g id="row-02"><g id="avatar-02-04"><path class="cls-1" d="M4.39,12.79c-.12-.09-2.33-1.45-2.33-1.45.15.85.27,1.2,0,1.77a2,2,0,0,1-.79.9,1.59,1.59,0,0,1-.79.32l-.32,0a2.58,2.58,0,0,0,1.23.15,1.46,1.46,0,0,0,.75-.21A1.11,1.11,0,0,0,2,15.3c.66,1.36-.22,1.81-.22,1.81A2.54,2.54,0,0,0,3,16.63a0,0,0,0,0,0,0,1,1,0,0,0,.72.76s-.33-.06-.27-.69c0-.17.19-.23.41-.35.09.61.36,1.24-.21,1.49,0,0,1-.19,1.14-.76a1.77,1.77,0,0,0,.06-.3A.75.75,0,0,1,5,17a2,2,0,0,1-.42,1.43s2-.21,2-1a4,4,0,0,1,.09-.79c.06-.18.18-1.09.18-1.09S4.51,12.89,4.39,12.79Z"/><path class="cls-1" d="M11.42,12.79c.12-.09,2.32-1.45,2.32-1.45a2.9,2.9,0,0,0,0,1.77,2.06,2.06,0,0,0,.79.9,1.65,1.65,0,0,0,.8.32l.32,0a2.58,2.58,0,0,1-1.23.15,1.5,1.5,0,0,1-.76-.21,1.09,1.09,0,0,1,.16,1.05c-.67,1.36.22,1.81.22,1.81a2.56,2.56,0,0,1-1.24-.48v0a1,1,0,0,1-.73.76s.34-.06.27-.69c0-.17-.19-.23-.41-.35-.08.61-.36,1.24.21,1.49,0,0-1-.19-1.13-.76a1.84,1.84,0,0,1-.07-.3c0,.05,0,.1,0,.16a2,2,0,0,0,.41,1.43s-2-.21-2-1a4.9,4.9,0,0,0-.09-.79C9.12,16.43,9,15.52,9,15.52S11.29,12.89,11.42,12.79Z"/><path class="cls-2" d="M7.72,14.16V25.23h-6l-.15-.06c0-5.94,3.68-6.38,3.68-6.38a.48.48,0,0,0,.38-.22,2.71,2.71,0,0,0,.38-1l.06-.35c0-.2.06-.42.08-.64s0-.27,0-.41c.06-.68.07-1.42.07-2.12C6.26,14.08,7.07,14.16,7.72,14.16Z"/><path class="cls-3" d="M13.9,25.17l-.15.06h-6V14.16h0c.65,0,1.46-.08,1.46-.08,0,.7,0,1.43.07,2.1,0,.14,0,.27,0,.4s0,.46.09.66h0c0,.09,0,.17,0,.26A1.94,1.94,0,0,0,10,18.72a.36.36,0,0,0,.22.07S13.9,19.23,13.9,25.17Z"/><path class="cls-4" d="M9.4,17.24h0a2,2,0,0,1-1.67.91h0a2.08,2.08,0,0,1-1.65-.91c0-.2.06-.42.08-.64s0-.27,0-.41a6.57,6.57,0,0,0,1.52.2h0a6.31,6.31,0,0,0,1.55-.21c0,.13,0,.27,0,.4S9.36,17,9.4,17.24Z"/><path class="cls-5" d="M7.74,1.47c-6.36,0-6.4,5.33-6.11,8.83C1.19,9.47-.1,9.72,0,11s1.92,1.9,1.9,1.76c.52,2.87,3.51,4.53,5.83,4.53h0V1.47Z"/><path class="cls-6" d="M.41,10.48a.6.6,0,0,1,.92-.18.52.52,0,0,1,.15.58c0,.17-.22.18-.18.43a.47.47,0,0,0,.26.38.59.59,0,0,1,.21.23.57.57,0,0,1,0,.36c-.05.21-.35,0-.55,0a4.11,4.11,0,0,1-.66-.54A1.15,1.15,0,0,1,.41,10.48Z"/><path class="cls-7" d="M7.77,1.47c6.37,0,6.4,5.33,6.12,8.83.43-.83,1.73-.58,1.62.73s-1.93,1.9-1.9,1.76c-.52,2.87-3.52,4.53-5.84,4.53h0V1.47Z"/><path class="cls-6" d="M15.1,10.48a.6.6,0,0,0-.92-.18.55.55,0,0,0-.15.58c.05.17.23.18.18.43a.47.47,0,0,1-.25.38.55.55,0,0,0-.22.23.64.64,0,0,0,0,.36c0,.21.34,0,.54,0a3.39,3.39,0,0,0,.66-.54A1.13,1.13,0,0,0,15.1,10.48Z"/><path class="cls-2" d="M7.69,3A5.43,5.43,0,0,0,3.13,4.78C1.84,6.46,1.89,9,2.37,10.87c.14.56.22,2.08.32,2.64.45,2.49,3.19,3.81,5,3.81h0V3Z"/><path class="cls-3" d="M12.23,4.79A5.37,5.37,0,0,0,7.74,3V17.32c2.06,0,4.52-1.48,4.94-3.81.1-.56.18-2.08.33-2.64C13.48,9,13.53,6.47,12.23,4.79Z"/><path class="cls-8" d="M5.76,17.83a8.51,8.51,0,0,0-.27.88,3.14,3.14,0,0,0,2.23.75s-.11-1.1-.31-1.16Z"/><path class="cls-8" d="M9.68,17.83a8.73,8.73,0,0,1,.28.88,3.16,3.16,0,0,1-2.24.75s.12-1.1.32-1.16Z"/><path class="cls-9" d="M13.9,25.17l-.15.06h-12l-.15-.06c0-5.94,3.68-6.38,3.68-6.38a.48.48,0,0,0,.38-.22,8.33,8.33,0,0,1,1.42-.12l.59,1,.08,0c.31-.14,1.32-.79,1.43-.79.29,0,.44,0,.71,0a1,1,0,0,0,.36.15S13.9,19.23,13.9,25.17Z"/><path class="cls-1" d="M2.33,11.35c-.12,0,0-.64-.39-1.08a6.13,6.13,0,0,1-1-3.41A5.78,5.78,0,0,1,2.81,2.65,9.67,9.67,0,0,1,6.18.57l-.93.84A4.58,4.58,0,0,1,7.53.18,3.23,3.23,0,0,1,9.85.23S8.92.2,8.64.6a1.6,1.6,0,0,1-.33.26s.43-1,2.43-.17,2,2.24,3.36,2.68,1.83-.12,1.83-.12a2.21,2.21,0,0,1-1.71,1c-.21,0-.2,0-.2,0a9.34,9.34,0,0,1,.49,1.9c.08.83-.17,1.4-.24,2.95-.07,1.33-.43.65-.86,1.63a1.92,1.92,0,0,0-.15.7c-.16,0-.58-.8-.28-2.25.19-.94-.77-4.51-3.11-3.82C8.45,5.8,8.09,6.67,7,5.9a3.11,3.11,0,0,0-3.17-.52c-1,.52-1.5,1.7-1.33,3.59C2.73,11.37,2.33,11.35,2.33,11.35Z"/><path class="cls-10" d="M12.83,25.18l-.12.05H2.89l-.12-.05c0-.14,0-.29,0-.43a7.77,7.77,0,0,1,.08-.88A6,6,0,0,1,3,23.21,2.61,2.61,0,0,1,3,22.94c0-.12.07-.24.11-.35s.06-.18.1-.27a4.65,4.65,0,0,1,.33-.67A3.67,3.67,0,0,1,4.9,20.32h0a2.87,2.87,0,0,0,.4.45c.24.23.57.53,1,.89l.09.07a2.06,2.06,0,0,0,2.78,0l.09-.07c.43-.36.76-.66,1-.89a2.87,2.87,0,0,0,.4-.45h0a3.15,3.15,0,0,1,.6.44,3.53,3.53,0,0,1,.72.89,4.65,4.65,0,0,1,.33.67l.1.27c0,.11.07.23.11.35l.06.27a6,6,0,0,1,.12.66,7.77,7.77,0,0,1,.08.88C12.82,24.89,12.83,25,12.83,25.18Z"/></g></g></g></g></svg>