<svg xmlns="http://www.w3.org/2000/svg" xmlns:xlink="http://www.w3.org/1999/xlink" viewBox="0 0 17.85 25.59"><defs><style>.cls-1{fill:none;}.cls-2{fill:#050606;}.cls-3{fill:#e2bf9c;}.cls-4{fill:#f2d1ac;}.cls-5{clip-path:url(#clip-path);}.cls-6{fill:#c09a80;}.cls-7{fill:#d3a789;}.cls-8{fill:#e0b89b;}.cls-9{fill:#867096;}.cls-10{fill:#2d3518;}.cls-11{fill:#381e14;}.cls-12{fill:#f8fbf5;}.cls-13{fill:#f6f0d7;}</style><clipPath id="clip-path"><rect class="cls-1" x="7.35" y="16.87" width="3.21" height="1.9"/></clipPath></defs><g id="Layer_2" data-name="Layer 2"><g id="avatars"><g id="row-01"><g id="avatar-01-24"><path class="cls-2" d="M17.85,10.36c0-.3-1-.3-.58-1S17.58,8.83,17,8s0-.47,0-.83,0-.52,0-.94.26-.31.1-.48a2.67,2.67,0,0,0-1-.65c-.31-.06-.12-.16-.15-.48s0-.39.31-.68,0-.56-.29-.44-.73.39-.85.34-.09-.67-.19-.81-.23-.1-.33-.32,0-.42.16-.69.4-.42.28-.79-.81.19-1.39.44a1.38,1.38,0,0,1-.79.08c.07-.15.1-.33.16-.44.13-.27.08-.37,0-.48s-.35.11-.54.32-.3.15-.56.2l-.06-.07c-.23-.37.12-.19.58-.82s-.17-.37-.78-.22-.43.65-1,.79a4.64,4.64,0,0,1-.82.13c-.42.07-.45,0-.59-.24S9.46.59,9.28.09c-.09-.24-.36,0-.83.76a.58.58,0,0,1-.22.24A.53.53,0,0,1,8.12.84C8,.37,8,.31,7.84.21s-.3,0-.35,0-.16.26-.16.26c0,.24,0,.48,0,.67L7,1.1c-.69-.05-.43-.62-.74-.88S4.92.87,4.69.8,4.37.36,3.75.73s0,.54,0,.75-.37,0-.47-.16-.79-.2-.62.05,0,.33-.34.53.19.45.49,1-.27.2-.49.55c-.79,1.22-1.2.47-1.43.64S.63,5,1,5.39s.23.24.22.51c-.07,1-1.71,1-1.13,1.25,1.26.52.49.64.54.93S0,8.33.15,8.59,1,9.81.28,9.69.73,11,.82,11a1.15,1.15,0,0,1,.28.65c-.05.09.12.13.23.42s-.74.42-.65,1c0,.29.57.24.85.6s-.25.53.24.6.27.16.37.29-.32.27-.28.35.46.11.33.3-.75.5-.18.51.21.16.25.3,1.24.16.7.56.1.14.69.08.05.2.06.29,0,.29.52.46.12.1,0,.29.25.53.59.21.47-.16.49.13.07.15-.31.38.28.43.4.36c.58-.32.64-.58.85-.47s.07.23,0,.39-.5.32-.26.42a.7.7,0,0,0,.66,0c.26-.1.51,0,.65-.34,0-.13.15.13.21.33s.19.34.45.21a13.41,13.41,0,0,1,2.64-.54c.14,0,.43.54,1.07.27.28-.11,0-.39,0-.5s.14-.37.62-.41.17.24.49.39c.54.25.4-.62.31-.73s-.06-.13,0-.31a1.91,1.91,0,0,1,.46.31c.07.11.23.24.36,0s.1-.15,0-.42.27-.5.59-.53.06.25.73,0c.4-.16.27-.24.26-.38s-.09-.14-.14-.32h0a.48.48,0,0,0,.51-.46.33.33,0,0,0,0-.17h.05c.31,0,.81-.07.6-.46a1.52,1.52,0,0,1-.17-.46c.22,0,.4-.12.4-.26a.19.19,0,0,0-.09-.15c.16,0,.27-.16.27-.28s-.16-.53-.06-.65.77-.05.78-.26c0-.46-.44-.68-.58-.91a1.22,1.22,0,0,1,.14-1c.21-.41.65-.26.68-.7"/><path class="cls-3" d="M8.94,14.92V25.59H3.15L3,25.52c0-5.72,3.55-6.14,3.55-6.14.36,0,.58-.46.74-1.15,0-.11,0-.21.06-.33s.06-.4.08-.62l0-.39c.06-.66.07-1.37.07-2,0,0,.78.07,1.41.07"/><path class="cls-4" d="M14.9,25.52l-.14.07H8.94V14.92H9c.63,0,1.41-.07,1.41-.07,0,.67,0,1.37.07,2,0,.13,0,.26,0,.39s0,.43.08.63h0c0,.09,0,.17,0,.26.15.73.39,1.23.76,1.23,0,0,3.54.42,3.54,6.14"/><g class="cls-5"><path class="cls-6" d="M10.56,17.89h0A1.89,1.89,0,0,1,9,18.77h0a2,2,0,0,1-1.59-.87c0-.2.06-.4.08-.62l0-.39a6.79,6.79,0,0,0,1.47.19h0a5.9,5.9,0,0,0,1.5-.21c0,.13,0,.26,0,.39s0,.43.08.63"/></g><path class="cls-7" d="M9,2.69c-6.14,0-6.17,5.14-5.9,8.51-.42-.8-1.67-.55-1.57.7s1.86,1.84,1.84,1.7C3.83,16.37,6.72,18,9,18H9V2.69H9"/><path class="cls-6" d="M1.89,11.37a.58.58,0,0,1,.88-.17.53.53,0,0,1,.15.56c0,.16-.22.17-.17.42a.42.42,0,0,0,.24.35.78.78,0,0,1,.21.23.6.6,0,0,1,0,.35c0,.2-.33,0-.52,0a3.47,3.47,0,0,1-.64-.52,1.08,1.08,0,0,1-.17-1.17"/><path class="cls-8" d="M9,2.69c6.14,0,6.17,5.14,5.9,8.51.43-.8,1.67-.55,1.57.7s-1.86,1.84-1.84,1.7C14.12,16.37,11.23,18,9,18H8.94V2.69H9"/><path class="cls-6" d="M16.07,11.37a.59.59,0,0,0-.89-.17.51.51,0,0,0-.14.56c0,.16.21.17.17.42a.44.44,0,0,1-.25.35.78.78,0,0,0-.21.23.6.6,0,0,0,0,.35c0,.2.33,0,.53,0a3.78,3.78,0,0,0,.63-.52,1.1,1.1,0,0,0,.18-1.17"/><path class="cls-3" d="M9,4.14a5.25,5.25,0,0,0-4.4,1.75C3.3,7.5,3.35,10,3.81,11.75c.14.54.21,2,.31,2.54C4.56,16.69,7.2,18,9,18H9V4.14H9"/><path class="cls-4" d="M13.33,5.89A5.21,5.21,0,0,0,9,4.14V18c2,0,4.37-1.42,4.78-3.67.1-.54.17-2,.31-2.54.46-1.77.5-4.24-.75-5.86"/><path class="cls-9" d="M11.7,22.75a11,11,0,0,1-1.79,2.84H8a10.86,10.86,0,0,1-1.79-2.84,20.94,20.94,0,0,1,.18-3.29h0L9,22.24l2.41-2.86.29.25s-.29,2.3-.26,2.34a1.28,1.28,0,0,1,.31.78"/><path class="cls-10" d="M8,25.58H3.15L3,25.52c0-.31,0-.61,0-.89s.07-.74.13-1.07a8.84,8.84,0,0,1,.26-1.07c0-.06,0-.13.08-.19a5.41,5.41,0,0,1,.39-.87,4.57,4.57,0,0,1,.67-.91l.15-.16a3.71,3.71,0,0,1,1.69-.95l0,.05a5.16,5.16,0,0,0,0,1.8.22.22,0,0,0,0,.08c0,.05,0,.1,0,.15a.06.06,0,0,0,0,0l0,.16A7.14,7.14,0,0,0,6.82,23c.12.34.33.83.58,1.36l.12.28a1,1,0,0,1,.07.15c.06.12.13.25.19.39a.61.61,0,0,1,0,.12l0,0,.12.25H8"/><path class="cls-11" d="M3.51,24.63v.95H3.15L3,25.52c0-.31,0-.61,0-.89Z"/><rect class="cls-11" x="4.57" y="22.5" width="1.07" height="1.07"/><rect class="cls-11" x="4.57" y="24.63" width="1.07" height="0.95"/><rect class="cls-11" x="6.71" y="24.63" width="1.07" height="0.95"/><rect class="cls-11" x="5.64" y="23.56" width="1.07" height="1.07"/><rect class="cls-11" x="3.51" y="23.56" width="1.07" height="1.07"/><path class="cls-11" d="M3.51,22.49v1.07H3.17a8.84,8.84,0,0,1,.26-1.07Z"/><path class="cls-11" d="M4.57,21.43v1.06H3.51V22.3a5.41,5.41,0,0,1,.39-.87Z"/><path class="cls-11" d="M5.64,20.36v1.07H4.57v-.91l.15-.16Z"/><path class="cls-12" d="M8.73,25.59H7.59l-.14-.15a9.91,9.91,0,0,1-2.7-4.26l1-.43-.59-.39a9.1,9.1,0,0,1,.65-.64,3.37,3.37,0,0,1,.47-.35A3.06,3.06,0,0,1,7,19.05s-.27.27-.21,1.75l0,.3a.13.13,0,0,1,0,.06l0,.15a0,0,0,0,0,0,0l0,.15a12.42,12.42,0,0,0,1,2.46c.07.13.14.26.2.39l.25.48a2.15,2.15,0,0,1,.14.26l.16.28.12.23"/><path class="cls-10" d="M9.93,25.58h4.83l.14-.06c0-.31,0-.61,0-.89a8.47,8.47,0,0,0-.13-1.07,8.84,8.84,0,0,0-.26-1.07c0-.06-.05-.13-.08-.19a6.46,6.46,0,0,0-.39-.87,4.57,4.57,0,0,0-.67-.91l-.15-.16a3.71,3.71,0,0,0-1.69-.95l0,.05a5.16,5.16,0,0,1,0,1.8.22.22,0,0,1,0,.08c0,.05,0,.1,0,.15a.06.06,0,0,1,0,0l0,.16a7.14,7.14,0,0,1-.36,1.3c-.12.34-.33.83-.58,1.36l-.12.28a1,1,0,0,0-.07.15c-.06.12-.13.25-.19.39a.61.61,0,0,1-.05.12l0,0-.12.25h0"/><path class="cls-11" d="M14.4,24.63v.95h.36l.14-.06c0-.31,0-.61,0-.89Z"/><rect class="cls-11" x="12.27" y="22.5" width="1.07" height="1.07"/><rect class="cls-11" x="12.27" y="24.63" width="1.07" height="0.95"/><rect class="cls-11" x="10.13" y="24.63" width="1.07" height="0.95"/><rect class="cls-11" x="11.2" y="23.56" width="1.07" height="1.07"/><rect class="cls-11" x="13.34" y="23.56" width="1.07" height="1.07"/><path class="cls-11" d="M14.4,22.49v1.07h.34a8.84,8.84,0,0,0-.26-1.07Z"/><path class="cls-11" d="M13.34,21.43v1.06H14.4V22.3a6.46,6.46,0,0,0-.39-.87Z"/><path class="cls-11" d="M12.27,20.36v1.07h1.07v-.91l-.15-.16Z"/><path class="cls-12" d="M9.22,25.59h1.13l.14-.15a10,10,0,0,0,2.67-4.26l-.95-.43.58-.39s-.23-.26-.64-.64a2.86,2.86,0,0,0-.47-.35,2.22,2.22,0,0,0-.74-.27s.26.22.19,1.7c0,.1,0,.2,0,.3s0,0,0,.06a.77.77,0,0,1,0,.15,0,0,0,0,1,0,0,.8.8,0,0,1,0,.15A12.34,12.34,0,0,1,10.08,24l-.2.39-.25.48c-.05.08-.09.17-.14.26s-.1.19-.15.28l-.12.23"/><path class="cls-13" d="M14.57,5.39C14,4,12.81,3.45,10.93,2.62a3.75,3.75,0,0,0-2-.39,3.73,3.73,0,0,0-2,.39C5.1,3.45,3.91,4,3.34,5.39a14.2,14.2,0,0,0-.69,4.22,6.31,6.31,0,0,0,.12,1.32c.08.16.45.29.64.79s.27.41.27.41-.31-1.94-.31-2.48A6.71,6.71,0,0,1,6.06,6.43c1-.32,1.85.35,2.88.35H9c1,0,1.92-.67,2.88-.35a6.74,6.74,0,0,1,2.68,3.22c0,.54-.3,2.48-.3,2.48s.07.08.27-.41.56-.63.63-.79a5.61,5.61,0,0,0,.13-1.32,14.2,14.2,0,0,0-.69-4.22"/></g></g></g></g></svg>