<svg xmlns="http://www.w3.org/2000/svg" viewBox="0 0 16.14 25.47"><defs><style>.cls-1{fill:#e1bf9c;}.cls-2{fill:#f2d1ac;}.cls-3,.cls-6{fill:#c09a80;}.cls-3{opacity:0.7;}.cls-4{fill:#d3a789;}.cls-5{fill:#965458;}.cls-7{fill:#e0b89b;}.cls-8{fill:#191919;}.cls-9{fill:#fff;}</style></defs><g id="Layer_2" data-name="Layer 2"><g id="avatars"><g id="row-01"><g id="avatar-01-12"><path class="cls-1" d="M8,14.07v11.4H1.77l-.15-.07c0-6.11,3.79-6.57,3.79-6.57.38,0,.62-.48.78-1.22a3.29,3.29,0,0,0,.07-.36q0-.32.09-.66c0-.14,0-.28,0-.42,0-.57.06-1.18.06-1.77,0-.14,0-.27,0-.41S7.29,14.07,8,14.07Z"/><path class="cls-2" d="M14.33,25.4l-.14.07H8V14.07H8c.67,0,1.51-.08,1.51-.08v.47c0,.57,0,1.15.07,1.69,0,.14,0,.28,0,.42s.05.46.09.67h0a2.56,2.56,0,0,0,.05.27c.16.78.41,1.31.8,1.31C10.54,18.83,14.33,19.29,14.33,25.4Z"/><path class="cls-3" d="M9.69,17.24h0A2,2,0,0,1,8,18.18H8a2.15,2.15,0,0,1-1.71-.93c0-.2.06-.43.09-.66s0-.27,0-.42A6.92,6.92,0,0,0,8,16.38H8a6.16,6.16,0,0,0,1.59-.23c0,.14,0,.28,0,.42S9.66,17,9.69,17.24Z"/><path class="cls-4" d="M8,1C1.42,1,1.39,6.5,1.68,10.09,1.23,9.24-.1,9.51,0,10.85s2,2,2,1.81c.53,3,3.62,4.67,6,4.67H8V1Z"/><path class="cls-5" d="M14.33,25.4l-.14.07H1.77l-.15-.07c0-6,3.61-6.54,3.79-6.57h0c.29,0,.5-.27.65-.73a.7.7,0,0,0,.27.24A3.57,3.57,0,0,0,8,18.58a3.34,3.34,0,0,0,1.86-.39.41.41,0,0,0,.05-.09c.15.44.35.71.62.73h0S14.33,19.29,14.33,25.4Z"/><path class="cls-6" d="M.43,10.28a.61.61,0,0,1,.94-.18.55.55,0,0,1,.16.6c-.05.17-.23.18-.19.44a.44.44,0,0,0,.27.38c.07.07.17.12.22.25a.78.78,0,0,1,0,.37c-.05.21-.36,0-.57-.06a3.49,3.49,0,0,1-.68-.55A1.18,1.18,0,0,1,.43,10.28Z"/><path class="cls-7" d="M8,1c6.56,0,6.59,5.49,6.3,9.08.45-.85,1.78-.58,1.67.76s-2,2-2,1.81c-.54,3-3.63,4.67-6,4.67H8V1Z"/><path class="cls-6" d="M15.58,10.28a.62.62,0,0,0-.95-.18.53.53,0,0,0-.15.6c0,.17.22.18.18.44a.44.44,0,0,1-.27.38c-.07.07-.17.12-.22.25a.78.78,0,0,0,0,.37c0,.21.36,0,.57-.06a3.49,3.49,0,0,0,.68-.55A1.2,1.2,0,0,0,15.58,10.28Z"/><path class="cls-1" d="M7.93,2.56c-2.16,0-3.74.62-4.7,1.86C1.9,6.15,2,8.79,2.44,10.68c.15.58.23,2.14.33,2.72.47,2.56,3.3,3.93,5.16,3.93H8V2.56Z"/><path class="cls-2" d="M12.61,4.42A5.54,5.54,0,0,0,8,2.56V17.32c2.12,0,4.66-1.52,5.1-3.92.11-.58.18-2.14.33-2.72C13.9,8.79,14,6.16,12.61,4.42Z"/><path class="cls-8" d="M10.58,19.48A3.74,3.74,0,0,1,8,20.2a4.22,4.22,0,0,1-2.31-.49c-.45-.22-.76-.39-.44-.68a1.86,1.86,0,0,0,.2-.2h0a2.5,2.5,0,0,0,.25-.38c.17-.25-.3-.39,0-.58a.76.76,0,0,1,.52-.16c-.11.39,0,.57.16.63A3.57,3.57,0,0,0,8,18.58a3.4,3.4,0,0,0,1.71-.34c.19-.1.14-.31.13-.39l0-.08s.56,0,.51.3a1.06,1.06,0,0,0,.21.76.36.36,0,0,0,.07.1C10.78,19.19,11.08,19.13,10.58,19.48Z"/><path class="cls-9" d="M2.35,11.48c-.12,0,0-.64-.4-1.09a6.25,6.25,0,0,1-1-3.45A5.83,5.83,0,0,1,2.84,2.68,9.82,9.82,0,0,1,6.24.57l-.93.86A4.51,4.51,0,0,1,7.62.18,3.32,3.32,0,0,1,10,.23S9,.2,8.74.61a1.6,1.6,0,0,1-.33.26s.43-1,2.46-.17,2,2.27,3.4,2.71,1.87-.13,1.87-.13a2.24,2.24,0,0,1-1.74,1h-.2a9.45,9.45,0,0,1,.49,1.93,26.76,26.76,0,0,1-.25,3c-.06,1.34-.43.65-.87,1.64a2.23,2.23,0,0,0-.15.71c-.16,0-.59-.81-.28-2.28.2-.95-.78-4.56-3.15-3.86C8.55,5.86,8.18,6.74,7.1,6a3.18,3.18,0,0,0-3.21-.52C2.92,6,2.37,7.16,2.54,9.07,2.76,11.5,2.35,11.48,2.35,11.48Z"/><path class="cls-9" d="M10.43,15.1h0v0a2.89,2.89,0,0,0-.11-.35c0-.07-.07-.13-.1-.19a2.92,2.92,0,0,0-1.14-1.32,1.13,1.13,0,0,0-.22-.11l-.13,0h0A2.61,2.61,0,0,0,8,13a2.58,2.58,0,0,0-.68.07h0l-.13,0a1.13,1.13,0,0,0-.22.11,2.92,2.92,0,0,0-1.14,1.32c0,.06-.07.12-.1.19a2.89,2.89,0,0,0-.11.35v0h0a2.62,2.62,0,0,0-.07.57,2.33,2.33,0,0,0,.19,1c.12.66,1.09,2.16,2.27,2.18s2.16-1.52,2.28-2.18a2.33,2.33,0,0,0,.19-1A2.62,2.62,0,0,0,10.43,15.1Zm-.65,1.39a3.26,3.26,0,0,1-1.22.36,1.29,1.29,0,0,0,0-.35v-.41a1.49,1.49,0,0,0-.07-.43,2.58,2.58,0,0,0-1,0,1.49,1.49,0,0,0-.07.43v.41a1.87,1.87,0,0,0,0,.35,3.26,3.26,0,0,1-1.21-.36,2.35,2.35,0,0,1-.14-.82c0-.13,0-.25,0-.37A2.9,2.9,0,0,1,6.81,15a3.43,3.43,0,0,1,2.41,0,5.43,5.43,0,0,1,.67.29,2.77,2.77,0,0,1,0,.42A2.35,2.35,0,0,1,9.78,16.49Z"/></g></g></g></g></svg>