<svg xmlns="http://www.w3.org/2000/svg" viewBox="0 0 15.16 25.1"><defs><style>.cls-1{fill:#e1bf9c;}.cls-2{fill:#f2d1ac;}.cls-3,.cls-5{fill:#c09a80;}.cls-3{opacity:0.7;}.cls-4{fill:#d3a789;}.cls-6{fill:#e0b89b;}.cls-7{fill:#c6696e;}.cls-8{fill:#d87373;}.cls-9{fill:#718faf;}.cls-10{fill:#fff;}.cls-11{fill:none;}.cls-12{fill:#f4a64e;}.cls-13{fill:#607298;}</style></defs><g id="Layer_2" data-name="Layer 2"><g id="avatars"><g id="row-01"><g id="avatar-01-33"><path class="cls-1" d="M7.57,14V25.1h-6L1.47,25a9.35,9.35,0,0,1,.68-3.78,4.45,4.45,0,0,1,2.33-2.41,2.48,2.48,0,0,1,.63-.19h0l.08,0c.3-.09.51-.53.65-1.17l.06-.35c0-.2.06-.42.08-.65s0-.26,0-.4c0-.68.07-1.42.07-2.12C6.12,13.94,6.92,14,7.57,14Z"/><path class="cls-2" d="M13.69,25l-.14.07h-6V14h0C8.23,14,9,13.94,9,13.94c0,.7,0,1.43.07,2.1l0,.4c0,.24,0,.46.09.66h0c0,.09,0,.17,0,.26.13.62.31,1.08.58,1.23l.06,0a.35.35,0,0,0,.14,0A4.06,4.06,0,0,1,13,21.13,9,9,0,0,1,13.69,25Z"/><path class="cls-3" d="M9.23,17.1h0a1.94,1.94,0,0,1-1.65.9h0a2.06,2.06,0,0,1-1.64-.9c0-.2.06-.42.08-.64s0-.27,0-.41a6.4,6.4,0,0,0,1.5.2h0A6.29,6.29,0,0,0,9.11,16l0,.4C9.17,16.68,9.19,16.89,9.23,17.1Z"/><path class="cls-4" d="M7.56,2.11c-6.21,0-6.25,5-6,8.34C1.16,9.67-.1,10,0,11.2s1.88,1.72,1.85,1.59c.51,2.68,3.44,4.18,5.7,4.39h.05V2.11Z"/><path class="cls-5" d="M.32,10.68a.61.61,0,0,1,.91-.17.49.49,0,0,1,.14.55c0,.16-.21.17-.17.41a.44.44,0,0,0,.25.35.47.47,0,0,1,.21.23.5.5,0,0,1,0,.34c-.05.19-.34,0-.54-.05a3.47,3.47,0,0,1-.65-.51A1,1,0,0,1,.32,10.68Z"/><path class="cls-6" d="M7.59,2.11c6.22,0,6.26,5,6,8.34.43-.78,1.69-.49,1.59.75s-1.89,1.72-1.86,1.59c-.51,2.68-3.44,4.18-5.71,4.39h0V2.11Z"/><path class="cls-5" d="M14.89,10.68a.61.61,0,0,0-.91-.17.48.48,0,0,0-.15.55c0,.16.22.17.17.41a.41.41,0,0,1-.25.35.59.59,0,0,0-.21.23.66.66,0,0,0,0,.34c.05.19.35,0,.54-.05a3.89,3.89,0,0,0,.66-.51A1.05,1.05,0,0,0,14.89,10.68Z"/><path class="cls-1" d="M7.53,3.54A5.49,5.49,0,0,0,3,5.26c-1.29,1.6-1.24,4-.77,5.79.15.53.22,2,.32,2.5.45,2.37,3.17,3.63,5,3.63h0V3.55Z"/><path class="cls-2" d="M12,5.27A5.41,5.41,0,0,0,7.58,3.55V17.18c2,0,4.49-1.4,4.91-3.63.1-.53.17-2,.32-2.5C13.28,9.3,13.33,6.87,12,5.27Z"/><path class="cls-7" d="M8.62,15a1.61,1.61,0,0,1-1,.51,1.55,1.55,0,0,1-1-.5,6.32,6.32,0,0,1,1-.08A7.7,7.7,0,0,1,8.62,15Z"/><path class="cls-8" d="M7.87,14.81a.26.26,0,0,0-.29.23.28.28,0,0,0-.3-.23,4.29,4.29,0,0,0-.75.23s.57.06.74.06.3.07.31-.06c0,.13.12.08.28.08s.76-.08.76-.08A4,4,0,0,0,7.87,14.81Z"/><path class="cls-9" d="M12.18,19.3c-.8-.39-1.75-.64-1.7-.52.52.74.33,1.36.24,2.42-.13,1.65-1.19-1-3.16-1s-3,2.68-3.16,1c-.09-1.06-.29-1.68.24-2.42,0-.12-.9.13-1.71.52a8.45,8.45,0,0,0-1.45.92,1.47,1.47,0,0,1,.84.94,7.48,7.48,0,0,1,.25,1.67c.08,1.27.71,1.84.68,2.27h8.62c0-.43.59-1,.68-2.27a8.2,8.2,0,0,1,.24-1.67,1.5,1.5,0,0,1,.85-.94A8.3,8.3,0,0,0,12.18,19.3Z"/><path class="cls-10" d="M5.76,17.53a5.45,5.45,0,0,0,1.84.37,14.91,14.91,0,0,0,1.88-.27s.53.62.09.87-3.22.64-4.11,0C5.32,18.35,5.76,17.53,5.76,17.53Z"/><path class="cls-11" d="M5.16,10.47a4.73,4.73,0,0,0-.71-.05,4.4,4.4,0,0,1,.68.05c.37,0,1.25.23,1.34.56a2.29,2.29,0,0,1,0,1.14A2.16,2.16,0,0,1,4.21,14a2.18,2.18,0,0,0,2.31-1.78A2.4,2.4,0,0,0,6.5,11C6.42,10.7,5.54,10.51,5.16,10.47Z"/><path class="cls-11" d="M8.57,12.17a2.27,2.27,0,0,1,0-1.14c.08-.33,1-.52,1.34-.56a4.4,4.4,0,0,1,.68-.05,4.58,4.58,0,0,0-.7.05c-.38,0-1.26.23-1.35.56a2.41,2.41,0,0,0,0,1.14A2.17,2.17,0,0,0,10.85,14,2.17,2.17,0,0,1,8.57,12.17Z"/><path class="cls-12" d="M14.31,5.58c-.08-.26-.16-.5-.25-.74v-.1c0-1-.79-2.25-2.05-3.49s-2-1-3.1-.94v0C8.45.22,6-.32,4.52.27,2.9.93,1.57,2.05.64,5.07a12.31,12.31,0,0,0,0,6.55A9.72,9.72,0,0,0,4,17.08,7.45,7.45,0,0,1,3,15.3a10.51,10.51,0,0,1-.61-3.62A8.43,8.43,0,0,1,4,7.77a8.57,8.57,0,0,0-.87,2.85,4.39,4.39,0,0,0,.62,2.64,3,3,0,0,1,.57-3.38A10.73,10.73,0,0,0,5.5,8.5h0a2.38,2.38,0,0,0,.39,2.11s0-1.47.79-2C8.64,7.43,9,6.93,9.23,6c0-.14,0-.26.07-.38L11.09,8.4c.08.12.22.33.38.6a7,7,0,0,1,1.1,3.18A10.32,10.32,0,0,1,12,15.8a7.26,7.26,0,0,1-1,1.79,9.75,9.75,0,0,0,3.34-5.46A12.33,12.33,0,0,0,14.31,5.58Z"/><path class="cls-13" d="M3.7,19.37s3.4,5,7.71,0C11.41,19.37,7.06,21.06,3.7,19.37Z"/><path class="cls-13" d="M10.06,22.59s-2.18-3.21-4.94,0C5.12,22.59,7.9,21.52,10.06,22.59Z"/></g></g></g></g></svg>