<svg xmlns="http://www.w3.org/2000/svg" xmlns:xlink="http://www.w3.org/1999/xlink" viewBox="0 0 15.81 25.77"><defs><style>.cls-1{fill:none;}.cls-2{fill:#e2bf9c;}.cls-3{fill:#f2d1ac;}.cls-4{clip-path:url(#clip-path);}.cls-5{fill:#c09a80;}.cls-6{fill:#d3a789;}.cls-7{fill:#e0b89b;}.cls-8{fill:#f9f9fa;}.cls-9{fill:#965458;}.cls-10{fill:#718faf;}.cls-11{fill:#191919;}.cls-12{fill:#432612;}</style><clipPath id="clip-path"><rect class="cls-1" x="6.31" y="16.46" width="3.39" height="2.03"/></clipPath></defs><g id="Layer_2" data-name="Layer 2"><g id="avatars"><g id="row-01"><g id="avatar-01-28"><path class="cls-2" d="M8,14.39V25.77H1.88l-.15-.07C1.73,21,3.94,19.65,5,19.28a2.17,2.17,0,0,1,.51-.14c.37,0,.61-.48.77-1.22a1.93,1.93,0,0,0,.06-.36c0-.2.06-.43.09-.66s0-.27,0-.42c.06-.7.07-1.46.07-2.18,0,0,.83.09,1.49.09"/><path class="cls-3" d="M14.29,25.7l-.14.07H8V14.39H8c.67,0,1.5-.09,1.5-.09,0,.72,0,1.47.07,2.17,0,.14,0,.27,0,.4s0,.47.08.68h0c0,.09,0,.18.05.27.16.78.41,1.31.8,1.31a3.16,3.16,0,0,1,.77.24c1.1.51,3,2,3,6.32"/><g class="cls-4"><path class="cls-5" d="M9.7,17.55h0A2,2,0,0,1,8,18.49H8a2.14,2.14,0,0,1-1.69-.93,6.57,6.57,0,0,0,.09-.66c0-.14,0-.28,0-.42A6.74,6.74,0,0,0,8,16.69H8a6.08,6.08,0,0,0,1.58-.23c0,.14,0,.28,0,.42s.05.46.08.67"/></g><path class="cls-6" d="M7.89,1.33c-6.48,0-6.52,5.49-6.23,9.08C1.21,9.56-.1,9.82,0,11.16s2,2,1.93,1.81c.53,3,3.58,4.66,5.95,4.66h.05V1.33H7.89"/><path class="cls-5" d="M.42,10.6a.6.6,0,0,1,.93-.18.52.52,0,0,1,.16.59c-.05.17-.23.18-.18.45a.47.47,0,0,0,.26.38.58.58,0,0,1,.22.24.79.79,0,0,1,0,.37c-.06.21-.36,0-.57,0a4.25,4.25,0,0,1-.67-.55A1.2,1.2,0,0,1,.42,10.6"/><path class="cls-7" d="M7.92,1.33c6.48,0,6.52,5.49,6.23,9.08.44-.85,1.76-.59,1.65.75s-2,2-1.94,1.81c-.53,3-3.58,4.66-5.94,4.66h0V1.33h0"/><path class="cls-5" d="M15.39,10.6a.61.61,0,0,0-.94-.18.53.53,0,0,0-.15.59c0,.17.22.18.18.45a.47.47,0,0,1-.26.38.52.52,0,0,0-.22.24.79.79,0,0,0,0,.37c0,.21.36,0,.56,0a3.5,3.5,0,0,0,.67-.55,1.18,1.18,0,0,0,.19-1.25"/><path class="cls-2" d="M8,2.88A5.52,5.52,0,0,0,3.32,4.74C2,6.47,2.05,9.11,2.54,11c.15.58.22,2.14.33,2.71.46,2.56,3.25,3.92,5.09,3.92H8V2.88H8"/><path class="cls-3" d="M12.59,4.74A5.48,5.48,0,0,0,8,2.88V17.63c2.1,0,4.61-1.52,5-3.92.1-.57.18-2.13.33-2.71.48-1.89.53-4.52-.79-6.26"/><path class="cls-8" d="M14.29,25.7l-.14.07H1.88l-.15-.07c0-4.69,2.21-6,3.24-6.42l1.89.94a2.62,2.62,0,0,0,1.15.4,7.87,7.87,0,0,0,1.69-.51,9.11,9.11,0,0,0,1.62-.73c1.1.51,3,2,3,6.32"/><path class="cls-9" d="M12.92,25.77H3.1c0-.49.06-1.37,0-2.56V23a2.35,2.35,0,0,0,0-.26c0-.06,0-.13,0-.19,0-.48-.12-1-.21-1.63a4.53,4.53,0,0,1,.9-1l.08-.07A4.07,4.07,0,0,1,5,19.22l.16-.06a3.29,3.29,0,0,1,.36-.08A.46.46,0,0,0,5.79,19h0l.09-.1s0,0,.06.11A19.44,19.44,0,0,0,8,21a20.5,20.5,0,0,0,2.07-2c0-.07.05-.11.06-.11l.09.1h0a.48.48,0,0,0,.31.13,1.58,1.58,0,0,1,.34.08l.16.05a4.26,4.26,0,0,1,1.08.61l.08.07a4.87,4.87,0,0,1,.91,1c-.1.61-.18,1.18-.21,1.66,0,.07,0,.13,0,.2a1,1,0,0,1,0,.18v.22c0,1.21,0,2.11.05,2.6"/><polygon class="cls-10" points="5.5 21.72 5.51 21.71 5.5 21.71 4.88 20.63 4.26 19.54 3.63 20.63 3.01 21.71 3 21.71 3.01 21.72 3 21.72 3.01 21.72 3.63 22.81 4.26 23.9 4.88 22.81 5.5 21.72 5.51 21.72 5.5 21.72"/><polygon class="cls-10" points="8 21.72 8.01 21.71 8 21.71 7.38 20.63 6.76 19.81 6.14 20.63 5.51 21.71 5.51 21.71 5.51 21.72 5.51 21.72 5.51 21.72 6.14 22.81 6.76 23.9 7.38 22.81 8 21.72 8.01 21.72 8 21.72"/><polygon class="cls-10" points="10.51 21.72 10.51 21.71 10.5 21.71 9.88 20.63 9.25 19.92 8.64 20.63 8.01 21.71 8.01 21.71 8.01 21.72 8.01 21.72 8.01 21.72 8.64 22.81 9.26 23.9 9.88 22.81 10.5 21.72 10.51 21.72 10.51 21.72"/><polygon class="cls-10" points="13.01 21.72 13.01 21.71 13 21.71 12.38 20.63 11.76 19.54 11.14 20.63 10.52 21.71 10.51 21.71 10.51 21.72 10.51 21.72 10.52 21.72 11.14 22.81 11.76 23.9 12.38 22.81 13 21.72 13.01 21.72 13.01 21.72"/><polygon class="cls-10" points="5.33 25.77 3.19 25.77 3.63 24.99 4.26 23.9 4.88 24.99 5.33 25.77"/><polygon class="cls-10" points="7.83 25.77 5.69 25.77 6.14 24.99 6.76 23.9 7.37 24.99 7.83 25.77"/><polygon class="cls-10" points="10.33 25.77 8.19 25.77 8.64 24.99 9.26 23.9 9.88 24.99 10.33 25.77"/><polygon class="cls-10" points="12.82 25.77 10.69 25.77 11.14 24.99 11.76 23.9 12.38 24.99 12.82 25.77"/><path class="cls-11" d="M5.56,22.85l0-.06h0l-.61-1.05-.67-1.18-.67,1.18-.46.8c0,.06,0,.13,0,.19l.55-.94.57-1,.57,1,.61,1.06-.61,1.07-.57,1-.57-1L3.14,23v.22l.44.76.67,1.17L4.92,24l.61-1.06h.06Z"/><path class="cls-11" d="M6.75,25.14,6.08,24l-.6-1.06H5.41l0-.06,0-.05h.07l.6-1.05.67-1.18.67,1.18L8,22.79h.06l0,.06,0,.06H8L7.42,24ZM5.56,22.85l.62,1.06.57,1,.57-1,.61-1.06-.61-1.06-.57-1-.57,1Z"/><path class="cls-11" d="M9.25,25.14,8.58,24,8,22.91H7.91l0-.06,0-.05H8l.6-1.05.67-1.18.67,1.18.6,1.05h.06l0,.06,0,.06h-.07L9.92,24ZM8.06,22.85l.62,1.06.57,1,.57-1,.62-1.06-.62-1.06-.57-1-.57,1Z"/><path class="cls-11" d="M11.75,20.78l.58,1,.55,1c0-.07,0-.13,0-.2l-.48-.83-.67-1.18-.66,1.18-.61,1.05h-.07l0,.05,0,.06h.07L11.09,24l.66,1.17L12.42,24l.45-.8V23l-.54,1-.58,1-.57-1-.61-1.07.61-1.06Z"/><polygon class="cls-11" points="4.25 24.92 3.77 25.77 3.89 25.77 4.25 25.14 4.61 25.77 4.73 25.77 4.25 24.92"/><polygon class="cls-11" points="6.75 24.92 6.27 25.77 6.4 25.77 6.75 25.14 7.11 25.77 7.23 25.77 6.75 24.92"/><polygon class="cls-11" points="9.25 24.92 8.77 25.77 8.9 25.77 9.25 25.14 9.61 25.77 9.73 25.77 9.25 24.92"/><polygon class="cls-11" points="11.75 24.92 11.27 25.77 11.39 25.77 11.75 25.14 12.1 25.77 12.23 25.77 11.75 24.92"/><path class="cls-11" d="M5,19.22l-.71,1.25-.36-.64-.08.07.44.78.87-1.52L5,19.22"/><path class="cls-11" d="M12.12,19.82l-.37.65L11,19.21l-.16-.05.87,1.52.45-.79-.08-.07"/><path class="cls-12" d="M14,11.18c0-.13.05-.26.08-.39l0,0Z"/><path class="cls-12" d="M13.79,2.9l0,0a2.85,2.85,0,0,1,.78.47c.43.35.75,1.29.54.67a4.47,4.47,0,0,0-1.15-1.64,4.53,4.53,0,0,0-1.51-1c-.57-.2.31,0,.31,0a3.1,3.1,0,0,0-.82-.77A2.06,2.06,0,0,0,10.57.34L11,.27A1.1,1.1,0,0,0,9.79.11,1.73,1.73,0,0,0,9,.68L8.8.58,8.35.39,7.9.58a1,1,0,0,0-.21.1A1.71,1.71,0,0,0,6.91.11,1.12,1.12,0,0,0,5.67.27l.46.07A2.05,2.05,0,0,0,4.79.65,3.1,3.1,0,0,0,4,1.42s.87-.2.31,0a4.68,4.68,0,0,0-1.52,1A4.47,4.47,0,0,0,1.61,4c-.21.62.11-.32.55-.67a2.89,2.89,0,0,1,.77-.47,6.52,6.52,0,0,0-1.1,1.86,7.75,7.75,0,0,0-.34,1h0a8.83,8.83,0,0,0-.21,2.6h0a2.18,2.18,0,0,0,0,.24h0c0,.6,0,1.1-.06,1.4a12.22,12.22,0,0,0,1.59,6.89s-1.13-3.92-.39-5.1S4.24,10.19,7,9c2.55-1.13,3.64-1.3,4.94-2.46,1.77,1.42,3.53,4,.88,8.1A4.33,4.33,0,0,0,14.68,12h0S17.06,6.25,13.79,2.9Z"/><path class="cls-8" d="M5.48,19.08A23.35,23.35,0,0,0,8,21.71v-2a2.1,2.1,0,0,1-1.74-1.88A2.4,2.4,0,0,1,5.48,19.08Z"/><path class="cls-8" d="M10.53,19.08A23.82,23.82,0,0,1,8,21.71v-2a2.1,2.1,0,0,0,1.74-1.88A2.48,2.48,0,0,0,10.53,19.08Z"/></g></g></g></g></svg>