<svg xmlns="http://www.w3.org/2000/svg" viewBox="0 0 17.97 24.67"><defs><style>.cls-1{fill:#5b131a;}.cls-2{fill:#e1bf9c;}.cls-3{fill:#f2d1ac;}.cls-4,.cls-6{fill:#c09a80;}.cls-4{opacity:0.7;}.cls-5{fill:#d3a789;}.cls-7{fill:#e0b89b;}.cls-8{fill:#9e1d24;}.cls-9{fill:#bc5e67;}</style></defs><g id="Layer_2" data-name="Layer 2"><g id="avatars"><g id="row-02"><g id="avatar-02-05"><path class="cls-1" d="M18,8.12c0,1.42-4.34,4.75-9,4.75S0,10,0,8.58s4.18-2,8.83-2S18,6.7,18,8.12Z"/><path class="cls-2" d="M9,14V24.66H3.25l-.14-.06c0-5.7,3.53-6.13,3.53-6.13.36,0,.58-.45.73-1.14A1.86,1.86,0,0,0,7.43,17a5.63,5.63,0,0,0,.08-.61c0-.13,0-.26,0-.39,0-.66.07-1.37.07-2C7.62,14,8.4,14,9,14Z"/><path class="cls-3" d="M15,24.6l-.14.06H9V14H9c.62,0,1.4-.08,1.4-.08,0,.67,0,1.37.07,2,0,.13,0,.26,0,.38s0,.44.08.64h0c0,.09,0,.17,0,.25.15.74.39,1.23.75,1.23C11.42,18.47,15,18.9,15,24.6Z"/><path class="cls-4" d="M10.63,17h0a1.85,1.85,0,0,1-1.6.87H9A2,2,0,0,1,7.43,17a5.63,5.63,0,0,0,.08-.61c0-.13,0-.26,0-.39A6.69,6.69,0,0,0,9,16.18H9A5.82,5.82,0,0,0,10.51,16c0,.13,0,.26,0,.38S10.6,16.79,10.63,17Z"/><path class="cls-5" d="M9,1.83C2.93,1.83,2.89,7,3.17,10.31c-.42-.79-1.66-.55-1.56.7s1.85,1.84,1.82,1.7c.5,2.76,3.38,4.35,5.61,4.35h.05V1.83Z"/><path class="cls-6" d="M2,10.27a.57.57,0,0,1,.88-.16.49.49,0,0,1,.14.55c0,.16-.21.17-.17.42a.44.44,0,0,0,.25.35c.07.07.16.11.2.23a.51.51,0,0,1,0,.34c0,.2-.33.05-.53,0a3.78,3.78,0,0,1-.63-.52A1.12,1.12,0,0,1,2,10.27Z"/><path class="cls-7" d="M9.07,1.83c6.11,0,6.15,5.13,5.88,8.48.41-.79,1.65-.55,1.55.7s-1.85,1.84-1.82,1.7c-.5,2.76-3.38,4.35-5.61,4.35H9V1.83Z"/><path class="cls-6" d="M16.11,10.48a.57.57,0,0,0-.88-.16.49.49,0,0,0-.14.55c0,.16.21.18.17.42s-.18.29-.25.36a.64.64,0,0,0-.21.22.6.6,0,0,0,0,.35c.05.2.33,0,.52-.05a3.87,3.87,0,0,0,.64-.51A1.13,1.13,0,0,0,16.11,10.48Z"/><path class="cls-2" d="M9,3.28A5.2,5.2,0,0,0,4.61,5c-1.24,1.61-1.19,4.07-.73,5.84.14.54.21,2,.3,2.53.44,2.4,3.07,3.67,4.81,3.67H9V3.28Z"/><path class="cls-3" d="M13.35,5A5.16,5.16,0,0,0,9,3.28V17.06a4.93,4.93,0,0,0,4.76-3.67c.09-.53.17-2,.31-2.53C14.55,9.1,14.6,6.64,13.35,5Z"/><path class="cls-8" d="M13.91,20.16a4,4,0,0,0-1.83-1.59l-3,5.1,0,.06,0-.06-3-5.1a4,4,0,0,0-1.83,1.59,2.4,2.4,0,0,1,.48,1,9.2,9.2,0,0,1,.08,3.53h8.61a9,9,0,0,1,.09-3.53A2.29,2.29,0,0,1,13.91,20.16Z"/><path class="cls-8" d="M15.08,4H3.34a2,2,0,0,1,0-.35C3.76,2,5.33,0,9.05,0s5.52,1.92,6,3.6A1.32,1.32,0,0,1,15.08,4Z"/><path class="cls-9" d="M15,5.9H3.28V3.79A10.14,10.14,0,0,1,9,2.32a12.6,12.6,0,0,1,6,1.47Z"/><path class="cls-8" d="M8.83,6.6A48.93,48.93,0,0,0,.08,8.26S3.47,4.05,8.72,4C13.39,4,18,7.84,18,7.84S11,6.53,8.83,6.6Z"/></g></g></g></g></svg>