<svg xmlns="http://www.w3.org/2000/svg" xmlns:xlink="http://www.w3.org/1999/xlink" viewBox="0 0 18.34 27.79"><defs><style>.cls-1{fill:none;}.cls-2{fill:#e6c5a1;}.cls-3{fill:#f5d7b4;}.cls-4{clip-path:url(#clip-path);}.cls-5{fill:#c8a081;}.cls-6{fill:#d9ae8c;}.cls-7{fill:#e4bea0;}.cls-8{fill:#432d1b;}.cls-9{fill:#d94528;}.cls-10{fill:#b53025;}.cls-11{fill:#3e3e3d;}.cls-12{fill:#cc676d;}.cls-13{fill:#da7072;}.cls-14{fill:#f5f6f6;}</style><clipPath id="clip-path"><rect class="cls-1" x="7.66" y="18.37" width="3.47" height="2.05"/></clipPath></defs><g id="Layer_2" data-name="Layer 2"><g id="avatars"><g id="row-01"><g id="avatar-01-39"><path class="cls-2" d="M9.39,16.27V27.78H3.13L3,27.71c0-4.75,2.27-6.12,3.32-6.5a3,3,0,0,1,.52-.14c.38,0,.62-.48.79-1.23a3.29,3.29,0,0,0,.07-.36c0-.21.06-.44.08-.67s0-.28,0-.42c.06-.71.08-1.48.08-2.21,0,0,.84.09,1.52.09"/><path class="cls-3" d="M15.82,27.71l-.15.07H9.39V16.27h0c.68,0,1.53-.09,1.53-.09,0,.73,0,1.49.07,2.19,0,.14,0,.28.05.41a6.57,6.57,0,0,0,.08.69h0c0,.09,0,.18,0,.27.16.79.42,1.32.81,1.32a3,3,0,0,1,.79.25c1.13.51,3,2,3,6.39"/><g class="cls-4"><path class="cls-5" d="M11.13,19.47h0a2,2,0,0,1-1.73,1h0a2.21,2.21,0,0,1-1.73-.94c0-.21.07-.44.09-.67s0-.28,0-.42a7.19,7.19,0,0,0,1.58.2h0A6.8,6.8,0,0,0,11,18.37c0,.14,0,.28,0,.41s.06.47.09.69"/></g><path class="cls-6" d="M9.27,3.07c-6.62,0-6.66,5.54-6.37,9.17-.45-.85-1.8-.59-1.69.77s2,2,2,1.83c.55,3,3.67,4.71,6.08,4.71h.05V3.07H9.27"/><path class="cls-5" d="M1.64,12.43a.63.63,0,0,1,1-.18.55.55,0,0,1,.15.6c0,.18-.23.19-.18.45a.48.48,0,0,0,.26.39c.08.07.18.12.22.24a.63.63,0,0,1,0,.38c-.05.21-.36,0-.57-.05a4.5,4.5,0,0,1-.68-.56,1.19,1.19,0,0,1-.19-1.27"/><path class="cls-7" d="M9.31,3.07c6.62,0,6.66,5.54,6.37,9.17.45-.85,1.8-.59,1.69.77s-2,2-2,1.83c-.55,3-3.66,4.71-6.08,4.71H9.26V3.07h.05"/><path class="cls-5" d="M16.94,12.43a.62.62,0,0,0-1-.18.55.55,0,0,0-.16.6c.05.18.23.19.19.45a.48.48,0,0,1-.27.39.64.64,0,0,0-.22.24.63.63,0,0,0,0,.38c.05.21.36,0,.57-.05a4.5,4.5,0,0,0,.68-.56,1.19,1.19,0,0,0,.19-1.27"/><path class="cls-2" d="M9.35,4.63c-2.18,0-3.78.63-4.74,1.88-1.35,1.75-1.3,4.42-.8,6.33.15.59.23,2.16.33,2.74.47,2.59,3.33,4,5.21,4H9.4V4.63H9.35"/><path class="cls-3" d="M14.08,6.52c-1-1.25-2.53-1.88-4.68-1.89V19.55c2.15,0,4.71-1.54,5.16-4,.1-.58.18-2.15.33-2.74.5-1.91.55-4.57-.81-6.32"/><path class="cls-1" d="M11.47,5.73a4,4,0,0,0-1.33-.62A8.19,8.19,0,0,1,11.47,5.73Z"/><path class="cls-1" d="M3.39,9.61a5.86,5.86,0,0,0-.12.63,8.53,8.53,0,0,1,.27-.88A1.74,1.74,0,0,0,3.39,9.61Z"/><path class="cls-8" d="M7.39,5.12l0,0h0Z"/><path class="cls-9" d="M14.44,27.78H4.65c0-.41.06-1,.1-1.31a28.27,28.27,0,0,1,1.16-5.09,1.21,1.21,0,0,0,0-.14l1-.35V21c0,.44.08,2.3.16,3.09,0,.55,1.3.81,2.38.85s2.34-.09,2.39-.65c.07-.78.13-2.89.14-3.3a.18.18,0,0,0,0-.05l1,.35s0,.07,0,.11a27.57,27.57,0,0,1,1.17,5.12c0,.32.08.9.11,1.31"/><path class="cls-10" d="M2.17,10.18S1.27,7.32,4,7.47,2.87,8,2.9,12.24Z"/><path class="cls-10" d="M16.39,10.18s.9-2.86-1.87-2.71,1.17.53,1.14,4.77Z"/><path class="cls-11" d="M17.77,6.22c-.1-.29-.21-.56-.32-.82V5.29c0-1.1-1-2.52-2.58-3.9S12.29.3,11,.34v0C10.4.24,7.3-.35,5.45.31c-2,.73-3.7,2-4.88,5.35a12.29,12.29,0,0,0,0,7.3C1.31,16.68,4.78,19,4.78,19a8.25,8.25,0,0,1-1.27-2,10.67,10.67,0,0,1-.75-4c0-1.95,2-4.36,2-4.36a8.8,8.8,0,0,0-1.1,3.17,4.55,4.55,0,0,0,.78,2.95A3,3,0,0,1,5.14,11,11.88,11.88,0,0,0,6.69,9.47h0a2.42,2.42,0,0,0,.49,2.34s0-1.63,1-2.19c2.47-1.35,2.86-1.91,3.21-3a3.52,3.52,0,0,0,.09-.42l2.25,3.15c.1.14.28.37.48.67a7.26,7.26,0,0,1,1.39,3.55,10.69,10.69,0,0,1-.76,4,8,8,0,0,1-1.27,2s3.47-2.36,4.19-6.08A12.21,12.21,0,0,0,17.77,6.22Z"/><path class="cls-12" d="M10.92,17.46a2.4,2.4,0,0,1-1.52.73,2.25,2.25,0,0,1-1.48-.72,9.7,9.7,0,0,1,1.48-.11,11.65,11.65,0,0,1,1.52.1"/><path class="cls-13" d="M9.83,17.12a.4.4,0,0,0-.43.33A.39.39,0,0,0,9,17.12a6,6,0,0,0-1.09.34s.83.09,1.07.09.45.09.45-.09c0,.18.18.11.41.11s1.11-.11,1.11-.11a6,6,0,0,0-1.09-.34"/><path class="cls-11" d="M9.26,22.11c3.31,0,6,2.13,6,4.75H16.8c0-3.3-3.38-6-7.54-6s-7.55,2.68-7.55,6H3.26C3.26,24.24,6,22.11,9.26,22.11Z"/><path class="cls-11" d="M3.56,25.38s4.56,4.05,11.39,0l1.85,1.48v.93H1.71v-.93Z"/><path class="cls-2" d="M4.14,23.76c-.56.63-1.37.83-1.81.45S2,23,2.56,22.36s1.36-.83,1.8-.44S4.69,23.13,4.14,23.76Z"/><path class="cls-2" d="M14.51,23.76c.56.63,1.37.83,1.81.45s.33-1.21-.23-1.85-1.36-.83-1.8-.44S14,23.13,14.51,23.76Z"/><polygon class="cls-14" points="2.72 13.26 3.15 14.12 4.1 14.26 3.41 14.93 3.57 15.88 2.72 15.43 1.86 15.88 2.03 14.93 1.34 14.26 2.29 14.12 2.72 13.26"/><polygon class="cls-14" points="15.3 13.26 15.73 14.12 16.68 14.26 15.99 14.93 16.16 15.88 15.3 15.43 14.45 15.88 14.61 14.93 13.92 14.26 14.88 14.12 15.3 13.26"/></g></g></g></g></svg>