<svg xmlns="http://www.w3.org/2000/svg" viewBox="0 0 17.27 27.96"><defs><style>.cls-1{fill:#e1bf9c;}.cls-2{fill:#f2d1ac;}.cls-3,.cls-6{fill:#c09a80;}.cls-3{opacity:0.7;}.cls-4{fill:#d3a789;}.cls-5{fill:#282844;}.cls-7{fill:#e0b89b;}.cls-8{fill:#fff;}</style></defs><g id="Layer_2" data-name="Layer 2"><g id="avatars"><g id="row-02"><g id="avatar-02-31"><path class="cls-1" d="M9.29,16.52V28H3.14L3,27.89c0-6.13,3.76-6.59,3.76-6.59.38,0,.62-.49.78-1.23a3.37,3.37,0,0,0,.06-.36,6.57,6.57,0,0,0,.09-.66c0-.14,0-.28,0-.43,0-.57.06-1.18.07-1.78v-.4S8.62,16.52,9.29,16.52Z"/><path class="cls-2" d="M15.61,27.89l-.15.07H9.29V16.52h0c.67,0,1.5-.08,1.5-.08s0,.31,0,.47c0,.57,0,1.15.07,1.7l0,.41c0,.24.06.47.09.68h0a2.56,2.56,0,0,0,.05.27c.16.79.41,1.32.8,1.32C11.85,21.3,15.61,21.76,15.61,27.89Z"/><path class="cls-3" d="M11,19.7h0a2,2,0,0,1-1.7.94h0a2.17,2.17,0,0,1-1.7-.94,6.57,6.57,0,0,0,.09-.66c0-.14,0-.28,0-.42a6.91,6.91,0,0,0,1.55.2h0a6.71,6.71,0,0,0,1.59-.22c0,.14,0,.28,0,.41S11,19.49,11,19.7Z"/><path class="cls-4" d="M9.31,3.4C2.79,3.4,2.75,8.91,3,12.52c-.44-.85-1.76-.59-1.66.76s2,2,2,1.82c.53,3,3.6,4.68,6,4.68h0V3.4Z"/><path class="cls-5" d="M15.61,27.89l-.15.07H3.14L3,27.89c0-6,3.58-6.56,3.76-6.59h0c.29,0,.49-.28.64-.73a.67.67,0,0,0,.27.23A3.55,3.55,0,0,0,9.3,21a3.3,3.3,0,0,0,1.85-.39.22.22,0,0,0,0-.08c.15.43.35.71.61.73h0S15.61,21.76,15.61,27.89Z"/><path class="cls-6" d="M1.8,12.71a.61.61,0,0,1,.94-.18.55.55,0,0,1,.15.6c0,.17-.22.18-.18.45A.49.49,0,0,0,3,14a.57.57,0,0,1,.22.24.6.6,0,0,1,0,.37c-.05.22-.36,0-.56-.05A3.9,3.9,0,0,1,2,14,1.19,1.19,0,0,1,1.8,12.71Z"/><path class="cls-7" d="M9.34,3.4c6.51,0,6.55,5.51,6.26,9.12.45-.85,1.77-.59,1.66.76s-2,2-1.94,1.82c-.54,3-3.6,4.68-6,4.68H9.29V3.4Z"/><path class="cls-6" d="M16.85,12.71a.62.62,0,0,0-1-.18.56.56,0,0,0-.15.6c.05.17.23.18.18.45a.45.45,0,0,1-.26.38.65.65,0,0,0-.22.24.79.79,0,0,0,0,.37c.06.22.36,0,.57-.05a4.25,4.25,0,0,0,.67-.55A1.2,1.2,0,0,0,16.85,12.71Z"/><path class="cls-1" d="M9.25,5c-2.14,0-3.71.63-4.66,1.87-1.33,1.74-1.28,4.39-.79,6.29.15.59.23,2.15.33,2.73.46,2.57,3.27,3.94,5.12,3.94H9.3V5Z"/><path class="cls-2" d="M13.9,6.83A5.46,5.46,0,0,0,9.3,5V19.78a5.25,5.25,0,0,0,5.07-3.94c.1-.58.18-2.14.33-2.73C15.19,11.22,15.24,8.57,13.9,6.83Z"/><path class="cls-8" d="M15,3.28A10.8,10.8,0,0,0,11.12.7l.63.63A6.82,6.82,0,0,0,9.58.22,3.45,3.45,0,0,0,6.93.28,2.2,2.2,0,0,1,8.18.6,2.75,2.75,0,0,0,5.92.86c-2.28,1-2.24,2.77-3.83,3.31S0,4,0,4A2.51,2.51,0,0,0,2,5.27h.22a12.23,12.23,0,0,0-.56,2.35c-.09,1,.2,1.73.28,3.65.08,1.64.49.8,1,2a2.51,2.51,0,0,1,.17.86c.19,0,.86-1,.52-2.78-.22-1.16.68-5.58,3.34-4.72.25.09.47.18.68.28-2.54,2.67-1,6.47-1,6.47A7.37,7.37,0,0,1,9.43,7.85a5.23,5.23,0,0,0-.06,3.23c.13-2.72,2.82-4.21,2.82-4.21L12,6.41a1.5,1.5,0,0,1,1.37.24c1.1.65,1.71,2.11,1.52,4.44-.24,3,.62,2.95.62,2.95s0-.79.45-1.34A8.06,8.06,0,0,0,17.1,8.48,7.44,7.44,0,0,0,15,3.28Z"/></g></g></g></g></svg>