<svg xmlns="http://www.w3.org/2000/svg" xmlns:xlink="http://www.w3.org/1999/xlink" viewBox="0 0 18.87 29.01"><defs><style>.cls-1{fill:none;}.cls-2{fill:#f9f9fa;}.cls-3{fill:#e2bf9c;}.cls-4{fill:#f2d1ac;}.cls-5{clip-path:url(#clip-path);}.cls-6{fill:#c09a80;}.cls-7{fill:#d3a789;}.cls-8{fill:#e0b89b;}.cls-9{fill:#c6696e;}.cls-10{fill:#d87373;}.cls-11{fill:#353838;}.cls-12{fill:#f7941d;}</style><clipPath id="clip-path"><rect class="cls-1" x="8.6" y="19.63" width="3.46" height="2.04"/></clipPath></defs><g id="Layer_2" data-name="Layer 2"><g id="avatars"><g id="row-02"><g id="avatar-02-39"><path class="cls-2" d="M9.12,13.77A11.66,11.66,0,0,0,10,16.08c.45.8,1.82,1.83,1.86,2.92.11,2.36-3.23,3.48-4.58,3.88s-1.79.44-1.94,1a5.35,5.35,0,0,0,0,1.55,5.59,5.59,0,0,1-1.45-1.1,1.28,1.28,0,0,1,.06-1.71s.28.24-.05.78-.33,1-.21,1.16.54.58.54.58-2.08-.59-1.67-2.28c.06-.29.26-.08,0,0C2,23.05,2.07,24,2.07,24S.66,22.18,3.51,21.15c.27-.1,1.75-.47,1.9-1.68.08-.68-.41-.74-.5-1.56-.12-1.07,1.41-.84,2-1.85.11-.19-.44-.3,0-.82s.73-.58,1.49-1S9.12,13.77,9.12,13.77Z"/><path class="cls-2" d="M11.47,14.43a10.87,10.87,0,0,1-.9,2.3c-.44.8-1.81,1.83-1.86,2.92C8.61,22,12,23.13,13.3,23.53s1.79.44,1.94,1a5.35,5.35,0,0,1,0,1.55A5.72,5.72,0,0,0,16.72,25a1.3,1.3,0,0,0-.06-1.72s-.28.24.05.78.33,1,.21,1.16-.54.58-.54.58,2.08-.59,1.67-2.28c-.07-.29-.26-.08,0,0,.58.17.47,1.13.47,1.13s1.41-1.83-1.44-2.86c-.28-.1-1.75-.47-1.9-1.68-.08-.68.41-.74.5-1.56.12-1.07-1.41-.84-2-1.85-.11-.19.44-.3,0-.82S13,15.32,12.19,15,11.47,14.43,11.47,14.43Z"/><path class="cls-3" d="M10.32,17.53V29H4.08L3.93,29c0-6.16,3.82-6.62,3.82-6.62.38,0,.62-.49.78-1.23,0-.12.05-.24.07-.36a6.39,6.39,0,0,0,.09-.67c0-.14,0-.28,0-.42,0-.71.07-1.47.07-2.2,0,0,.84.08,1.52.08"/><path class="cls-4" d="M16.73,29l-.14.06H10.32V17.53h0c.68,0,1.53-.08,1.53-.08,0,.72,0,1.48.07,2.18,0,.14,0,.28,0,.42s0,.47.09.68h0c0,.1,0,.19,0,.28.17.79.42,1.32.82,1.32,0,0,3.81.46,3.81,6.62"/><g class="cls-5"><path class="cls-6" d="M12.06,20.73h0a2,2,0,0,1-1.73.94h0a2.17,2.17,0,0,1-1.72-.93,6.39,6.39,0,0,0,.09-.67c0-.14,0-.28,0-.42a7,7,0,0,0,1.57.2h0a6.32,6.32,0,0,0,1.61-.22c0,.14,0,.28,0,.42s0,.47.09.68"/></g><path class="cls-7" d="M10.25,4.37c-6.61,0-6.65,5.54-6.35,9.16-.46-.86-1.8-.6-1.69.76s2,2,2,1.82c.54,3,3.65,4.7,6.06,4.7h.05V4.37h-.05"/><path class="cls-6" d="M2.63,13.71a.63.63,0,0,1,1-.18.55.55,0,0,1,.15.6c0,.18-.22.19-.18.45a.5.5,0,0,0,.26.39.59.59,0,0,1,.23.24.8.8,0,0,1,0,.37c0,.22-.37.05-.57-.05A4,4,0,0,1,2.82,15a1.23,1.23,0,0,1-.19-1.27"/><path class="cls-8" d="M10.28,4.37c6.61,0,6.65,5.54,6.36,9.16.45-.86,1.79-.6,1.68.76s-2,2-2,1.82c-.55,3-3.66,4.7-6.07,4.7h0V4.37h0"/><path class="cls-6" d="M17.9,13.71a.63.63,0,0,0-1-.18.55.55,0,0,0-.15.6c.05.18.23.19.18.45a.46.46,0,0,1-.26.39.52.52,0,0,0-.22.24.6.6,0,0,0,0,.37c.05.22.36.05.57-.05a4.31,4.31,0,0,0,.68-.55,1.19,1.19,0,0,0,.19-1.27"/><path class="cls-3" d="M10.28,5.93c-2.17,0-3.77.64-4.73,1.88-1.34,1.74-1.29,4.4-.8,6.31.15.59.23,2.16.34,2.74.47,2.58,3.32,3.95,5.19,3.95h.05V5.94h-.05"/><path class="cls-4" d="M15,7.81a5.59,5.59,0,0,0-4.67-1.87V20.81c2.14,0,4.7-1.53,5.14-3.95.11-.58.19-2.15.34-2.74.49-1.9.54-4.56-.81-6.31"/><path class="cls-9" d="M12.06,18.11a2.64,2.64,0,0,1-1.69.82,2.53,2.53,0,0,1-1.65-.8A11.15,11.15,0,0,1,10.37,18,14.25,14.25,0,0,1,12.06,18.11Z"/><path class="cls-10" d="M10.85,17.74a.45.45,0,0,0-.48.37.44.44,0,0,0-.48-.37,6.88,6.88,0,0,0-1.21.37s.92.1,1.19.1.5.11.5-.09c0,.2.2.12.46.12s1.23-.13,1.23-.13A6.62,6.62,0,0,0,10.85,17.74Z"/><path class="cls-11" d="M18,7.72c-1.06-3.18-2.56-4.36-4.39-5-1.66-.63-4.45-.06-5,.05v0a2.36,2.36,0,0,0-.78.09h0a8.83,8.83,0,0,0-1.65-.66l.87-1A.6.6,0,0,0,7.7,1a.59.59,0,0,0,0-.84A.6.6,0,0,0,6.81.2a.61.61,0,0,0-.07.69L5.75,2C4.07,1.66,2,2,2.47,5.74L.82,7.61a.59.59,0,0,0-.67.16A.59.59,0,0,0,.2,8.6a.59.59,0,0,0,.91-.73L2.54,6.24c0,.35.13.73.22,1.13,0,0-.19.61-.29.88a9.84,9.84,0,0,0,0,6.9c1.29,2.55,2.23,2.56,2.23,2.56a7.42,7.42,0,0,1-.28-2.51,7.14,7.14,0,0,1,1.25-3.35c.18-.28.34-.5.43-.63l2-3a3.39,3.39,0,0,0,.08.39c.32,1,.67,1.56,2.89,2.84.91.52.77,3.86.77,3.86s1-2.81.56-4h0a12.45,12.45,0,0,0,1.4,1.45,3,3,0,0,1,.65,3.56,4.47,4.47,0,0,0,.7-2.79A7.23,7.23,0,0,0,15,12.39a2.51,2.51,0,0,1,1,2.28,10.33,10.33,0,0,1-.68,3.82,19.3,19.3,0,0,1-2.15,3.12s4.14-3.48,4.79-7A12.19,12.19,0,0,0,18,7.72Z"/><path class="cls-12" d="M15.22,26.25h1.22a7,7,0,0,0-1-2.22,4.13,4.13,0,0,0-.91-1s-.06,0-.08-.08a3.69,3.69,0,0,0-1.09-.62l-.16-.06a1.58,1.58,0,0,0-.34-.08.44.44,0,0,1-.31-.14h0l-.09-.11s0,0-.06.11a10.22,10.22,0,0,1-1.59,1.59l-.93,0A10.88,10.88,0,0,1,8.25,22c0-.07,0-.1-.06-.11L8.1,22h0a.44.44,0,0,1-.31.14,2.47,2.47,0,0,0-.36.09l-.16.05a3.84,3.84,0,0,0-1.08.63L6.11,23a4.75,4.75,0,0,0-.9,1,7.64,7.64,0,0,0-1,2.22H5.44v.14c0,1.22,0,2.12,0,2.62h9.87c0-.5-.07-1.42,0-2.66Z"/><polygon class="cls-11" points="8.92 23.25 9.3 24.03 10.16 24.16 9.54 24.76 9.68 25.62 8.92 25.21 8.15 25.62 8.29 24.76 7.67 24.16 8.53 24.03 8.92 23.25"/><polygon class="cls-11" points="11.88 23.74 12.27 24.53 13.14 24.66 12.51 25.27 12.66 26.14 11.88 25.73 11.1 26.14 11.24 25.27 10.61 24.66 11.48 24.53 11.88 23.74"/><polygon class="cls-11" points="7.76 25.75 8.1 26.43 8.85 26.55 8.3 27.08 8.43 27.83 7.76 27.48 7.08 27.83 7.21 27.08 6.66 26.55 7.42 26.43 7.76 25.75"/><polygon class="cls-11" points="10.52 26.2 10.67 26.51 11 26.56 10.76 26.79 10.82 27.13 10.52 26.97 10.21 27.13 10.27 26.79 10.03 26.56 10.37 26.51 10.52 26.2"/><polygon class="cls-11" points="13.88 22.86 14.13 23.36 14.68 23.44 14.28 23.83 14.37 24.38 13.88 24.12 13.39 24.38 13.48 23.83 13.08 23.44 13.63 23.36 13.88 22.86"/><polygon class="cls-11" points="13.23 26.52 13.43 26.92 13.87 26.99 13.55 27.3 13.62 27.74 13.23 27.53 12.83 27.74 12.91 27.3 12.59 26.99 13.03 26.92 13.23 26.52"/></g></g></g></g></svg>