<svg xmlns="http://www.w3.org/2000/svg" viewBox="0 0 17.87 27"><defs><style>.cls-1{fill:#5c4c52;}.cls-2{fill:#e1bf9c;}.cls-3{fill:#f2d1ac;}.cls-4,.cls-7{fill:#c09a80;}.cls-4{opacity:0.7;}.cls-5{fill:#d3a789;}.cls-6{fill:#965458;}.cls-8{fill:#e0b89b;}.cls-9{fill:#3f3237;}</style></defs><g id="Layer_2" data-name="Layer 2"><g id="avatars"><g id="row-01"><g id="avatar-01-05"><path class="cls-1" d="M5.75,12.62a1.23,1.23,0,0,0-.83-.46,5,5,0,0,0-.51-1.27c-.7-1-2.45-.2-2.45-.2,0,1.12.39,1.68,0,2.58a2.81,2.81,0,0,1-.81,1.33,3.85,3.85,0,0,0-1,1.75,6,6,0,0,0,.22,3c.08.3-.34-2.08.78-2.47a3.19,3.19,0,0,0,.55-.25A3.5,3.5,0,0,1,1.61,18a2.82,2.82,0,0,0,.14,1.89,1.53,1.53,0,0,0,.85.8,1.28,1.28,0,0,1-.41-1.38c.16-.62.47-.89.63-1.41A4.44,4.44,0,0,0,3,17.19a1.25,1.25,0,0,0,.1.6c.19.38.81,1,.67,1.77a3.32,3.32,0,0,0,.52,3,2.84,2.84,0,0,1,0-1.49,1.34,1.34,0,0,1,.65-.78,1.48,1.48,0,0,1,.2,1,3.32,3.32,0,0,0,.52,3,2.81,2.81,0,0,1,0-1.48c.28-.8.79-.71,1.21-1.28a3.37,3.37,0,0,0,.46-3.06C7.19,18.29,6.45,13.58,5.75,12.62Z"/><path class="cls-1" d="M17.75,16.31a3.78,3.78,0,0,0-1-1.74,2.85,2.85,0,0,1-.81-1.33c-.39-.9,0-1.47,0-2.59,0,0-1.75-.75-2.45.21A4.86,4.86,0,0,0,13,12.12a1.2,1.2,0,0,0-.83.47c-.69.95-1.44,5.67-1.5,5.84a3.4,3.4,0,0,0,.46,3.07c.42.57.93.47,1.21,1.27a2.79,2.79,0,0,1,0,1.48,3.3,3.3,0,0,0,.52-3,1.5,1.5,0,0,1,.2-1,1.37,1.37,0,0,1,.65.79,2.79,2.79,0,0,1,0,1.48,3.3,3.3,0,0,0,.52-3c-.14-.77.48-1.4.67-1.78a1.37,1.37,0,0,0,.11-.59,3.29,3.29,0,0,0,.15.65c.16.52.47.79.63,1.41a1.28,1.28,0,0,1-.41,1.38,1.53,1.53,0,0,0,.85-.8,2.82,2.82,0,0,0,.14-1.89,3.49,3.49,0,0,1-.06-1.36,2.83,2.83,0,0,0,.55.25c1.12.39.7,2.78.78,2.48A6,6,0,0,0,17.75,16.31Z"/><path class="cls-2" d="M8.82,16.28V27H3l-.15-.06c0-5.75,3.56-6.18,3.56-6.18.36,0,.59-.46.74-1.15l.06-.34c0-.2.06-.4.08-.62s0-.26,0-.4c0-.53.06-1.11.06-1.67,0-.13,0-.25,0-.38S8.19,16.28,8.82,16.28Z"/><path class="cls-3" d="M14.8,26.94l-.13.06H8.82V16.28h0c.63,0,1.42-.08,1.42-.08v.44c0,.54,0,1.09.06,1.6,0,.13,0,.26,0,.39s.05.43.08.63h0a1.84,1.84,0,0,0,.05.25c.15.74.38,1.24.75,1.24C11.24,20.76,14.8,21.19,14.8,26.94Z"/><path class="cls-4" d="M10.44,19.26h0a1.86,1.86,0,0,1-1.61.88h0a2,2,0,0,1-1.6-.88c0-.19.06-.4.08-.62s0-.26,0-.4a6.14,6.14,0,0,0,1.47.2h0a6.55,6.55,0,0,0,1.51-.21l0,.39C10.39,18.85,10.41,19.06,10.44,19.26Z"/><path class="cls-5" d="M8.84,4c-6.16,0-6.2,5.17-5.92,8.55-.42-.8-1.67-.55-1.57.71S3.21,15.09,3.19,15c.5,2.78,3.4,4.39,5.65,4.39h.05V4Z"/><path class="cls-6" d="M14.8,26.94l-.13.06H3l-.15-.06c0-5.62,3.4-6.16,3.56-6.18h0c.27,0,.47-.26.61-.69a.62.62,0,0,0,.26.22,3.2,3.2,0,0,0,1.55.23,3.1,3.1,0,0,0,1.74-.37.14.14,0,0,0,.05-.08c.14.41.33.67.58.69h0S14.8,21.19,14.8,26.94Z"/><path class="cls-7" d="M1.74,12.71a.58.58,0,0,1,.89-.17.53.53,0,0,1,.15.56c0,.16-.22.17-.17.42s.17.29.24.36a.59.59,0,0,1,.21.23.67.67,0,0,1,0,.34c0,.2-.34.05-.54,0a4.35,4.35,0,0,1-.63-.52A1.12,1.12,0,0,1,1.74,12.71Z"/><path class="cls-8" d="M8.87,4c6.16,0,6.2,5.17,5.92,8.55.43-.8,1.68-.55,1.57.71S14.5,15.09,14.52,15c-.5,2.78-3.4,4.39-5.65,4.39h0V4Z"/><path class="cls-7" d="M16,12.71a.58.58,0,0,0-.89-.17.51.51,0,0,0-.14.56c0,.16.21.17.17.42a.44.44,0,0,1-.25.36.59.59,0,0,0-.21.23.57.57,0,0,0,0,.34c0,.2.33.05.53,0a4.42,4.42,0,0,0,.64-.52A1.14,1.14,0,0,0,16,12.71Z"/><path class="cls-2" d="M8.79,5.44A5.26,5.26,0,0,0,4.38,7.19c-1.26,1.63-1.21,4.12-.75,5.9.15.54.22,2,.32,2.55.43,2.41,3.09,3.7,4.84,3.7h0V5.44Z"/><path class="cls-3" d="M13.19,7.2A5.21,5.21,0,0,0,8.83,5.44v13.9c2,0,4.39-1.43,4.8-3.7.1-.54.17-2,.31-2.55C14.4,11.31,14.45,8.83,13.19,7.2Z"/><path class="cls-1" d="M6.77,3.94c-.67-.83-1.12-2.08,0-3A3.94,3.94,0,0,1,9.37,0c.47,0,1.82.13,2.19,1S13,2.29,12.05,3s-.61,1.27-2.79,1.27S6.77,3.94,6.77,3.94Z"/><path class="cls-6" d="M2.46,8.24c.08-.94-.93-.53.27-1.91s2-2.18,2.95-2.48A8,8,0,0,1,9.43,3c1.71.15,2.64-.45,3.53.82s1.2,1.39,1.55,2.82,1.51,2.52.16,2.35S2.46,8.24,2.46,8.24Z"/><path class="cls-9" d="M11.28,21.36a3.48,3.48,0,0,1-2.46.69,3.94,3.94,0,0,1-2.17-.47c-.42-.2-.72-.37-.41-.64a1.51,1.51,0,0,0,.18-.18h0a2,2,0,0,0,.24-.36c.16-.24-.28-.37,0-.55a.75.75,0,0,1,.48-.15c-.1.37.06.54.16.59a3.2,3.2,0,0,0,1.55.23,3.2,3.2,0,0,0,1.6-.32c.18-.1.13-.29.13-.37a.2.2,0,0,1,0-.08s.52,0,.48.29a1.05,1.05,0,0,0,.19.72l.07.09C11.47,21.09,11.74,21,11.28,21.36Z"/><path class="cls-1" d="M14.79,7.9c-.42-.15-1.47-.48-2.38-.8A1.79,1.79,0,0,0,12,7c-1.37-.39-1.44-1-3.43-.87S4,7.51,3,7.88a2.13,2.13,0,0,0-1.22,2.44,6.76,6.76,0,0,0,.34,1.8c1.3-.86,2.64-1.91,4.13-2.06a10.54,10.54,0,0,1,3.63,0c1.45.26,2.28,0,3.63.7.75.4,1.46.91,2.17,1.38a6.76,6.76,0,0,0,.34-1.8A2.14,2.14,0,0,0,14.79,7.9Z"/><path class="cls-1" d="M12.42,17.17c-.1-.33-.46-.23-1.13-.46a9,9,0,0,0-2.45-.35h0a9,9,0,0,0-2.45.35c-.67.23-1,.13-1.13.46a3,3,0,0,0,.16,1.11,4.74,4.74,0,0,0,1.74,1.21,3.38,3.38,0,0,0,1.68.2,3.4,3.4,0,0,0,1.69-.2,4.74,4.74,0,0,0,1.74-1.21A3,3,0,0,0,12.42,17.17Zm-1.26.16a4.32,4.32,0,0,1-1.23.77,1.11,1.11,0,0,1-.6.09h-1a1.18,1.18,0,0,1-.61-.09,4.51,4.51,0,0,1-1.24-.79,1.76,1.76,0,0,1,.36-.17,8.3,8.3,0,0,1,2-.28h0a7.9,7.9,0,0,1,2,.28,1.72,1.72,0,0,1,.35.16Z"/><polygon class="cls-1" points="5.64 23.86 5.2 23.1 4.76 23.86 4.32 24.63 4.76 25.39 5.2 26.16 5.64 25.39 6.08 24.63 5.64 23.86"/><polygon class="cls-1" points="7.41 23.86 6.96 23.1 6.52 23.86 6.08 24.63 6.52 25.39 6.96 26.16 7.41 25.39 7.85 24.63 7.41 23.86"/><polygon class="cls-1" points="9.17 23.86 8.73 23.1 8.29 23.86 7.85 24.63 8.29 25.39 8.73 26.16 9.17 25.39 9.61 24.63 9.17 23.86"/><polygon class="cls-1" points="10.93 23.86 10.49 23.1 10.05 23.86 9.61 24.63 10.05 25.39 10.49 26.16 10.93 25.39 11.37 24.63 10.93 23.86"/><polygon class="cls-1" points="12.69 23.86 12.25 23.1 11.81 23.86 11.37 24.63 11.81 25.39 12.25 26.16 12.69 25.39 13.13 24.63 12.69 23.86"/></g></g></g></g></svg>