<svg xmlns="http://www.w3.org/2000/svg" viewBox="0 0 15.36 26.91"><defs><style>.cls-1{fill:#e1bf9c;}.cls-2{fill:#f2d1ac;}.cls-3,.cls-5{fill:#c09a80;}.cls-3{opacity:0.7;}.cls-4{fill:#d3a789;}.cls-6{fill:#e0b89b;}.cls-7{fill:#c6696e;}.cls-8{fill:#d87373;}.cls-9{fill:#965458;}.cls-10{fill:#4e2815;}.cls-11{fill:#f9f9fa;}</style></defs><g id="Layer_2" data-name="Layer 2"><g id="avatars"><g id="row-02"><g id="avatar-02-09"><path class="cls-1" d="M7.67,15.74V26.86h-6l-.15-.06c0-3.63,1.37-5.21,2.44-5.9a3.35,3.35,0,0,1,1.25-.51h0l.08,0c.31-.08.51-.53.65-1.17,0-.11,0-.23.07-.35s.06-.42.08-.65,0-.27,0-.41c0-.68.07-1.42.07-2.13C6.2,15.66,7,15.74,7.67,15.74Z"/><path class="cls-2" d="M13.87,26.8l-.14.06H7.67V15.74h0c.66,0,1.47-.08,1.47-.08,0,.7,0,1.44.08,2.11l0,.41c0,.23.05.45.09.66h0c0,.1,0,.18,0,.27A1.87,1.87,0,0,0,10,20.34s0,0,.06,0l.14,0a3.05,3.05,0,0,1,.89.31C12.17,21.25,13.87,22.75,13.87,26.8Z"/><path class="cls-3" d="M9.35,18.84h0a2,2,0,0,1-1.68.91h0A2.16,2.16,0,0,1,6,18.85a6.17,6.17,0,0,0,.09-.64c0-.14,0-.27,0-.41A6.58,6.58,0,0,0,7.65,18h0a5.92,5.92,0,0,0,1.55-.21c0,.13,0,.27,0,.4S9.31,18.63,9.35,18.84Z"/><path class="cls-4" d="M7.66,3.8c-6.29,0-6.33,5.06-6,8.36-.43-.77-1.71-.49-1.6.76s1.9,1.73,1.88,1.59c.51,2.7,3.48,4.19,5.77,4.41h0V3.8Z"/><path class="cls-5" d="M.32,12.39a.62.62,0,0,1,.93-.16.49.49,0,0,1,.14.55c0,.16-.22.17-.17.41a.42.42,0,0,0,.25.35.55.55,0,0,1,.22.23.67.67,0,0,1,0,.34c-.05.2-.35,0-.55,0a3.21,3.21,0,0,1-.67-.51A1.06,1.06,0,0,1,.32,12.39Z"/><path class="cls-6" d="M7.69,3.8c6.3,0,6.34,5.06,6.06,8.36.43-.77,1.7-.49,1.6.76s-1.91,1.73-1.88,1.59C13,17.21,10,18.7,7.69,18.92H7.64V3.8Z"/><path class="cls-5" d="M15.08,12.39a.62.62,0,0,0-.93-.16.5.5,0,0,0-.15.55c.05.16.23.17.18.41a.42.42,0,0,1-.25.35.55.55,0,0,0-.22.23.67.67,0,0,0,0,.34c.05.2.35,0,.55,0a3.21,3.21,0,0,0,.67-.51A1.06,1.06,0,0,0,15.08,12.39Z"/><path class="cls-1" d="M7.63,5.23A5.6,5.6,0,0,0,3.06,7C1.76,8.56,1.8,11,2.29,12.77c.14.53.22,2,.32,2.51.45,2.38,3.21,3.64,5,3.64h0V5.23Z"/><path class="cls-2" d="M12.19,7A5.56,5.56,0,0,0,7.68,5.23V18.92c2.07,0,4.54-1.41,5-3.64.1-.53.17-2,.32-2.51C13.45,11,13.5,8.57,12.19,7Z"/><path class="cls-7" d="M8.74,16.77a1.69,1.69,0,0,1-1.07.51,1.58,1.58,0,0,1-1-.5,7.45,7.45,0,0,1,1-.07A9.63,9.63,0,0,1,8.74,16.77Z"/><path class="cls-8" d="M8,16.54a.28.28,0,0,0-.31.23.26.26,0,0,0-.29-.23,4.33,4.33,0,0,0-.77.23s.58.06.75.06.31.07.31,0c0,.12.13.07.29.07s.78-.08.78-.08A4.45,4.45,0,0,0,8,16.54Z"/><path class="cls-9" d="M13.87,26.8l-.14.06H1.61l-.15-.06c0-3.63,1.49-5.54,2.8-6.1,1,1,2.14,2.55,2.46,2.84.53.5.85,1.35,1.18,1.13s2.2-2.84,3.17-4C12.16,21.25,13.87,22.75,13.87,26.8Z"/><path class="cls-10" d="M5,20.66c.12.25,1.45,1.72,1.82,2.15s.54.37.78,1.2a11.35,11.35,0,0,1,.08,2.84s-.11-1.7-.6-2.13A28.92,28.92,0,0,0,3.94,23l1-.33L2.24,21.55a11,11,0,0,1,1.62-.93c.77-.33,1.41-.53,1.41-.53Z"/><path class="cls-10" d="M10.38,20.71c-.12.25-1.45,1.72-1.81,2.16s-.55.37-.79,1.2a11.87,11.87,0,0,0-.08,2.84s.12-1.71.6-2.14A30.3,30.3,0,0,1,11.43,23l-1-.33,2.68-1.07a10.31,10.31,0,0,0-1.61-.93c-.78-.33-1.42-.54-1.42-.54Z"/><path class="cls-11" d="M12.6,2.08a.31.31,0,0,0-.31.27H1.35a.32.32,0,1,0,0,.1H12.29a.32.32,0,1,0,.31-.37Z"/><path class="cls-11" d="M14.29,7.76a9.33,9.33,0,0,0-.58-2.3,4.61,4.61,0,0,0-2.52-2.19s0,0,0-.07A3.36,3.36,0,0,0,7.7,0,3.4,3.4,0,0,0,4.21,2.92C1.84,3.56.93,6.27.75,7.5c0,.09,0,.18,0,.26a5,5,0,0,0,.2,3.05,3.54,3.54,0,0,1,.22.44,4.88,4.88,0,0,0,.45,1.05,1.46,1.46,0,0,1,.44.61c.2.52.28.43.28.43S2,11.49,2,10.81a.41.41,0,0,1,0-.1,4.36,4.36,0,0,1,1.25-3l.17-.13a4.16,4.16,0,0,1,2.68-.4s.39.27.9.53a3.66,3.66,0,0,0,1.78.47c3.94-.2,4.77,1.91,4.86,2.35,0,.08,0,.15,0,.23l-.15,1.61c-.08.51-.14.92-.14.92s.08.09.28-.43a1.51,1.51,0,0,1,.37-.55,5.8,5.8,0,0,1,.33-1.11,1.69,1.69,0,0,0,.09-.44,7.71,7.71,0,0,0,.08-1A17.22,17.22,0,0,0,14.29,7.76Z"/></g></g></g></g></svg>