<svg xmlns="http://www.w3.org/2000/svg" xmlns:xlink="http://www.w3.org/1999/xlink" viewBox="0 0 16.4 25.05"><defs><style>.cls-1{fill:none;}.cls-2{fill:#e2bf9c;}.cls-3{fill:#f2d1ac;}.cls-4{fill:#d3a789;}.cls-5{clip-path:url(#clip-path);}.cls-6{fill:#c09a80;}.cls-7{fill:#fff;}.cls-8{fill:#414142;}</style><clipPath id="clip-path"><rect class="cls-1" x="6.41" y="15.51" width="3.51" height="2.08"/></clipPath></defs><g id="Layer_2" data-name="Layer 2"><g id="avatars"><g id="row-02"><g id="avatar-02-15"><path class="cls-2" d="M8.16,13.38V25.05H1.81L1.66,25c0-6.25,3.88-6.72,3.88-6.72.39,0,.64-.5.8-1.26a3.29,3.29,0,0,0,.07-.36A6.6,6.6,0,0,0,6.5,16c0-.14,0-.28,0-.43.06-.72.07-1.49.07-2.23,0,0,.86.08,1.55.08"/><path class="cls-3" d="M14.68,25l-.15.07H8.16V13.38h0c.69,0,1.55-.08,1.55-.08,0,.73,0,1.5.07,2.21,0,.14,0,.29,0,.42s.06.48.09.7h0c0,.1,0,.19.05.28.17.8.42,1.35.83,1.35,0,0,3.88.47,3.88,6.72"/><path class="cls-4" d="M8.17,0V16.71h.05c2.45,0,5.61-1.75,6.16-4.78a.37.37,0,0,0,0,.14.59.59,0,0,0,.89.21c.28-.26.1-.74.11-.75a2.06,2.06,0,0,0,1-1.45c.11-1.38-1.25-1.65-1.71-.77C15,5.62,14.94,0,8.22,0Zm6.55,11.9a.2.2,0,1,1,.4,0,.2.2,0,0,1-.4,0"/><g class="cls-5"><path class="cls-6" d="M9.92,16.63h0a2,2,0,0,1-1.75,1h0a2.21,2.21,0,0,1-1.75-.95A6.6,6.6,0,0,0,6.5,16c0-.14,0-.28,0-.43a7.28,7.28,0,0,0,1.6.21h0a6.48,6.48,0,0,0,1.63-.23c0,.14,0,.29,0,.42s.06.48.09.7"/></g><path class="cls-4" d="M8.18,0C1.46,0,1.42,5.62,1.72,9.31,1.25,8.43-.11,8.7,0,10.08a2,2,0,0,0,1,1.45s-.18.49.11.75A.59.59,0,0,0,2,12.07a.24.24,0,0,0,0-.14c.55,3,3.72,4.78,6.17,4.78h.05V0ZM1.47,12.09a.19.19,0,0,1,0-.38.19.19,0,1,1,0,.38"/><path class="cls-6" d="M.43,9.49a.64.64,0,0,1,1-.18.57.57,0,0,1,.15.61c-.05.18-.23.19-.19.46a.5.5,0,0,0,.27.39c.08.07.18.12.23.25a.62.62,0,0,1,0,.38c0,.21-.37,0-.58-.06a4,4,0,0,1-.69-.56,1.21,1.21,0,0,1-.2-1.29"/><path class="cls-2" d="M8.12,1.58c-2.21,0-3.83.65-4.81,1.91C1.94,5.26,2,8,2.5,9.91c.15.59.23,2.19.34,2.78.48,2.62,3.37,4,5.28,4h.05V1.59H8.12"/><path class="cls-3" d="M12.92,3.5A5.71,5.71,0,0,0,8.17,1.59V16.71c2.18,0,4.78-1.56,5.23-4,.1-.59.18-2.19.34-2.78.5-1.94.55-4.64-.82-6.41"/><path class="cls-7" d="M1.47,11.48a.42.42,0,1,0,0,.84.42.42,0,1,0,0-.84m0,.61a.19.19,0,0,1,0-.38.19.19,0,1,1,0,.38"/><path class="cls-7" d="M14.5,11.9a.42.42,0,1,0,.42-.42.42.42,0,0,0-.42.42m.22,0a.2.2,0,1,1,.4,0,.2.2,0,0,1-.4,0"/><path class="cls-6" d="M16,9.49a.63.63,0,0,0-1-.18.57.57,0,0,0-.16.61c0,.18.24.19.19.46a.48.48,0,0,1-.27.39.6.6,0,0,0-.22.25.62.62,0,0,0,0,.38c0,.21.36,0,.58-.06a4.46,4.46,0,0,0,.69-.56A1.23,1.23,0,0,0,16,9.49"/><path class="cls-7" d="M13.24,25.05H3.08c0-.4.07-1,.11-1.3.18-1.51,1.27-1.8,1.21-5.06,0-.05,0-.09,0-.14l1.07-.34v.05c0,.44.09,3.27.16,4a3.18,3.18,0,0,0,2.48,1.88,3.18,3.18,0,0,0,2.47-1.88c.07-.78.14-3.64.15-4a.18.18,0,0,0,0-.05l1.07.34a.61.61,0,0,1,.05.12c0,3.46,1,3.56,1.22,5.08,0,.32.08.9.11,1.3"/><path class="cls-8" d="M12,14.82a2.52,2.52,0,0,0-.22-.5,3.83,3.83,0,0,0-3.59-2.79H8a3.83,3.83,0,0,0-3.6,2.79,2.52,2.52,0,0,0-.22.5c-.28,1-.41,1.71.32,4h0s3.31,5.57,7.17,0h0C12.37,16.53,12.24,15.79,12,14.82ZM7.49,13.9a3.22,3.22,0,0,1,1.13,0,3.09,3.09,0,0,1,2.1,1.47c-.18.07,0,.11-.17.13a12.58,12.58,0,0,1-2.4-.24v0H8v0a12.77,12.77,0,0,1-2.41.24c-.2,0,0-.06-.17-.13A3.09,3.09,0,0,1,7.49,13.9Z"/></g></g></g></g></svg>