<svg xmlns="http://www.w3.org/2000/svg" viewBox="0 0 15.82 26.58"><defs><style>.cls-1{fill:#5c4c52;}.cls-2{fill:#f9f9fa;}.cls-3{fill:#e1bf9c;}.cls-4{fill:#f2d1ac;}.cls-5,.cls-7{fill:#c09a80;}.cls-5{opacity:0.7;}.cls-6{fill:#d3a789;}.cls-8{fill:#e0b89b;}.cls-9{fill:#abc88d;}.cls-10{fill:none;}</style></defs><g id="Layer_2" data-name="Layer 2"><g id="avatars"><g id="row-01"><g id="avatar-01-06"><path class="cls-1" d="M12.26,20.58c0,1-1.94,1.72-4.33,1.72S3.6,21.53,3.6,20.58s1.94-1.72,4.33-1.72S12.26,19.63,12.26,20.58Z"/><path class="cls-2" d="M14.21,13.94s-.36-.46-.15-3.42a12.47,12.47,0,0,0-.23-3.22c0,.09-2.11,4.31-2.11,4.31-.07,1.18-.13,2.34-.15,3.14l-.35-.61a11.43,11.43,0,0,0-.35,1.4v.07L9.72,14.46s0,.66.06,1.28l-.7-.69a9.38,9.38,0,0,0,.24,2.22,6.48,6.48,0,0,1,0,2.25,5,5,0,0,0,.7-1.23c0,.37-.07.64-.07.64a5.23,5.23,0,0,0,.92-1.85c0,.25,0,.51,0,.76a5.08,5.08,0,0,1-.28,1.58,7.15,7.15,0,0,0,.95-2.26,4.29,4.29,0,0,0,.53,2.19A2.6,2.6,0,0,1,12,18.06c0-.4,0-.83.1-1.26a3.38,3.38,0,0,0,1,1.74,5.81,5.81,0,0,1-.37-2.76c0-.31.06-.58.08-.83a8.3,8.3,0,0,0,.17,1.41,5.45,5.45,0,0,0,.79,2s-.51-1.15,0-4.25a4.84,4.84,0,0,0,0-1C14,13.84,14.21,13.94,14.21,13.94Z"/><path class="cls-2" d="M1.6,13.77s.37-.47.15-3.42A12.85,12.85,0,0,1,2,7.13c0,.08,2.11,4.31,2.11,4.31.08,1.18.14,2.33.15,3.13L4.6,14a12.25,12.25,0,0,1,.34,1.41.17.17,0,0,1,0,.07L6.1,14.29S6.1,15,6,15.57l.69-.69A9.24,9.24,0,0,1,6.5,17.1a6.18,6.18,0,0,0,0,2.24,4.77,4.77,0,0,1-.7-1.22c0,.36.06.64.06.64a5.07,5.07,0,0,1-.91-1.86c0,.26,0,.51,0,.77a4.92,4.92,0,0,0,.29,1.57,6.89,6.89,0,0,1-1-2.26,4.24,4.24,0,0,1-.52,2.19,2.54,2.54,0,0,0,.16-1.29c0-.39-.05-.82-.1-1.25a3.4,3.4,0,0,1-1,1.73,5.78,5.78,0,0,0,.37-2.76c0-.31-.06-.58-.09-.82a8.24,8.24,0,0,1-.16,1.4,5.24,5.24,0,0,1-.8,2s.52-1.14.05-4.24a5.64,5.64,0,0,1,0-1C1.84,13.66,1.6,13.77,1.6,13.77Z"/><path class="cls-3" d="M7.88,15.29V26.36H1.75L1.6,26.3C1.6,20.24,5.35,20,5.35,20c.28,0,.5-.28.65-.74a4.2,4.2,0,0,0,.12-.48,3.09,3.09,0,0,0,.07-.35c0-.21.06-.42.08-.65s0-.28,0-.42c.06-.69.08-1.45.08-2.16C6.39,15.21,7.21,15.29,7.88,15.29Z"/><path class="cls-4" d="M14.17,26.3s-.05.24-.15.06l-6.14-.21V15.29h0c.67,0,1.49-.08,1.49-.08,0,.71,0,1.46.08,2.14,0,.14,0,.28,0,.41s.05.46.08.67h0a2,2,0,0,0,.05.26,4.07,4.07,0,0,0,.15.58c.15.45.36.73.64.73C10.42,20,14.17,20.24,14.17,26.3Z"/><path class="cls-5" d="M9.58,18.43h0a2,2,0,0,1-1.7.92h0a2.12,2.12,0,0,1-1.69-.92c0-.2.06-.42.08-.65s0-.28,0-.42a6.32,6.32,0,0,0,1.55.2h0a5.74,5.74,0,0,0,1.58-.22c0,.14,0,.28,0,.41S9.55,18.22,9.58,18.43Z"/><path class="cls-6" d="M7.89,2.35c-6.48,0-6.52,5.44-6.23,9-.45-.84-1.76-.58-1.65.75S2,14,1.94,13.89c.54,2.93,3.59,4.62,5.95,4.62h.05V2.35Z"/><path class="cls-7" d="M.42,11.53a.62.62,0,0,1,.94-.18.54.54,0,0,1,.15.59c-.05.18-.23.19-.18.45a.43.43,0,0,0,.26.37c.07.07.17.12.22.25a.75.75,0,0,1,0,.36c-.05.21-.36,0-.56,0a3.84,3.84,0,0,1-.68-.54A1.2,1.2,0,0,1,.42,11.53Z"/><path class="cls-8" d="M7.93,2.35c6.48,0,6.52,5.44,6.23,9,.44-.84,1.76-.58,1.65.75s-2,1.94-1.93,1.79c-.54,2.93-3.59,4.62-6,4.62h0V2.35Z"/><path class="cls-7" d="M15.4,11.53a.62.62,0,0,0-.94-.18.54.54,0,0,0-.15.59c0,.18.22.19.18.45a.43.43,0,0,1-.26.37c-.07.07-.17.12-.22.25a.75.75,0,0,0,0,.36c0,.21.36,0,.56,0a3.45,3.45,0,0,0,.67-.54A1.18,1.18,0,0,0,15.4,11.53Z"/><path class="cls-3" d="M7.84,3.88c-2.14,0-3.7.62-4.65,1.85-1.31,1.71-1.26,4.33-.78,6.2.15.58.23,2.12.33,2.69.46,2.54,3.26,3.89,5.1,3.89h0V3.88Z"/><path class="cls-4" d="M12.47,5.73A5.48,5.48,0,0,0,7.89,3.88V18.51c2.1,0,4.61-1.5,5-3.89.11-.57.18-2.11.33-2.69C13.75,10.06,13.79,7.45,12.47,5.73Z"/><path class="cls-9" d="M9.71,20.74l-.06,5.62H6.05l0-5.71A7,7,0,0,0,8,21,6.37,6.37,0,0,0,9.71,20.74Z"/><polyline class="cls-10" points="14.58 26.58 14.06 26.36 13.55 26.36 9.65 26.58"/><path class="cls-1" d="M14.21,26.41a11.84,11.84,0,0,0-.1-1.64c-.38-2.87-1.76-4.06-2.71-4.55a3.23,3.23,0,0,0-.94-.32c-.28,0-.49-.22-.65-.68,0-.06-.05,0-.08-.12l0,1.75-.48,1.5H6.5L6,20.76v-1.6c-.15.46-.37.74-.65.74a2.83,2.83,0,0,0-.89.3c-1,.48-2.46,1.73-2.78,4.86a11.15,11.15,0,0,0-.08,1.35l.15.06H14.06Z"/><path class="cls-2" d="M15,8a8.57,8.57,0,0,1-.08,1.06,1.8,1.8,0,0,1-.09.46,6.1,6.1,0,0,0-.35,1.18,1.53,1.53,0,0,0-.39.57c-.21.55-.29.46-.29.46s.06-.44.14-1,.11-1.12.16-1.7c0-.08,0-.16,0-.24C14,8.39,13.12,6.16,9,6.37a3.85,3.85,0,0,1-1.87-.49c-.55-.27-.92-.56-1-.56a4.36,4.36,0,0,0-2.82.42,1.24,1.24,0,0,0-.18.14A4.59,4.59,0,0,0,1.81,9a.45.45,0,0,0,0,.11c0,.72.33,2.67.33,2.67s-.08.09-.3-.46a1.6,1.6,0,0,0-.46-.64A5.25,5.25,0,0,1,.91,9.55a3.22,3.22,0,0,0-.23-.46A5.3,5.3,0,0,1,.47,5.88a2.51,2.51,0,0,0,0-.27C.72,4.27,1.73,1.26,4.42.72S7.73-.45,9.92.45s3.58,1.53,4.25,3a9.23,9.23,0,0,1,.62,2.42A19,19,0,0,1,15,8Z"/><polygon class="cls-9" points="8.03 24.32 7.78 24.32 6.7 22.96 9.1 22.96 8.03 24.32"/></g></g></g></g></svg>