<svg xmlns="http://www.w3.org/2000/svg" xmlns:xlink="http://www.w3.org/1999/xlink" viewBox="0 0 16.45 27.24"><defs><style>.cls-1{fill:none;}.cls-2{fill:#493528;}.cls-3{fill:#e2bf9c;}.cls-4{fill:#f2d1ac;}.cls-5{clip-path:url(#clip-path);}.cls-6{fill:#c09a80;}.cls-7{fill:#d3a789;}.cls-8{fill:#e0b89b;}.cls-9{fill:#42698e;}.cls-10{fill:#375670;}.cls-11{fill:#3c5e7f;}.cls-12{fill:#424343;}.cls-13{fill:#f9f9fa;}.cls-14{fill:#070708;}</style><clipPath id="clip-path"><rect class="cls-1" x="6.44" y="17.64" width="3.52" height="2.09"/></clipPath></defs><g id="Layer_2" data-name="Layer 2"><g id="avatars"><g id="row-01"><g id="avatar-01-27"><path class="cls-2" d="M9.34,15.09l1.1.72a12.51,12.51,0,0,1-.1-1.33l1.82,1.19V15.6a9.89,9.89,0,0,1,.55-1.46l1,1.08a6.17,6.17,0,0,1-1.86,4.4A3.65,3.65,0,0,0,12.26,18c0-.26,0-.52,0-.78a5,5,0,0,1-1.45,1.92s.06-.29.11-.66a5.45,5.45,0,0,1-1.11,1.27s.37-1.72,0-2.33a6.43,6.43,0,0,1-.38-2.31"/><path class="cls-2" d="M7.11,15.07,6,15.79a10.94,10.94,0,0,0,.09-1.32L4.29,15.66a.17.17,0,0,1,0-.07,9.45,9.45,0,0,0-.55-1.46l-1,1.07a6.19,6.19,0,0,0,1.85,4.41A3.7,3.7,0,0,1,4.19,18a7,7,0,0,1,0-.79A5,5,0,0,0,5.68,19.1s-.06-.28-.1-.66a4.88,4.88,0,0,0,1.11,1.27s-.37-1.71,0-2.33a6.43,6.43,0,0,0,.38-2.31"/><path class="cls-3" d="M8.19,15.5V27.21H1.82l-.15-.07c0-6.28,3.89-6.75,3.89-6.75.39,0,.64-.5.81-1.26l.06-.36c0-.22.07-.45.09-.68s0-.29,0-.44c.06-.72.08-1.5.08-2.24,0,0,.86.09,1.55.09"/><path class="cls-4" d="M14.73,27.14l-.15.07H8.19V15.5h0c.69,0,1.55-.09,1.55-.09,0,.74,0,1.51.08,2.23,0,.14,0,.28,0,.42s.05.48.09.7h0A2.33,2.33,0,0,0,10,19c.16.81.42,1.35.82,1.35,0,0,3.9.47,3.9,6.75"/><g class="cls-5"><path class="cls-6" d="M10,18.76h0a2.07,2.07,0,0,1-1.76,1h0a2.19,2.19,0,0,1-1.75-.95c0-.22.06-.45.08-.68s0-.29,0-.44a6.88,6.88,0,0,0,1.61.21h0a7.06,7.06,0,0,0,1.64-.22c0,.14,0,.28,0,.42s.06.48.09.7"/></g><path class="cls-7" d="M8.21,2.07c-6.75,0-6.78,5.64-6.48,9.34-.47-.88-1.84-.61-1.72.77s2,2,2,1.86c.55,3,3.73,4.8,6.19,4.8h0V2.07h0"/><path class="cls-6" d="M.44,11.6a.64.64,0,0,1,1-.19.55.55,0,0,1,.16.61c-.05.18-.23.2-.19.46a.48.48,0,0,0,.27.4.59.59,0,0,1,.23.24.63.63,0,0,1,0,.38c0,.22-.37.05-.58-.05a4.1,4.1,0,0,1-.7-.56A1.23,1.23,0,0,1,.44,11.6"/><path class="cls-8" d="M8.24,2.07c6.74,0,6.78,5.64,6.48,9.34.46-.88,1.83-.61,1.72.77s-2,2-2,1.86c-.56,3-3.73,4.8-6.19,4.8H8.19V2.07h.05"/><path class="cls-6" d="M16,11.6a.65.65,0,0,0-1-.19.55.55,0,0,0-.15.61c0,.18.23.2.18.46a.45.45,0,0,1-.27.4.65.65,0,0,0-.22.24.63.63,0,0,0,0,.38c.05.22.37.05.58-.05a4.52,4.52,0,0,0,.7-.56A1.23,1.23,0,0,0,16,11.6"/><path class="cls-3" d="M8.15,3.66c-2.22,0-3.84.64-4.83,1.92C2,7.35,2,10.06,2.51,12c.15.6.23,2.2.34,2.79.48,2.64,3.39,4,5.3,4h0V3.66h0"/><path class="cls-4" d="M13,5.58C12,4.32,10.38,3.67,8.2,3.66V18.84c2.18,0,4.79-1.56,5.24-4,.11-.59.19-2.19.35-2.79.5-1.94.55-4.65-.83-6.43"/><path d="M14.72,27.14l-.15.07H1.81l-.15-.07a11.45,11.45,0,0,1,.16-2.05c.73-4.34,3.73-4.7,3.73-4.7h0l.09,0c.29-.08.49.13.64-.46l1.85,3.31,1.89-3.31c.12.53.31.29.56.43l.07,0a.35.35,0,0,0,.14,0s3.9.47,3.9,6.75"/><polygon class="cls-9" points="8.16 27.21 8.16 27.22 8.16 27.21 8.16 27.21"/><path class="cls-9" d="M5.64,20.31H5.53s-3,.37-3.78,4.75a12.81,12.81,0,0,0-.16,2.07l.16.07h4.6l-.06-7.37c-.15.6-.35.39-.65.47"/><polygon class="cls-9" points="8.16 27.22 8.16 27.23 8.17 27.21 8.16 27.21 8.16 27.22"/><path class="cls-9" d="M14.85,27.14c0-6.34-3.93-6.82-3.93-6.82a.39.39,0,0,1-.15,0l-.06,0c-.26-.14-.45.1-.58-.43L10,27.21H14.7l.15-.07"/><path class="cls-10" d="M3.2,26a12.11,12.11,0,0,1,0-2.41l1.19-.11,1.18.11a12.9,12.9,0,0,1,0,2.41A2.41,2.41,0,0,1,3.2,26"/><polygon class="cls-11" points="3.13 23.31 3.13 23.8 3.13 23.8 4.39 24.8 5.64 23.8 5.65 23.8 5.65 23.31 3.13 23.31"/><path class="cls-12" d="M4.53,24.37a.15.15,0,0,1-.15.15.15.15,0,0,1,0-.3.15.15,0,0,1,.15.15"/><path class="cls-13" d="M6.93,20.72A17.65,17.65,0,0,1,6.38,19l-.28.62c-.09.2-.33.43-.44.68a23.23,23.23,0,0,0-.57,3.24l1-.95a2.86,2.86,0,0,1,2.12.68c.16.2-1.26-2.56-1.26-2.56"/><path class="cls-13" d="M9.46,20.72A17.23,17.23,0,0,0,10,19l.29.62c.09.2.34.43.44.68a22.12,22.12,0,0,1,.58,3.24l-1-.95a3,3,0,0,0-2.17.68c-.16.2,1.29-2.56,1.29-2.56"/><path class="cls-14" d="M15.07,11.13a8.94,8.94,0,0,0-1.7-.17,21.17,21.17,0,0,0-2.57,0c-.2,0-.58.06-1,.12s-.82.16-1,.18l-.42,0H8.37l-.43,0c-.17,0-.58-.11-1-.18S6.2,11,6,11a21.17,21.17,0,0,0-2.57,0,9.21,9.21,0,0,0-1.7.17s-.08.46,0,.5.34.14.41.29.32,1.24.91,1.53c1,.49,4.18.52,4.74-1.27.07-.24.17-.39.35-.42a1.09,1.09,0,0,1,.28,0,1.14,1.14,0,0,1,.28,0c.17,0,.27.18.35.42.55,1.79,3.78,1.76,4.74,1.27.58-.29.84-1.38.9-1.53s.33-.24.41-.29S15.1,11.16,15.07,11.13ZM7.26,12.34c-.5,1.4-2.93,1.24-3.52,1.13A1.36,1.36,0,0,1,2.61,12.1c-.09-.79.52-.84,1.39-.91a10.87,10.87,0,0,1,1.74,0c.42,0,1.41.16,1.5.37A1,1,0,0,1,7.26,12.34Zm6.92-.24a1.36,1.36,0,0,1-1.13,1.37c-.59.11-3,.27-3.52-1.13a1,1,0,0,1,0-.77c.1-.21,1.08-.34,1.5-.37a11,11,0,0,1,1.75,0C13.66,11.26,14.27,11.31,14.18,12.1Z"/><path class="cls-2" d="M6,1.75C5.63,1.55,4.05,1,4.05,1s.53.32.6.6S1.08,3.15.57,6.76s.79,5,.79,5L1.12,9.28a12.07,12.07,0,0,0,0,2,5.81,5.81,0,0,1,0,2.93c-.41,1-.57,1.1-.57,1.1A6.58,6.58,0,0,0,2,13.54a10.21,10.21,0,0,0,.38-2.38c.13-.67.24-2.47.24-2.47a3.84,3.84,0,0,0,.1,2.89,3.24,3.24,0,0,0,.49.74,4.07,4.07,0,0,1-.34-1.87c0-.6.43-.69,1.27-2.9.4-1,.06-3.06,0-2.57a4.08,4.08,0,0,0,.31,2.33A3.32,3.32,0,0,0,6,8.54a2.73,2.73,0,0,1-1-2,3.13,3.13,0,0,1,.26-1.27S5,6.7,7.3,7.58a1.94,1.94,0,0,0,1.19.08,2,2,0,0,1-1-1.48,8,8,0,0,0,4.14,2.4,6.37,6.37,0,0,0,1.74.17s.11-.22.07.78A2.84,2.84,0,0,1,13,11.29a3.59,3.59,0,0,1-.4.4,2.56,2.56,0,0,0,1.25-1.21A2.94,2.94,0,0,0,14.08,9a17,17,0,0,1,0,2.51,5.52,5.52,0,0,1-.91,3,4.8,4.8,0,0,0,1.24-1.84,3.26,3.26,0,0,0,.27-1.52,2.91,2.91,0,0,0,1.72,2.46s-.5-.33-.74-2c-.3-2.08.22-3.7-.19-5.32a5.16,5.16,0,0,0-1.18-2.67,5.53,5.53,0,0,0-3.14-2.18,5.93,5.93,0,0,0-2.9-.37,3.39,3.39,0,0,0-1.81.51A1.52,1.52,0,0,1,6.5.73,4.06,4.06,0,0,1,6.81,0s-.45.65-.54.81c-.4.67-.27.94-.27.94"/></g></g></g></g></svg>