<svg xmlns="http://www.w3.org/2000/svg" xmlns:xlink="http://www.w3.org/1999/xlink" viewBox="0 0 17.27 29.43"><defs><style>.cls-1{fill:none;}.cls-2{fill:#e6c5a1;}.cls-3{fill:#f5d7b4;}.cls-4{clip-path:url(#clip-path);}.cls-5{fill:#c8a081;}.cls-6{fill:#d9ae8c;}.cls-7{fill:#e4bea0;}.cls-8{fill:#432d1b;}.cls-9{fill:#6c557b;}.cls-10{fill:#cc676d;}.cls-11{fill:#da7072;}.cls-12{fill:#3e3e3d;}.cls-13{fill:#f5f6f6;}.cls-14{fill:#010101;}</style><clipPath id="clip-path"><rect class="cls-1" x="7.56" y="19.95" width="3.47" height="2.05"/></clipPath></defs><g id="Layer_2" data-name="Layer 2"><g id="avatars"><g id="row-01"><g id="avatar-01-37"><path class="cls-2" d="M9.29,17.85v11.5H3l-.16-.06c0-4.75,2.27-6.12,3.32-6.5a2.17,2.17,0,0,1,.52-.14c.38,0,.62-.49.79-1.23,0-.12,0-.24.07-.36s.06-.44.08-.67,0-.28,0-.43c.06-.71.08-1.47.08-2.2,0,0,.84.09,1.52.09"/><path class="cls-3" d="M15.72,29.29l-.15.06H9.29V17.85h0c.68,0,1.53-.09,1.53-.09,0,.73,0,1.48.07,2.19,0,.14,0,.28,0,.41s.05.47.09.69h0c0,.1,0,.19.05.28.16.79.42,1.32.81,1.32a3,3,0,0,1,.79.25c1.13.51,3,2,3,6.39"/><g class="cls-4"><path class="cls-5" d="M11,21.05h0A2,2,0,0,1,9.3,22h0a2.21,2.21,0,0,1-1.73-.93c0-.21.07-.44.09-.67s0-.28,0-.43a7.18,7.18,0,0,0,1.58.21h0A6.8,6.8,0,0,0,10.9,20c0,.13,0,.27,0,.41l.09.69"/></g><path class="cls-6" d="M9.17,4.64c-6.62,0-6.66,5.55-6.37,9.18-.45-.86-1.8-.59-1.69.76s2,2,2,1.83c.55,3,3.67,4.72,6.08,4.72h.05V4.64H9.17"/><path class="cls-5" d="M1.54,14a.63.63,0,0,1,1-.18.55.55,0,0,1,.15.6c0,.17-.23.19-.18.45a.46.46,0,0,0,.26.39.47.47,0,0,1,.22.24.6.6,0,0,1,0,.37c0,.22-.36,0-.57-.05a3.9,3.9,0,0,1-.68-.55A1.19,1.19,0,0,1,1.54,14"/><path class="cls-7" d="M9.21,4.64c6.62,0,6.66,5.55,6.37,9.18.45-.86,1.8-.59,1.69.76s-2,2-2,1.83c-.55,3-3.66,4.72-6.08,4.72H9.16V4.64h.05"/><path class="cls-5" d="M16.84,14a.63.63,0,0,0-1-.18.55.55,0,0,0-.15.6c0,.17.23.19.19.45a.48.48,0,0,1-.27.39.52.52,0,0,0-.22.24.6.6,0,0,0,0,.37c0,.22.36,0,.57-.05a3.9,3.9,0,0,0,.68-.55A1.19,1.19,0,0,0,16.84,14"/><path class="cls-2" d="M9.25,6.21c-2.18,0-3.78.63-4.74,1.88-1.35,1.75-1.3,4.41-.8,6.33.15.58.23,2.16.33,2.74.47,2.59,3.33,4,5.21,4H9.3V6.21H9.25"/><path class="cls-3" d="M14,8.09A5.62,5.62,0,0,0,9.3,6.21V21.12c2.15,0,4.71-1.53,5.16-4,.1-.58.18-2.16.33-2.74.5-1.91.55-4.58-.81-6.33"/><path class="cls-1" d="M11.37,7.31A4.09,4.09,0,0,0,10,6.68,8.29,8.29,0,0,1,11.37,7.31Z"/><path class="cls-1" d="M3.29,11.19a5,5,0,0,0-.12.63,8.53,8.53,0,0,1,.27-.88A1.32,1.32,0,0,0,3.29,11.19Z"/><path class="cls-8" d="M7.29,6.69l0,0h0S7.28,6.7,7.29,6.69Z"/><path class="cls-9" d="M14.34,29.35H4.55c0-.4.06-1,.1-1.3A28.38,28.38,0,0,1,5.81,23a.69.69,0,0,0,.05-.13l1-.35v.06c0,.43.08,2.3.16,3.08,0,.56,1.3.82,2.38.86s2.34-.09,2.39-.65c.07-.79.13-2.89.14-3.3a.18.18,0,0,0,0-.05l1,.35s0,.07,0,.11a27.39,27.39,0,0,1,1.17,5.12c0,.31.08.9.11,1.3"/><path class="cls-10" d="M10.82,19a2.41,2.41,0,0,1-1.52.72,2.26,2.26,0,0,1-1.48-.71,9.7,9.7,0,0,1,1.48-.11,11.65,11.65,0,0,1,1.52.1"/><path class="cls-11" d="M9.73,18.7c-.24,0-.43.14-.43.33,0-.19-.19-.33-.43-.33A6,6,0,0,0,7.78,19s.83.08,1.07.08.45.1.45-.08c0,.18.18.11.41.11S10.82,19,10.82,19a6,6,0,0,0-1.09-.34"/><rect class="cls-12" x="7.62" y="21.18" width="3.65" height="7.48" rx="0.89"/><rect class="cls-13" x="8.09" y="26.66" width="2.71" height="2.77"/><rect class="cls-13" x="7.02" y="25.09" width="4.85" height="4.34"/><path class="cls-2" d="M5.66,27.66A7.83,7.83,0,0,1,3,29.27s.06.08,0,.08H5.17s.5-.81,1.17-.75Z"/><path class="cls-2" d="M13.07,27.66a7.83,7.83,0,0,0,2.64,1.61s-.06.08,0,.08H13.56s-.5-.81-1.17-.75Z"/><polygon class="cls-14" points="8.12 27.39 8.52 27.39 8.52 28.6 8.86 28.6 8.86 27.39 9.27 27.39 9.27 27.1 8.12 27.1 8.12 27.39"/><path class="cls-14" d="M10.41,27.1l-.2.64c-.05.17-.09.35-.13.53h0a4.56,4.56,0,0,0-.13-.53l-.18-.64H9.39l.48,1.5h.39l.51-1.5Z"/><path class="cls-2" d="M7.73,28c-.55.63-1.36.83-1.8.44s-.33-1.21.23-1.84,1.36-.83,1.8-.45S8.29,27.32,7.73,28Z"/><path class="cls-2" d="M11.08,28c.56.63,1.37.83,1.8.44s.34-1.21-.22-1.84-1.37-.83-1.8-.45S10.52,27.32,11.08,28Z"/><path class="cls-12" d="M14.94,5.54a3.56,3.56,0,0,0-.49-.6h0a10.71,10.71,0,0,0-3.3-1.86c-1.9-.81-2.59-.4-4.55.09a1.84,1.84,0,0,0-.19-.4,1.45,1.45,0,0,0-.86-.61l.69-.69a.88.88,0,0,0,.39.11A.79.79,0,0,0,6.62,0a.78.78,0,0,0-.78.79.8.8,0,0,0,.11.4l-.88.89a3,3,0,0,0-1.9.6A2.75,2.75,0,0,0,1.88,5.29L1.17,6a.77.77,0,0,0-.39-.11.79.79,0,1,0,.78.79.81.81,0,0,0-.11-.41L2,5.7a.75.75,0,0,0,.07.12,1.5,1.5,0,0,0,.51.46A8.33,8.33,0,0,0,2,8.34l0,.28a2.89,2.89,0,0,0,0,.29h0C1.18,13,3,13.76,3,13.79a.86.86,0,0,1,.26.36c.21.56.29.47.29.47s-.3-2-.33-2.73v-.11A4.83,4.83,0,0,1,4.54,8.62s2.34-1.27,3.65,2.43a5.49,5.49,0,0,0-.74-3h0c.08,0,.28.2.55.36a7.51,7.51,0,0,1,2.74,5.23,5.64,5.64,0,0,0-.57-4.53h.27a4.13,4.13,0,0,1,2.28,2.05,7.73,7.73,0,0,0-.63-1.94c2.41.46,3,2,3.06,2.43,0,.08,0,.16,0,.24-.05.59-.11,1.27-.15,1.73s-.14,1-.14,1,.08.09.29-.47c.1-.28.44-.45.57-.59S17.64,9.12,14.94,5.54ZM6.65.33a.41.41,0,0,1,.41.42.41.41,0,0,1-.41.42.42.42,0,0,1,0-.84ZM.77,7.08a.42.42,0,0,1,0-.84.42.42,0,0,1,0,.84Z"/></g></g></g></g></svg>