<svg xmlns="http://www.w3.org/2000/svg" viewBox="0 0 15.25 24.51"><defs><style>.cls-1{fill:#e1bf9c;}.cls-2{fill:#f2d1ac;}.cls-3,.cls-5{fill:#c09a80;}.cls-3{opacity:0.7;}.cls-4{fill:#d3a789;}.cls-6{fill:#e0b89b;}.cls-7{fill:#3b1214;}.cls-8{fill:#711011;}.cls-9{fill:#262525;}.cls-10{fill:#e6e8e7;}.cls-11{fill:#f0efee;}</style></defs><g id="Layer_2" data-name="Layer 2"><g id="avatars"><g id="row-02"><g id="avatar-02-34"><path class="cls-1" d="M7.61,13.36V24.5h-6l-.14-.06c0-6,3.66-6.43,3.66-6.43h0l.08,0c.3-.08.5-.53.64-1.18l0-.15c0-.06,0-.13,0-.19s.06-.42.08-.65,0-.27,0-.41c0-.69.07-1.43.07-2.14C6.16,13.27,7,13.36,7.61,13.36Z"/><path class="cls-2" d="M13.77,24.44l-.14.06h-6V13.36h0c.65,0,1.46-.09,1.46-.09,0,.71,0,1.44.07,2.12,0,.14,0,.27,0,.4s.05.46.08.67h0l0,.13a.68.68,0,0,0,0,.14c.13.62.31,1.08.58,1.23L10,18l.14,0S13.77,18.46,13.77,24.44Z"/><path class="cls-3" d="M9.28,16.46h0a1.93,1.93,0,0,1-1.66.92h0A2.13,2.13,0,0,1,6,16.47a6.37,6.37,0,0,0,.09-.65l0-.41a6.57,6.57,0,0,0,1.52.2h0a6.3,6.3,0,0,0,1.55-.22c0,.14,0,.27,0,.41S9.25,16.25,9.28,16.46Z"/><path class="cls-4" d="M7.61,1.38c-6.26,0-6.29,5.07-6,8.38C1.17,9-.1,9.27,0,10.52s1.89,1.73,1.86,1.6c.51,2.7,3.46,4.2,5.74,4.41h0V1.38Z"/><path class="cls-5" d="M.32,10a.61.61,0,0,1,.92-.16.49.49,0,0,1,.14.55c0,.16-.22.17-.17.41s.18.29.25.36.17.11.21.22a.51.51,0,0,1,0,.34c0,.2-.35,0-.54,0a4,4,0,0,1-.66-.51A1.06,1.06,0,0,1,.32,10Z"/><path class="cls-6" d="M7.64,1.38c6.25,0,6.29,5.07,6,8.38.43-.78,1.7-.49,1.59.76s-1.89,1.73-1.86,1.6c-.51,2.7-3.46,4.2-5.74,4.41h0V1.38Z"/><path class="cls-5" d="M15,10a.6.6,0,0,0-.91-.16.47.47,0,0,0-.15.55c0,.16.22.17.18.41s-.18.29-.26.36-.17.11-.21.22a.58.58,0,0,0,0,.34c.05.2.35,0,.55,0a4.49,4.49,0,0,0,.66-.51A1.08,1.08,0,0,0,15,10Z"/><path class="cls-1" d="M7.57,2.82A5.53,5.53,0,0,0,3,4.55c-1.29,1.6-1.24,4.06-.76,5.82.14.54.22,2,.32,2.52.45,2.38,3.19,3.65,5,3.65h0V2.82Z"/><path class="cls-2" d="M12.11,4.55A5.5,5.5,0,0,0,7.62,2.82V16.53c2.06,0,4.52-1.41,4.94-3.64.1-.53.18-2,.32-2.52C13.36,8.61,13.41,6.16,12.11,4.55Z"/><path class="cls-7" d="M8.68,14.38a1.69,1.69,0,0,1-1.06.51,1.55,1.55,0,0,1-1-.5,7.2,7.2,0,0,1,1-.07A9.55,9.55,0,0,1,8.68,14.38Z"/><path class="cls-8" d="M7.92,14.15a.28.28,0,0,0-.3.23.26.26,0,0,0-.29-.23,4.18,4.18,0,0,0-.76.23s.57.07.74.07.31.06.31-.06c0,.12.12.07.29.07s.77-.08.77-.08A4.18,4.18,0,0,0,7.92,14.15Z"/><path class="cls-9" d="M13.79,24.45a.52.52,0,0,0-.15.06h-12l-.15-.06A9.83,9.83,0,0,1,2,21.1c1.35-.94,4.13-1.54,5.63,0a5.74,5.74,0,0,1,4.67-.3,3.36,3.36,0,0,1,1.12.76A10.38,10.38,0,0,1,13.79,24.45Z"/><path class="cls-9" d="M13.86,24.43l-.15.07H1.62l-.14-.07c0-6.05,3.69-6.5,3.69-6.5h0s.15,0,.18,0c.31-.08-.33-.15-.49,1.05-.13,1,.57,1.92-.08,2.25.19.23,1.83,1.66,2.4,1.64h.84c.58,0,2.27-1.44,2.46-1.7-.65-.33.12-1.25-.09-2.25s-.44-1-.42-1,.12,0,.17,0S13.86,18.38,13.86,24.43Z"/><path class="cls-10" d="M1.59,23h0v0h0Z"/><path class="cls-10" d="M13.68,23v0h0Z"/><path class="cls-11" d="M13.71,4.24c.57.68.91,1.16.91,1.16A5.31,5.31,0,0,0,8.82,0l0,0C7.83,0,6.5.15,6,1.17,5.19.56,3.79.93,3,1.31a13.27,13.27,0,0,0-1.47.81,4.38,4.38,0,0,1,1.78-.41A1.59,1.59,0,0,0,3,1.83,3.56,3.56,0,0,0,1.12,3.68,10.88,10.88,0,0,0,.5,5.84s.26-.41.64-.92c-.07.14-.13.29-.2.45C-.64,9.5,2,11.5,2,11.5a11.54,11.54,0,0,1-.34-2.19,10,10,0,0,0,1.06,3.32C1.32,7.13,5.23,6.18,6.9,6c.24,0,.6-1.18.82-1.15,0,0,5,2.16,6,5.28,0,0,1.36-3.28-.14-6Z"/></g></g></g></g></svg>