<svg xmlns="http://www.w3.org/2000/svg" xmlns:xlink="http://www.w3.org/1999/xlink" viewBox="0 0 16.2 27.24"><defs><style>.cls-1{fill:none;}.cls-2{fill:#e2bf9c;}.cls-3{fill:#f2d1ac;}.cls-4{clip-path:url(#clip-path);}.cls-5{fill:#c09a80;}.cls-6{fill:#d3a789;}.cls-7{fill:#e0b89b;}.cls-8{fill:#c7696e;}.cls-9{fill:#d87373;}.cls-10{fill:#050606;}.cls-11{fill:#fdb515;}.cls-12{fill:#231f20;}</style><clipPath id="clip-path"><rect class="cls-1" x="6.34" y="17.67" width="3.53" height="2.08"/></clipPath></defs><g id="Layer_2" data-name="Layer 2"><g id="avatars"><g id="row-02"><g id="avatar-02-27"><path class="cls-2" d="M8.09,15.53V27.24H1.73l-.16-.07a11.16,11.16,0,0,1,.09-1.47c.54-4.89,3.81-5.28,3.81-5.28h0l.08,0c.33-.09.54-.56.69-1.24,0,0,0,0,0-.06l0-.11,0-.19c0-.22.07-.45.09-.68s0-.29,0-.44c.06-.71.07-1.5.07-2.24,0,0,.86.09,1.55.09"/><path class="cls-3" d="M14.63,27.17l-.15.07H8.09V15.53h0c.69,0,1.55-.09,1.55-.09,0,.74,0,1.51.08,2.23l0,.42c0,.25.06.48.09.7h0c0,.1,0,.19.05.28.14.65.33,1.14.62,1.3l.07,0a.32.32,0,0,0,.14,0s3.89.47,3.89,6.75"/><g class="cls-4"><path class="cls-5" d="M9.86,18.79h0a2,2,0,0,1-1.76,1h0a2.21,2.21,0,0,1-1.75-.95l.09-.68c0-.14,0-.29,0-.43a7.28,7.28,0,0,0,1.6.21h0a6.64,6.64,0,0,0,1.65-.23l0,.42c0,.25.06.48.09.7"/></g><path class="cls-6" d="M8.09,2.94c-6.65,0-6.69,5.33-6.39,8.81-.46-.81-1.8-.51-1.69.8s2,1.82,2,1.68c.54,2.84,3.68,4.41,6.1,4.64h.05V3H8.09"/><path class="cls-5" d="M.34,12a.66.66,0,0,1,1-.18.5.5,0,0,1,.15.58c0,.17-.23.18-.19.44s.19.3.28.37a.58.58,0,0,1,.22.24.57.57,0,0,1,0,.36c-.05.2-.37,0-.58-.05a4.37,4.37,0,0,1-.7-.54A1.11,1.11,0,0,1,.34,12"/><path class="cls-7" d="M8.12,2.94c6.64,0,6.68,5.33,6.39,8.81.45-.81,1.8-.51,1.69.8s-2,1.82-2,1.68c-.54,2.84-3.67,4.41-6.09,4.64h0V3h0"/><path class="cls-5" d="M15.91,12a.65.65,0,0,0-1-.18.51.51,0,0,0-.16.58c.05.17.24.18.19.44s-.19.3-.27.37a.54.54,0,0,0-.23.24.64.64,0,0,0,0,.36c.05.2.37,0,.58-.05a4,4,0,0,0,.7-.54A1.11,1.11,0,0,0,15.91,12"/><path class="cls-2" d="M8.05,4.46c-2.22,0-3.84.61-4.82,1.82C1.85,8,1.91,10.54,2.41,12.39c.16.56.24,2.09.34,2.65.48,2.5,3.39,3.83,5.3,3.83h0V4.46h0"/><path class="cls-3" d="M12.86,6.28c-1-1.2-2.57-1.81-4.76-1.82V18.87c2.19,0,4.8-1.48,5.25-3.83.11-.56.18-2.09.34-2.65.5-1.84.55-4.42-.83-6.11"/><path class="cls-8" d="M9.22,16.61a1.76,1.76,0,0,1-1.12.54A1.66,1.66,0,0,1,7,16.62a7.21,7.21,0,0,1,1.09-.08,9,9,0,0,1,1.12.07"/><path class="cls-9" d="M8.42,16.36a.29.29,0,0,0-.32.25.29.29,0,0,0-.32-.25,4.53,4.53,0,0,0-.8.25s.61.06.79.06.33.07.33-.06c0,.13.13.08.3.08s.82-.08.82-.08a4.53,4.53,0,0,0-.8-.25"/><path class="cls-10" d="M8.54,22.92V23c0,1.24,0,3.55,0,4.25H2.89l-.12-1.48L1.66,25.7s-.06-.07-.09-.19a.42.42,0,0,1,0-.12A5.21,5.21,0,0,1,2,21.6c.27-.43,1.17-.66,1.17-.66a3.28,3.28,0,0,1,1.52-.46,3.28,3.28,0,0,0,1-.13l.09-.07a1.27,1.27,0,0,0,.13-.22,4.66,4.66,0,0,0,.27-.76l.06-.15h0c0-.09,0-.15.08-.15h.07l0,.11a1.68,1.68,0,0,0,.7.65c.51.27.67.24.9.67a4.18,4.18,0,0,1,.21,1.31,2.62,2.62,0,0,1,0,.27.57.57,0,0,1,0,.12s0,.05,0,.07.39.29.44.66v.07"/><path class="cls-10" d="M14.52,25.7l-1.11.06-.12,1.48H7.66c0-.6,0-2.34,0-3.61v-.14c0-.21,0-.4,0-.57,0-.41.44-.68.44-.73a2.48,2.48,0,0,1,0-.46,3.66,3.66,0,0,1,.22-1.31c.21-.43.38-.4.89-.67a1.56,1.56,0,0,0,.69-.65l0-.11h.07c.08,0,.18.6.41,1.07a1.27,1.27,0,0,0,.13.22.31.31,0,0,0,.09.07,3.22,3.22,0,0,0,1,.13,3.28,3.28,0,0,1,1.52.46,2.43,2.43,0,0,1,1.17.66,5.09,5.09,0,0,1,.3,4.1"/><path class="cls-11" d="M7.89,21.78v.12H7.83a3.91,3.91,0,0,1-2.24-1.54.27.27,0,0,0,.08-.07,3.88,3.88,0,0,0,2.11,1.49,3.19,3.19,0,0,0-.19-1.33c-.07-.14-.37-.28-.64-.41a2.54,2.54,0,0,1-.5-.28,1.14,1.14,0,0,1-.36-.45c0-.05,0-.11,0-.15a1.29,1.29,0,0,0,.39.51,2.69,2.69,0,0,0,.49.27c.3.15.6.28.69.47a3.42,3.42,0,0,1,.19,1.38"/><path class="cls-11" d="M2.72,25.46v.11l-1.17-.06s0-.07,0-.12Z"/><path class="cls-11" d="M8.31,21.78v.12h.06a3.91,3.91,0,0,0,2.24-1.54l-.09-.07a3.83,3.83,0,0,1-2.1,1.49,3.19,3.19,0,0,1,.19-1.33c.07-.14.37-.28.63-.41a2.38,2.38,0,0,0,.51-.28,1.14,1.14,0,0,0,.36-.45.66.66,0,0,0,0-.15,1.18,1.18,0,0,1-.38.51,2.69,2.69,0,0,1-.49.27c-.31.15-.6.28-.69.47a3.42,3.42,0,0,0-.19,1.38"/><path class="cls-11" d="M13.45,25.46v.11l1.17-.06a.42.42,0,0,0,0-.12Z"/><path class="cls-11" d="M8.06,22a1.05,1.05,0,0,1-.66-.23l.29-.35a.63.63,0,0,0,.81,0l.28.35a1.18,1.18,0,0,1-.72.26"/><path class="cls-11" d="M8.69,21.78l-.58.34c-1.84,1.08-4,2.54-4.8,4.68a3.6,3.6,0,0,0-.12.44H3.08a4.21,4.21,0,0,1,.12-.48c.77-2.2,3-3.67,4.9-4.76l.54-.32Z"/><path class="cls-12" d="M12.93,5.32c.46-.16,1-.3,1.07-1.09s.6-1.4-.15-2.24A6.35,6.35,0,0,0,12.21.68,9.15,9.15,0,0,0,10.78.15C10.18,0,10-.1,9.45.15A2.31,2.31,0,0,0,8,1.5c-.44.8-.63.78-.7,1.26s-.53.75,0,.94.63.85,1.18,1,4.43.62,4.43.62Z"/><path class="cls-12" d="M14.8,11.17a1.68,1.68,0,0,0-.4.58c-.21.56-.3.46-.3.46s.34-2.18.34-2.79-1.94-3.26-3-3.62-2.09.39-3.25.39h-.1c-1.14,0-2.13-.74-3.2-.39s-3,3-3,3.62.33,2.79.33,2.79-.08.1-.29-.46a1.64,1.64,0,0,0-.48-.64c-.29-3.78-.13-9.34,6.68-9.34h0c6.84,0,7,5.63,6.68,9.4"/></g></g></g></g></svg>