<svg xmlns="http://www.w3.org/2000/svg" viewBox="0 0 16.65 25.6"><defs><style>.cls-1{fill:#e1bf9c;}.cls-2{fill:#f2d1ac;}.cls-3,.cls-5{fill:#c09a80;}.cls-3{opacity:0.7;}.cls-4{fill:#d3a789;}.cls-6{fill:#e0b89b;}.cls-7{fill:#c6696e;}.cls-8{fill:#d87373;}.cls-9{fill:none;}.cls-10{fill:#607298;}.cls-11{fill:#191919;}</style></defs><g id="Layer_2" data-name="Layer 2"><g id="avatars"><g id="row-01"><g id="avatar-01-16"><path class="cls-1" d="M8.31,13.56v12H1.77l-.16-.06c0-4.4,1.86-6,3-6.61a3.3,3.3,0,0,1,1-.33h0l.09,0c.33-.09.55-.58.7-1.27,0-.12,0-.25.07-.38a7,7,0,0,0,.09-.7c0-.14,0-.29,0-.44.06-.74.08-1.54.08-2.3C6.72,13.48,7.6,13.56,8.31,13.56Z"/><path class="cls-2" d="M15,25.53l-.16.06H8.31v-12h0c.71,0,1.59-.08,1.59-.08,0,.75,0,1.55.08,2.28,0,.15,0,.29,0,.44s.06.49.09.71h0l.06.28a2,2,0,0,0,.63,1.34l.07,0a.32.32,0,0,0,.14,0,3.15,3.15,0,0,1,.79.24C13,19.35,15,20.91,15,25.53Z"/><path class="cls-3" d="M10.13,16.91h0a2.12,2.12,0,0,1-1.81,1h0a2.27,2.27,0,0,1-1.8-1,7,7,0,0,0,.09-.7c0-.14,0-.29,0-.44A7.15,7.15,0,0,0,8.29,16h0A6.89,6.89,0,0,0,10,15.76c0,.15,0,.3,0,.44S10.1,16.69,10.13,16.91Z"/><path class="cls-4" d="M8.31.63c-6.83,0-6.87,5.48-6.57,9C1.28,8.85-.11,9.16,0,10.5s2.06,1.87,2,1.73C2.6,15.14,5.82,16.76,8.31,17h0V.64Z"/><path class="cls-5" d="M.35,9.93a.68.68,0,0,1,1-.18.52.52,0,0,1,.16.6c-.05.17-.24.18-.19.45a.46.46,0,0,0,.28.38c.08.07.18.12.23.24a.6.6,0,0,1,0,.37c-.05.22-.38.05-.6,0a4.1,4.1,0,0,1-.71-.55A1.12,1.12,0,0,1,.35,9.93Z"/><path class="cls-6" d="M8.34.63c6.83,0,6.87,5.48,6.56,9,.47-.83,1.86-.52,1.74.82s-2.06,1.87-2,1.73c-.56,2.91-3.78,4.53-6.27,4.76H8.29V.64Z"/><path class="cls-5" d="M16.35,9.93a.68.68,0,0,0-1-.18.52.52,0,0,0-.16.6c.05.17.24.18.19.45s-.2.31-.28.38-.18.12-.23.24a.6.6,0,0,0,0,.37c.05.22.38.05.6,0a4.1,4.1,0,0,0,.71-.55A1.14,1.14,0,0,0,16.35,9.93Z"/><path class="cls-1" d="M8.27,2.19c-2.28,0-3.95.63-5,1.87C1.9,5.79,2,8.44,2.48,10.34c.16.58.24,2.14.35,2.72C3.32,15.63,6.31,17,8.27,17h.05V2.19Z"/><path class="cls-2" d="M13.22,4.06c-1-1.23-2.65-1.86-4.9-1.87V17c2.25,0,4.93-1.53,5.4-3.94.1-.58.19-2.14.35-2.72C14.58,8.44,14.64,5.8,13.22,4.06Z"/><path class="cls-7" d="M9.47,14.67a1.79,1.79,0,0,1-1.15.56,1.73,1.73,0,0,1-1.12-.54,6.89,6.89,0,0,1,1.12-.09A9.42,9.42,0,0,1,9.47,14.67Z"/><path class="cls-8" d="M8.65,14.42a.31.31,0,0,0-.33.25A.29.29,0,0,0,8,14.42a4.73,4.73,0,0,0-.83.25s.63.07.81.07.34.07.34-.06c0,.13.13.08.31.08s.84-.09.84-.09A4.57,4.57,0,0,0,8.65,14.42Z"/><polygon class="cls-9" points="3.99 22.78 3.99 22.78 3.99 22.79 3.99 22.78"/><path class="cls-1" d="M2.94,20.53H2.85C2.54,21.34,4,22.78,4,22.78H4C3.6,22,3.24,21.25,2.94,20.53Z"/><path class="cls-1" d="M2.94,20.53c.3.72.66,1.5,1.05,2.25C4.09,20.67,3.24,20.52,2.94,20.53Z"/><path class="cls-10" d="M14.36,21.59a5.7,5.7,0,0,0-1-1.63,4.62,4.62,0,0,0-1.53-1.13,15.79,15.79,0,0,1-2.66,2.94c-2.63,1.8-3.69.05-3.72,0a18.76,18.76,0,0,1-1.11-2.68,4.83,4.83,0,0,0-1.42,1.36l0,.08c.3,0,1.15.14,1.05,2.25H4v2.79l1.65,0h9.23l.16-.06A10.08,10.08,0,0,0,14.36,21.59Z"/><path class="cls-2" d="M12.85,25.55s-.8-5.17.94-5A8.61,8.61,0,0,1,15,25.6Z"/><path class="cls-11" d="M15.17,5.23c-.08-.23-.16-.45-.25-.65V4.49a1.12,1.12,0,0,0-.35-.78A.49.49,0,0,0,14.51,3a.42.42,0,0,0,.26-.12.41.41,0,0,0,0-.6l-.15-.14a.72.72,0,0,0,.15-.11c.17-.17.2-.4.08-.51l-.07-.06a.51.51,0,0,0,.13-.09C15,1.28,15,1.11,15,1l-1.11-1c-.09-.09-.26,0-.39.07a.51.51,0,0,0-.09.13l0,0a.43.43,0,0,0-.54.11.45.45,0,0,0-.1.14L12.6.39a.48.48,0,0,0-.64,0,.42.42,0,0,0-.12.25.58.58,0,0,0-.73,0A.62.62,0,0,0,11,.88,2.15,2.15,0,0,0,9.71.55h0a10.26,10.26,0,0,0-4.44,0c-1.64.58-3,1.58-3.93,4.26a8.48,8.48,0,0,0-.24,4.69c0,.18.08.35.11.51s.11.45.14.62,0,.1,0,.15.1,1.48.16,1.66c1,2.71,4.09,4.09,4.09,4.09A16,16,0,0,1,3.7,13.86l0,0a8.4,8.4,0,0,1-.59-3.17,2.9,2.9,0,0,1,.13-.9,1.71,1.71,0,0,1,.74-1,5.15,5.15,0,0,0-.16,1,3.56,3.56,0,0,0,.63,2.35,2.38,2.38,0,0,1,.58-3A10.45,10.45,0,0,0,6.26,7.82h0c-.39,1,.51,3.38.51,3.38S6.64,8.39,7.45,8l.93-.54.06,0,.07,0A2.89,2.89,0,0,0,10,5.56a1.47,1.47,0,0,0,.07-.34l1.81,2.51c.09.11.23.3.39.53a5.78,5.78,0,0,1,1.12,2.83c0,.29,0,.54,0,.77a4.52,4.52,0,0,1-.22,1.34,1.05,1.05,0,0,0,.54-.25,4.87,4.87,0,0,0,1.13-1.35c.11-.17.21-.35.32-.56v0a4.59,4.59,0,0,0,.4-1.21c0-.14,0-.29.07-.44A8.8,8.8,0,0,0,15.17,5.23Z"/></g></g></g></g></svg>