<svg xmlns="http://www.w3.org/2000/svg" xmlns:xlink="http://www.w3.org/1999/xlink" viewBox="0 0 15.91 25.74"><defs><style>.cls-1{fill:none;}.cls-2{fill:#e2bf9c;}.cls-3{fill:#f2d1ac;}.cls-4{clip-path:url(#clip-path);}.cls-5{fill:#c09a80;}.cls-6{fill:#d3a789;}.cls-7{fill:#e0b89b;}.cls-8{fill:#f9f9fa;}.cls-9{fill:#607298;}.cls-10{fill:#718faf;}.cls-11{fill:#191919;}</style><clipPath id="clip-path"><rect class="cls-1" x="6.36" y="16.48" width="3.41" height="2.02"/></clipPath></defs><g id="Layer_2" data-name="Layer 2"><g id="avatars"><g id="row-02"><g id="avatar-02-10"><path class="cls-2" d="M8.06,14.41V25.74H1.9l-.16-.07C1.74,21,4,19.65,5,19.28a3,3,0,0,1,.52-.14c.37,0,.61-.48.78-1.21l.06-.36c0-.2.06-.43.09-.66s0-.27,0-.42c.06-.69.08-1.45.08-2.16,0,0,.83.08,1.5.08"/><path class="cls-3" d="M14.39,25.67l-.15.07H8.06V14.41h0c.67,0,1.5-.08,1.5-.08,0,.71,0,1.46.08,2.15a2.58,2.58,0,0,0,0,.4,6.36,6.36,0,0,0,.08.68h0a2.56,2.56,0,0,0,.05.27c.16.77.41,1.3.8,1.3a3,3,0,0,1,.77.24c1.11.51,3,2,3,6.29"/><g class="cls-4"><path class="cls-5" d="M9.77,17.56h0a2,2,0,0,1-1.71.92h0a2.1,2.1,0,0,1-1.7-.92c0-.21.06-.43.08-.66s0-.27,0-.42A6.92,6.92,0,0,0,8,16.7h0a6.55,6.55,0,0,0,1.58-.22c0,.13,0,.27,0,.41s.05.46.09.67"/></g><path class="cls-6" d="M7.94,1.41c-6.52,0-6.56,5.46-6.27,9C1.22,9.6-.1,9.86,0,11.2s2,2,2,1.8c.53,2.94,3.6,4.64,6,4.64H8V1.41h0"/><path class="cls-5" d="M.42,10.63a.63.63,0,0,1,1-.18.55.55,0,0,1,.15.6c-.05.17-.23.18-.18.44a.47.47,0,0,0,.26.38c.07.07.17.12.22.24a.68.68,0,0,1,0,.37c-.05.21-.36,0-.56-.05a3.9,3.9,0,0,1-.68-.55,1.2,1.2,0,0,1-.19-1.25"/><path class="cls-7" d="M8,1.41c6.53,0,6.57,5.46,6.28,9,.44-.85,1.77-.59,1.66.75s-2,2-1.95,1.8c-.53,2.94-3.6,4.64-6,4.64h0V1.41H8"/><path class="cls-5" d="M15.49,10.63a.62.62,0,0,0-.94-.18.55.55,0,0,0-.15.6c0,.17.22.18.18.44a.47.47,0,0,1-.26.38.64.64,0,0,0-.22.24.6.6,0,0,0,0,.37c0,.21.36,0,.56-.05a3.9,3.9,0,0,0,.68-.55,1.18,1.18,0,0,0,.18-1.25"/><path class="cls-2" d="M8,3C5.87,3,4.3,3.57,3.35,4.8,2,6.52,2.07,9.15,2.56,11c.15.58.22,2.13.33,2.7.46,2.55,3.27,3.91,5.13,3.91h0V3H8"/><path class="cls-3" d="M12.67,4.81A5.52,5.52,0,0,0,8.06,3V17.64c2.12,0,4.65-1.51,5.08-3.91.1-.57.18-2.12.33-2.7.49-1.87.54-4.5-.8-6.22"/><path class="cls-8" d="M14.39,25.67l-.15.07H1.9l-.16-.07C1.74,21,4,19.65,5,19.28c.6.3,1.56.78,1.91.94a3.74,3.74,0,0,0,1.15,0,5.17,5.17,0,0,0,1.71-.09,8.79,8.79,0,0,0,1.62-.73c1.11.51,3,2,3,6.29"/><path class="cls-9" d="M13,25.74H3.12c0-.48.06-1.36,0-2.54V23c0-.08,0-.16,0-.26s0-.12,0-.18c0-.48-.12-1-.21-1.63a4.49,4.49,0,0,1,.91-1,.27.27,0,0,1,.08-.07A3.7,3.7,0,0,1,5,19.22l.15,0a2.75,2.75,0,0,1,.37-.09A.48.48,0,0,0,5.83,19h0l.09-.1s0,0,.06.11a21.16,21.16,0,0,0,2.08,2,20.45,20.45,0,0,0,2.09-2c0-.07,0-.1.06-.11l.09.1h0a.48.48,0,0,0,.31.13,1.73,1.73,0,0,1,.35.08l.15.05a4.13,4.13,0,0,1,1.09.61l.09.07a4.56,4.56,0,0,1,.91,1c-.1.61-.18,1.18-.21,1.66,0,.07,0,.13,0,.19a1.21,1.21,0,0,1,0,.19v.22c0,1.2,0,2.09,0,2.58"/><polygon class="cls-10" points="5.54 21.71 5.55 21.7 5.54 21.7 4.91 20.63 4.29 19.54 3.66 20.63 3.03 21.7 3.03 21.7 3.03 21.71 3.03 21.71 3.03 21.71 3.66 22.79 4.29 23.88 4.91 22.79 5.54 21.71 5.55 21.71 5.54 21.71"/><polygon class="cls-10" points="8.06 21.71 8.06 21.7 8.05 21.7 7.25 20.5 6.68 19.69 6.18 20.63 5.55 21.7 5.55 21.7 5.55 21.71 5.55 21.71 5.55 21.71 6.18 22.79 6.8 23.88 7.43 22.79 8.05 21.71 8.06 21.71 8.06 21.71"/><polygon class="cls-10" points="10.58 21.71 10.58 21.7 10.57 21.7 9.95 20.63 9.45 19.69 8.78 20.7 8.07 21.7 8.06 21.7 8.07 21.71 8.06 21.71 8.07 21.71 8.7 22.79 9.32 23.88 9.95 22.79 10.57 21.71 10.58 21.71 10.58 21.71"/><polygon class="cls-10" points="13.09 21.71 13.1 21.7 13.09 21.7 12.46 20.63 11.84 19.54 11.21 20.63 10.59 21.7 10.58 21.7 10.58 21.71 10.58 21.71 10.59 21.71 11.21 22.79 11.84 23.88 12.46 22.79 13.09 21.71 13.1 21.71 13.09 21.71"/><polygon class="cls-10" points="5.36 25.74 3.21 25.74 3.66 24.97 4.29 23.88 4.91 24.97 5.36 25.74"/><polygon class="cls-10" points="7.88 25.74 5.73 25.74 6.18 24.97 6.8 23.88 7.43 24.97 7.88 25.74"/><polygon class="cls-10" points="10.4 25.74 8.25 25.74 8.7 24.97 9.32 23.88 9.95 24.97 10.4 25.74"/><polygon class="cls-10" points="12.91 25.74 10.76 25.74 11.21 24.97 11.84 23.88 12.46 24.97 12.91 25.74"/><path class="cls-11" d="M14.67,6.11a8.86,8.86,0,0,0-.59-2.32c-.65-1.42-2-2-4.08-2.88C8.3.22,7.58.47,6,.87A1.08,1.08,0,0,0,5.73.36c-.7-.7-2.2-.34-3.35.8S1,3.52,1.41,4.29A7.57,7.57,0,0,0,1,5.85l0,.26a5,5,0,0,0,.2,3.07,4.41,4.41,0,0,1,.22.44,4.37,4.37,0,0,0,.46,1.06,1.5,1.5,0,0,1,.44.62c.21.53.28.44.28.44s-.28-1.87-.31-2.56a.38.38,0,0,1,0-.1,4.39,4.39,0,0,1,1.27-3L3.65,6a4.19,4.19,0,0,1,2.71-.4s.4.28.92.54a3.85,3.85,0,0,0,1.8.46c4-.2,4.82,1.94,4.91,2.38a2,2,0,0,1,0,.23c0,.55-.1,1.19-.14,1.62s-.14.94-.14.94.08.09.28-.44a1.35,1.35,0,0,1,.37-.55,6.53,6.53,0,0,1,.34-1.13,2.28,2.28,0,0,0,.09-.44,7.85,7.85,0,0,0,.08-1A17.33,17.33,0,0,0,14.67,6.11Z"/></g></g></g></g></svg>