<svg xmlns="http://www.w3.org/2000/svg" viewBox="0 0 16.24 25.74"><defs><style>.cls-1{fill:#e1bf9c;}.cls-2{fill:#f2d1ac;}.cls-3,.cls-5{fill:#c09a80;}.cls-3{opacity:0.7;}.cls-4{fill:#d3a789;}.cls-6{fill:#e0b89b;}.cls-7{fill:#fef5f0;}.cls-8{fill:#dedddd;}.cls-9{fill:#5c4c52;}</style></defs><g id="Layer_2" data-name="Layer 2"><g id="avatars"><g id="row-02"><g id="avatar-02-01"><path class="cls-1" d="M7.65,14.77v11H1.7l-.14-.06c0-5.89,3.64-6.33,3.64-6.33.36,0,.6-.47.75-1.18A3.4,3.4,0,0,0,6,17.83c0-.2.06-.42.08-.64s0-.26,0-.4c.05-.68.07-1.41.07-2.1C6.21,14.69,7,14.77,7.65,14.77Z"/><path class="cls-2" d="M13.77,25.68l-.14.06h-6v-11h0c.64,0,1.45-.08,1.45-.08,0,.69,0,1.41.07,2.08,0,.14,0,.27,0,.4s0,.45.08.65h0a1.84,1.84,0,0,0,0,.25c.15.76.39,1.27.77,1.27C10.13,19.35,13.77,19.79,13.77,25.68Z"/><path class="cls-3" d="M9.31,17.82h0a1.92,1.92,0,0,1-1.65.89h0A2.05,2.05,0,0,1,6,17.83c0-.2.06-.42.08-.64s0-.26,0-.4a5.92,5.92,0,0,0,1.5.19h0a5.73,5.73,0,0,0,1.54-.21c0,.14,0,.27,0,.4S9.28,17.62,9.31,17.82Z"/><path class="cls-4" d="M7.67,2.18c-6.3,0-6.34,5.3-6.06,8.76-.43-.82-1.71-.57-1.6.72s1.9,1.89,1.88,1.74c.52,2.85,3.48,4.5,5.78,4.5h0V2.19Z"/><path class="cls-5" d="M.41,11.11a.59.59,0,0,1,.91-.17.54.54,0,0,1,.15.57c-.05.17-.22.18-.18.43a.45.45,0,0,0,.25.37.55.55,0,0,1,.22.23.64.64,0,0,1,0,.36c0,.2-.34,0-.54-.05a3.59,3.59,0,0,1-.65-.53A1.13,1.13,0,0,1,.41,11.11Z"/><path class="cls-6" d="M7.7,2.18c6.31,0,6.34,5.3,6.06,8.76.44-.82,1.71-.57,1.61.72s-1.91,1.89-1.88,1.74C13,16.25,10,17.9,7.7,17.9h0V2.19Z"/><path class="cls-5" d="M15,11.11a.59.59,0,0,0-.91-.17.51.51,0,0,0-.15.57c0,.17.22.18.18.43a.43.43,0,0,1-.26.37.59.59,0,0,0-.21.23.75.75,0,0,0,0,.36c.05.2.35,0,.55-.05a4,4,0,0,0,.65-.53A1.15,1.15,0,0,0,15,11.11Z"/><path class="cls-1" d="M7.62,3.68c-2.08,0-3.6.6-4.51,1.79-1.29,1.67-1.24,4.21-.76,6,.14.56.21,2.06.31,2.62.45,2.46,3.17,3.78,5,3.78h0V3.68Z"/><path class="cls-2" d="M12.12,5.47A5.33,5.33,0,0,0,7.67,3.68V17.9c2,0,4.48-1.47,4.9-3.78.1-.56.17-2.06.32-2.62C13.36,9.68,13.41,7.14,12.12,5.47Z"/><path class="cls-7" d="M1.94,11.94c-.13,0,0-.68-.42-1.14A6.48,6.48,0,0,1,.46,7.21a6,6,0,0,1,2-4.42A10.06,10.06,0,0,1,6,.6L5,1.48A4.71,4.71,0,0,1,7.4.19a3.42,3.42,0,0,1,2.44,0s-1,0-1.27.39A1.63,1.63,0,0,1,8.22.9s.45-1,2.56-.17,2.06,2.35,3.53,2.82,1.93-.14,1.93-.14a2.32,2.32,0,0,1-1.81,1.07h-.2a9.74,9.74,0,0,1,.51,2,29.43,29.43,0,0,1-.26,3.1c-.07,1.4-.45.68-.9,1.71a2.25,2.25,0,0,0-.16.73c-.17,0-.61-.83-.29-2.36.2-1-.81-4.74-3.27-4C8.36,6.1,8,7,6.86,6.2a3.27,3.27,0,0,0-3.32-.55C2.53,6.2,2,7.44,2.13,9.42,2.36,12,1.94,11.94,1.94,11.94Z"/><path class="cls-8" d="M13.77,25.68l-.14.06H1.7l-.14-.06c0-4.37,1.94-5.79,3-6.23a3,3,0,0,1,.59-.19,12.6,12.6,0,0,1,2.5.76,2.75,2.75,0,0,0,1.67-.67s.77.13.8.1l.18-.17h0a2.92,2.92,0,0,1,.45.15h0l.11.05a4.52,4.52,0,0,1,.72.43l.1.08C12.67,20.77,13.77,22.39,13.77,25.68Z"/><path class="cls-9" d="M12.7,21.1a4.21,4.21,0,0,0-1.9-1.65L7.71,24.71l0,.06,0-.06L4.55,19.45A4.19,4.19,0,0,0,2.66,21.1a2.5,2.5,0,0,1,.49,1,9.83,9.83,0,0,1,.09,3.64h8.88a9.41,9.41,0,0,1,.09-3.64A2.5,2.5,0,0,1,12.7,21.1Z"/><path class="cls-7" d="M10,15.75c0,1.32-1.45,1.51-2.2,1.55H7.53c-.75,0-2.16-.23-2.2-1.55,0-.18-.37.41-.24,1.47S7,18.83,7.65,19h0c.63-.14,2.45-.74,2.57-1.75S10,15.57,10,15.75Z"/></g></g></g></g></svg>