<svg xmlns="http://www.w3.org/2000/svg" viewBox="0 0 18.51 27.72"><defs><style>.cls-1{fill:#e1bf9c;}.cls-2{fill:#f2d1ac;}.cls-3,.cls-5{fill:#c09a80;}.cls-3{opacity:0.7;}.cls-4{fill:#d3a789;}.cls-6{fill:#e0b89b;}.cls-7{fill:#c6696e;}.cls-8{fill:#d87373;}.cls-9{fill:#be1e2d;}.cls-10{fill:#f7941d;}.cls-11{fill:#f26522;}.cls-12{fill:#2b0f0f;}</style></defs><g id="Layer_2" data-name="Layer 2"><g id="avatars"><g id="row-02"><g id="avatar-02-36"><path class="cls-1" d="M9.59,16.53V27.68h-6l-.14-.07c0-3.63,1.36-5.22,2.42-5.91a3.29,3.29,0,0,1,1.25-.51h0l.08,0c.3-.08.51-.53.64-1.17,0-.12,0-.23.07-.36S8,19.22,8,19s0-.27,0-.42c0-.68.07-1.42.07-2.13C8.14,16.45,9,16.53,9.59,16.53Z"/><path class="cls-2" d="M15.76,27.61l-.14.07h-6V16.53h0c.65,0,1.46-.08,1.46-.08,0,.7,0,1.44.07,2.12,0,.14,0,.27,0,.4s.05.46.09.67h0c0,.09,0,.18,0,.26.13.63.31,1.09.58,1.24l.06,0a.35.35,0,0,0,.14,0,3.05,3.05,0,0,1,.89.31C14.06,22.05,15.76,23.56,15.76,27.61Z"/><path class="cls-3" d="M11.26,19.64h0a1.91,1.91,0,0,1-1.66.92h0a2.13,2.13,0,0,1-1.65-.91A6.37,6.37,0,0,0,8,19c0-.13,0-.27,0-.41a6.65,6.65,0,0,0,1.52.2h0a6.3,6.3,0,0,0,1.55-.22c0,.14,0,.27,0,.41S11.23,19.43,11.26,19.64Z"/><path class="cls-4" d="M9.59,4.56c-6.25,0-6.29,5.07-6,8.38-.43-.77-1.7-.48-1.59.76s1.89,1.73,1.86,1.6c.52,2.7,3.46,4.2,5.74,4.41h.05V4.56Z"/><path class="cls-5" d="M2.3,13.17A.61.61,0,0,1,3.22,13a.5.5,0,0,1,.15.55c-.05.16-.22.17-.18.41a.44.44,0,0,0,.25.36.58.58,0,0,1,.22.22.6.6,0,0,1,0,.35c0,.19-.34,0-.54-.05a4,4,0,0,1-.66-.51A1.06,1.06,0,0,1,2.3,13.17Z"/><path class="cls-6" d="M9.62,4.56c6.26,0,6.29,5.07,6,8.38.43-.77,1.7-.48,1.6.76s-1.9,1.73-1.87,1.6c-.51,2.7-3.46,4.2-5.74,4.41h0V4.56Z"/><path class="cls-1" d="M9.56,6C7.47,6,5.94,6.58,5,7.73c-1.3,1.61-1.25,4.06-.77,5.82.14.54.22,2,.32,2.52.45,2.38,3.19,3.65,5,3.65h0V6Z"/><path class="cls-2" d="M14.09,7.73A5.49,5.49,0,0,0,9.61,6V19.71c2.05,0,4.51-1.41,4.93-3.64.1-.53.18-2,.32-2.52C15.34,11.79,15.39,9.34,14.09,7.73Z"/><path class="cls-7" d="M10.66,17.56a1.66,1.66,0,0,1-1.06.51,1.55,1.55,0,0,1-1-.49,6.32,6.32,0,0,1,1-.08A9.33,9.33,0,0,1,10.66,17.56Z"/><path class="cls-8" d="M9.9,17.33a.28.28,0,0,0-.3.23.26.26,0,0,0-.29-.23,4.18,4.18,0,0,0-.76.23s.58.07.74.07.31.06.31-.06c0,.12.12.08.29.08s.77-.09.77-.09A4.18,4.18,0,0,0,9.9,17.33Z"/><path class="cls-9" d="M15.76,27.61l-.14.07h-12l-.15-.07c0-3.63,1.48-5.55,2.78-6.11,1,1,2.13,2.55,2.44,2.85.53.5.85,1.35,1.18,1.13S12,22.63,13,21.5C14.06,22.05,15.76,23.56,15.76,27.61Z"/><path class="cls-10" d="M6.93,21.46c.12.25,1.44,1.72,1.8,2.16s.54.37.78,1.2a12,12,0,0,1,.08,2.85S9.48,26,9,25.53a30,30,0,0,0-3.11-1.77l1-.33L4.21,22.35a10.89,10.89,0,0,1,1.6-.93c.77-.33,1.41-.53,1.41-.53Z"/><path class="cls-11" d="M12.29,21.51c-.12.25-1.44,1.73-1.8,2.16s-.55.37-.78,1.21a11.35,11.35,0,0,0-.08,2.84s.11-1.7.59-2.14a30.37,30.37,0,0,1,3.11-1.76l-1-.34L15,22.41a10.89,10.89,0,0,0-1.6-.93A14.91,14.91,0,0,0,12,20.94Z"/><path class="cls-12" d="M18.51,4.66A2.06,2.06,0,0,1,16.3,5.72a.61.61,0,0,1-.05-.12,3.06,3.06,0,0,0,1.63-2.35A4.59,4.59,0,0,1,16.19,4.6c1-2.23-.05-3.44-.05-3.44A4.19,4.19,0,0,1,15.32,4a8.13,8.13,0,0,0-.54-.69A10.2,10.2,0,0,0,11.15.7l.6.63A6.51,6.51,0,0,0,9.69.22a3.09,3.09,0,0,0-2.5.06A2,2,0,0,1,8.37.6,2.54,2.54,0,0,0,6.22.86,5.1,5.1,0,0,0,4,2.87a2.82,2.82,0,0,1-1.65.3,1.36,1.36,0,0,0,1,.48,2.1,2.1,0,0,1-.81.52C1.06,4.73.62,4,.62,4A2.4,2.4,0,0,0,2.47,5.27h.21s-.05.14-.11.36A4,4,0,0,1,0,5.33,2.8,2.8,0,0,0,2.32,6.61c0,.1,0,.2-.07.29a1.88,1.88,0,0,1-2.18,0,2.67,2.67,0,0,0,2.07,1c0,.87.2,1.62.28,3.34s.46.8.93,2a3,3,0,0,1,.16.86c.17,0,.63-1,.3-2.78-.21-1.16.83-5.57,3.35-4.71,1.54.52,1.93,1.6,3.08.64a3,3,0,0,1,3.42-.64c1,.65,1.62,2.11,1.44,4.44-.23,3,.2,2.95.2,2.95s0-.79.42-1.34a8.34,8.34,0,0,0,1.09-4.21,7.39,7.39,0,0,0-.2-1.77C18.15,6.54,18.51,4.66,18.51,4.66Z"/><path class="cls-5" d="M16.9,13.17A.61.61,0,0,0,16,13a.47.47,0,0,0-.15.55c.05.16.22.17.18.41a.43.43,0,0,1-.26.36.64.64,0,0,0-.21.22.71.71,0,0,0,0,.35c.05.19.35,0,.55-.05a4.49,4.49,0,0,0,.66-.51A1.08,1.08,0,0,0,16.9,13.17Z"/></g></g></g></g></svg>