<svg xmlns="http://www.w3.org/2000/svg" viewBox="0 0 16.3 26.51"><defs><style>.cls-1{fill:#e1bf9c;}.cls-2{fill:#f2d1ac;}.cls-3,.cls-5{fill:#c09a80;}.cls-3{opacity:0.7;}.cls-4{fill:#d3a789;}.cls-6{fill:#e0b89b;}.cls-7{fill:#8d181b;}.cls-8{fill:#f9f9fa;}.cls-9{fill:#432612;}</style></defs><g id="Layer_2" data-name="Layer 2"><g id="avatars"><g id="row-01"><g id="avatar-01-01"><path class="cls-1" d="M7.66,15.54v11h-6l-.14-.07c0-5.88,3.64-6.32,3.64-6.32.36,0,.6-.47.75-1.18A1.86,1.86,0,0,0,6,18.6,6.17,6.17,0,0,0,6.1,18c0-.13,0-.27,0-.4.05-.68.07-1.41.07-2.1C6.21,15.46,7,15.54,7.66,15.54Z"/><path class="cls-2" d="M13.77,26.44l-.14.07h-6v-11h0c.64,0,1.45-.08,1.45-.08,0,.69,0,1.41.07,2.08,0,.13,0,.27,0,.4s0,.44.08.65h0a1.72,1.72,0,0,0,0,.26c.15.76.4,1.27.77,1.27C10.13,20.12,13.77,20.56,13.77,26.44Z"/><path class="cls-3" d="M9.31,18.59h0a1.9,1.9,0,0,1-1.65.9h0A2.1,2.1,0,0,1,6,18.6,6.17,6.17,0,0,0,6.1,18c0-.13,0-.27,0-.4a7,7,0,0,0,1.5.19h0a6.15,6.15,0,0,0,1.53-.21c0,.13,0,.27,0,.4S9.28,18.38,9.31,18.59Z"/><path class="cls-4" d="M7.67,3C1.37,3,1.33,8.24,1.61,11.7c-.43-.82-1.71-.56-1.6.73s1.9,1.89,1.88,1.74c.52,2.85,3.48,4.5,5.78,4.5h0V3Z"/><path class="cls-5" d="M.41,11.88a.59.59,0,0,1,.91-.17.54.54,0,0,1,.15.57c-.05.17-.22.18-.18.43a.45.45,0,0,0,.25.37.55.55,0,0,1,.22.23.64.64,0,0,1,0,.36c0,.2-.34,0-.54-.05a3.59,3.59,0,0,1-.65-.53A1.13,1.13,0,0,1,.41,11.88Z"/><path class="cls-6" d="M7.7,3C14,3,14,8.24,13.76,11.7c.44-.82,1.72-.56,1.61.73s-1.91,1.89-1.88,1.74C13,17,10,18.67,7.7,18.67h0V3Z"/><path class="cls-5" d="M15,11.88a.59.59,0,0,0-.91-.17.51.51,0,0,0-.15.57c0,.17.22.18.18.43a.43.43,0,0,1-.26.37.59.59,0,0,0-.21.23.75.75,0,0,0,0,.36c.05.2.35,0,.55-.05a4,4,0,0,0,.65-.53A1.15,1.15,0,0,0,15,11.88Z"/><path class="cls-1" d="M7.62,4.45A5.36,5.36,0,0,0,3.11,6.24c-1.29,1.66-1.24,4.21-.77,6,.15.56.22,2.06.32,2.61.45,2.47,3.17,3.79,5,3.79h0V4.45Z"/><path class="cls-2" d="M12.12,6.24A5.33,5.33,0,0,0,7.67,4.45V18.66c2,0,4.48-1.46,4.9-3.78.1-.55.17-2.05.32-2.61C13.36,10.45,13.41,7.91,12.12,6.24Z"/><path class="cls-7" d="M10.28,20.15a.39.39,0,0,1-.23-.14,4,4,0,0,0-.42-.58.08.08,0,0,1,0,0l-.07.36-1.85,1-1.84-.89-.09-.43,0,0c-.25.28-.67.75-.67.73-.69.16-3.49,1.13-3.49,6.29l.14.07H13.63l.14-.07C13.77,21.28,11,20.31,10.28,20.15Z"/><path class="cls-8" d="M10,19.66c-.09-.24-.31-.45-.39-.64l-.25-.58A15.91,15.91,0,0,1,8.83,20s-1.42.68-1.2.73A12.56,12.56,0,0,1,9.2,22.49c.31.35.26.68.33.21S10.19,20.28,10,19.66Z"/><path class="cls-8" d="M6.51,20A15.91,15.91,0,0,1,6,18.44L5.78,19c-.08.19-.3.4-.39.64-.24.62.33,2.56.41,3s0,.14.33-.21a12.6,12.6,0,0,1,1.5-1.72C7.85,20.72,6.51,20,6.51,20Z"/><path class="cls-9" d="M2.44,18.05v0h0a4,4,0,0,0,.84,1.35,5.42,5.42,0,0,0,1.27,1c-.21-.17-.4-.34-.59-.52s-.34-.39-.5-.59A4.07,4.07,0,0,1,3,18.51a1.69,1.69,0,0,0,.31.13c.29.11.6.2.86.29l.36.13-.08-.36a8.42,8.42,0,0,0-.33-1l-.06-.13.31.21a6.65,6.65,0,0,0,1.17.64,5.21,5.21,0,0,0,1.28.37,3.46,3.46,0,0,0,.85,0,3.39,3.39,0,0,0,.84,0,5.21,5.21,0,0,0,1.28-.37A6.31,6.31,0,0,0,11,17.74l.31-.21-.06.13a8.42,8.42,0,0,0-.33,1l-.08.36.36-.13c.26-.09.57-.18.86-.29a2.15,2.15,0,0,0,.32-.13,4.12,4.12,0,0,1-.48.77,6.8,6.8,0,0,1-.5.59c-.19.18-.38.35-.59.52a5,5,0,0,0,1.27-1,4,4,0,0,0,.84-1.35h0v0l.3-.9-.65.79a.25.25,0,0,1-.09.09l-.17.1a3.7,3.7,0,0,1-.4.16l-.48.14c.18-.52.41-1.05.64-1.57l.46-1.07-.82.83c-.14.14-.3.28-.46.42l-.5.39a7.38,7.38,0,0,1-1.07.67,5.45,5.45,0,0,1-1.18.46,3.11,3.11,0,0,1-.8.13,3.12,3.12,0,0,1-.81-.13,5.45,5.45,0,0,1-1.18-.46,7.38,7.38,0,0,1-1.07-.67L4.11,17c-.16-.14-.32-.28-.46-.42l-.82-.83.46,1.07c.23.52.47,1.05.64,1.57l-.48-.14a3.7,3.7,0,0,1-.4-.16L2.88,18a.25.25,0,0,1-.09-.09l-.65-.79Z"/><path class="cls-9" d="M2.83,15.79s4.17,5.15,9.67,0l-1.56,1.86a5.63,5.63,0,0,1-7.61-.89Z"/><path class="cls-9" d="M2,11.94c-.12,0,0-.68-.41-1.14A6.48,6.48,0,0,1,.53,7.21a6,6,0,0,1,2-4.42A10.06,10.06,0,0,1,6,.6l-1,.88A4.71,4.71,0,0,1,7.47.19,3.39,3.39,0,0,1,9.9.24s-1,0-1.27.39A1.42,1.42,0,0,1,8.29.9s.45-1,2.55-.17,2.07,2.35,3.53,2.82,1.93-.14,1.93-.14a2.32,2.32,0,0,1-1.8,1.07h-.21a10.2,10.2,0,0,1,.52,2c.08.87-.18,1.47-.26,3.1-.07,1.4-.45.68-.91,1.71a2.06,2.06,0,0,0-.15.73c-.17,0-.61-.84-.3-2.36.21-1-.81-4.74-3.26-4-1.5.45-1.88,1.36-3,.55A3.29,3.29,0,0,0,3.6,5.65C2.59,6.2,2,7.44,2.2,9.43,2.43,12,2,11.94,2,11.94Z"/></g></g></g></g></svg>