<svg xmlns="http://www.w3.org/2000/svg" viewBox="0 0 18.58 26.7"><defs><style>.cls-1{fill:#e1bf9c;}.cls-2{fill:#f2d1ac;}.cls-3,.cls-6{fill:#c09a80;}.cls-3{opacity:0.7;}.cls-4{fill:#d3a789;}.cls-5{fill:#282844;}.cls-7{fill:#e0b89b;}.cls-8{fill:#1f1f33;}.cls-9{fill:#494a7d;}.cls-10{fill:#fff;}</style></defs><g id="Layer_2" data-name="Layer 2"><g id="avatars"><g id="row-01"><g id="avatar-01-30"><path class="cls-1" d="M8.85,15.26V26.7H2.7l-.15-.06c0-6.14,3.77-6.6,3.77-6.6.37,0,.61-.49.77-1.23a3.29,3.29,0,0,0,.07-.36c0-.21.06-.43.08-.66s0-.28,0-.42c0-.58.07-1.19.07-1.79v-.4S8.18,15.26,8.85,15.26Z"/><path class="cls-2" d="M15.18,26.64,15,26.7H8.85V15.26h0c.66,0,1.5-.08,1.5-.08v.47c0,.57,0,1.15.07,1.7,0,.14,0,.28,0,.41a6.6,6.6,0,0,0,.09.68h0a2.51,2.51,0,0,0,0,.27c.16.79.41,1.32.8,1.32C11.41,20,15.18,20.5,15.18,26.64Z"/><path class="cls-3" d="M10.57,18.44h0a2,2,0,0,1-1.71.94h0a2.17,2.17,0,0,1-1.69-.94q0-.32.09-.66l0-.42a6.93,6.93,0,0,0,1.56.2h0a6.63,6.63,0,0,0,1.59-.22c0,.14,0,.28,0,.41S10.53,18.23,10.57,18.44Z"/><path class="cls-4" d="M8.87,2.14c-6.51,0-6.55,5.51-6.26,9.12C2.16,10.41.84,10.67,1,12s2,2,1.94,1.82c.54,3,3.6,4.69,6,4.69h.05V2.14Z"/><path class="cls-5" d="M15.18,26.64,15,26.7H2.7l-.15-.06c0-6,3.59-6.57,3.76-6.6h0c.28,0,.49-.28.64-.73a.56.56,0,0,0,.27.23,3.38,3.38,0,0,0,1.64.24,3.38,3.38,0,0,0,1.84-.38.47.47,0,0,0,.06-.09c.14.43.34.71.61.73h0S15.18,20.5,15.18,26.64Z"/><path class="cls-6" d="M1.36,11.45a.61.61,0,0,1,.94-.18.55.55,0,0,1,.16.6c0,.17-.23.18-.18.45a.45.45,0,0,0,.26.38c.07.07.17.12.22.24a.8.8,0,0,1,0,.37c-.06.22-.36,0-.57-.05a4.25,4.25,0,0,1-.67-.55A1.2,1.2,0,0,1,1.36,11.45Z"/><path class="cls-7" d="M8.9,2.14c6.52,0,6.56,5.51,6.27,9.12.44-.85,1.77-.59,1.66.76s-2,2-1.95,1.82c-.53,3-3.6,4.69-6,4.69H8.85V2.14Z"/><path class="cls-6" d="M16.41,11.45a.61.61,0,0,0-.94-.18.55.55,0,0,0-.15.6c0,.17.22.18.18.45a.47.47,0,0,1-.26.38.64.64,0,0,0-.22.24.6.6,0,0,0,0,.37c0,.22.36,0,.56-.05a3.9,3.9,0,0,0,.68-.55A1.19,1.19,0,0,0,16.41,11.45Z"/><path class="cls-1" d="M8.82,3.69c-2.15,0-3.72.63-4.67,1.87C2.82,7.3,2.88,10,3.37,11.86c.14.58.22,2.14.33,2.72.46,2.57,3.26,4,5.12,4h0V3.69Z"/><path class="cls-2" d="M13.47,5.57A5.48,5.48,0,0,0,8.86,3.69V18.52c2.12,0,4.64-1.52,5.07-3.94.11-.58.18-2.14.33-2.72C14.75,10,14.8,7.31,13.47,5.57Z"/><path class="cls-8" d="M11.46,20.69a3.76,3.76,0,0,1-2.62.72,4.14,4.14,0,0,1-2.29-.49c-.44-.22-.76-.4-.43-.68l.19-.2h0a3.83,3.83,0,0,0,.25-.39c.17-.25-.31-.39,0-.58a.78.78,0,0,1,.52-.15c-.11.39,0,.57.16.62a3.38,3.38,0,0,0,1.64.24,3.38,3.38,0,0,0,1.7-.34c.18-.1.13-.3.13-.39a.2.2,0,0,1,0-.08s.55,0,.5.31a1.07,1.07,0,0,0,.21.76.36.36,0,0,0,.07.1C11.65,20.4,11.94,20.34,11.46,20.69Z"/><polygon class="cls-9" points="5.83 23.73 5.41 23 5 23.73 4.59 24.45 5 25.17 5.41 25.89 5.83 25.17 6.24 24.45 5.83 23.73"/><polygon class="cls-9" points="7.48 23.73 7.06 23 6.65 23.73 6.24 24.45 6.65 25.17 7.06 25.89 7.48 25.17 7.89 24.45 7.48 23.73"/><polygon class="cls-9" points="9.13 23.73 8.71 23 8.3 23.73 7.89 24.45 8.3 25.17 8.71 25.89 9.13 25.17 9.54 24.45 9.13 23.73"/><polygon class="cls-9" points="10.78 23.73 10.36 23 9.95 23.73 9.54 24.45 9.95 25.17 10.36 25.89 10.78 25.17 11.19 24.45 10.78 23.73"/><polygon class="cls-9" points="12.43 23.73 12.02 23 11.6 23.73 11.19 24.45 11.6 25.17 12.02 25.89 12.43 25.17 12.84 24.45 12.43 23.73"/><path class="cls-10" d="M3.25,16.24s0,0,0,0Z"/><path class="cls-10" d="M18.58,8.54a2,2,0,0,1-1.44-.14C16.64,3.67,13,0,8.6,0,3.85,0,0,4.25,0,9.49c0,.22,0,.43,0,.64a2.11,2.11,0,0,1,0,.26,3.49,3.49,0,0,0,.23,1.28,7.37,7.37,0,0,0,.45,1A5.23,5.23,0,0,1,.71,11,3.29,3.29,0,0,1,1.83,9,3.19,3.19,0,0,0,1,10.77a5.87,5.87,0,0,0,.62,3.62,12.3,12.3,0,0,0,1.63,2,3,3,0,0,1-.18-.9,5.7,5.7,0,0,0,1.67,1.27l-.51-.7A11,11,0,0,1,3.43,14a3.46,3.46,0,0,1,.19-2.1,6.53,6.53,0,0,0,.12,1A3,3,0,0,0,5.3,14.84,5.3,5.3,0,0,1,5,10.07,10.76,10.76,0,0,1,6.32,8.24a5.6,5.6,0,0,0-.75,1.33,2.26,2.26,0,0,0,.2,1.51,2.43,2.43,0,0,1,.28-1.22c.36-.58,1-.63,1.77-.82a3.6,3.6,0,0,0,1.4.29,3,3,0,0,0,2.94-3A4.18,4.18,0,0,1,12.07,8a3.28,3.28,0,0,1-1.36,1.58s1.61-.25,2.15-1.13a3.54,3.54,0,0,0,.37-.94,3.94,3.94,0,0,0,.32,2,2.8,2.8,0,0,1,.23.6,4,4,0,0,1,0,2.39,5.21,5.21,0,0,1-1.52,1.41,4.64,4.64,0,0,0,1.94-.88,4.16,4.16,0,0,0-.35,1.74C14,16,12.53,17,12.53,17a4.54,4.54,0,0,0,3.13-3.58,4.39,4.39,0,0,0-.2-2,2.33,2.33,0,0,1,.44,1.25,3.83,3.83,0,0,1-.26,1.86,8.63,8.63,0,0,0,.61-.62A2.5,2.5,0,0,0,17,12.45c0-.73.47-1.32.17-2.43v0c0-.17,0-.33,0-.5s0-.45,0-.67l.3,0A2.75,2.75,0,0,0,18.58,8.54Z"/></g></g></g></g></svg>