<svg xmlns="http://www.w3.org/2000/svg" xmlns:xlink="http://www.w3.org/1999/xlink" viewBox="0 0 17.81 26.4"><defs><style>.cls-1,.cls-16{fill:none;}.cls-2{fill:#3a2817;}.cls-3{fill:#e2bf9c;}.cls-4{fill:#f2d1ac;}.cls-5{clip-path:url(#clip-path);}.cls-6{fill:#c09a80;}.cls-7{fill:#d3a789;}.cls-8{fill:#e0b89b;}.cls-9{fill:#454545;}.cls-10{fill:#e2e2e2;}.cls-11{fill:#965458;}.cls-12{fill:#d7878e;}.cls-13{fill:#f9f9fa;}.cls-14{fill:#3f2c19;}.cls-15{fill:#718faf;}.cls-16{stroke:#757576;stroke-miterlimit:10;stroke-width:0.25px;}.cls-17{fill:#1b1d1e;opacity:0.8;}.cls-18{fill:#ebeced;opacity:0.2;}</style><clipPath id="clip-path"><rect class="cls-1" x="6.37" y="16.95" width="3.44" height="2.06"/></clipPath></defs><g id="Layer_2" data-name="Layer 2"><g id="avatars"><g id="row-02"><g id="avatar-02-29"><path class="cls-2" d="M8,14.14s0,0,0,.06C7.28,14,.73,12.71.73,12.71a10.94,10.94,0,0,0,1.4,2.62c.41.63.66,1.14,1.38,1.3A44.17,44.17,0,0,0,8,16.7s3.71.09,4.43-.06,1-.68,1.37-1.31A8.21,8.21,0,0,0,15,13s-6.85,1-7,1.1"/><path class="cls-3" d="M8.08,14.84V26.4H1.87l-.16-.07c0-6.2,3.81-6.66,3.81-6.66.38,0,.62-.49.78-1.24,0-.12,0-.24.07-.36s.06-.44.09-.67,0-.28,0-.43c0-.71.07-1.48.07-2.21,0,0,.83.08,1.51.08"/><path class="cls-4" d="M14.47,26.33l-.15.07H8.08V14.84h0c.68,0,1.52-.08,1.52-.08,0,.72,0,1.49.07,2.19,0,.14,0,.28,0,.42s0,.47.09.69h0a2.33,2.33,0,0,0,0,.28c.16.79.41,1.33.8,1.33,0,0,3.81.46,3.81,6.66"/><g class="cls-5"><path class="cls-6" d="M9.81,18.06h0a2,2,0,0,1-1.72,1h0a2.15,2.15,0,0,1-1.71-.94c0-.21.06-.44.09-.67s0-.29,0-.43a6.92,6.92,0,0,0,1.56.21h0A6.18,6.18,0,0,0,9.68,17c0,.14,0,.28,0,.42s0,.47.09.69"/></g><path class="cls-7" d="M8,1.59c-6.58,0-6.62,5.57-6.32,9.22-.46-.87-1.79-.6-1.68.76s2,2,2,1.84c.54,3,3.64,4.73,6,4.73h.05V1.59H8"/><path class="cls-6" d="M.43,11a.62.62,0,0,1,1-.19.57.57,0,0,1,.15.61c-.05.17-.23.19-.18.45a.48.48,0,0,0,.26.39.57.57,0,0,1,.22.24.63.63,0,0,1,0,.38c-.05.21-.36,0-.57-.05a5,5,0,0,1-.68-.56A1.21,1.21,0,0,1,.43,11"/><path class="cls-8" d="M8,1.59c6.58,0,6.62,5.57,6.33,9.22.45-.87,1.79-.6,1.68.76s-2,2-2,1.84c-.54,3-3.63,4.73-6,4.73H8V1.59H8"/><path class="cls-6" d="M15.62,11a.61.61,0,0,0-.94-.19.55.55,0,0,0-.16.61c.05.17.23.19.18.45a.46.46,0,0,1-.26.39.65.65,0,0,0-.22.24.63.63,0,0,0,0,.38c.05.21.36,0,.57-.05a4.5,4.5,0,0,0,.68-.56A1.21,1.21,0,0,0,15.62,11"/><path class="cls-3" d="M8,3.16c-2.17,0-3.75.64-4.71,1.89C2,6.8,2,9.48,2.54,11.41c.15.58.22,2.17.33,2.75.47,2.6,3.3,4,5.17,4h.05v-15H8"/><path class="cls-4" d="M12.74,5.05A5.56,5.56,0,0,0,8.09,3.16v15c2.13,0,4.68-1.54,5.12-4,.1-.58.18-2.17.33-2.75.5-1.92.55-4.6-.8-6.36"/><path class="cls-9" d="M2,11a.09.09,0,0,1-.17,0l0-.55A.07.07,0,0,1,2,10.41.09.09,0,0,1,2,10.5Z"/><path class="cls-9" d="M14,11a.09.09,0,0,0,.09.08.09.09,0,0,0,.08-.09l0-.55a.07.07,0,0,0-.09-.07.08.08,0,0,0-.08.09Z"/><path class="cls-10" d="M11,21.22A24.61,24.61,0,0,1,9.11,26.4h-2a24.45,24.45,0,0,1-1.92-5.19,3.4,3.4,0,0,1,.32-1.41,3.62,3.62,0,0,1,.59-.87s0,0,0,0h.06l2,1.39L10,18.9h.07l0,.05a5.43,5.43,0,0,1,.44.61l.13.23A3.42,3.42,0,0,1,11,21.22"/><path class="cls-11" d="M7,26.38a2.24,2.24,0,0,1-.13-.27l0,0c-.08-.19-.17-.38-.26-.56l-.21-.46c-.26-.58-.48-1.1-.62-1.47a9.25,9.25,0,0,1-.38-1.42l0-.17a.06.06,0,0,1,0,0l0-.17a.25.25,0,0,0,0-.08,5.76,5.76,0,0,1,0-1.95s0,0,0-.06c-.72.17-3.64,1.19-3.64,6.63l.15.07H7.05Z"/><path class="cls-11" d="M9.15,26.38c0-.08.08-.18.13-.27s0,0,0,0c.09-.19.17-.38.26-.56l.21-.46c.26-.58.49-1.1.62-1.47a9.25,9.25,0,0,0,.38-1.42,1.36,1.36,0,0,0,0-.17v0l0-.17a.19.19,0,0,0,0-.08,6,6,0,0,0,0-1.95.14.14,0,0,0,0-.06c.72.17,3.65,1.19,3.65,6.63l-.15.07H9.14Z"/><path class="cls-12" d="M7.36,26.4H6.28l-.14-.16a11.27,11.27,0,0,1-2.56-4.62l.92-.46-.56-.42a8.76,8.76,0,0,1,.61-.7A3.07,3.07,0,0,1,5,19.67a4.06,4.06,0,0,1,.72-.44s-.26.38-.2,2c0,.11,0,.21,0,.33s0,.05,0,.07l0,.15v0l0,.16a14.72,14.72,0,0,0,.91,2.66c.07.15.13.29.2.43s.16.35.23.51l.14.29.14.31.12.24"/><path class="cls-12" d="M12.6,21.62a11.16,11.16,0,0,1-2.55,4.62,1.07,1.07,0,0,0-.14.16H8.84c.28-.58.62-1.28.92-2a.64.64,0,0,1,0-.07h0a12.66,12.66,0,0,0,.8-2.51l0-.05c0-.06,0-.11,0-.17a.13.13,0,0,1,0-.06c0-.11,0-.22,0-.33a7.16,7.16,0,0,0-.08-1.65l0-.13v0a.83.83,0,0,0-.08-.18,4.47,4.47,0,0,1,.72.44h0a3.71,3.71,0,0,1,.45.37c.39.42.61.7.61.7l-.56.42Z"/><path class="cls-13" d="M10.47,19.18c-.09-.24-.32-.47-.4-.67L9.8,17.9a3,3,0,0,1-.93,1.68c-.62.5-.93.74-.7.79a13.32,13.32,0,0,1,1.53,1.8c.31.37.26.72.34.21a11.34,11.34,0,0,0,.39-1.66c0-.65.29-.88,0-1.54"/><path class="cls-13" d="M7.32,19.58a3,3,0,0,1-.94-1.68l-.26.61c-.08.2-.31.43-.4.67-.26.66,0,.89,0,1.54a10.18,10.18,0,0,0,.39,1.66c.08.51,0,.16.34-.21A13.32,13.32,0,0,1,8,20.37c.23-.05-.09-.28-.7-.79"/><path class="cls-14" d="M4.12,5.6A3.83,3.83,0,0,1,6.9,3.39a6.71,6.71,0,0,1,3,0,2.08,2.08,0,0,1,1.23,1.22c.21.54.12,2.21-2.57,2.44-1,.08-2.75.59-3,1.15-.5.92.75,1.68.75,1.68S4.52,9.2,4.11,8.11a3.14,3.14,0,0,1,0-2.51"/><path class="cls-2" d="M15.15,4.51h.21a2.44,2.44,0,0,0,1.9-1.07s-.46.61-2,.13a2.49,2.49,0,0,1-1.05-.64,1.91,1.91,0,0,0,1-2.75,1.73,1.73,0,0,1-2,1.64A4.61,4.61,0,0,0,11.51.74,3.08,3.08,0,0,0,9.31.51,2.49,2.49,0,0,1,10.53.24,3.71,3.71,0,0,0,8,.19a7,7,0,0,0-2.11,1L6.46.6A10.81,10.81,0,0,0,2.74,2.81,6,6,0,0,0,.66,7.26a6.33,6.33,0,0,0,1.11,3.61c.45.47.3,1.15.44,1.15s.44,0,.2-2.53c-.18-2,.42-3.25,1.48-3.8a3.57,3.57,0,0,1,3.5.55c1.19.81,1.58-.1,3.16-.55,2.58-.74,3.66,3,3.44,4-.34,1.54.13,2.42.31,2.38a2,2,0,0,1,.16-.73c.48-1,.88-.32.95-1.72s.32-2.15.29-2.93c1.29.46,2.11-1.3,2.11-1.3C16.39,6.85,15.15,4.51,15.15,4.51Z"/><path class="cls-15" d="M8.29,9.67c-.73,0-.64.77-.64,1.1h.09c0-.64.18-.88.55-.88s.56.23.56.88h.09C8.94,10.39,9,9.67,8.29,9.67Z"/><path class="cls-16" d="M6,8.86a15.94,15.94,0,0,0,4.55,0"/><path class="cls-15" d="M4.64,8.65c-1.63,0-2.58.62-2.58,2.16a2.6,2.6,0,0,0,2.39,2.82,4.06,4.06,0,0,0,3.37-3.39C7.82,8.7,6,8.65,4.64,8.65Zm-.19,4.89a2.52,2.52,0,0,1-2.3-2.73c0-1.39.81-2.07,2.49-2.07s3.09.12,3.09,1.5A4,4,0,0,1,4.45,13.54Z"/><path class="cls-15" d="M12,8.65c-1.39,0-3.18,0-3.18,1.59a4.06,4.06,0,0,0,3.37,3.39,2.6,2.6,0,0,0,2.39-2.82C14.53,9.27,13.58,8.65,12,8.65Zm.19,4.89a4,4,0,0,1-3.28-3.3c0-1.38,1.53-1.5,3.09-1.5s2.5.68,2.5,2.07A2.52,2.52,0,0,1,12.14,13.54Z"/><path class="cls-17" d="M4.45,13.54a2.52,2.52,0,0,1-2.31-2.73c0-1.39.82-2.07,2.5-2.07s3.09.12,3.09,1.5A4,4,0,0,1,4.45,13.54Z"/><path class="cls-17" d="M12.14,13.54a4,4,0,0,1-3.28-3.3c0-1.38,1.53-1.5,3.09-1.5s2.5.68,2.5,2.07A2.52,2.52,0,0,1,12.14,13.54Z"/><path class="cls-18" d="M7.47,11.25A5.46,5.46,0,0,0,5,10.69a5.27,5.27,0,0,0-2.78.72,2.4,2.4,0,0,0,2.25,2.14A4.12,4.12,0,0,0,7.47,11.25Z"/><path class="cls-18" d="M9.12,11.25a5.46,5.46,0,0,1,2.5-.56,5.27,5.27,0,0,1,2.78.72,2.39,2.39,0,0,1-2.25,2.14A4.12,4.12,0,0,1,9.12,11.25Z"/></g></g></g></g></svg>