<svg xmlns="http://www.w3.org/2000/svg" xmlns:xlink="http://www.w3.org/1999/xlink" viewBox="0 0 16.45 26.25"><defs><style>.cls-1{fill:none;}.cls-2{fill:#e2bf9c;}.cls-3{fill:#f2d1ac;}.cls-4{clip-path:url(#clip-path);}.cls-5{fill:#c09a80;}.cls-6{fill:#d3a789;}.cls-7{fill:#e0b89b;}.cls-8{fill:#4ac2ef;}.cls-9{fill:#171518;}.cls-10{fill:#432612;}.cls-11{fill:#f4cf32;}</style><clipPath id="clip-path"><rect class="cls-1" x="6.43" y="16.68" width="3.53" height="2.08"/></clipPath></defs><g id="Layer_2" data-name="Layer 2"><g id="avatars"><g id="row-01"><g id="avatar-01-20"><path class="cls-2" d="M8.19,14.54V26.25H1.82l-.15-.06c0-6.28,3.89-6.75,3.89-6.75.39,0,.64-.5.81-1.26,0-.12,0-.24.07-.37s0-.38.08-.58v-.1c0-.14,0-.28.05-.43,0-.72.07-1.5.07-2.24,0,0,.86.08,1.55.08"/><path class="cls-3" d="M14.73,26.19l-.15.06H8.19V14.54h0c.7,0,1.56-.08,1.56-.08,0,.74,0,1.51.07,2.22,0,.15,0,.29,0,.43s0,0,0,0c0,.24,0,.46.08.67h0c0,.09,0,.19,0,.27.17.81.42,1.36.83,1.36,0,0,3.89.47,3.89,6.75"/><g class="cls-4"><path class="cls-5" d="M10,17.8h0a2.05,2.05,0,0,1-1.76,1h0a2.26,2.26,0,0,1-1.76-1,6.6,6.6,0,0,0,.09-.68c0-.14,0-.28,0-.43a6.81,6.81,0,0,0,1.61.21h0a6.56,6.56,0,0,0,1.64-.23c0,.15,0,.29,0,.43s.06.48.09.69"/></g><path class="cls-6" d="M8.21,1.11c-6.75,0-6.78,5.65-6.49,9.34-.46-.87-1.83-.6-1.71.78s2,2,2,1.86c.55,3,3.73,4.8,6.19,4.8h0V1.11h0"/><path class="cls-7" d="M8.24,1.11c6.74,0,6.78,5.65,6.48,9.34.47-.87,1.83-.6,1.72.78s-2,2-2,1.86c-.56,3-3.73,4.8-6.19,4.8H8.19V1.11h.05"/><path class="cls-2" d="M8.2,2.71c-2.22,0-3.84.64-4.83,1.91C2,6.4,2.06,9.11,2.56,11.06c.16.6.24,2.2.34,2.79.48,2.63,3.39,4,5.3,4h.05V2.71H8.2"/><path class="cls-3" d="M13,4.62c-1-1.26-2.58-1.9-4.77-1.91V17.88c2.19,0,4.8-1.56,5.25-4,.11-.59.18-2.19.34-2.79.5-1.94.56-4.65-.82-6.44"/><path class="cls-8" d="M14.73,26.19l-.15.06H1.82l-.15-.06c0-6.28,3.89-6.75,3.89-6.75.39,0,.64-.5.81-1.26,0-.12,0-.24.07-.37s0-.38.08-.58A8.38,8.38,0,0,1,8.19,17h.26a9.63,9.63,0,0,1,1.43.11c0,.24,0,.46.08.67h0c0,.09,0,.19,0,.27.17.81.42,1.36.83,1.36,0,0,3.89.47,3.89,6.75"/><path class="cls-5" d="M.47,10.63a.63.63,0,0,1,1-.18.54.54,0,0,1,.16.61c-.05.18-.23.19-.19.46a.48.48,0,0,0,.27.39c.08.07.18.12.23.25a.63.63,0,0,1,0,.38c-.05.22-.37,0-.58,0a4.16,4.16,0,0,1-.7-.57,1.21,1.21,0,0,1-.19-1.29"/><path class="cls-5" d="M15.92,10.63a.64.64,0,0,0-1-.18.54.54,0,0,0-.15.61c0,.18.23.19.18.46a.48.48,0,0,1-.27.39.53.53,0,0,0-.25.63c.05.22.37,0,.58,0a4.6,4.6,0,0,0,.7-.57,1.23,1.23,0,0,0,.19-1.29"/><path class="cls-9" d="M15.07,14.6s0,0,0-.06a7.81,7.81,0,0,0-.64-1.48c-.24-.44.12-1.53.17-1.89a5.81,5.81,0,0,0,0-1.12c0-.11-.91-.55-.91-.55a5,5,0,0,1,.1,1.36,4.94,4.94,0,0,1,0,1.23,3.4,3.4,0,0,0-.1,1,1.14,1.14,0,0,1-.17.72.13.13,0,0,0-.06.07l-.05.06-.1.08a4.33,4.33,0,0,1-1.89.39,5.23,5.23,0,0,1-1.69-.53C9,13.6,8.88,14,8.2,14a2.05,2.05,0,0,0-1.48-.16A5.23,5.23,0,0,1,5,14.38,4.42,4.42,0,0,1,3.13,14a1.09,1.09,0,0,1-.38-.93,3.05,3.05,0,0,0-.09-1,5.28,5.28,0,0,1,0-1.23,5,5,0,0,1,.1-1.36s-.91.44-.92.55a8.12,8.12,0,0,0,0,1.12A5.06,5.06,0,0,1,2,13.06C1.82,13.54.48,14.46.36,16c0,.32.34.67.64.89a1.55,1.55,0,0,0,0,.21c.28,1,.8.73,1.2,1.61s.95.82,1.68,1.29,1.63.79,2,1.09a2.78,2.78,0,0,1,.72.81.5.5,0,0,1-.12.75,1.26,1.26,0,0,0,.58-.5.73.73,0,0,0,.06-.79,2.53,2.53,0,0,1,.43,1c0,.5-.65,1-.65,1a2.83,2.83,0,0,0,1-.4,1.23,1.23,0,0,0,.48-.68,2.13,2.13,0,0,0,.23.76c.56,1,2.09.87,2.09.87S9.58,23.7,9.61,22.8A3.33,3.33,0,0,1,11,20.57a12.19,12.19,0,0,0,2-1.8c.57-.55,1.36-.68,2-1.49a3.42,3.42,0,0,0,.19-2.68M1,16.68C.82,16.46.69,16.21.78,16c.27-.59.5-.61.5-.61A1.91,1.91,0,0,0,1,16.68m7.22.23c-1.59,0-1.7-.35-2.07-.8-.88-1.06,1-1.29,2.08-1.34s2.87.3,2.1,1.39c-.38.54-.52.75-2.11.75"/><path class="cls-9" d="M2.18,15.8c2,1.42,1.26-1.34,2.72-2.12a3.67,3.67,0,0,1,3.16,0c.3.21.51,1.55-.6,1.42C6.08,15,5.73,16.77,4.73,17c-2.3.45-2.55-1.16-2.55-1.16"/><path class="cls-9" d="M14.27,15.8c-2,1.42-1.26-1.34-2.72-2.12a3.67,3.67,0,0,0-3.16,0c-.3.21-.51,1.55.61,1.42,1.37-.15,1.73,1.67,2.72,1.86,2.31.45,2.55-1.16,2.55-1.16"/><path class="cls-10" d="M14.41,15.9s0,.15-.06.4-.06.29-.11.46a4.62,4.62,0,0,1-.21.58,6.35,6.35,0,0,1-.81,1.3,6.8,6.8,0,0,1-.57.65l-.65.6L10.68,21a3.46,3.46,0,0,0-.93,1.11,1.13,1.13,0,0,0-.11.55.93.93,0,0,0,0,.24,1.17,1.17,0,0,0,.05.2c0,.12.08.21.11.28l0,.09a3.92,3.92,0,0,1-.21-.34,1,1,0,0,1-.08-.21.92.92,0,0,1-.06-.25A1.17,1.17,0,0,1,9.58,22a3.28,3.28,0,0,1,.9-1.25c.4-.39.86-.76,1.3-1.15A12.53,12.53,0,0,0,13,18.45a6.89,6.89,0,0,0,.49-.61c.14-.2.26-.4.37-.59s.19-.37.26-.53.12-.31.17-.43.12-.39.12-.39"/><path class="cls-10" d="M9.46,19.55a1.78,1.78,0,0,0-.07.17l-.2.46-.13.3a1.85,1.85,0,0,0-.12.33l-.12.37c0,.12-.05.25-.08.37a2.53,2.53,0,0,0,0,.38,1.14,1.14,0,0,0,0,.37,1.74,1.74,0,0,0,0,.34c0,.1.07.21.1.3a.82.82,0,0,0,.11.25,1.54,1.54,0,0,1,.09.19l.09.17A.83.83,0,0,1,9,23.42l-.15-.16A1.06,1.06,0,0,1,8.71,23c-.05-.09-.11-.2-.16-.31a1.14,1.14,0,0,1-.11-.37,1.21,1.21,0,0,1,0-.42,3.1,3.1,0,0,1,0-.43c0-.14.07-.28.1-.42s.11-.25.16-.38A4.42,4.42,0,0,1,9,20.08a1.4,1.4,0,0,1,.17-.22l.14-.17.13-.14"/><path class="cls-10" d="M7.05,19.19s0,.06,0,.19,0,.3.06.5a5,5,0,0,0,.14.67c0,.13.08.25.12.37a3,3,0,0,0,.15.38c0,.13.1.26.15.39a2.75,2.75,0,0,1,.11.41,1.7,1.7,0,0,1,0,.22,1.43,1.43,0,0,1,0,.22l-.08.18-.1.14a.86.86,0,0,1-.22.21,1.79,1.79,0,0,1-.18.14l-.16.1.12-.15c0-.05.09-.1.13-.17s.11-.14.15-.23a1,1,0,0,0,.1-.28c0-.06,0-.11,0-.16l0-.16a2.48,2.48,0,0,0-.13-.35c0-.13-.1-.26-.16-.39a3.83,3.83,0,0,1-.23-.8,2.6,2.6,0,0,1,0-.39,2,2,0,0,1,0-.35A2.08,2.08,0,0,1,7,19.37a1.32,1.32,0,0,1,0-.18"/><path class="cls-10" d="M2.11,18l.15.24a.92.92,0,0,0,.2.25,1.63,1.63,0,0,0,.3.28c.12.1.26.18.4.28s.32.18.48.28l1.09.52a8.14,8.14,0,0,1,1.09.59,2.66,2.66,0,0,1,.46.35,2.52,2.52,0,0,1,.35.39,1.36,1.36,0,0,1,.19.41,1.56,1.56,0,0,1,0,.33c0,.19,0,.29,0,.29s0-.1,0-.28a1.17,1.17,0,0,0-.1-.3,1.89,1.89,0,0,0-.22-.33A2.83,2.83,0,0,0,6.12,21a4,4,0,0,0-.46-.29c-.15-.1-.34-.18-.52-.28l-.55-.26L4,19.89c-.19-.08-.36-.2-.53-.29A4.45,4.45,0,0,1,3,19.28a4.57,4.57,0,0,1-.39-.35l-.15-.17a1.88,1.88,0,0,1-.12-.18,1.44,1.44,0,0,1-.16-.29c-.06-.17-.09-.27-.09-.27"/><polygon class="cls-8" points="16.2 8.68 16.23 9.15 16 9.57 15.93 10 15.75 10.31 15.55 10.55 15.27 10.9 14.96 10.77 14.65 10.65 14.37 10.43 14.07 10.29 13.77 10.16 13.42 10.21 13.2 9.74 12.85 9.86 12.57 9.64 12.3 9.27 11.97 9.38 11.66 9.27 11.35 9.09 11.03 9.04 10.71 9.37 10.4 9.2 10.08 9.22 9.76 9.03 9.45 8.99 9.13 9.39 8.81 9.31 8.49 9.24 8.18 9.4 7.86 9.4 7.54 9.31 7.22 9.33 6.9 9.36 6.59 9.01 6.27 9.26 5.95 9.04 5.63 9.08 5.31 9.33 5 9.22 4.67 9.1 4.38 9.4 4.05 9.32 3.79 9.68 3.44 9.55 3.17 9.83 2.81 9.67 2.51 9.82 2.29 10.33 1.99 10.47 1.67 10.55 1.35 10.6 1.04 10.35 0.77 10.36 0.49 10.22 0.43 9.79 0.24 9.4 0.13 8.95 0.11 8.49 0.11 8.49 0.12 8.02 0.17 7.56 0.21 7.1 0.25 6.64 0.37 6.19 0.26 5.7 0.24 5.22 0.41 4.79 0.56 4.37 0.61 3.91 0.68 3.45 0.73 2.98 0.91 2.59 1.08 2.19 1.36 1.91 1.53 1.53 1.63 1.02 1.98 0.9 2.17 0.47 2.54 0.52 2.8 0.21 3.14 0.27 3.44 0.08 3.76 0.15 4.08 0.23 4.4 0.32 4.73 0.19 5.05 0.01 5.38 0.23 5.7 0.25 6.02 0.18 6.35 0.3 6.67 0.35 7 0.16 7.32 0.11 7.64 0.19 7.96 0 8.29 0.43 8.61 0.43 8.93 0.45 9.26 0.32 9.59 0.1 9.91 0.37 10.23 0.44 10.56 0.12 10.89 0.2 11.21 0.09 11.54 0.08 11.86 0.09 12.19 0.25 12.52 0.14 12.85 0.2 13.18 0.19 13.52 0.2 13.85 0.33 14.12 0.65 14.37 0.97 14.63 1.23 14.87 1.53 15.11 1.84 15.27 2.25 15.35 2.71 15.7 3.01 15.78 3.48 15.71 4 16.04 4.37 16.09 4.85 16.06 5.34 16.01 5.83 16.23 6.28 16.15 6.76 16.16 7.24 16.28 7.71 16.13 8.2 16.13 8.68 16.2 8.68"/><path class="cls-11" d="M8.37,6.33c.66,0,1.23-.84,1.82-1.1V2.72a4.93,4.93,0,0,0-1.86-.34h0a4.92,4.92,0,0,0-2.17.47v2.3c.72,0,1.41,1.15,2.18,1.18Z"/></g></g></g></g></svg>