<svg xmlns="http://www.w3.org/2000/svg" xmlns:xlink="http://www.w3.org/1999/xlink" viewBox="0 0 16.45 30.01"><defs><style>.cls-1{fill:none;}.cls-2{fill:#e2bf9c;}.cls-3{fill:#f2d1ac;}.cls-4{clip-path:url(#clip-path);}.cls-5{fill:#c09a80;}.cls-6{fill:#d3a789;}.cls-7{fill:#e0b89b;}.cls-8{fill:#432612;}.cls-9{fill:#f0a28a;}.cls-10{fill:#113529;}</style><clipPath id="clip-path"><rect class="cls-1" x="6.55" y="20.44" width="3.53" height="2.09"/></clipPath></defs><g id="Layer_2" data-name="Layer 2"><g id="avatars"><g id="row-01"><g id="avatar-01-21"><path class="cls-2" d="M8.3,18.3V30H1.94l-.16-.07c0-4.79,2.26-6.19,3.34-6.6a3.15,3.15,0,0,1,.56-.15c.38,0,.63-.5.8-1.26a3.49,3.49,0,0,0,.07-.37c0-.21.06-.44.09-.67s0-.29,0-.44c.05-.72.07-1.5.07-2.24,0,0,.86.09,1.55.09"/><path class="cls-3" d="M14.85,29.94l-.16.07H8.3V18.3h0c.69,0,1.55-.09,1.55-.09,0,.74,0,1.51.07,2.23,0,.14,0,.28,0,.42s.06.48.09.7h0c0,.1,0,.19,0,.28.17.81.43,1.35.83,1.35a3,3,0,0,1,.55.15c1.07.4,3.35,1.8,3.35,6.6"/><g class="cls-4"><path class="cls-5" d="M10.07,21.56h0a2.07,2.07,0,0,1-1.76,1h0a2.19,2.19,0,0,1-1.75-1c0-.21.06-.44.08-.67s0-.29,0-.44a6.88,6.88,0,0,0,1.61.21h0a7.06,7.06,0,0,0,1.64-.22c0,.14,0,.28,0,.42s.06.48.09.7"/></g><path class="cls-6" d="M8.21,4.87c-6.75,0-6.78,5.64-6.49,9.34C1.26,13.33-.1,13.6,0,15s2,2,2,1.86c.55,3,3.73,4.8,6.19,4.8h0V4.87h0"/><path class="cls-5" d="M.44,14.4a.63.63,0,0,1,1-.19.56.56,0,0,1,.16.62c-.05.17-.23.18-.19.45a.45.45,0,0,0,.27.39.7.7,0,0,1,.23.25.63.63,0,0,1,0,.38c0,.22-.37.05-.58-.05a4.1,4.1,0,0,1-.7-.56A1.21,1.21,0,0,1,.44,14.4"/><path class="cls-7" d="M8.24,4.87c6.74,0,6.78,5.64,6.48,9.34.47-.88,1.83-.61,1.72.77s-2,2-2,1.86c-.56,3-3.73,4.8-6.19,4.8H8.19V4.87h.05"/><path class="cls-5" d="M16,14.4a.63.63,0,0,0-1-.19.56.56,0,0,0-.16.62c0,.17.23.18.19.45a.45.45,0,0,1-.27.39.7.7,0,0,0-.23.25.63.63,0,0,0,0,.38c.05.22.37.05.58-.05a4.1,4.1,0,0,0,.7-.56A1.23,1.23,0,0,0,16,14.4"/><path class="cls-2" d="M8.26,6.46C6,6.46,4.42,7.1,3.44,8.38c-1.38,1.77-1.33,4.49-.82,6.43.15.6.24,2.2.34,2.79.48,2.63,3.39,4,5.3,4h.05V6.46H8.26"/><path class="cls-3" d="M13.08,8.38c-1-1.27-2.59-1.91-4.77-1.92V21.63c2.19,0,4.8-1.55,5.25-4,.1-.59.18-2.19.34-2.79.51-1.94.55-4.65-.82-6.43"/><path class="cls-8" d="M5.82,3.71A13,13,0,0,1,8.42,5.1a3.1,3.1,0,0,1,.84,1.29c.07.35.24,1,0,1.1s-.49-.79-.87-1.42A12.52,12.52,0,0,0,6.51,4.23Z"/><path d="M12.43,3.49c-.56.22-.31,0-.31,0s.29-.26,0-1.07a1.59,1.59,0,0,0-.95-1,2.12,2.12,0,0,1,.47,1.08c0,.5-.44,1.35-.67,1.22a1.25,1.25,0,0,1-.49-1,3,3,0,0,1,.28-1,8.9,8.9,0,0,1-.8.63.85.85,0,0,0-.38.7c0-.17.26-.7.17-1.06A1.44,1.44,0,0,1,9.85.65,4.22,4.22,0,0,1,11.46,0,14.52,14.52,0,0,0,9.59.09,3.58,3.58,0,0,0,7.48,1.21c-.55.72.09,1.78,0,1.71a3.39,3.39,0,0,1-.9-1.52,1.71,1.71,0,0,1,0-.75,3,3,0,0,0-1.12,3c.15.61,1.12,1.12,1.12,1.12S5.68,4.29,4.92,4,3.81,4,3.05,3.71a1.37,1.37,0,0,1-.87-1.08,2,2,0,0,0-.15,1,1.22,1.22,0,0,0,.7,1,3.19,3.19,0,0,0-.81,0c-.62,0-1,.79-1,.79a1.59,1.59,0,0,1,1.53-.31c.94.29.38.91,1.64,1.29.29.08.7-.17,1.18-.11a1.79,1.79,0,0,0-.43.34,3.33,3.33,0,0,0-.63,2.58,2.58,2.58,0,0,0,.87,1.44A2.09,2.09,0,0,1,5,8.77,3.25,3.25,0,0,1,7.18,7a1.88,1.88,0,0,0,0,2.22A4.49,4.49,0,0,1,7.26,7.9c.14-.43.65-1,1.21-.88s.8.05.79-.22a21.69,21.69,0,0,0,2.2.2c.56,0,1.13-.12,1.12-.85a2.73,2.73,0,0,1,0-2c.22-.52,1.25-.28,1.25-.28a1.18,1.18,0,0,0-1.39-.4"/><path d="M3.61,4.18a3.84,3.84,0,0,1,2,.18c.9.34,1.51.52,1.78.9s.86.85.51,1.11a1.85,1.85,0,0,1-1.32.21A9.73,9.73,0,0,1,5.16,5a4.59,4.59,0,0,0-1.55-.86"/><path class="cls-9" d="M14.85,29.94l-.16.07H1.94l-.16-.07c0-4.79,2.26-6.21,3.34-6.61a5.75,5.75,0,0,0,3.16,1.89h0s0,0,0,0a5.74,5.74,0,0,0,3.17-1.89c1.07.39,3.35,1.8,3.35,6.61"/><polygon class="cls-10" points="6.94 26.34 6.88 26.25 6.17 26.74 5.45 26.25 5.39 26.34 6.07 26.81 5.39 27.27 5.45 27.36 6.17 26.87 6.88 27.36 6.94 27.27 6.26 26.81 6.94 26.34"/><polygon class="cls-10" points="11.35 26.34 11.29 26.25 10.57 26.74 9.86 26.25 9.8 26.34 10.47 26.81 9.8 27.27 9.86 27.36 10.57 26.87 11.29 27.36 11.35 27.27 10.67 26.81 11.35 26.34"/><polygon class="cls-10" points="9.81 28.13 9.09 28.81 8.36 28.13 7.64 28.81 6.91 28.13 6.13 28.88 6.21 28.96 6.91 28.29 7.63 28.96 7.64 28.95 7.65 28.96 8.36 28.29 9.09 28.96 9.09 28.95 9.1 28.96 9.81 28.29 10.54 28.96 10.61 28.88 9.81 28.13"/><path class="cls-10" d="M4.52,23.61c.83.92,2.48,2.18,3.75,2.25h.06c1.28-.07,2.92-1.33,3.75-2.25a3.38,3.38,0,0,0-.59-.28,5.74,5.74,0,0,1-3.17,1.89,0,0,0,0,1,0,0h0a5.75,5.75,0,0,1-3.16-1.89,5.06,5.06,0,0,0-.59.28"/><path class="cls-8" d="M4.52,15.67a0,0,0,1,1-.08,0,0,0,0,0,1,.08,0"/><path class="cls-8" d="M4.9,16.44a0,0,0,0,1,0,0,0,0,0,0,1-.05,0s0,0,.05,0a0,0,0,0,1,0,0"/><path class="cls-8" d="M3.74,16.21s0,.05,0,.05a0,0,0,0,1,0-.05,0,0,0,0,1,0,0,0,0,0,0,1,0,0"/><path class="cls-8" d="M4.81,17.21s0,.05,0,.05a0,0,0,0,1,0-.05,0,0,0,0,1,0,0,0,0,0,0,1,0,0"/><path class="cls-8" d="M5.39,15.12s0,0,0,0a0,0,0,0,1,0,0,0,0,0,0,1,0,0,0,0,0,0,1,0,0"/><path class="cls-8" d="M5.44,16a0,0,0,0,1-.05,0,0,0,0,0,1,0,0,0,0,0,0,1,0,0,0,0,0,0,1,.05,0"/><path class="cls-8" d="M6.17,15.66a0,0,0,0,1,0,0s0,0,0,0a0,0,0,0,1,0,0,0,0,0,0,1,0,0"/><path class="cls-8" d="M6.8,16.4a0,0,0,0,1,0,0,0,0,0,0,1,0,0,0,0,0,0,1,0,0,0,0,0,0,1,0,0"/><path class="cls-8" d="M5.85,16.93a0,0,0,0,1,0,0,0,0,0,0,1,0,0,0,0,0,0,1,0,0s0,0,0,0"/><path class="cls-8" d="M7.54,15.12a0,0,0,0,1,0,0s0,0,0,0,0,0,0,0a0,0,0,0,1,0,0"/><path class="cls-8" d="M7.73,16.4a0,0,0,0,1-.05,0,0,0,0,0,1,0,0,0,0,0,0,1,0,0,0,0,0,0,1,.05,0"/><path class="cls-8" d="M7.36,17a0,0,0,1,1-.08,0,0,0,0,0,1,.08,0,0,0,0,0,1,0,0"/><path class="cls-8" d="M12,15.68a0,0,0,0,0,0,0,0,0,0,1,0,0-.08,0,0,0,0,0,0,0"/><path class="cls-8" d="M11.62,16.44a0,0,0,0,0,0,0s0,0,0,0a0,0,0,0,0,0,0,0,0,0,0,0,0,0"/><path class="cls-8" d="M12.77,16.22a0,0,0,0,0,.05,0,0,0,0,0,0,0-.08,0,0,0,0,0-.05,0"/><path class="cls-8" d="M11.7,17.22a0,0,0,0,0,.05,0,0,0,0,0,0,0-.08,0,0,0,0,0-.05,0"/><path class="cls-8" d="M11.12,15.13a0,0,0,0,0,0,0,0,0,0,0,0,.05,0,0,0,0,0,0-.05-.05,0,0,0,0,0,0,.05"/><path class="cls-8" d="M11.08,16a0,0,0,0,0,0,0,0,0,0,1,0,0-.08,0,0,0,0,0,0,0"/><path class="cls-8" d="M10.35,15.67a0,0,0,0,0,0,0,0,0,0,0,0,0,0,0,0,0,0,0,0-.05s0,0,0,.05"/><path class="cls-8" d="M9.72,16.4a0,0,0,0,0,0,0,0,0,0,1,0,0-.08,0,0,0,0,0,0,0"/><path class="cls-8" d="M10.67,16.93a0,0,0,1,0,.08,0,0,0,0,0,0-.08,0"/><path class="cls-8" d="M9,15.13a0,0,0,0,0,.08,0,0,0,0,1,0-.08,0"/><path class="cls-8" d="M8.79,16.4a0,0,0,0,0,0,0,0,0,0,1,0,0-.08,0,0,0,0,0,0,0"/><path class="cls-8" d="M9.16,17a0,0,0,0,0,0,0,0,0,0,0,0,0,0,0,0,0,0,0,0-.05s0,0,0,.05"/><path d="M8.41,4.77h0c-7,0-7.11,6.54-6.81,10.22a1.43,1.43,0,0,1,.41.56c.22.54.3.44.3.44s0-2.11,0-2.7S3.91,9.42,5,9.06s2.11,1.73,3.3,1.73h.16c1.19,0,2.19-2.07,3.3-1.73s2.73,3.64,2.73,4.23,0,2.7,0,2.7.08.1.3-.44a1.43,1.43,0,0,1,.41-.56C15.53,11.31,15.39,4.77,8.41,4.77Z"/></g></g></g></g></svg>