<svg xmlns="http://www.w3.org/2000/svg" viewBox="0 0 15.35 25.27"><defs><style>.cls-1{fill:#e1bf9c;}.cls-2{fill:#f2d1ac;}.cls-3,.cls-5{fill:#c09a80;}.cls-3{opacity:0.7;}.cls-4{fill:#d3a789;}.cls-6{fill:#e0b89b;}.cls-7{fill:#c6696e;}.cls-8{fill:#d87373;}.cls-9{fill:#f9f9fa;}.cls-10{fill:#35251d;}</style></defs><g id="Layer_2" data-name="Layer 2"><g id="avatars"><g id="row-01"><g id="avatar-01-07"><path class="cls-1" d="M7.58,14.69V25.27H1.47l-.15-.06c0-3.86,1.73-5.29,2.84-5.81a3.46,3.46,0,0,1,.9-.29h.11c.31-.08.52-.51.66-1.12,0-.11,0-.22.07-.33S6,17.25,6,17s0-.26,0-.39c.06-.65.07-1.35.07-2C6.09,14.62,6.92,14.69,7.58,14.69Z"/><path class="cls-2" d="M13.87,25.21l-.15.06H7.58V14.69h0c.67,0,1.5-.07,1.5-.07,0,.66,0,1.36.07,2,0,.12,0,.25,0,.38s.05.43.08.63h0c0,.09,0,.17.05.25a1.8,1.8,0,0,0,.59,1.18l.07,0a.32.32,0,0,0,.14,0,3.19,3.19,0,0,1,.73.22C12,19.78,13.87,21.15,13.87,25.21Z"/><path class="cls-3" d="M9.35,17.25h0a2,2,0,0,1-1.67.91h0A2.13,2.13,0,0,1,6,17.26a6.37,6.37,0,0,0,.09-.65c0-.13,0-.27,0-.41a6.57,6.57,0,0,0,1.52.2h0a6.37,6.37,0,0,0,1.55-.22c0,.14,0,.28,0,.41S9.31,17,9.35,17.25Z"/><path class="cls-4" d="M7.66,2.2c-6.29,0-6.33,5.06-6,8.37-.43-.78-1.71-.49-1.6.75s1.9,1.73,1.88,1.6c.51,2.69,3.48,4.19,5.77,4.4h0V2.21Z"/><path class="cls-5" d="M.32,10.8a.62.62,0,0,1,.92-.17.48.48,0,0,1,.15.55c0,.16-.22.17-.17.42a.42.42,0,0,0,.25.35.58.58,0,0,1,.22.22.71.71,0,0,1,0,.35c-.05.19-.35,0-.56,0A4.49,4.49,0,0,1,.5,12,1.07,1.07,0,0,1,.32,10.8Z"/><path class="cls-6" d="M7.69,2.2c6.3,0,6.33,5.06,6.05,8.37.44-.78,1.71-.49,1.61.75s-1.91,1.73-1.88,1.6C13,15.61,10,17.11,7.69,17.32H7.64V2.21Z"/><path class="cls-5" d="M15.08,10.8a.63.63,0,0,0-.93-.17.5.5,0,0,0-.14.55c0,.16.22.17.17.42a.42.42,0,0,1-.25.35.58.58,0,0,0-.22.22.71.71,0,0,0,0,.35c.05.19.35,0,.55,0A4.09,4.09,0,0,0,14.9,12,1.07,1.07,0,0,0,15.08,10.8Z"/><path class="cls-1" d="M7.63,3.64c-2.1,0-3.64.58-4.58,1.73C1.76,7,1.8,9.42,2.29,11.17c.14.54.22,2,.32,2.52.45,2.37,3.2,3.64,5,3.64h0V3.64Z"/><path class="cls-2" d="M12.19,5.37A5.53,5.53,0,0,0,7.68,3.64V17.32c2.07,0,4.54-1.4,5-3.63.1-.53.17-2,.32-2.52C13.45,9.42,13.5,7,12.19,5.37Z"/><path class="cls-7" d="M8.74,15.18a1.69,1.69,0,0,1-1.06.51,1.59,1.59,0,0,1-1-.5,6.59,6.59,0,0,1,1-.08A8.21,8.21,0,0,1,8.74,15.18Z"/><path class="cls-8" d="M8,14.94a.27.27,0,0,0-.29.23.29.29,0,0,0-.3-.23,4.2,4.2,0,0,0-.77.24s.58.06.75.06.31.07.32-.06c0,.13.12.08.28.08s.78-.08.78-.08A4.2,4.2,0,0,0,8,14.94Z"/><path class="cls-9" d="M13.87,25.21l-.15.06H7.26c-.06-.28-.13-.6-.19-.9l-.26-1.22s.19-.16.46-.39l.4-.33A17.65,17.65,0,0,0,10.9,19a4,4,0,0,1,1.41,1.05,5.16,5.16,0,0,1,.94,1.5A9.51,9.51,0,0,1,13.87,25.21Z"/><path class="cls-9" d="M7.35,25.27H5.21a28.19,28.19,0,0,1-2.53-4.75A4.49,4.49,0,0,1,4,19.26,18.15,18.15,0,0,0,7.35,25.27Z"/><path class="cls-9" d="M1.33,25.14l.14.06H7.94c.06-.28.12-.59.19-.9l.25-1.22s-.19-.15-.46-.39a4.92,4.92,0,0,1-.39-.33A17.71,17.71,0,0,1,4.29,19,4.12,4.12,0,0,0,2.88,20,5.07,5.07,0,0,0,2,21.5,9.32,9.32,0,0,0,1.33,25.14Z"/><path class="cls-10" d="M3.24,9Z"/><path class="cls-10" d="M13.94,3.58c-.56-.87-.61-.63-.61-.63s.57-2.37-3-2.9A9.07,9.07,0,0,0,9,0L9.47.5A10,10,0,0,0,5.16.25a5.7,5.7,0,0,0-4,2.58A6.52,6.52,0,0,0,.27,5.21L1.19,4A6.14,6.14,0,0,0,.27,8.14C.82,12.28,2.73,13,2.73,13S1.41,10.56,2.28,9A5.18,5.18,0,0,1,6.35,6.17,3.71,3.71,0,0,0,3.25,9h0A2,2,0,0,1,4.48,7.87c.58-.23,1.33-.22,2.2-.45a4.65,4.65,0,0,0-.92,2.15A5.51,5.51,0,0,1,8.4,7.62l.36-.13a2.31,2.31,0,0,0-.18,2.16s-.07-1.09,2.29-1.77c1.36-.39,1.57-1.16,1.57-1.16A4.07,4.07,0,0,0,12.62,8c.21.57.81.94.85,1.45A10.56,10.56,0,0,1,13,12.15l.76-.6a22.62,22.62,0,0,0,.77-4.77A7.13,7.13,0,0,0,13.94,3.58Z"/></g></g></g></g></svg>