<svg xmlns="http://www.w3.org/2000/svg" viewBox="0 0 16.48 28.93"><defs><style>.cls-1{fill:#e1bf9c;}.cls-2{fill:#f2d1ac;}.cls-3,.cls-5{fill:#c09a80;}.cls-3{opacity:0.7;}.cls-4{fill:#d3a789;}.cls-6{fill:#e0b89b;}.cls-7{fill:#c6696e;}.cls-8{fill:#d87373;}.cls-9{fill:#35251d;}.cls-10{fill:#5c4c52;}.cls-11{fill:#965458;}.cls-12{fill:#abc88d;}</style></defs><g id="Layer_2" data-name="Layer 2"><g id="avatars"><g id="row-01"><g id="avatar-01-04"><path class="cls-1" d="M8.32,18.32V28.93H2.56l-.14-.06C2.42,23.18,6,22.75,6,22.75H6l.07,0c.29-.08.49-.5.62-1.12a1.61,1.61,0,0,0,.06-.33,5.82,5.82,0,0,0,.08-.62c0-.12,0-.26,0-.39.05-.65.07-1.36.07-2C6.92,18.24,7.69,18.32,8.32,18.32Z"/><path class="cls-2" d="M14.24,28.87l-.14.06H8.32V18.32h0c.63,0,1.41-.08,1.41-.08,0,.67,0,1.37.07,2,0,.14,0,.26,0,.39s.05.43.08.63h0c0,.09,0,.17.05.26a1.79,1.79,0,0,0,.55,1.17l.07,0,.12,0S14.24,23.18,14.24,28.87Z"/><path class="cls-3" d="M9.92,21.27h0a1.87,1.87,0,0,1-1.59.87h0a2,2,0,0,1-1.59-.87,5.63,5.63,0,0,0,.08-.61c0-.13,0-.26,0-.4a6.05,6.05,0,0,0,1.45.19h0a6.38,6.38,0,0,0,1.49-.2l0,.38C9.87,20.86,9.89,21.07,9.92,21.27Z"/><path class="cls-4" d="M8.32,6.92c-6,0-6.05,4.82-5.78,8-.41-.74-1.63-.47-1.53.72s1.82,1.65,1.79,1.52c.49,2.57,3.33,4,5.52,4.2h0V6.92Z"/><path class="cls-5" d="M1.31,15.12A.59.59,0,0,1,2.19,15a.45.45,0,0,1,.14.52c0,.16-.21.17-.17.4a.44.44,0,0,0,.25.34.45.45,0,0,1,.2.21.48.48,0,0,1,0,.33c-.05.18-.33,0-.53-.05a4,4,0,0,1-.63-.49A1,1,0,0,1,1.31,15.12Z"/><path class="cls-6" d="M8.35,6.92c6,0,6,4.82,5.77,8,.41-.74,1.63-.47,1.53.72s-1.82,1.65-1.79,1.52c-.49,2.57-3.33,4-5.51,4.2h0V6.92Z"/><path class="cls-5" d="M15.39,15.12a.59.59,0,0,0-.88-.16.45.45,0,0,0-.14.52c0,.16.21.17.17.4a.42.42,0,0,1-.25.34.45.45,0,0,0-.2.21.63.63,0,0,0,0,.33c0,.18.34,0,.53-.05a3.57,3.57,0,0,0,.63-.49A1,1,0,0,0,15.39,15.12Z"/><path class="cls-1" d="M8.28,8.29A5.34,5.34,0,0,0,3.92,9.93c-1.24,1.53-1.19,3.87-.74,5.54.14.52.22,1.9.31,2.4.44,2.27,3.06,3.48,4.79,3.48h.05v-13Z"/><path class="cls-2" d="M12.64,9.94A5.29,5.29,0,0,0,8.33,8.29V21.34c2,0,4.34-1.34,4.74-3.47.1-.5.17-1.88.31-2.4C13.84,13.8,13.88,11.47,12.64,9.94Z"/><path class="cls-7" d="M9.34,19.3a1.59,1.59,0,0,1-1,.48,1.52,1.52,0,0,1-1-.47,6,6,0,0,1,1-.08A7.32,7.32,0,0,1,9.34,19.3Z"/><path class="cls-8" d="M8.61,19.07a.26.26,0,0,0-.28.22A.27.27,0,0,0,8,19.07a3.83,3.83,0,0,0-.72.23s.55.06.71.06.29.06.3-.06c0,.12.11.07.27.07s.74-.07.74-.07A4,4,0,0,0,8.61,19.07Z"/><path class="cls-9" d="M2.43,19.67v0S2.46,19.71,2.43,19.67Z"/><path class="cls-10" d="M14.25,28.87a.55.55,0,0,0-.14.06H2.58l-.14-.06a9.35,9.35,0,0,1,.48-3.17,4.72,4.72,0,0,1,5.41.55s2.23-1.82,4.5-.86a3.3,3.3,0,0,1,1.07.72A9.71,9.71,0,0,1,14.25,28.87Z"/><path class="cls-11" d="M6.39,21.66c0,.15.77,0,.51,2.11s-2.59,1.74-3.26,2.85a3.63,3.63,0,0,0-.43,2.31h-1l.21-.71a2.71,2.71,0,0,1,.16-1.79c.43-.9,0-1.43,0-1.81a2.41,2.41,0,0,1,1.18-1.43A8.69,8.69,0,0,1,5,23c.68-.16,1.45-.54,1.45-1S6.39,21.66,6.39,21.66Z"/><path class="cls-11" d="M10.25,21.61c0,.14-.77,0-.5,2.1s2.59,1.74,3.25,2.86a3.64,3.64,0,0,1,.4,2.36h1l-.12-.76a3,3,0,0,0-.21-1.8c-.43-.9,0-1.43,0-1.81a2.41,2.41,0,0,0-1.18-1.43c-.54-.19-.53,0-1.21-.18s-1.43-.59-1.43-1S10.25,21.61,10.25,21.61Z"/><path class="cls-10" d="M16.09,4.59c-.1-.27.39,1.91-.92,2.26a4.64,4.64,0,0,0-.64.23,2.51,2.51,0,0,1,.07-1.24,2.12,2.12,0,0,0-.16-1.73,1.72,1.72,0,0,0-1-.73,1.06,1.06,0,0,1,.48,1.26c-.19.57-.54.81-.74,1.29a3,3,0,0,0-.18.6A.92.92,0,0,0,12.88,6c-.23-.35-.94-.92-.79-1.62a2.54,2.54,0,0,0-.61-2.74,2,2,0,0,1,0,1.36,1.42,1.42,0,0,1-.76.72,1.21,1.21,0,0,1-.24-.92A2.56,2.56,0,0,0,9.92,0,2.16,2.16,0,0,1,10,1.4C9.62,2.13,9,2,8.54,2.56a3.47,3.47,0,0,0-.3.37A3.37,3.37,0,0,0,8,2.56C7.45,2,6.86,2.13,6.53,1.4A2.1,2.1,0,0,1,6.57,0,2.58,2.58,0,0,0,6,2.78a1.16,1.16,0,0,1-.23.92A1.4,1.4,0,0,1,5,3,2.1,2.1,0,0,1,5,1.62a2.56,2.56,0,0,0-.61,2.74c.16.7-.56,1.27-.79,1.62a.92.92,0,0,0-.12.55,3,3,0,0,0-.18-.6c-.19-.48-.55-.72-.73-1.29A1.06,1.06,0,0,1,3,3.38a1.75,1.75,0,0,0-1,.73,2.16,2.16,0,0,0-.16,1.73A2.3,2.3,0,0,1,2,7.08a4.21,4.21,0,0,0-.64-.23C0,6.5.5,4.32.4,4.59A4.27,4.27,0,0,0,.14,7.3c.2.58.36.79,1.2,1.59s.49.4,1,1.22,0,1.32,0,2.33h0c0,1,2.7,1.89,6,1.89s6-.86,6-1.92a.74.74,0,0,0-.05-.25c-.07-.85-.4-1.34,0-2.09s.1-.41,1-1.22,1-1,1.21-1.59A4.34,4.34,0,0,0,16.09,4.59Z"/><path class="cls-10" d="M7.68,13.85A2,2,0,0,1,5.91,15.5a1.61,1.61,0,0,1-1.65-1.41c0-.75,0-1.38.81-1.59C6.47,12.13,7.68,13.1,7.68,13.85Z"/><path class="cls-10" d="M9,13.89a2,2,0,0,0,1.78,1.65,1.6,1.6,0,0,0,1.64-1.41c0-.74,0-1.38-.8-1.59C10.19,12.17,9,13.14,9,13.89Z"/><path class="cls-12" d="M7.08,14a1.3,1.3,0,0,1-1.18,1.1,1.08,1.08,0,0,1-1.1-.93c0-.5,0-.92.54-1.07C6.27,12.84,7.08,13.48,7.08,14Z"/><path class="cls-12" d="M9.54,14.05a1.31,1.31,0,0,0,1.18,1.11,1.08,1.08,0,0,0,1.1-.94c0-.5,0-.92-.54-1.06C10.35,12.91,9.54,13.55,9.54,14.05Z"/></g></g></g></g></svg>